<svg width="32" height="32" viewBox="0 0 32 32" fill="none" xmlns="http://www.w3.org/2000/svg">
<path d="M4 5.3335V1.3335H6.66667V5.3335H10.6667V8.00016H6.66667V12.0002H4V8.00016H0V5.3335H4ZM8 13.3335V9.3335H12V5.3335H21.3333L23.7733 8.00016H28C29.4667 8.00016 30.6667 9.20016 30.6667 10.6668V26.6668C30.6667 28.1335 29.4667 29.3335 28 29.3335H6.66667C5.2 29.3335 4 28.1335 4 26.6668V13.3335H8ZM17.3333 25.3335C21.0133 25.3335 24 22.3468 24 18.6668C24 14.9868 21.0133 12.0002 17.3333 12.0002C13.6533 12.0002 10.6667 14.9868 10.6667 18.6668C10.6667 22.3468 13.6533 25.3335 17.3333 25.3335ZM13.0667 18.6668C13.0667 21.0268 14.9733 22.9335 17.3333 22.9335C19.6933 22.9335 21.6 21.0268 21.6 18.6668C21.6 16.3068 19.6933 14.4002 17.3333 14.4002C14.9733 14.4002 13.0667 16.3068 13.0667 18.6668Z" fill="#ABABAB"/>
</svg>
