<svg width="36" height="36" viewBox="0 0 36 36" fill="none" xmlns="http://www.w3.org/2000/svg">
<path d="M17.9996 33.8824C20.0856 33.8851 22.1517 33.4755 24.079 32.6771C26.0063 31.8788 27.7568 30.7075 29.23 29.2304C30.707 27.7573 31.8783 26.0068 32.6767 24.0795C33.475 22.1522 33.8846 20.0861 33.8819 18C33.8846 15.9139 33.475 13.8479 32.6766 11.9206C31.8783 9.9933 30.707 8.24277 29.23 6.7696C27.7568 5.29256 26.0063 4.12122 24.079 3.32288C22.1517 2.52454 20.0856 2.11496 17.9996 2.11766C15.9135 2.115 13.8474 2.52461 11.9201 3.32294C9.99284 4.12127 8.24231 5.2926 6.76914 6.7696C5.29214 8.24277 4.12082 9.9933 3.32248 11.9206C2.52415 13.8479 2.11454 15.9139 2.1172 18C2.1145 20.0861 2.52408 22.1522 3.32242 24.0795C4.12076 26.0068 5.2921 27.7573 6.76914 29.2304C8.24231 30.7074 9.99284 31.8787 11.9201 32.6771C13.8474 33.4754 15.9135 33.885 17.9996 33.8824V33.8824Z" stroke="#3D3D3D" stroke-width="3" stroke-linejoin="round"/>
<path fill-rule="evenodd" clip-rule="evenodd" d="M17.999 28.3236C18.5255 28.3236 19.0305 28.1144 19.4028 27.7421C19.7751 27.3698 19.9843 26.8648 19.9843 26.3383C19.9843 25.8117 19.7751 25.3068 19.4028 24.9344C19.0305 24.5621 18.5255 24.353 17.999 24.353C17.4724 24.353 16.9675 24.5621 16.5952 24.9344C16.2228 25.3068 16.0137 25.8117 16.0137 26.3383C16.0137 26.8648 16.2228 27.3698 16.5952 27.7421C16.9675 28.1144 17.4724 28.3236 17.999 28.3236Z" fill="#3D3D3D"/>
<path d="M18 8.47061V21.1765" stroke="#3D3D3D" stroke-width="3" stroke-linecap="round" stroke-linejoin="round"/>
</svg>
