<svg width="143" height="342" viewBox="0 0 143 342" fill="none" xmlns="http://www.w3.org/2000/svg">
<g clip-path="url(#clip0_1495_29986)">
<path fill-rule="evenodd" clip-rule="evenodd" d="M72 136H75C75 136 76 136 76 137H75H72C71 137 69 138 69 140L65 155L69 158L71 156C71 156 73 156 74 156L77 159L78 158C79 157 80 157 81 158L86 163C87 164 87 165 86 166L85 167L87 170C90 173 90 178 87 180L84 184H82L81 183L80 184L82 186C84 186 86 187 87 188C90 191 90 195 87 198C84 201 80 201 78 198C76 197 75 195 76 193L55 172C53 173 51 172 50 170C47 168 47 163 50 161C53 158 57 158 60 161C60 162 61 162 61 163L67 139C68 137 70 135 72 136ZM74 160C74 161 74 161 74 162L71 164H70V163L73 160C73 160 73 160 74 160ZM76 163C77 163 77 164 76 164L74 167C73 167 73 167 73 167C72 166 72 166 73 165L75 163H76ZM79 165C79 166 79 166 79 167L76 169H75V168L78 165C78 165 78 165 79 165ZM81 168C82 168 82 169 81 169L79 172C78 172 78 172 78 172C77 171 77 171 78 170L80 168C81 168 81 168 81 168ZM57 164C58 165 58 167 57 168C56 169 54 169 53 168C52 167 52 165 53 164C54 163 56 163 57 164ZM54 166C54 167 55 167 56 166V165C55 164 54 164 54 165V166ZM84 191C85 192 85 194 84 195C83 196 81 196 80 195C79 194 79 192 80 191C81 190 83 190 84 191ZM82 194H83C84 194 84 193 83 192H82C81 193 81 194 82 194ZM85 165C85 165 85 164 84 164L80 159H79L78 160L84 166L85 165ZM83 182L86 179C88 177 88 174 86 171L73 158C72 157 72 157 72 158L67 162V163L79 175C80 176 80 177 79 178L82 181L83 182ZM69 167L65 170L78 183L80 182L78 180C77 179 77 178 78 177C78 176 78 176 78 176L69 167ZM79 190H78C78 190 78 190 78 191C77 191 77 192 77 192C77 192 77 192 77 193C77 194 78 196 79 197C81 199 84 199 86 197C88 195 88 192 86 190C85 188 83 188 82 188H81C81 188 80 189 79 189C79 189 79 189 79 190ZM76 191V190L75 188C75 188 75 188 75 187H76L77 189C77 188 77 188 78 188C78 188 78 188 79 188C79 187 79 187 79 187H80L61 168V169C61 169 61 169 60 169C60 170 60 170 60 170C60 171 60 171 59 171L72 183V184C72 185 71 185 71 184L58 172H57L76 191ZM58 162C56 160 53 160 51 162C49 164 49 167 51 169C52 170 54 171 55 171C56 171 56 171 56 171C56 171 57 171 57 170C58 170 58 170 58 170C58 169 58 169 58 169H59C59 168 60 167 60 166C60 165 60 163 58 162ZM62 166L64 169L67 165L66 164C65 163 65 162 66 161L67 159L65 156L62 166Z" fill="#C0C0C0" fill-opacity="0.5"/>
<path fill-rule="evenodd" clip-rule="evenodd" d="M126 103L143 120V123L125 104C124 104 123 104 123 104L108 120L111 123C112 124 112 125 111 125H110L106 121L105 122C104 123 104 124 105 124L136 156C137 156 138 156 138 156L139 155L116 131V130C117 129 117 129 118 130L141 153L143 151V154L140 157C138 159 136 159 135 157L127 149C127 150 126 152 126 153L130 157C131 159 131 162 130 163L124 169C122 170 121 170 120 169L119 168L116 171C116 171 115 171 114 171L111 168C111 167 111 167 111 166L114 163L97 147L95 149C94 150 93 150 93 149L90 146C89 146 89 145 90 145L92 142L91 141C90 140 90 138 91 137L97 131C99 129 102 129 103 131L107 135C109 134 110 134 112 134L103 126C102 124 102 122 103 121L121 103C123 101 125 101 126 103ZM115 127V128C114 129 113 129 113 128V127C113 126 114 126 115 127ZM110 155L106 151C106 151 106 150 106 149C107 149 107 149 108 149L111 153C112 153 112 154 111 155H110ZM113 146L115 147C115 148 115 149 115 149C114 149 113 149 113 149L112 148C111 147 111 146 112 146H113ZM124 147L123 145C123 147 123 149 122 150L124 152C125 149 124 147 124 147ZM119 141C116 140 114 140 112 140L120 148C121 147 121 145 120 142L119 141ZM114 167L115 168L117 167L115 165L114 167ZM92 145L94 147L96 145L94 144L92 145ZM93 139L121 168C122 168 122 168 122 168L125 165L96 136L93 139ZM99 133L97 134L126 163L128 162C129 161 129 160 128 159L102 133C101 132 100 132 99 133ZM109 137L111 139C112 138 113 138 115 138L114 137C114 136 112 136 109 137Z" fill="#C0C0C0" fill-opacity="0.5"/>
<path fill-rule="evenodd" clip-rule="evenodd" d="M102 212C102 210 101 209 100 208L97 205C97 205 97 205 96 205C95 205 94 205 93 204C92 203 92 201 93 200L112 182C112 181 113 181 113 181L115 179L116 180L117 179L120 178L121 179L125 175L126 176L122 180H123L122 184L121 185L119 187C120 188 120 188 120 188L118 197V198L114 202V204L115 205C116 206 116 207 115 208L114 209L116 211C117 212 118 212 118 212C120 212 121 212 121 213C122 214 121 215 121 216L118 218L121 221L120 222L125 227C125 227 126 227 127 227L143 211V213L128 228C127 229 125 229 124 228L119 223L118 224L115 221C114 223 112 223 110 221L105 216C104 215 103 213 102 212ZM143 206L130 219C129 220 127 220 126 219C124 217 124 215 126 214L140 200C139 199 139 198 140 197L142 194L143 195V197L142 196L141 198C140 198 140 199 141 200C142 200 142 200 143 200V201C142 202 141 202 141 201L127 215C126 216 126 217 127 218H129L143 204V206ZM138 191L129 200L128 199L137 190L138 191ZM129 196L128 197L126 195H125L124 194L126 192L127 193V194L129 196ZM132 193L131 194L129 192H128L127 191L129 189L130 190V191L132 193ZM135 190L134 191L132 189H131L130 188L132 186L133 187V188L135 190ZM141 193L131 203C130 204 129 204 128 203L121 196C121 195 121 194 121 193L131 183C132 182 134 182 134 183L141 190C142 191 142 192 141 193ZM133 184C133 184 133 184 132 184L122 194C122 195 122 195 122 195L129 202H130L140 192C140 191 140 191 140 191L133 184ZM111 214C112 213 114 213 114 214C115 215 115 216 114 217C114 218 112 218 111 217C111 216 111 215 111 214ZM113 216C114 216 114 216 113 215C113 215 113 215 112 215C112 216 112 216 112 216C113 217 113 217 113 216ZM111 191L109 193L108 192L110 190L111 191ZM113 193L111 195L110 194L112 192L113 193ZM114 194L112 196L111 195L113 193L114 194ZM116 196L114 198L113 197L115 195L116 196ZM118 182L119 181L120 182L119 183L120 184L121 183V181L120 179L118 180L117 181L118 182ZM118 186L119 185L115 181L114 182L118 186ZM113 208L114 207C115 207 115 207 114 206L113 205V203L111 205C111 205 111 205 111 206L113 208ZM118 222L119 221L117 219L116 220L118 222ZM114 220L117 217L120 215V214C120 213 119 213 119 213C117 213 116 213 115 212L110 207C109 206 109 205 110 204L117 197L118 188L113 183L94 201C94 202 94 202 94 203C94 204 95 204 96 204C97 203 98 204 98 204L101 207C102 208 103 210 104 211C104 213 105 214 106 215L111 220C112 221 114 221 114 220Z" fill="#C0C0C0" fill-opacity="0.5"/>
<path fill-rule="evenodd" clip-rule="evenodd" d="M131 237L143 249V251L130 238C129 237 127 237 126 238L121 243L143 265V268L120 245L93 271V272L123 302C124 303 124 303 125 302L143 284V287L126 304C125 305 123 305 122 304L120 306H119L90 277V276L92 274C91 273 91 271 92 270L125 237C127 235 130 235 131 237ZM131 265C136 270 136 278 131 283C130 284 128 285 127 285C120 288 113 285 110 278C109 275 109 271 111 268C111 267 111 267 111 267C115 262 122 259 128 263C129 263 130 264 131 265ZM129 266C125 262 119 262 114 266C114 267 113 267 113 268C113 269 113 269 114 270C114 271 115 272 116 273C117 274 118 275 119 275C120 275 122 276 123 277C124 279 126 281 127 283C132 281 134 274 131 269C131 268 130 267 129 266ZM114 281C117 284 121 285 125 284C124 282 123 280 121 278C120 278 119 277 118 277C117 276 115 275 114 274C113 273 112 272 112 270C111 274 112 278 114 281ZM133 263C139 269 139 279 133 285C127 291 117 291 111 285C105 279 105 269 111 263C117 257 127 257 133 263ZM112 283C118 288 126 288 131 283C137 278 137 269 131 264C126 259 118 259 112 264C107 269 107 278 112 283ZM127 244L126 243C126 242 126 242 126 241H127L129 243C129 243 129 243 129 244C128 244 128 244 127 244ZM131 248L130 247C130 246 130 246 130 245H131L133 247V248C132 248 132 248 131 248ZM134 253C133 252 133 250 134 249C135 248 137 248 138 249C139 250 139 252 138 253C137 255 135 255 134 253ZM137 251C136 250 136 250 135 251V252C136 252 136 252 137 252V251ZM140 259C138 258 138 256 140 255C140 254 142 254 143 254V259C142 260 140 260 140 259ZM142 256H141V257C141 258 142 258 142 257C143 257 143 256 142 256ZM92 276L119 304L121 302L93 275L92 276Z" fill="#C0C0C0" fill-opacity="0.5"/>
<path fill-rule="evenodd" clip-rule="evenodd" d="M122 32L94 4C93 3 92 2 92 1H94C94 2 94 2 95 3L123 31C124 32 125 32 126 31L143 14V17L127 32C126 34 123 34 122 32ZM142 6L139 3C138 2 138 2 138 1H140C140 1 140 1 140 2L143 4V5V6C142 6 142 6 142 6ZM110 1L117 8L125 16V17L118 23H117L103 8C102 8 102 8 102 8C102 8 102 7 103 7L109 1H110ZM116 10H113V9V8C114 8 114 8 115 8L110 3C110 5 110 9 113 12C117 16 121 16 122 16L116 10ZM104 8L118 21L122 18C119 18 116 17 112 13C109 10 108 6 108 4L104 8ZM123 29L120 26C119 25 119 24 120 24L127 17V16L112 1H114L128 15C129 16 129 17 128 18L121 25L124 28H125L143 10V12L126 29C125 30 124 30 123 29ZM107 1L102 6C101 6 100 6 100 6L97 3C96 2 96 2 96 1H98C98 1 98 1 98 2L101 4L104 1H107Z" fill="#C0C0C0" fill-opacity="0.5"/>
<path fill-rule="evenodd" clip-rule="evenodd" d="M81 230C81 230 81 231 80 231C80 232 79 233 78 233C76 233 74 233 73 232C72 231 71 230 71 228C71 225 72 223 75 222C76 222 76 222 77 222C78 222 79 222 80 223C81 223 82 224 82 225C83 226 82 228 81 230ZM83 256C82 253 83 251 85 251C87 251 88 251 89 252C90 253 91 255 91 256C90 257 90 258 89 259C88 260 87 260 86 259C85 259 84 259 84 258C83 257 83 257 83 256ZM86 259C87 259 88 259 88 258C89 258 89 257 90 256C90 255 89 254 89 253C88 252 87 252 86 252C85 252 85 252 84 253C84 253 83 254 84 256V257C85 258 85 258 86 259ZM78 259C78 258 77 257 77 255C77 254 77 253 78 252C78 251 79 250 81 249C81 248 81 248 80 248L79 249C78 249 77 249 77 248C75 247 74 246 74 244C74 242 74 241 75 239C74 239 74 238 74 238C73 237 73 237 73 236C72 236 72 236 71 236C70 235 69 235 68 234C67 233 66 232 65 230C65 231 63 232 62 231C62 231 61 231 60 231C60 231 60 230 59 230C59 229 58 229 58 229C58 228 58 227 58 226C58 225 59 224 59 224C60 223 61 222 62 222C63 222 64 222 65 222C65 221 66 220 66 219C67 218 69 217 71 216C71 216 71 216 72 216C71 215 71 214 71 213C71 212 72 210 74 209C76 209 78 209 79 211C80 212 80 214 80 216L81 217C83 218 85 221 85 223C87 223 88 223 89 225C91 225 92 224 94 225C95 225 96 225 96 226C97 226 98 227 98 228C98 229 98 230 98 231C98 231 98 232 99 232C99 229 101 228 102 228C103 227 104 227 105 227C107 227 108 228 109 228C112 230 113 234 112 238C111 239 110 240 109 241C108 242 107 243 105 243V244C104 246 102 248 100 250V251C98 253 95 254 93 255C93 257 92 258 91 259C91 259 91 259 91 260C90 261 89 261 87 262C84 263 80 262 78 259ZM75 244C75 245 76 247 77 247C78 248 78 248 79 248L80 247C80 246 79 246 79 245C79 243 78 241 78 239H77C76 239 76 239 76 239C75 241 75 242 75 244ZM65 223C64 223 63 222 62 223C61 223 61 224 60 224C59 225 59 226 59 226C59 227 59 228 59 228C59 229 59 229 60 229C60 230 61 230 61 230L62 231C63 231 64 230 65 229C64 229 63 229 63 229C62 229 61 229 61 228C60 227 60 227 60 226C61 225 61 225 61 224C62 224 63 224 63 224C64 224 64 224 65 224V223ZM64 225C64 225 64 225 63 225H62L61 226C61 227 61 227 61 227C62 228 62 228 63 228C63 228 64 228 65 228C64 227 64 226 64 225ZM79 211C78 210 76 210 75 210C73 211 72 212 72 213C72 214 72 215 72 215H73C73 214 73 212 74 212C74 211 75 211 75 211C76 211 76 211 77 211C77 212 78 212 78 213C78 214 78 215 78 215C78 215 78 216 79 216C79 214 79 213 79 211ZM77 215C77 215 78 214 77 214C77 213 77 212 76 212C76 212 76 212 75 212C74 213 74 214 74 215C75 215 76 215 77 215ZM81 218C79 216 76 216 74 216C73 216 72 216 71 217C70 217 69 218 68 219L67 220C66 221 66 223 65 225C65 228 67 231 69 233C70 234 71 234 72 235C73 235 74 235 75 235C77 234 79 233 81 232C82 231 83 230 83 228C84 226 84 225 84 224C84 222 83 219 81 218ZM85 224C85 225 85 227 84 228C83 230 82 231 81 233C80 234 77 235 75 236H74C74 236 74 237 75 237C75 238 76 238 77 238C78 238 79 238 79 238C82 236 84 234 86 232C87 231 88 230 88 228C88 227 88 226 88 225C87 224 86 224 85 224ZM86 241C87 243 88 244 90 245C91 244 92 243 93 242L95 240L87 233C86 233 86 234 85 235C84 235 84 236 83 236L86 241ZM97 228C97 228 97 227 96 226C95 226 95 226 94 226C92 225 91 226 89 226C89 227 89 228 89 228C92 229 94 230 97 231C97 230 97 229 97 228ZM109 241C110 240 110 238 111 237C112 234 111 231 108 229C108 230 108 230 108 231H107C107 230 107 229 107 229C107 229 106 228 105 228H104C104 229 104 230 104 231H103C103 230 103 229 103 228C103 228 103 228 102 229C102 229 101 229 100 230C101 231 101 231 102 232C102 233 101 233 101 232C101 232 100 232 100 231C100 232 99 233 99 233C99 235 99 236 99 238C100 239 101 240 102 240C103 241 104 242 105 242C106 242 108 241 109 241ZM104 244C104 243 104 243 104 243C103 243 102 242 101 241C100 240 99 239 99 238C98 237 98 235 98 233C95 231 92 230 89 229C88 230 88 231 87 232L96 239V240L94 242C93 244 92 245 90 246C89 246 89 246 89 246C88 245 87 243 86 242L82 237C81 238 81 238 80 238L79 239C79 241 79 243 80 245C81 246 81 247 82 248C82 248 82 248 82 249C82 248 83 248 83 248C85 248 87 248 88 249C89 249 90 250 91 251C92 252 92 253 93 254C98 252 102 248 104 244ZM87 261C88 261 90 260 91 259C91 258 92 256 92 255C92 254 91 253 90 252C90 251 89 250 88 250C86 249 85 249 83 249C82 249 82 250 81 250C82 250 82 251 82 251C83 252 83 252 82 252C81 251 81 251 80 251C80 250 80 250 80 250C80 251 80 251 79 251C79 252 79 252 78 252C78 253 78 253 78 253C79 253 80 253 81 253V254C80 254 79 254 78 254V255C78 256 78 257 79 257C79 257 80 257 81 257C81 258 81 258 81 258C80 258 80 258 79 258C81 261 84 262 87 261ZM101 235C101 233 103 232 106 233C107 233 107 233 108 234C109 234 109 235 109 236C110 237 110 238 109 239C108 240 107 240 106 241C105 241 103 240 102 239C101 238 100 237 101 235ZM103 239C104 239 105 240 106 240C107 240 108 239 108 239C109 238 109 237 108 236C108 236 108 235 107 234H106C104 233 103 234 102 234C102 235 102 235 102 236C101 237 102 238 103 239ZM70 226C70 226 70 226 69 226H68C68 225 68 225 68 225C68 224 68 224 69 224C69 224 70 224 70 225V226ZM75 220C74 221 74 221 74 220C74 220 74 220 74 219C75 219 75 219 75 219C76 220 75 220 75 220ZM79 229C79 229 79 230 78 230C77 230 77 230 77 230C76 230 76 230 76 230C76 230 76 229 77 229C78 229 78 229 78 229C78 228 79 228 78 227H79C79 228 79 228 79 229ZM73 224C73 225 72 225 72 226C72 227 73 227 74 227L75 226C76 225 76 225 76 224C76 224 76 223 75 223C74 223 74 223 73 224ZM80 223C79 223 78 223 77 223V224C77 225 77 226 76 227C75 227 74 228 74 228C73 228 72 227 72 227C72 227 72 227 72 228C72 229 72 231 74 232C75 232 76 232 77 232C79 232 80 231 81 229C81 228 82 227 81 225C81 225 80 224 80 223Z" fill="#C0C0C0" fill-opacity="0.5"/>
<path fill-rule="evenodd" clip-rule="evenodd" d="M27 118C27 117 27 116 27 115C28 114 30 114 31 115C32 116 32 117 31 118C30 119 28 119 27 118ZM11 144L13 146C14 146 14 147 13 147C13 147 13 147 12 147L10 145C10 144 10 144 10 144C10 143 11 143 11 144ZM13 141L16 144C16 144 16 144 16 145C15 145 15 145 14 145L12 142C12 142 12 142 12 141C13 141 13 141 13 141ZM18 136C18 136 18 136 18 137L16 139L18 141L20 139H21C22 139 22 140 21 140L19 142C18 143 17 143 17 142L14 140C14 140 14 139 14 138L17 136C17 135 18 135 18 136ZM22 146L31 156C32 155 32 155 32 154L24 146V145V144C28 143 31 145 33 148C35 151 35 155 32 158C29 160 25 161 22 159C19 157 18 153 19 150V149C20 149 20 150 20 150L28 158C29 158 30 158 30 157L21 148C20 147 20 147 21 146H22ZM26 146L33 152C33 148 30 146 26 146ZM20 152C20 156 23 158 26 158C26 158 26 158 27 158L20 152ZM21 131L39 149C41 151 41 153 39 155L29 165C28 167 25 167 24 165L23 166C22 167 21 167 20 166C19 165 19 163 20 162L9 150L8 151C7 152 6 152 5 151C4 150 4 148 5 148V147C4 145 4 143 5 141L16 131C17 130 20 130 21 131ZM21 163C20 164 20 164 21 164C21 165 22 165 22 164L21 163ZM6 149C6 149 6 149 6 150H7L8 149L7 148L6 149ZM7 142C6 143 6 145 7 146L25 164C26 165 27 165 28 164L38 154C39 153 39 151 38 150L20 132C19 131 18 131 17 132L7 142ZM46 127L44 124V123H45L47 125C48 126 48 126 47 127H46ZM32 110L42 120C43 121 43 121 42 121C42 122 41 122 41 121L31 111C30 110 28 110 27 111L18 120C18 121 18 123 18 124L21 127L23 125C24 124 25 124 25 125L46 145C46 146 46 147 46 148L44 149L47 152C48 153 49 153 50 152L53 149L28 124V123H29L54 148L59 143C60 142 60 141 59 140L49 130V129C50 128 50 128 51 129L60 138C62 140 62 143 60 144L51 153C50 155 47 155 46 153L35 142C35 142 35 142 35 141H36L38 143L39 141L29 131L27 132L29 134V135C28 135 28 135 27 135L17 125C16 123 16 121 17 119L26 110C28 109 30 109 32 110ZM39 144L43 148L44 146L41 142L39 144ZM27 129L24 126L22 128L26 131L27 129ZM55 142C56 143 56 143 55 144H54V143C53 143 53 142 54 142C54 142 54 142 55 142ZM55 138C55 138 55 138 56 138L57 140C58 140 58 141 57 141C57 142 57 142 56 141L55 140C54 139 54 139 55 138ZM30 116C29 116 29 116 29 116C28 116 28 117 29 117C29 117 29 117 30 117V116Z" fill="#C0C0C0" fill-opacity="0.5"/>
<path fill-rule="evenodd" clip-rule="evenodd" d="M81 5L112 35C113 36 113 38 112 39L63 87C62 88 61 88 60 87L29 56C28 56 28 54 29 53L78 5C79 4 80 4 81 5ZM85 49L89 54C90 54 90 55 89 56L80 65H79L74 60C74 60 74 59 74 58L83 49C83 49 84 49 85 49ZM84 52L83 53L86 56L87 55L84 52ZM79 62L84 57L81 55L77 59L79 62ZM80 34C81 35 81 35 80 36L61 56C60 56 59 56 59 56C58 55 58 54 59 54L79 34H80ZM87 41C88 42 88 43 87 43L68 63C67 63 66 63 66 63C66 62 66 62 66 61L86 41H87ZM62 85L110 37L98 25L50 74L61 85C61 85 61 85 62 85ZM31 55L48 72L97 23L79 6L31 55Z" fill="#C0C0C0" fill-opacity="0.5"/>
<path fill-rule="evenodd" clip-rule="evenodd" d="M52 1C52 1 52 1 52 2L56 6C57 7 57 10 56 11L47 21C45 22 43 23 41 23L34 22C31 26 29 28 28 29C28 30 28 31 27 32V33C26 34 24 34 23 33L1 10C0 9 0 8 1 7V6C2 6 3 5 4 6C5 5 7 3 9 1H12C9 4 6 6 5 7L27 28C29 25 43 11 50 1H52ZM18 15C17 14 17 12 18 10L28 1H31C32 1 31 2 31 2H30L29 1L28 3H29C29 4 29 4 29 4C29 5 28 5 28 4H27L26 5L27 6C27 6 27 6 27 7C26 7 26 7 25 7V6L24 7V8V9H23H22L21 10H22C22 11 22 11 22 11C22 12 21 12 21 11H20H19C19 12 19 13 19 14C20 15 21 15 22 14L35 1H37L23 15C22 16 20 16 18 15ZM38 18H42C42 18 43 18 43 17L52 9L49 6C46 9 42 14 38 18ZM41 21C43 21 45 21 46 19L55 10C56 9 56 8 55 7L51 3C50 3 50 4 50 4L53 8C54 8 54 9 53 9L44 18C44 19 43 19 42 19H37C37 20 36 20 35 21H41ZM2 8V9L24 31C25 32 25 32 25 31H26V30L4 7C3 7 3 7 2 7V8Z" fill="#C0C0C0" fill-opacity="0.5"/>
<path fill-rule="evenodd" clip-rule="evenodd" d="M11 84L15 87C15 88 15 89 15 89L14 90C13 91 12 91 12 90L8 87C8 86 8 85 8 84H9C10 83 11 83 11 84ZM18 68L22 71C25 74 26 79 26 83V84L33 77L28 72C27 71 27 69 28 67C29 67 30 67 30 67L46 83C46 83 46 84 46 85C44 86 42 86 41 85L38 82L31 89L32 90L34 89C35 88 36 88 37 89L38 90C39 91 39 92 38 93L30 101C29 102 28 102 27 101L26 100C25 99 25 98 26 97L27 96L22 92C21 93 21 94 20 95C18 97 16 97 14 96L13 98C12 98 12 98 11 98L10 96V95L11 94L5 87L4 89C4 89 3 89 2 89L1 87V86L2 85V84C1 83 1 81 2 80L14 68C15 67 17 67 18 68ZM26 98V99L28 100C28 101 29 101 29 100H30L29 99V98C29 98 29 98 30 98V99L32 98L31 97V96C31 96 31 96 32 96V97L34 96L33 95V94C33 94 33 94 34 94L35 95L36 94L35 93V92H36L37 93V92C38 92 38 91 37 91L36 89H35L26 98ZM41 84C42 85 44 85 45 84L29 68C28 69 28 71 29 72L41 84ZM34 78L27 85L30 88L37 81L34 78ZM23 91L28 95L32 91L30 89L25 85C25 87 24 89 23 91ZM12 97L13 96L12 94L11 96L12 97ZM14 95C15 96 16 96 17 96C17 96 18 95 19 95C21 92 24 88 24 84C25 80 24 75 21 72L19 70L4 85L14 95ZM3 88L4 87L3 85L2 87L3 88ZM3 81C2 82 2 83 3 83V84L18 69H17C17 68 16 68 15 69L3 81ZM11 88L13 89H14C14 88 14 88 14 88L13 87L11 88ZM9 85V86L10 87L12 86L10 85C10 84 10 84 10 85H9Z" fill="#C0C0C0" fill-opacity="0.5"/>
<path fill-rule="evenodd" clip-rule="evenodd" d="M43 272C45 274 45 276 43 278C42 279 39 279 38 278C36 276 36 274 38 272C39 270 42 270 43 272ZM25 293L23 292C23 291 23 290 23 289L5 271C0 266 0 258 5 254C10 249 17 249 22 254L29 261L30 260C35 255 43 255 48 260L50 262L52 260C53 260 54 260 54 260L57 263V264L55 266C56 268 56 270 55 272L46 280C43 284 38 284 35 280C33 278 32 275 33 273L18 258C16 255 12 255 9 258C7 260 7 264 9 266L28 285C29 284 30 284 31 285L32 286C34 285 36 285 38 286V287C39 287 39 288 38 288L27 300H26L25 299C23 297 23 295 25 293ZM53 265L55 263L53 262L52 263L53 265ZM22 256L21 258L27 264C27 263 27 263 28 262L22 256ZM53 271C54 270 54 269 53 268L47 261C43 257 36 257 31 261L29 263C28 264 28 266 29 266L30 267L34 271C34 270 34 270 35 269C38 266 43 266 46 269C48 271 49 273 48 275L53 271ZM36 279C39 281 42 281 45 279C47 277 47 273 45 271C42 268 39 268 36 271C34 273 34 277 36 279ZM8 256C11 253 16 253 19 256L21 255C17 251 10 251 7 255C3 259 3 265 7 269L25 288L26 286L8 268C5 265 5 260 8 256ZM29 286L25 290L26 292L31 288L29 286ZM36 288C35 287 34 287 33 288L26 295V297L36 288ZM39 276C40 277 41 277 42 276C43 275 43 274 42 273C41 273 40 273 39 273C38 274 38 275 39 276Z" fill="#C0C0C0" fill-opacity="0.5"/>
<path fill-rule="evenodd" clip-rule="evenodd" d="M5 207C4 207 3 207 3 206C1 204 1 202 3 200C4 200 5 199 6 199C6 196 8 194 10 192L22 180C25 177 30 177 33 180L46 192C47 194 47 197 46 199L27 217H28C28 218 28 219 28 219L27 221L37 231L38 230C39 229 41 229 42 230L49 237C50 238 50 240 49 241L48 242L49 243C49 243 49 243 49 244C48 244 48 244 48 244L47 243L45 244C45 245 43 245 42 244L35 237C34 236 34 234 35 233L36 232L26 222L24 223H22H21C19 225 17 225 15 223L10 218C7 215 5 211 5 207ZM19 205C19 205 19 205 20 205C20 205 20 205 20 206C19 206 19 206 19 206C19 205 19 205 19 205ZM29 201C29 201 29 201 30 201C30 201 30 201 30 202C29 202 29 202 29 202C28 202 28 202 28 202C28 201 28 201 29 201ZM25 201C25 201 25 201 25 200C24 200 24 200 24 200C24 200 24 200 25 200C25 199 25 199 25 199C25 199 25 199 26 200C25 201 25 201 25 201ZM21 201H22C22 201 22 201 22 202H21H20C20 201 21 201 21 201ZM17 208V209L14 213C13 213 13 213 13 213C12 212 12 212 13 212L16 208H17ZM14 214L18 210H19V211L15 215C15 215 15 215 14 215C14 214 14 214 14 214ZM16 215L20 212C20 211 20 211 21 212C21 212 21 212 21 213L17 216C17 217 16 217 16 216C16 216 16 216 16 215ZM18 217L22 214C22 213 22 213 23 214C23 214 23 214 23 215L19 218H18V217ZM22 203C24 201 26 201 28 203C29 204 29 207 28 208C26 210 24 210 22 208C21 207 21 204 22 203ZM27 207C28 206 28 205 27 204C26 203 25 203 24 203L26 205V206C25 206 25 206 25 206L23 204C22 205 22 207 23 207C24 208 26 208 27 207ZM16 197C14 195 14 192 16 191L24 183C26 181 28 181 30 183C32 185 32 187 30 189L22 197C20 198 18 198 16 197ZM28 184C28 184 26 184 25 184L18 192C17 193 17 194 18 195C18 196 20 196 21 195L28 187C29 187 29 185 28 184ZM48 240C48 239 48 238 48 238L41 231C40 231 40 231 39 231L38 232L47 241L48 240ZM36 234C36 235 36 235 36 236L43 243H44L46 242L37 233L36 234ZM4 201C3 202 3 204 4 205C4 205 4 205 5 206C5 204 5 202 5 201H4ZM23 222L27 218H26L23 222ZM17 221C17 222 19 222 20 221L44 197C45 196 45 195 44 194L32 181C29 179 26 179 23 181L12 193C5 200 5 210 12 216L17 221Z" fill="#C0C0C0" fill-opacity="0.5"/>
<path fill-rule="evenodd" clip-rule="evenodd" d="M98 75L94 70C92 69 92 66 94 65L122 36C123 35 126 35 127 36L137 45C138 47 138 49 137 51L138 52L140 50H141L143 52V54L140 52L127 65L132 70C135 73 140 74 143 71V73C139 75 134 75 131 71L125 66C125 65 125 65 125 65L134 56L133 54L132 56C130 57 128 57 126 56L125 54L116 62V63C113 66 113 72 116 75L123 82C126 85 131 85 135 82L143 74V76L136 83C132 87 126 86 122 83L115 76C113 73 111 70 112 66L104 75H103C103 77 104 78 105 79L121 95C121 95 121 96 122 96C124 97 127 97 129 95L143 81V83L130 96C127 99 124 99 121 97C120 97 120 97 120 96L104 80C102 79 102 78 102 76C100 76 99 76 98 75ZM128 41H129L133 45V46C132 46 132 46 131 46L128 43C128 42 128 42 128 41ZM125 39C126 38 126 38 126 39L127 40C128 40 128 40 127 41C127 41 127 41 126 41L125 40C125 39 125 39 125 39ZM100 71L107 65C107 64 108 64 108 65C109 65 109 65 108 66L101 72C101 73 101 73 100 72C100 72 100 72 100 71ZM96 67L103 60C103 60 103 60 104 60L106 62C106 63 106 63 106 63L99 70C99 71 98 71 98 70L96 68C95 68 95 67 96 67ZM99 69L104 63L103 62L97 67L99 69ZM135 52L134 53L135 54L137 53L135 52ZM99 74C100 74 101 75 102 74C102 74 102 74 103 74L124 52H125L127 54C128 55 130 55 131 54L135 50C136 49 136 47 135 46L126 37C125 36 124 36 123 37L95 66C94 67 94 68 95 69L99 74Z" fill="#C0C0C0" fill-opacity="0.5"/>
<path fill-rule="evenodd" clip-rule="evenodd" d="M63 125L59 114H57C56 114 56 114 56 113C56 113 56 112 57 112H58C57 110 58 109 59 108L67 100C71 95 77 93 84 94H87V93C88 92 90 92 91 93C92 94 92 94 92 95H94V94H95V95H101V96C102 96 101 96 101 97V98L102 97H103C103 98 103 98 103 98L78 124C77 124 77 124 77 124C76 123 76 123 77 122L78 121L77 120C73 123 70 125 66 126C66 127 65 127 64 126C64 126 64 126 63 125ZM75 109C75 108 77 108 77 109C78 109 78 111 77 111C77 112 75 112 75 111C74 111 74 109 75 109ZM77 110C77 110 77 110 77 109C76 109 76 109 75 109C75 110 75 110 75 110C76 111 76 111 77 110ZM78 106C78 105 80 105 80 106C81 106 81 108 80 108C80 109 78 109 78 108C77 108 77 106 78 106ZM80 107C80 107 80 107 80 106C79 106 79 106 78 106C78 107 78 107 78 107C79 108 79 108 80 107ZM78 104L71 111C70 112 68 112 67 111C66 110 65 109 66 108C66 108 66 107 67 106L74 100C75 99 77 99 78 100C79 101 79 103 78 104ZM72 108L76 104C75 104 75 104 75 104L72 107C72 108 72 108 72 108ZM75 101L68 107C67 108 67 108 67 109C67 109 67 109 68 110C68 111 69 111 70 110L71 109C71 108 71 107 71 107L74 103C75 103 76 103 76 103V104L77 103C77 103 77 102 77 101C76 101 76 101 75 101ZM86 96C84 97 83 97 81 97C77 97 72 99 69 102L63 109C62 109 62 110 61 109C60 109 60 109 60 109C62 113 63 117 65 120C65 121 67 121 67 120C79 115 93 100 96 97L86 96ZM84 95C78 95 72 97 68 101L61 108H62L68 102C72 98 76 96 81 96C82 96 83 96 84 95ZM90 94C90 93 89 93 88 94H91C91 94 91 94 90 94ZM78 121L100 99V98L84 114C82 116 80 118 77 120L78 121ZM65 125C72 122 78 118 83 113L99 97H97C97 98 94 100 91 103C90 104 89 105 88 106C83 111 75 118 68 121C67 122 65 122 64 120C63 118 61 114 59 110C59 111 59 111 59 111L65 125Z" fill="#C0C0C0" fill-opacity="0.5"/>
<path fill-rule="evenodd" clip-rule="evenodd" d="M92 343C92 342 93 341 94 340L122 312C123 310 126 310 127 312L143 327V330L126 313C125 312 124 312 123 313L95 341C94 342 94 342 94 343H92ZM138 343C138 342 138 342 139 341L142 338C142 338 142 338 143 338V339C143 339 143 339 143 340L140 342C140 343 140 343 140 343H138ZM123 329L120 326C119 325 119 324 120 323L123 320C124 319 125 319 126 320L129 323C130 324 130 325 129 326L126 329C125 330 124 330 123 329ZM128 325V324L125 321H124L121 324V325L124 328H125L128 325ZM109 343C110 343 110 343 110 343H109ZM112 343L110 341C110 340 109 340 109 341L107 343H104L108 340C109 339 110 339 111 340L114 343H112ZM96 343C96 342 96 342 97 341L123 315C124 314 125 314 126 315L143 332V334L125 316H124L98 342C98 343 98 343 98 343H96Z" fill="#C0C0C0" fill-opacity="0.5"/>
<path fill-rule="evenodd" clip-rule="evenodd" d="M26 321C27 320 27 320 27 320C27 321 29 321 32 323C33 323 34 323 34 323C35 324 35 324 36 324C37 323 38 323 39 324C42 325 44 327 46 329C48 332 50 334 52 336C52 337 52 338 51 339V340C51 340 52 340 52 341C52 342 52 342 52 343H50C51 342 51 342 51 342C49 339 46 335 43 332C40 329 37 327 34 325C33 325 33 325 33 325C26 330 17 338 11 343H9C13 340 17 336 22 332C24 325 26 321 26 321ZM28 343L35 336C36 335 38 335 39 336C41 337 41 339 39 341L37 343H35L38 339C39 339 39 338 38 337C38 336 37 336 36 337L35 338H36C36 339 36 339 36 339C36 340 35 340 35 339H34L33 340L34 341C34 341 34 341 34 342C33 342 33 342 32 342V341L31 342V343H28ZM24 330C26 328 29 326 31 324C29 323 28 323 27 322C27 323 26 326 24 330ZM50 338C51 338 51 337 50 337C49 335 47 333 45 331C43 328 41 327 38 325C38 325 38 325 37 325C39 327 42 329 44 331C46 333 48 336 50 338Z" fill="#C0C0C0" fill-opacity="0.5"/>
<path fill-rule="evenodd" clip-rule="evenodd" d="M69 279L102 312C103 313 103 315 102 316L83 335C82 336 80 336 79 335L46 302C45 301 45 299 46 298L65 279C66 278 68 278 69 279ZM68 287L66 284C66 284 66 284 66 283H67L70 286V287C69 287 69 287 68 287ZM67 289L64 286V285H65L68 288V289C67 289 67 289 67 289ZM65 291L62 288V287H63L66 290C66 290 66 290 66 291C65 291 65 291 65 291ZM62 291C63 292 63 295 62 296C61 297 58 297 57 296C56 295 56 292 57 291C58 289 61 289 62 291ZM58 292C58 292 58 292 58 293H61C61 292 61 292 61 292C60 291 59 291 58 292ZM61 295V294H58V295C59 295 60 295 61 295ZM56 297C58 298 58 300 56 302C55 303 53 303 51 302C50 300 50 298 51 297C53 295 55 295 56 297ZM52 298H55C54 297 53 297 52 298ZM55 300H52C53 301 54 301 55 300ZM77 293L97 313C98 314 98 314 97 314L82 330C81 330 81 330 81 330L61 310C60 310 60 309 61 309L76 293H77ZM63 309L81 328L95 314L77 295L63 309ZM75 291V292L59 307C59 308 59 308 58 307C58 307 58 307 58 306L74 291C74 291 74 291 75 291ZM82 334L101 315C101 314 101 314 101 313L75 287L54 307L81 334H82ZM47 299V300L53 306L74 286L68 280C67 280 67 280 66 280L47 299Z" fill="#C0C0C0" fill-opacity="0.5"/>
</g>
<defs>
<clipPath id="clip0_1495_29986">
<rect width="143" height="342" fill="white" transform="matrix(-1 0 0 1 143 0)"/>
</clipPath>
</defs>
</svg>
