<svg width="77" height="77" viewBox="0 0 77 77" fill="none" xmlns="http://www.w3.org/2000/svg">
<path d="M64.1667 19.25H54.5417V12.8333C54.5417 9.2945 51.6638 6.41663 48.125 6.41663H28.875C25.3362 6.41663 22.4584 9.2945 22.4584 12.8333V19.25H12.8334C9.29456 19.25 6.41669 22.1278 6.41669 25.6666V35.2916H70.5834V25.6666C70.5834 22.1278 67.7055 19.25 64.1667 19.25ZM28.875 12.8333H48.125V19.25H28.875V12.8333ZM44.9167 44.9166H32.0834V38.5H6.41669V60.9583C6.41669 64.4971 9.29456 67.375 12.8334 67.375H64.1667C67.7055 67.375 70.5834 64.4971 70.5834 60.9583V38.5H44.9167V44.9166Z" fill="white"/>
<path d="M10 26C10 24.3431 11.3431 23 13 23H64C65.6569 23 67 24.3431 67 26V32H10V26Z" fill="#FF8651"/>
</svg>
