<svg width="32" height="32" viewBox="0 0 32 32" fill="none" xmlns="http://www.w3.org/2000/svg">
<path d="M0 6V27H32V6H0ZM1 26V7H24V26H1ZM31 26H25V7H31V26Z" fill="white"/>
<path d="M28 12C28.3956 12 28.7822 11.8827 29.1111 11.6629C29.44 11.4432 29.6964 11.1308 29.8478 10.7654C29.9991 10.3999 30.0387 9.99778 29.9616 9.60982C29.8844 9.22186 29.6939 8.86549 29.4142 8.58579C29.1345 8.30608 28.7781 8.1156 28.3902 8.03843C28.0022 7.96126 27.6001 8.00087 27.2346 8.15224C26.8692 8.30362 26.5568 8.55996 26.3371 8.88886C26.1173 9.21776 26 9.60444 26 10C26 10.5304 26.2107 11.0391 26.5858 11.4142C26.9609 11.7893 27.4696 12 28 12ZM28 9C28.1978 9 28.3911 9.05865 28.5556 9.16853C28.72 9.27841 28.8482 9.43459 28.9239 9.61732C28.9996 9.80004 29.0194 10.0011 28.9808 10.1951C28.9422 10.3891 28.847 10.5673 28.7071 10.7071C28.5673 10.847 28.3891 10.9422 28.1951 10.9808C28.0011 11.0194 27.8 10.9996 27.6173 10.9239C27.4346 10.8482 27.2784 10.72 27.1685 10.5556C27.0586 10.3911 27 10.1978 27 10C27 9.73478 27.1054 9.48043 27.2929 9.29289C27.4804 9.10536 27.7348 9 28 9Z" fill="white"/>
<path d="M28 18C28.5523 18 29 17.5523 29 17C29 16.4477 28.5523 16 28 16C27.4477 16 27 16.4477 27 17C27 17.5523 27.4477 18 28 18Z" fill="#FF8651"/>
<path d="M28 22C28.5523 22 29 21.5523 29 21C29 20.4477 28.5523 20 28 20C27.4477 20 27 20.4477 27 21C27 21.5523 27.4477 22 28 22Z" fill="#FF8651"/>
<path d="M19.5 9H5.5C4.83696 9 4.20107 9.26339 3.73223 9.73223C3.26339 10.2011 3 10.837 3 11.5V21.5C3 21.8283 3.06466 22.1534 3.1903 22.4567C3.31594 22.76 3.50009 23.0356 3.73223 23.2678C3.96438 23.4999 4.23998 23.6841 4.54329 23.8097C4.84661 23.9353 5.1717 24 5.5 24H19.5C19.8283 24 20.1534 23.9353 20.4567 23.8097C20.76 23.6841 21.0356 23.4999 21.2678 23.2678C21.4999 23.0356 21.6841 22.76 21.8097 22.4567C21.9353 22.1534 22 21.8283 22 21.5V11.5C22 10.837 21.7366 10.2011 21.2678 9.73223C20.7989 9.26339 20.163 9 19.5 9ZM21 21.5C21 21.8978 20.842 22.2794 20.5607 22.5607C20.2794 22.842 19.8978 23 19.5 23H5.5C5.10218 23 4.72064 22.842 4.43934 22.5607C4.15804 22.2794 4 21.8978 4 21.5V11.5C4 11.1022 4.15804 10.7206 4.43934 10.4393C4.72064 10.158 5.10218 10 5.5 10H19.5C19.8978 10 20.2794 10.158 20.5607 10.4393C20.842 10.7206 21 11.1022 21 11.5V21.5Z" fill="white"/>
</svg>
