<svg width="32" height="32" viewBox="0 0 32 32" fill="none" xmlns="http://www.w3.org/2000/svg">
<path d="M21.8021 5.06319C21.8021 4.44072 21.8095 3.84789 21.5576 3.26988C21.2167 2.47697 20.5201 1.91379 19.6976 1.66925C17.9265 1.15793 16.2295 2.55849 16.1109 4.31474C16.0591 5.11506 16.1109 5.9302 16.1109 6.72311C16.1109 7.66423 16.1109 8.61275 16.1109 9.55387C16.1109 9.5761 16.1109 9.59833 16.1109 9.62056C16.1109 10.3394 17.2225 10.3394 17.2225 9.62056C17.2225 7.98287 17.2225 6.33777 17.2225 4.70008C17.2225 4.37403 17.2225 4.04797 17.3559 3.73674C17.6375 3.09203 18.26 2.69188 18.9565 2.67705C19.6309 2.66223 20.2015 3.0698 20.5127 3.64781C20.7424 4.07761 20.6906 4.58893 20.6906 5.05578C20.6906 5.782 21.8021 5.782 21.8021 5.06319Z" fill="#FF8651"/>
<path d="M16.6644 21.3586C13.0185 21.3586 9.36522 21.3586 5.71932 21.3586C5.43773 21.3586 5.16354 21.3586 4.88195 21.3586C5.06721 21.5438 5.25247 21.7291 5.43773 21.9143C5.43773 19.2763 5.43773 16.6308 5.43773 13.9927C5.25247 14.1779 5.06721 14.3632 4.88195 14.5484C8.52785 14.5484 12.1812 14.5484 15.8271 14.5484C16.1087 14.5484 16.3828 14.5484 16.6644 14.5484C16.4792 14.3632 16.2939 14.1779 16.1087 13.9927C16.1087 16.6308 16.1087 19.2763 16.1087 21.9143C16.1087 22.6332 17.2202 22.6332 17.2202 21.9143C17.2202 19.2763 17.2202 16.6308 17.2202 13.9927C17.2202 13.6888 16.9683 13.4369 16.6644 13.4369C13.0185 13.4369 9.36522 13.4369 5.71932 13.4369C5.43773 13.4369 5.16354 13.4369 4.88195 13.4369C4.57812 13.4369 4.32617 13.6888 4.32617 13.9927C4.32617 16.6308 4.32617 19.2763 4.32617 21.9143C4.32617 22.2182 4.57812 22.4701 4.88195 22.4701C8.52785 22.4701 12.1812 22.4701 15.8271 22.4701C16.1087 22.4701 16.3828 22.4701 16.6644 22.4701C17.3832 22.4701 17.3832 21.3586 16.6644 21.3586Z" fill="white"/>
<path d="M16.6644 29.2803C13.0185 29.2803 9.36522 29.2803 5.71932 29.2803C5.43773 29.2803 5.16354 29.2803 4.88195 29.2803C5.06721 29.4656 5.25247 29.6508 5.43773 29.8361C5.43773 27.198 5.43773 24.5525 5.43773 21.9144C5.25247 22.0997 5.06721 22.2849 4.88195 22.4702C8.52785 22.4702 12.1812 22.4702 15.8271 22.4702C16.1087 22.4702 16.3828 22.4702 16.6644 22.4702C16.4792 22.2849 16.2939 22.0997 16.1087 21.9144C16.1087 24.5525 16.1087 27.198 16.1087 29.8361C16.1087 30.5549 17.2202 30.5549 17.2202 29.8361C17.2202 27.198 17.2202 24.5525 17.2202 21.9144C17.2202 21.6106 16.9683 21.3586 16.6644 21.3586C13.0185 21.3586 9.36522 21.3586 5.71932 21.3586C5.43773 21.3586 5.16354 21.3586 4.88195 21.3586C4.57812 21.3586 4.32617 21.6106 4.32617 21.9144C4.32617 24.5525 4.32617 27.198 4.32617 29.8361C4.32617 30.1399 4.57812 30.3919 4.88195 30.3919C8.52785 30.3919 12.1812 30.3919 15.8271 30.3919C16.1087 30.3919 16.3828 30.3919 16.6644 30.3919C17.3832 30.3919 17.3832 29.2803 16.6644 29.2803Z" fill="white"/>
<path d="M28.434 14.088H16.6123V29.7823H28.434C28.4715 29.7823 28.5019 29.7519 28.5019 29.7143V14.156C28.5019 14.1184 28.4715 14.088 28.434 14.088Z" stroke="white" stroke-width="1.22293"/>
<path d="M20.8441 13.4296C19.0879 13.4296 17.3242 13.4296 15.5679 13.4296C14.6491 13.4296 13.7228 13.4296 12.8039 13.4296C11.7294 13.4296 10.766 13.1555 9.98052 12.37C9.23207 11.6215 8.98753 10.6433 8.98753 9.61331C8.80227 9.79857 8.61701 9.98383 8.43175 10.1691C11.9739 10.1691 15.5235 10.1691 19.0656 10.1691C21.0071 10.1691 22.9487 10.1691 24.8902 10.1691C24.7049 9.98383 24.5197 9.79857 24.3344 9.61331C24.3344 10.547 24.1491 11.414 23.5415 12.1551C22.8746 12.9702 21.889 13.4222 20.8441 13.4296C20.1253 13.4371 20.1253 14.5486 20.8441 14.5412C22.178 14.5264 23.4452 13.9558 24.327 12.948C25.1495 11.9994 25.446 10.8508 25.446 9.62072C25.446 9.31689 25.194 9.06494 24.8902 9.06494C21.348 9.06494 17.7985 9.06494 14.2563 9.06494C12.3148 9.06494 10.3733 9.06494 8.43175 9.06494C8.12793 9.06494 7.87598 9.31689 7.87598 9.62072C7.87598 10.3692 7.9649 11.0806 8.26132 11.7697C8.59478 12.5478 9.13574 13.1777 9.81008 13.6816C10.6993 14.3559 11.7812 14.5412 12.8632 14.5412C14.9825 14.5412 17.1019 14.5412 19.2138 14.5412C19.7548 14.5412 20.2957 14.5412 20.8367 14.5412C21.5629 14.5412 21.5629 13.4296 20.8441 13.4296Z" fill="white"/>
<path d="M9.4766 18.5056C10.3436 18.5056 11.2032 18.5056 12.0702 18.5056C12.789 18.5056 12.789 17.394 12.0702 17.394C11.2032 17.394 10.3436 17.394 9.4766 17.394C8.7578 17.394 8.7578 18.5056 9.4766 18.5056Z" fill="white"/>
<path d="M9.4766 26.4349C10.3436 26.4349 11.2032 26.4349 12.0702 26.4349C12.789 26.4349 12.789 25.3234 12.0702 25.3234C11.2032 25.3234 10.3436 25.3234 9.4766 25.3234C8.7578 25.3234 8.7578 26.4349 9.4766 26.4349Z" fill="white"/>
<path d="M20.095 23.1954C20.095 22.3283 20.095 21.4687 20.095 20.6017C20.095 19.8829 18.9834 19.8829 18.9834 20.6017C18.9834 21.4687 18.9834 22.3283 18.9834 23.1954C18.9834 23.9142 20.095 23.9142 20.095 23.1954Z" fill="white"/>
</svg>
