<svg width="33" height="32" viewBox="0 0 33 32" fill="none" xmlns="http://www.w3.org/2000/svg">
<path d="M25.201 2.80007C25.0875 2.47912 24.8776 2.20112 24.5999 2.00419C24.3222 1.80726 23.9904 1.70103 23.65 1.70007H19.25C18.9096 1.70103 18.5778 1.80726 18.3001 2.00419C18.0224 2.20112 17.8125 2.47912 17.699 2.80007H13.101C12.9875 2.47912 12.7776 2.20112 12.4999 2.00419C12.2222 1.80726 11.8904 1.70103 11.55 1.70007H9.35C9.00958 1.70103 8.67779 1.80726 8.40011 2.00419C8.12244 2.20112 7.91247 2.47912 7.799 2.80007H5.5V30.3001H27.5V2.80007H25.201ZM26.4 3.90007V8.30007H6.6V3.90007H26.4ZM6.6 29.2001V9.40007H26.4V29.2001H6.6Z" fill="white"/>
<path d="M8.8002 7.2C9.40771 7.2 9.9002 6.70751 9.9002 6.1C9.9002 5.49249 9.40771 5 8.8002 5C8.19268 5 7.7002 5.49249 7.7002 6.1C7.7002 6.70751 8.19268 7.2 8.8002 7.2Z" fill="white"/>
<path d="M17.6 7.2C18.2075 7.2 18.7 6.70751 18.7 6.1C18.7 5.49249 18.2075 5 17.6 5C16.9925 5 16.5 5.49249 16.5 6.1C16.5 6.70751 16.9925 7.2 17.6 7.2Z" fill="white"/>
<path d="M14.3002 7.2C14.9077 7.2 15.4002 6.70751 15.4002 6.1C15.4002 5.49249 14.9077 5 14.3002 5C13.6927 5 13.2002 5.49249 13.2002 6.1C13.2002 6.70751 13.6927 7.2 14.3002 7.2Z" fill="white"/>
<path d="M20.8998 7.2C21.5073 7.2 21.9998 6.70751 21.9998 6.1C21.9998 5.49249 21.5073 5 20.8998 5C20.2923 5 19.7998 5.49249 19.7998 6.1C19.7998 6.70751 20.2923 7.2 20.8998 7.2Z" fill="white"/>
<path d="M24.2006 7.2C24.8081 7.2 25.3006 6.70751 25.3006 6.1C25.3006 5.49249 24.8081 5 24.2006 5C23.5931 5 23.1006 5.49249 23.1006 6.1C23.1006 6.70751 23.5931 7.2 24.2006 7.2Z" fill="white"/>
<path d="M20.9006 10.5H12.1006V11.6H20.9006V10.5Z" fill="#FF8651"/>
<path d="M21.4498 12.7001H11.5498C10.8205 12.7001 10.121 12.9898 9.60526 13.5055C9.08954 14.0213 8.7998 14.7207 8.7998 15.4501V22.0501C8.7998 22.4112 8.87094 22.7688 9.00914 23.1025C9.14734 23.4361 9.3499 23.7393 9.60526 23.9946C9.86062 24.25 10.1638 24.4525 10.4974 24.5907C10.8311 24.7289 11.1887 24.8001 11.5498 24.8001H21.4498C21.8109 24.8001 22.1685 24.7289 22.5022 24.5907C22.8358 24.4525 23.139 24.25 23.3943 23.9946C23.6497 23.7393 23.8523 23.4361 23.9905 23.1025C24.1287 22.7688 24.1998 22.4112 24.1998 22.0501V15.4501C24.1998 14.7207 23.9101 14.0213 23.3943 13.5055C22.8786 12.9898 22.1792 12.7001 21.4498 12.7001ZM23.0998 22.0501C23.0998 22.4877 22.926 22.9074 22.6165 23.2168C22.3071 23.5262 21.8874 23.7001 21.4498 23.7001H11.5498C11.1122 23.7001 10.6925 23.5262 10.3831 23.2168C10.0736 22.9074 9.8998 22.4877 9.8998 22.0501V15.4501C9.8998 15.0125 10.0736 14.5928 10.3831 14.2833C10.6925 13.9739 11.1122 13.8001 11.5498 13.8001H21.4498C21.8874 13.8001 22.3071 13.9739 22.6165 14.2833C22.926 14.5928 23.0998 15.0125 23.0998 15.4501V22.0501Z" fill="white"/>
</svg>
