<svg width="33" height="32" viewBox="0 0 33 32" fill="none" xmlns="http://www.w3.org/2000/svg">
<path d="M27.5 4.87C27.14 3.58 26.22 3 24.5 3H6.5V3.5C6.66661 4.81403 7.17331 6.06183 7.97 7.12L7.86 7.77C7.05861 11.9689 6.60374 16.2266 6.5 20.5V23C6.5 23.5304 6.71071 24.0391 7.08579 24.4142C7.46086 24.7893 7.96957 25 8.5 25H23.5C24.0304 25 24.5391 24.7893 24.9142 24.4142C25.2893 24.0391 25.5 23.5304 25.5 23V20.5C25.5 20.01 25.5 19.43 25.5 18.8L26.81 17.92C27.2728 17.6289 27.6647 17.2381 27.9571 16.7762C28.2495 16.3143 28.435 15.7928 28.5 15.25C28.5402 11.7641 28.205 8.28407 27.5 4.87V4.87ZM8.85 7.93L9.03 6.87L8.9 6.7C8.29286 5.88897 7.83876 4.974 7.56 4H21.97C22.89 4.55 24.43 12.5 24.5 20H17.5V7.5C17.5 7.10218 17.342 6.72064 17.0607 6.43934C16.7794 6.15804 16.3978 6 16 6C15.6022 6 15.2206 6.15804 14.9393 6.43934C14.658 6.72064 14.5 7.10218 14.5 7.5V20H7.5C7.64215 15.9482 8.09346 11.9131 8.85 7.93V7.93ZM16.5 7.5V20.5C16.5 20.6326 16.4473 20.7598 16.3536 20.8536C16.2598 20.9473 16.1326 21 16 21C15.8674 21 15.7402 20.9473 15.6464 20.8536C15.5527 20.7598 15.5 20.6326 15.5 20.5V7.5C15.5 7.36739 15.5527 7.24021 15.6464 7.14645C15.7402 7.05268 15.8674 7 16 7C16.1326 7 16.2598 7.05268 16.3536 7.14645C16.4473 7.24021 16.5 7.36739 16.5 7.5V7.5ZM23.5 24H8.5C8.23478 24 7.98043 23.8946 7.79289 23.7071C7.60536 23.5196 7.5 23.2652 7.5 23V21H14.59C14.6905 21.2941 14.8804 21.5495 15.1333 21.7303C15.3861 21.9111 15.6892 22.0083 16 22.0083C16.3108 22.0083 16.6139 21.9111 16.8667 21.7303C17.1196 21.5495 17.3095 21.2941 17.41 21H24.5V23C24.5 23.2652 24.3946 23.5196 24.2071 23.7071C24.0196 23.8946 23.7652 24 23.5 24ZM26.23 17.08L25.42 17.62C25.18 13.06 24.42 6.47 23.12 4H24.5C26.09 4 26.36 4.53 26.5 5.13C27.1957 8.45765 27.5309 11.8505 27.5 15.25C27.4271 15.6265 27.2765 15.9837 27.0578 16.2988C26.8392 16.6139 26.5572 16.8799 26.23 17.08V17.08Z" fill="white"/>
<path d="M23.5 26H8.5C7.96957 26 7.46086 26.2107 7.08579 26.5858C6.71071 26.9609 6.5 27.4696 6.5 28V29H25.5V28C25.5 27.4696 25.2893 26.9609 24.9142 26.5858C24.5391 26.2107 24.0304 26 23.5 26ZM7.5 28C7.5 27.7348 7.60536 27.4804 7.79289 27.2929C7.98043 27.1054 8.23478 27 8.5 27H23.5C23.7652 27 24.0196 27.1054 24.2071 27.2929C24.3946 27.4804 24.5 27.7348 24.5 28H7.5Z" fill="white"/>
<circle cx="21.791" cy="22.5" r="1" fill="#FF8651"/>
</svg>
