<svg width="32" height="32" viewBox="0 0 32 32" fill="none" xmlns="http://www.w3.org/2000/svg">
<path d="M14.0088 22.0677C13.7596 21.9016 13.423 21.9689 13.2569 22.218C13.0908 22.4672 13.1581 22.8038 13.4073 22.9699L14.0088 22.0677ZM14.369 30.0415C14.5561 30.2753 14.8973 30.3132 15.1311 30.1262C15.3649 29.9391 15.4028 29.5979 15.2158 29.3641L14.369 30.0415ZM21.5994 22.0677C21.3502 21.9016 21.0136 21.9689 20.8475 22.218C20.6814 22.4672 20.7487 22.8038 20.9979 22.9699L21.5994 22.0677ZM21.9596 30.0415C22.1467 30.2753 22.4879 30.3132 22.7217 30.1262C22.9556 29.9391 22.9935 29.5979 22.8064 29.3641L21.9596 30.0415ZM13.708 22.5188C13.4073 22.9699 13.407 22.9698 13.4068 22.9696C13.4067 22.9695 13.4064 22.9694 13.4063 22.9693C13.406 22.9691 13.4057 22.9689 13.4054 22.9687C13.4048 22.9683 13.4042 22.9679 13.4038 22.9676C13.4028 22.9669 13.402 22.9664 13.4013 22.9659C13.4001 22.9651 13.3996 22.9647 13.3997 22.9648C13.4 22.9649 13.4028 22.967 13.408 22.9711C13.4183 22.9792 13.4375 22.995 13.4628 23.0189C13.5135 23.0668 13.5875 23.1461 13.6635 23.2601C13.8125 23.4836 13.9791 23.8546 13.9791 24.4165H15.0635C15.0635 23.6229 14.8234 23.045 14.5658 22.6586C14.4385 22.4676 14.3091 22.3266 14.2074 22.2305C14.1564 22.1824 14.1121 22.1452 14.0779 22.1184C14.0608 22.105 14.0462 22.0941 14.0346 22.0857C14.0288 22.0815 14.0237 22.0779 14.0193 22.0749C14.0172 22.0734 14.0152 22.072 14.0134 22.0708C14.0126 22.0702 14.0117 22.0697 14.0109 22.0691C14.0106 22.0689 14.0102 22.0686 14.0098 22.0684C14.0096 22.0683 14.0094 22.0681 14.0093 22.068C14.009 22.0678 14.0088 22.0677 13.708 22.5188ZM13.9791 24.4165C13.9791 24.954 13.8301 25.2279 13.6439 25.5538C13.4357 25.9182 13.1658 26.3645 13.1658 27.1274H14.2502C14.2502 26.6704 14.387 26.439 14.5854 26.0918C14.8058 25.706 15.0635 25.2344 15.0635 24.4165H13.9791ZM13.1658 27.1274C13.1658 27.8773 13.4916 28.6199 13.7755 29.1345C13.9221 29.4002 14.0682 29.6239 14.1779 29.7816C14.2329 29.8606 14.2792 29.9238 14.3124 29.968C14.329 29.9901 14.3424 30.0075 14.352 30.0199C14.3568 30.026 14.3607 30.031 14.3635 30.0346C14.365 30.0364 14.3661 30.0379 14.367 30.039C14.3675 30.0396 14.3679 30.0401 14.3682 30.0405C14.3684 30.0407 14.3685 30.0409 14.3687 30.0411C14.3687 30.0412 14.3688 30.0413 14.3688 30.0413C14.3689 30.0414 14.369 30.0415 14.7924 29.7028C15.2158 29.3641 15.2158 29.3642 15.2159 29.3643C15.2159 29.3643 15.216 29.3644 15.216 29.3644C15.2161 29.3645 15.2161 29.3645 15.2161 29.3646C15.2162 29.3647 15.2162 29.3647 15.2161 29.3646C15.216 29.3644 15.2156 29.3639 15.215 29.3632C15.2138 29.3616 15.2115 29.3587 15.2084 29.3547C15.2021 29.3466 15.1922 29.3337 15.1792 29.3164C15.1531 29.2817 15.1147 29.2294 15.068 29.1623C14.9744 29.0277 14.8494 28.8363 14.7249 28.6107C14.4666 28.1425 14.2502 27.5974 14.2502 27.1274H13.1658ZM21.2986 22.5188C20.9979 22.9699 20.9976 22.9698 20.9974 22.9696C20.9973 22.9695 20.9971 22.9694 20.9969 22.9693C20.9966 22.9691 20.9963 22.9689 20.996 22.9687C20.9954 22.9683 20.9949 22.9679 20.9944 22.9676C20.9934 22.9669 20.9926 22.9664 20.992 22.9659C20.9907 22.9651 20.9902 22.9647 20.9903 22.9648C20.9906 22.9649 20.9935 22.967 20.9986 22.9711C21.0089 22.9792 21.0282 22.995 21.0534 23.0189C21.1041 23.0668 21.1782 23.1461 21.2542 23.2601C21.4032 23.4836 21.5697 23.8546 21.5697 24.4165H22.6541C22.6541 23.6229 22.414 23.045 22.1564 22.6586C22.0291 22.4676 21.8998 22.3266 21.798 22.2305C21.7471 22.1824 21.7027 22.1452 21.6686 22.1184C21.6515 22.105 21.6369 22.0941 21.6252 22.0857C21.6194 22.0815 21.6143 22.0779 21.61 22.0749C21.6078 22.0734 21.6058 22.072 21.6041 22.0708C21.6032 22.0702 21.6024 22.0697 21.6016 22.0691C21.6012 22.0689 21.6008 22.0686 21.6005 22.0684C21.6003 22.0683 21.6 22.0681 21.5999 22.068C21.5997 22.0678 21.5994 22.0677 21.2986 22.5188ZM21.5697 24.4165C21.5697 24.954 21.4208 25.2279 21.2345 25.5538C21.0263 25.9182 20.7565 26.3645 20.7565 27.1274H21.8408C21.8408 26.6704 21.9776 26.439 22.176 26.0918C22.3965 25.706 22.6541 25.2344 22.6541 24.4165H21.5697ZM20.7565 27.1274C20.7565 27.8773 21.0822 28.6199 21.3661 29.1345C21.5127 29.4002 21.6588 29.6239 21.7685 29.7816C21.8235 29.8606 21.8698 29.9238 21.903 29.968C21.9197 29.9901 21.933 30.0075 21.9426 30.0199C21.9475 30.026 21.9513 30.031 21.9542 30.0346C21.9556 30.0364 21.9568 30.0379 21.9577 30.039C21.9581 30.0396 21.9585 30.0401 21.9589 30.0405C21.959 30.0407 21.9592 30.0409 21.9593 30.0411C21.9594 30.0412 21.9595 30.0413 21.9595 30.0413C21.9596 30.0414 21.9596 30.0415 22.383 29.7028C22.8064 29.3641 22.8065 29.3642 22.8065 29.3643C22.8066 29.3643 22.8066 29.3644 22.8066 29.3644C22.8067 29.3645 22.8068 29.3645 22.8068 29.3646C22.8069 29.3647 22.8069 29.3647 22.8068 29.3646C22.8067 29.3644 22.8063 29.3639 22.8057 29.3632C22.8044 29.3616 22.8022 29.3587 22.799 29.3547C22.7928 29.3466 22.7829 29.3337 22.7698 29.3164C22.7438 29.2817 22.7053 29.2294 22.6587 29.1623C22.565 29.0277 22.44 28.8363 22.3156 28.6107C22.0573 28.1425 21.8408 27.5974 21.8408 27.1274H20.7565Z" fill="white"/>
<path d="M12.9375 12.5H18.9375" stroke="#FF8651" stroke-linecap="round" stroke-linejoin="round"/>
<path d="M12.7594 3C12.7594 2.70056 12.5167 2.45781 12.2172 2.45781C11.9178 2.45781 11.675 2.70056 11.675 3H12.7594ZM20.35 3C20.35 2.70056 20.1073 2.45781 19.8078 2.45781C19.5084 2.45781 19.2657 2.70056 19.2657 3H20.35ZM29.0251 19.9434V20.4856H29.5672V19.9434H29.0251ZM3 19.9434H2.45781V20.4856H3V19.9434ZM10.0781 22.0677C9.82896 21.9016 9.49233 21.9689 9.32623 22.218C9.16013 22.4672 9.22746 22.8038 9.47661 22.9699L10.0781 22.0677ZM10.4384 30.0415C10.6254 30.2753 10.9666 30.3132 11.2004 30.1262C11.4343 29.9391 11.4722 29.5979 11.2851 29.3641L10.4384 30.0415ZM17.8043 22.0677C17.5551 21.9016 17.2185 21.9689 17.0524 22.218C16.8863 22.4672 16.9536 22.8038 17.2028 22.9699L17.8043 22.0677ZM18.1645 30.0415C18.3516 30.2753 18.6928 30.3132 18.9266 30.1262C19.1605 29.9391 19.1984 29.5979 19.0113 29.3641L18.1645 30.0415ZM11.675 3V9.09962H12.7594V3H11.675ZM12.2172 9.64181H19.8078V8.55743H12.2172V9.64181ZM20.35 9.09962V3H19.2657V9.09962H20.35ZM19.4476 9.50486L26.7672 16.0111L27.4876 15.2007L20.1681 8.69439L19.4476 9.50486ZM27.1274 16.1481H28.2118V15.0637H27.1274V16.1481ZM28.4829 16.4192V19.9434H29.5672V16.4192H28.4829ZM29.0251 19.4012H3V20.4856H29.0251V19.4012ZM3.54219 19.9434V16.9614H2.45781V19.9434H3.54219ZM4.35547 16.1481H4.89766V15.0637H4.35547V16.1481ZM4.89766 16.1481H27.1274V15.0637H4.89766V16.1481ZM11.857 8.69439L4.53745 15.2007L5.25787 16.0111L12.5774 9.50486L11.857 8.69439ZM9.77736 22.5188C9.47661 22.9699 9.47636 22.9698 9.47611 22.9696C9.47603 22.9695 9.47578 22.9694 9.47563 22.9693C9.47531 22.9691 9.47501 22.9689 9.47471 22.9687C9.47413 22.9683 9.47359 22.9679 9.4731 22.9676C9.47212 22.9669 9.47132 22.9663 9.4707 22.9659C9.46946 22.9651 9.46892 22.9647 9.46905 22.9648C9.4693 22.9649 9.47218 22.967 9.47733 22.9711C9.48765 22.9792 9.50686 22.995 9.53215 23.0189C9.58286 23.0668 9.65687 23.1461 9.73287 23.2601C9.88189 23.4836 10.0485 23.8546 10.0485 24.4165H11.1328C11.1328 23.6229 10.8928 23.045 10.6351 22.6586C10.5078 22.4676 10.3785 22.3266 10.2767 22.2305C10.2258 22.1824 10.1814 22.1452 10.1473 22.1184C10.1302 22.105 10.1156 22.0941 10.1039 22.0857C10.0981 22.0815 10.093 22.0779 10.0887 22.0749C10.0865 22.0734 10.0846 22.072 10.0828 22.0708C10.0819 22.0702 10.0811 22.0697 10.0803 22.0691C10.0799 22.0689 10.0795 22.0686 10.0792 22.0684C10.079 22.0682 10.0787 22.0681 10.0786 22.068C10.0784 22.0678 10.0781 22.0677 9.77736 22.5188ZM10.0485 24.4165C10.0485 24.954 9.89947 25.2279 9.71325 25.5538C9.50502 25.9182 9.23517 26.3644 9.23517 27.1274H10.3195C10.3195 26.6704 10.4563 26.439 10.6548 26.0918C10.8752 25.706 11.1328 25.2344 11.1328 24.4165H10.0485ZM9.23517 27.1274C9.23517 27.8773 9.56091 28.6199 9.84482 29.1345C9.99144 29.4002 10.1375 29.6239 10.2472 29.7816C10.3022 29.8606 10.3485 29.9237 10.3817 29.9679C10.3984 29.9901 10.4117 30.0075 10.4214 30.0199C10.4262 30.026 10.43 30.031 10.4329 30.0346C10.4343 30.0364 10.4355 30.0379 10.4364 30.039C10.4369 30.0396 10.4373 30.0401 10.4376 30.0405C10.4377 30.0407 10.4379 30.0409 10.438 30.0411C10.4381 30.0412 10.4382 30.0413 10.4382 30.0413C10.4383 30.0414 10.4384 30.0415 10.8617 29.7028C11.2851 29.3641 11.2852 29.3642 11.2852 29.3643C11.2853 29.3643 11.2853 29.3644 11.2854 29.3644C11.2854 29.3645 11.2855 29.3645 11.2855 29.3646C11.2856 29.3647 11.2856 29.3647 11.2855 29.3646C11.2854 29.3644 11.285 29.3639 11.2844 29.3631C11.2831 29.3616 11.2809 29.3587 11.2778 29.3547C11.2715 29.3466 11.2616 29.3337 11.2485 29.3164C11.2225 29.2817 11.184 29.2294 11.1374 29.1623C11.0437 29.0277 10.9188 28.8363 10.7943 28.6106C10.536 28.1425 10.3195 27.5974 10.3195 27.1274H9.23517ZM17.5035 22.5188C17.2028 22.9699 17.2025 22.9698 17.2023 22.9696C17.2022 22.9695 17.202 22.9694 17.2018 22.9693C17.2015 22.9691 17.2012 22.9689 17.2009 22.9687C17.2003 22.9683 17.1998 22.9679 17.1993 22.9676C17.1983 22.9669 17.1975 22.9663 17.1969 22.9659C17.1956 22.9651 17.1951 22.9647 17.1952 22.9648C17.1955 22.9649 17.1984 22.967 17.2035 22.9711C17.2138 22.9792 17.2331 22.995 17.2583 23.0189C17.309 23.0668 17.3831 23.1461 17.4591 23.2601C17.6081 23.4836 17.7746 23.8546 17.7746 24.4165H18.859C18.859 23.6229 18.6189 23.045 18.3613 22.6586C18.234 22.4676 18.1047 22.3266 18.0029 22.2305C17.952 22.1824 17.9076 22.1452 17.8735 22.1184C17.8564 22.105 17.8418 22.0941 17.8301 22.0857C17.8243 22.0815 17.8192 22.0779 17.8149 22.0749C17.8127 22.0734 17.8107 22.072 17.809 22.0708C17.8081 22.0702 17.8073 22.0697 17.8065 22.0691C17.8061 22.0689 17.8057 22.0686 17.8054 22.0684C17.8052 22.0682 17.8049 22.0681 17.8048 22.068C17.8046 22.0678 17.8043 22.0677 17.5035 22.5188ZM17.7746 24.4165C17.7746 24.954 17.6257 25.2279 17.4394 25.5538C17.2312 25.9182 16.9614 26.3644 16.9614 27.1274H18.0457C18.0457 26.6704 18.1825 26.439 18.3809 26.0918C18.6014 25.706 18.859 25.2344 18.859 24.4165H17.7746ZM16.9614 27.1274C16.9614 27.8773 17.2871 28.6199 17.571 29.1345C17.7176 29.4002 17.8637 29.6239 17.9734 29.7816C18.0284 29.8606 18.0747 29.9237 18.1079 29.9679C18.1246 29.9901 18.1379 30.0075 18.1475 30.0199C18.1524 30.026 18.1562 30.031 18.1591 30.0346C18.1605 30.0364 18.1617 30.0379 18.1626 30.039C18.163 30.0396 18.1634 30.0401 18.1638 30.0405C18.1639 30.0407 18.1641 30.0409 18.1642 30.0411C18.1643 30.0412 18.1644 30.0413 18.1644 30.0413C18.1645 30.0414 18.1645 30.0415 18.5879 29.7028C19.0113 29.3641 19.0114 29.3642 19.0114 29.3643C19.0115 29.3643 19.0115 29.3644 19.0115 29.3644C19.0116 29.3645 19.0117 29.3645 19.0117 29.3646C19.0118 29.3647 19.0118 29.3647 19.0117 29.3646C19.0116 29.3644 19.0112 29.3639 19.0106 29.3631C19.0093 29.3616 19.0071 29.3587 19.0039 29.3547C18.9977 29.3466 18.9878 29.3337 18.9747 29.3164C18.9487 29.2817 18.9102 29.2294 18.8636 29.1623C18.7699 29.0277 18.6449 28.8363 18.5205 28.6106C18.2622 28.1425 18.0457 27.5974 18.0457 27.1274H16.9614ZM3.54219 16.9614C3.54219 16.5122 3.90631 16.1481 4.35547 16.1481V15.0637C3.30742 15.0637 2.45781 15.9133 2.45781 16.9614H3.54219ZM28.2118 16.1481C28.3615 16.1481 28.4829 16.2694 28.4829 16.4192H29.5672C29.5672 15.6706 28.9604 15.0637 28.2118 15.0637V16.1481Z" fill="white"/>
</svg>
