<svg width="36" height="36" viewBox="0 0 36 36" fill="none" xmlns="http://www.w3.org/2000/svg">
<path d="M18.1603 8C10.6256 8 3 10.3438 3 14.8221V20.8862C3 25.3646 10.6256 27.7083 18.1603 27.7083C25.6949 27.7083 33.3205 25.3646 33.3205 20.8862V14.8221C33.3205 10.3438 25.6949 8 18.1603 8ZM6.03205 20.8862V19.0715C6.99222 19.6153 8.00894 20.0525 9.0641 20.3753V23.227C7.07508 22.4477 6.03205 21.5199 6.03205 20.8862ZM24.2244 21.1106V24.0987C22.91 24.37 21.3939 24.5686 19.6763 24.6414V21.6094C21.202 21.5486 22.7217 21.382 24.2244 21.1106ZM16.6442 24.6429C15.1161 24.5844 13.5952 24.4029 12.0962 24.1002V21.1121C13.55 21.3759 15.0858 21.5472 16.6442 21.6124V24.6429ZM27.2564 23.227V20.3753C28.3118 20.0532 29.3286 19.6159 30.2885 19.0715V20.8862C30.2885 21.5199 29.247 22.4477 27.2564 23.227ZM18.1603 18.6122C10.3118 18.6122 6.03205 16.1092 6.03205 14.8221C6.03205 13.535 10.3118 11.0321 18.1603 11.0321C26.0087 11.0321 30.2885 13.535 30.2885 14.8221C30.2885 16.1092 26.0087 18.6122 18.1603 18.6122Z" fill="#3D3D3D"/>
</svg>
