<svg width="36" height="36" viewBox="0 0 36 36" fill="none" xmlns="http://www.w3.org/2000/svg">
<path d="M17.0994 5.844C17.5261 4.71867 19.1408 4.71867 19.5688 5.844L22.3288 13.4893C22.5221 13.996 23.0141 14.3333 23.5634 14.3333H30.3461C31.5994 14.3333 32.1461 15.8933 31.1608 16.6573L26.3341 21C26.1179 21.1662 25.9599 21.3966 25.8827 21.6582C25.8056 21.9198 25.8133 22.1991 25.9048 22.456L27.6674 29.9267C28.0968 31.1267 26.7074 32.1573 25.6568 31.4187L19.1008 27.2587C18.8762 27.1009 18.6085 27.0162 18.3341 27.0162C18.0597 27.0162 17.7919 27.1009 17.5674 27.2587L11.0114 31.4187C9.96209 32.1573 8.57142 31.1253 9.00075 29.9267L10.7634 22.456C10.8549 22.1991 10.8626 21.9198 10.7854 21.6582C10.7083 21.3966 10.5503 21.1662 10.3341 21L5.50742 16.6573C4.52075 15.8933 5.07009 14.3333 6.32075 14.3333H13.1034C13.3705 14.3342 13.6315 14.254 13.852 14.1033C14.0724 13.9526 14.242 13.7385 14.3381 13.4893L17.0981 5.844H17.0994Z" stroke="#3D3D3D" stroke-width="3" stroke-linecap="round" stroke-linejoin="round"/>
</svg>
