<svg width="80" height="80" viewBox="0 0 80 80" fill="none" xmlns="http://www.w3.org/2000/svg">
<circle cx="40" cy="40" r="40" fill="#FF8651"/>
<path d="M40 11.5557C34.3742 11.5557 28.8748 13.2239 24.1971 16.3494C19.5194 19.475 15.8736 23.9174 13.7208 29.1149C11.5679 34.3125 11.0046 40.0317 12.1021 45.5494C13.1996 51.0671 15.9087 56.1354 19.8867 60.1134C23.8648 64.0914 28.9331 66.8005 34.4508 67.898C39.9684 68.9956 45.6877 68.4323 50.8852 66.2794C56.0828 64.1265 60.5252 60.4807 63.6507 55.803C66.7762 51.1254 68.4444 45.6259 68.4444 40.0001C68.4444 32.4562 65.4476 25.2212 60.1133 19.8869C54.7789 14.5525 47.5439 11.5557 40 11.5557ZM40 64.889C35.0774 64.889 30.2654 63.4293 26.1725 60.6945C22.0795 57.9597 18.8894 54.0726 17.0057 49.5247C15.1219 44.9769 14.629 39.9725 15.5893 35.1446C16.5497 30.3166 18.9201 25.8818 22.4009 22.401C25.8817 18.9203 30.3164 16.5498 35.1444 15.5895C39.9724 14.6291 44.9767 15.122 49.5246 17.0058C54.0724 18.8896 57.9595 22.0797 60.6943 26.1726C63.4292 30.2656 64.8889 35.0776 64.8889 40.0001C64.8889 46.6011 62.2667 52.9317 57.5991 57.5992C52.9315 62.2668 46.6009 64.889 40 64.889Z" fill="white"/>
<path d="M41.6356 40.7111V27.1111C41.6356 26.6396 41.4483 26.1874 41.1149 25.854C40.7815 25.5206 40.3293 25.3333 39.8578 25.3333C39.3863 25.3333 38.9341 25.5206 38.6007 25.854C38.2673 26.1874 38.08 26.6396 38.08 27.1111V42.6133L48.5689 49.7245C48.7621 49.8698 48.9829 49.9742 49.2179 50.0312C49.4528 50.0883 49.6969 50.0969 49.9352 50.0564C50.1736 50.0159 50.4012 49.9272 50.6041 49.7958C50.807 49.6643 50.981 49.4929 51.1153 49.2919C51.2497 49.0909 51.3417 48.8646 51.3857 48.6269C51.4296 48.3892 51.4246 48.145 51.371 47.9092C51.3173 47.6735 51.2162 47.4512 51.0737 47.2559C50.9312 47.0606 50.7503 46.8964 50.5422 46.7733L41.6356 40.7111Z" fill="white"/>
<path d="M22.2222 39.8933C22.2059 36.6952 23.0579 33.5525 24.6873 30.8005C26.3167 28.0485 28.6624 25.7903 31.4744 24.2667C34.2863 22.743 37.459 22.011 40.6542 22.1488C43.8495 22.2865 46.9474 23.2889 49.6178 25.0489L51.1289 22.6311C48.5924 20.9696 45.7194 19.8905 42.7163 19.4713C39.7132 19.0521 36.6546 19.3032 33.76 20.2066C30.8655 21.1099 28.207 22.6432 25.9755 24.6961C23.744 26.7491 21.9948 29.2708 20.8537 32.0801C19.7126 34.8894 19.2079 37.9166 19.3757 40.9441C19.5436 43.9717 20.3799 46.9245 21.8246 49.5904C23.2693 52.2564 25.2865 54.5693 27.7313 56.3629C30.1761 58.1566 32.9878 59.3866 35.9644 59.9644L36.4444 57.2444C32.4408 56.4272 28.841 54.2558 26.2507 51.0956C23.6603 47.9355 22.2377 43.9794 22.2222 39.8933Z" fill="white"/>
</svg>
