<svg width="74" height="30" viewBox="0 0 74 30" fill="none" xmlns="http://www.w3.org/2000/svg">
<g clip-path="url(#clip0)">
<path d="M0 0H1.41815V11.4808C1.6939 11.1346 1.98935 10.7885 2.3045 10.4808C3.88022 8.88462 6.06654 8 8.33165 8.03846C10.5968 8 12.7831 8.88462 14.3785 10.4808C16.0133 12.0385 16.9194 14.1731 16.88 16.3846C16.9194 18.5962 16.0133 20.7308 14.3785 22.2692C12.8028 23.8654 10.6165 24.75 8.33165 24.7115C6.06654 24.75 3.86053 23.8462 2.2848 22.25C1.96966 21.9423 1.67421 21.6154 1.39846 21.25V24.2692H0V0ZM1.41815 14.9615V17.8077C1.67421 19.1154 2.34389 20.3077 3.32872 21.2115C4.62869 22.5385 6.44078 23.2692 8.33165 23.2308C10.2028 23.2692 12.0149 22.5385 13.3149 21.2308C14.6739 19.9615 15.4224 18.1923 15.383 16.3654C15.383 12.5577 12.2316 9.48077 8.33165 9.46154C6.44078 9.44231 4.64839 10.1731 3.32872 11.4808C2.34389 12.4423 1.67421 13.6538 1.41815 14.9615Z" fill="white"/>
<path d="M20.6023 15.6151C20.5629 15.8651 20.5433 16.1344 20.5433 16.3844C20.5433 20.1728 23.6947 23.269 27.5946 23.2497C27.5946 23.2497 27.5946 23.2497 27.6143 23.2497C29.5052 23.269 31.2976 22.5382 32.6173 21.2113C32.8536 20.9805 33.0703 20.7497 33.2869 20.4805L34.7839 20.9997C34.4687 21.4613 34.0945 21.8651 33.6809 22.2305C30.3718 25.4805 24.975 25.4997 21.6266 22.269C21.6069 22.2497 21.6069 22.2497 21.5872 22.2305C19.9524 20.692 19.0463 18.5574 19.0857 16.3459C19.0857 11.7305 22.9068 7.99974 27.6143 7.99974C29.8991 7.96128 32.0854 8.84589 33.6612 10.4613C35.0793 11.8074 35.8869 13.6728 35.8672 15.5959H20.6023V15.6151ZM20.8781 14.2305H34.2915C33.9763 13.2113 33.4051 12.269 32.6173 11.519C29.8597 8.82666 25.3886 8.80743 22.6311 11.4997L22.6114 11.519C21.8235 12.269 21.2326 13.2113 20.8781 14.2305Z" fill="white"/>
<path d="M44.3371 24.4998C42.4265 24.4998 40.9099 23.9422 39.7872 22.846C38.6645 21.7499 38.0736 20.346 38.0342 18.6729V9.36523H39.4326V18.5575C39.4129 19.7883 39.9251 20.9614 40.8311 21.7883C41.7371 22.6922 42.9977 23.1922 44.2977 23.1537C45.5583 23.1729 46.7598 22.6922 47.6264 21.8075C48.5325 20.9614 49.0446 19.7883 49.0249 18.5575V9.36523H50.4233V18.6729C50.3839 20.3652 49.8127 21.7499 48.6703 22.846C47.5279 23.9422 46.1295 24.4998 44.3371 24.4998Z" fill="#FF441F"/>
<path d="M53.6143 9.38431H55.0127V11.4805C55.2885 11.1343 55.5839 10.7882 55.8991 10.4805C59.2278 7.23047 64.6443 7.23047 67.973 10.4805C69.5685 12.0382 70.4745 14.1728 70.4745 16.3843C70.5139 18.5959 69.6079 20.7305 67.973 22.2689C64.664 25.5189 59.2869 25.5382 55.9384 22.3074C55.9188 22.2882 55.8991 22.2882 55.8991 22.2689C55.5839 21.9612 55.2885 21.6343 55.0127 21.2689V29.9997H53.6143V9.38431ZM55.0127 14.9612V17.8074C55.2688 19.1151 55.9384 20.3266 56.9233 21.2497C59.6808 23.942 64.1519 23.942 66.9094 21.2689C68.2291 19.9805 68.9776 18.2305 68.9776 16.4035C68.9776 12.5959 65.8261 9.4997 61.9459 9.4997C60.055 9.4997 58.2626 10.2305 56.9233 11.5189C55.9581 12.442 55.2885 13.6535 55.0127 14.9612Z" fill="#FF441F"/>
<path d="M73.5865 22.1922C74.138 22.7115 74.138 23.5576 73.6062 24.0961L73.5865 24.1153C73.3304 24.3653 72.9759 24.5192 72.6016 24.5192C72.2274 24.5192 71.8729 24.3845 71.6168 24.1153C71.0653 23.5961 71.0653 22.7499 71.5971 22.2115L71.6168 22.1922C71.8729 21.9422 72.2274 21.8076 72.6016 21.8076C72.9759 21.8076 73.3304 21.9422 73.5865 22.1922Z" fill="white"/>
</g>
<defs>
<clipPath id="clip0">
<rect width="74" height="30" fill="white"/>
</clipPath>
</defs>
</svg>
