<svg width="80" height="80" viewBox="0 0 80 80" fill="none" xmlns="http://www.w3.org/2000/svg">
<circle cx="40" cy="40" r="40" fill="#FF8651"/>
<path d="M24.1207 57.8135L48.6058 21.9567H54.7014L30.2163 57.8135H24.1207ZM27.2453 41.3194C25.5037 41.3194 23.967 40.9267 22.6352 40.1412C21.3033 39.3216 20.2447 38.1776 19.4593 36.7092C18.708 35.2066 18.3323 33.4479 18.3323 31.4331C18.3323 29.4183 18.708 27.6767 19.4593 26.2083C20.2447 24.7398 21.3033 23.5958 22.6352 22.7762C23.967 21.9567 25.5037 21.5469 27.2453 21.5469C28.9869 21.5469 30.5237 21.9567 31.8555 22.7762C33.1873 23.5958 34.2289 24.7398 34.9802 26.2083C35.7315 27.6767 36.1071 29.4183 36.1071 31.4331C36.1071 33.4479 35.7315 35.2066 34.9802 36.7092C34.2289 38.1776 33.1873 39.3216 31.8555 40.1412C30.5237 40.9267 28.9869 41.3194 27.2453 41.3194ZM27.2453 37.119C28.3723 37.119 29.2772 36.658 29.9602 35.7359C30.6432 34.7798 30.9847 33.3455 30.9847 31.4331C30.9847 29.5208 30.6432 28.1036 29.9602 27.1815C29.2772 26.2253 28.3723 25.7472 27.2453 25.7472C26.1525 25.7472 25.2476 26.2253 24.5304 27.1815C23.8475 28.1036 23.506 29.5208 23.506 31.4331C23.506 33.3113 23.8475 34.7285 24.5304 35.6847C25.2476 36.6409 26.1525 37.119 27.2453 37.119ZM51.5768 58.2233C49.8693 58.2233 48.3326 57.8306 46.9666 57.0452C45.6348 56.2256 44.5932 55.0816 43.8419 53.6132C43.0906 52.1106 42.715 50.3519 42.715 48.3371C42.715 46.3223 43.0906 44.5806 43.8419 43.1122C44.5932 41.6438 45.6348 40.4998 46.9666 39.6802C48.3326 38.8606 49.8693 38.4508 51.5768 38.4508C53.3525 38.4508 54.9063 38.8606 56.2382 39.6802C57.57 40.4998 58.6116 41.6438 59.3628 43.1122C60.1141 44.5806 60.4898 46.3223 60.4898 48.3371C60.4898 50.3519 60.1141 52.1106 59.3628 53.6132C58.6116 55.0816 57.57 56.2256 56.2382 57.0452C54.9063 57.8306 53.3525 58.2233 51.5768 58.2233ZM51.5768 54.023C52.7037 54.023 53.6087 53.5619 54.2917 52.6399C54.9746 51.6837 55.3161 50.2494 55.3161 48.3371C55.3161 46.4589 54.9746 45.0417 54.2917 44.0855C53.6087 43.1293 52.7037 42.6512 51.5768 42.6512C50.484 42.6512 49.579 43.1293 48.8619 44.0855C48.1789 45.0075 47.8374 46.4247 47.8374 48.3371C47.8374 50.2494 48.1789 51.6837 48.8619 52.6399C49.579 53.5619 50.484 54.023 51.5768 54.023Z" fill="white"/>
</svg>
