<svg width="33" height="33" viewBox="0 0 33 33" fill="none" xmlns="http://www.w3.org/2000/svg">
<g clip-path="url(#clip0)">
<path d="M32.1285 14.2381L32.1283 14.238L17.3803 1.33338C17.3803 1.33335 17.3803 1.33332 17.3802 1.33329C16.9025 0.915613 16.1167 0.924815 15.6494 1.35321L15.6494 1.35323L0.851128 14.9183C0.851121 14.9183 0.851113 14.9183 0.851106 14.9183C0.402556 15.3295 0.38105 16.0136 0.802357 16.4515L0.802691 16.4519L1.17358 16.8381C1.62809 17.3112 2.31689 17.3257 2.70019 16.9823L2.70029 16.9822L3.80623 15.9918L4.63979 15.2453V16.3642V30.864C4.63979 31.4773 5.13664 31.9738 5.7496 31.9738H11.518C12.131 31.9738 12.6278 31.4773 12.6278 30.864V20.72V20.22H13.1278H20.4855H20.9855V20.72V30.864V30.8712H20.9854C20.9762 31.5133 21.4187 31.9732 21.9977 31.9732H28.1108C28.7237 31.9732 29.2206 31.4767 29.2206 30.8634V16.5684V15.4657L30.05 16.1923L29.7206 16.5684L30.05 16.1923L30.0501 16.1923L30.0501 16.1924L30.0503 16.1925L30.0509 16.1931L30.0536 16.1954L30.0639 16.2045L30.1038 16.2394L30.2501 16.3677C30.3737 16.4761 30.5444 16.6259 30.7329 16.7917L32.1285 14.2381ZM32.1285 14.2381C32.5872 14.6392 32.6265 15.3262 32.2167 15.7769C32.2167 15.777 32.2167 15.777 32.2166 15.777L31.7975 16.2378L31.7973 16.238M32.1285 14.2381L31.7973 16.238M31.7973 16.238C31.5452 16.5155 31.2676 16.6921 31.0427 16.7677M31.7973 16.238L31.0427 16.7677M31.0427 16.7677C30.9309 16.8052 30.8476 16.8128 30.7946 16.8084M31.0427 16.7677L30.7946 16.8084M30.7946 16.8084C30.7692 16.8063 30.7535 16.8017 30.7451 16.7984M30.7946 16.8084L30.7451 16.7984M30.7451 16.7984C30.7373 16.7953 30.7342 16.7928 30.733 16.7917L30.7451 16.7984Z" stroke="#9C9C9C"/>
</g>
<defs>
<clipPath id="clip0">
<rect width="33" height="33" fill="white"/>
</clipPath>
</defs>
</svg>
