<svg width="33" height="33" viewBox="0 0 33 33" fill="none" xmlns="http://www.w3.org/2000/svg">
<path d="M30.6899 14.912L29.8353 11.4937C30.0689 11.4441 30.2442 11.2368 30.2442 10.9885V10.4373C30.2442 9.24068 29.2707 8.26718 28.0741 8.26718H24.1817V7.13036C24.1817 6.54152 23.7026 6.0625 23.1138 6.0625H3.27241C2.68357 6.0625 2.20455 6.54152 2.20455 7.13036V16.4999C2.20455 16.7852 2.43588 17.0166 2.72128 17.0166C3.00661 17.0166 3.238 16.7853 3.238 16.4999V7.13036C3.238 7.11135 3.2534 7.09594 3.27241 7.09594H23.1137C23.1327 7.09594 23.1481 7.11135 23.1481 7.13036V16.5C23.1481 16.7854 23.3795 17.0168 23.6649 17.0168C23.9502 17.0168 24.1816 16.7854 24.1816 16.5V15.9143H30.2769C30.2774 15.9143 30.2778 15.9144 30.2782 15.9144C30.2787 15.9144 30.2792 15.9144 30.2796 15.9144C31.0297 15.9149 31.6665 16.4072 31.8853 17.0855H30.2786C29.9933 17.0855 29.7619 17.3169 29.7619 17.6023V18.7045C29.7619 19.5973 30.4881 20.3235 31.3809 20.3235H31.9665V22.597H30.6154C30.1716 21.3155 28.9534 20.3924 27.5228 20.3924C26.0923 20.3924 24.874 21.3155 24.4302 22.597H24.1815V18.7045C24.1815 18.4191 23.9501 18.1877 23.6647 18.1877C23.3794 18.1877 23.148 18.4191 23.148 18.7045V22.5969H12.4277C11.9838 21.3153 10.7656 20.3922 9.33507 20.3922C7.90453 20.3922 6.68624 21.3153 6.24248 22.5969H3.27241C3.2534 22.5969 3.238 22.5814 3.238 22.5624V21.4257H5.47703C5.76237 21.4257 5.99375 21.1944 5.99375 20.909C5.99375 20.6236 5.76243 20.3922 5.47703 20.3922H0.516721C0.231387 20.3922 0 20.6236 0 20.909C0 21.1944 0.231322 21.4257 0.516721 21.4257H2.20462V22.5624C2.20462 23.1513 2.68363 23.6303 3.27248 23.6303H6.06356C6.06343 23.6418 6.06265 23.6532 6.06265 23.6647C6.06265 25.4691 7.5307 26.9371 9.33507 26.9371C11.1394 26.9371 12.6075 25.4691 12.6075 23.6647C12.6075 23.6531 12.6067 23.6418 12.6066 23.6303H24.2513C24.2512 23.6418 24.2504 23.6532 24.2504 23.6647C24.2504 25.4691 25.7185 26.9371 27.5228 26.9371C29.3272 26.9371 30.7953 25.4691 30.7953 23.6647C30.7953 23.6531 30.7945 23.6418 30.7943 23.6303H32.4832C32.7685 23.6303 32.9999 23.399 32.9999 23.1136V17.6021C33 16.2414 31.996 15.1108 30.6899 14.912ZM24.1817 9.30056H28.0741C28.7009 9.30056 29.2109 9.81051 29.2109 10.4373V10.4717H24.1817V9.30056ZM24.1817 14.8809V11.5051H28.773L29.6169 14.8809H24.1817ZM9.33507 25.9039C8.10047 25.9039 7.09603 24.8995 7.09603 23.6648C7.09603 22.4302 8.10047 21.4258 9.33507 21.4258C10.5697 21.4258 11.5741 22.4302 11.5741 23.6648C11.5741 24.8995 10.5697 25.9039 9.33507 25.9039ZM27.523 25.9039C26.2884 25.9039 25.2839 24.8995 25.2839 23.6648C25.2839 22.4302 26.2884 21.4258 27.523 21.4258C28.7576 21.4258 29.762 22.4302 29.762 23.6648C29.762 24.8995 28.7576 25.9039 27.523 25.9039ZM31.9666 19.2901H31.381C31.0581 19.2901 30.7954 19.0274 30.7954 18.7045V18.1188H31.9666V19.2901H31.9666Z" fill="#FF8651"/>
<path d="M9.33544 22.5972C8.74659 22.5972 8.26758 23.0762 8.26758 23.665C8.26758 24.2539 8.74659 24.7329 9.33544 24.7329C9.92428 24.7329 10.4033 24.2539 10.4033 23.665C10.4033 23.0762 9.92428 22.5972 9.33544 22.5972Z" fill="#FF8651"/>
<path d="M27.5229 22.5972C26.9341 22.5972 26.4551 23.0762 26.4551 23.665C26.4551 24.2539 26.9341 24.7329 27.5229 24.7329C28.1118 24.7329 28.5908 24.2539 28.5908 23.665C28.5908 23.0762 28.1118 22.5972 27.5229 22.5972Z" fill="#FF8651"/>
<path d="M21.4613 20.3926H13.7452C13.4599 20.3926 13.2285 20.6239 13.2285 20.9093C13.2285 21.1947 13.4598 21.426 13.7452 21.426H21.4613C21.7466 21.426 21.978 21.1947 21.978 20.9093C21.978 20.6239 21.7467 20.3926 21.4613 20.3926Z" fill="#FF8651"/>
<path d="M8.23402 18.188H1.62024C1.3349 18.188 1.10352 18.4193 1.10352 18.7047C1.10352 18.9901 1.33484 19.2214 1.62024 19.2214H8.23402C8.51936 19.2214 8.75074 18.9901 8.75074 18.7047C8.75074 18.4193 8.51936 18.188 8.23402 18.188Z" fill="#FF8651"/>
</svg>
