<svg width="33" height="33" viewBox="0 0 33 33" fill="none" xmlns="http://www.w3.org/2000/svg">
<g clip-path="url(#clip0)">
<path d="M3.70011 22.2841L5.87953 19.3783H13.4906L9.81111 31.1526L9.60825 31.8018H10.2884H13.3942H13.6714L13.8182 31.5668L21.4361 19.3783H29.7001C31.2186 19.3783 32.5295 18.0673 32.5295 16.5488C32.5295 15.0303 31.2186 13.7194 29.7001 13.7194H21.4361L13.8182 1.5309L13.6714 1.2959H13.3942H10.2884H9.60825L9.81111 1.94504L13.4906 13.7194H5.87953L3.70011 10.8135L3.55011 10.6135H3.30011H0.970703H0.307838L0.489941 11.2509L2.00364 16.5488L0.489941 21.8468L0.307838 22.4841H0.970703H3.30011H3.55011L3.70011 22.2841Z" stroke="#FF8651"/>
</g>
<defs>
<clipPath id="clip0">
<rect width="33" height="33" fill="white"/>
</clipPath>
</defs>
</svg>
