<svg width="31" height="31" viewBox="0 0 31 31" fill="none" xmlns="http://www.w3.org/2000/svg">
<circle cx="15.5" cy="15.5" r="15.5" fill="#FF2929"/>
<path d="M8 11.5198C8 10.9198 8.08 10.3932 8.24 9.93984C8.4 9.48651 8.62 9.10651 8.9 8.79984C9.19333 8.47984 9.53333 8.23984 9.92 8.07984C10.3067 7.91984 10.7267 7.83984 11.18 7.83984C11.6333 7.83984 12.0533 7.91984 12.44 8.07984C12.8267 8.23984 13.16 8.47984 13.44 8.79984C13.7333 9.10651 13.96 9.48651 14.12 9.93984C14.28 10.3932 14.36 10.9198 14.36 11.5198C14.36 12.1198 14.28 12.6465 14.12 13.0998C13.96 13.5532 13.7333 13.9398 13.44 14.2598C13.16 14.5665 12.8267 14.7998 12.44 14.9598C12.0533 15.1198 11.6333 15.1998 11.18 15.1998C10.7267 15.1998 10.3067 15.1198 9.92 14.9598C9.53333 14.7998 9.19333 14.5665 8.9 14.2598C8.62 13.9398 8.4 13.5532 8.24 13.0998C8.08 12.6465 8 12.1198 8 11.5198ZM12.8 11.5198C12.8 10.7998 12.66 10.2398 12.38 9.83984C12.1 9.42651 11.7 9.21984 11.18 9.21984C10.66 9.21984 10.26 9.42651 9.98 9.83984C9.7 10.2398 9.56 10.7998 9.56 11.5198C9.56 12.2398 9.7 12.8065 9.98 13.2198C10.26 13.6198 10.66 13.8198 11.18 13.8198C11.7 13.8198 12.1 13.6198 12.38 13.2198C12.66 12.8065 12.8 12.2398 12.8 11.5198ZM16.8 18.6198C16.8 18.0198 16.88 17.4932 17.04 17.0398C17.2 16.5865 17.42 16.2065 17.7 15.8998C17.9933 15.5798 18.3333 15.3398 18.72 15.1798C19.1067 15.0198 19.5267 14.9398 19.98 14.9398C20.4333 14.9398 20.8533 15.0198 21.24 15.1798C21.6267 15.3398 21.96 15.5798 22.24 15.8998C22.5333 16.2065 22.76 16.5865 22.92 17.0398C23.08 17.4932 23.16 18.0198 23.16 18.6198C23.16 19.2198 23.08 19.7465 22.92 20.1998C22.76 20.6532 22.5333 21.0398 22.24 21.3598C21.96 21.6665 21.6267 21.8998 21.24 22.0598C20.8533 22.2198 20.4333 22.2998 19.98 22.2998C19.5267 22.2998 19.1067 22.2198 18.72 22.0598C18.3333 21.8998 17.9933 21.6665 17.7 21.3598C17.42 21.0398 17.2 20.6532 17.04 20.1998C16.88 19.7465 16.8 19.2198 16.8 18.6198ZM21.6 18.6198C21.6 17.8998 21.46 17.3398 21.18 16.9398C20.9 16.5265 20.5 16.3198 19.98 16.3198C19.46 16.3198 19.06 16.5265 18.78 16.9398C18.5 17.3398 18.36 17.8998 18.36 18.6198C18.36 19.3398 18.5 19.9065 18.78 20.3198C19.06 20.7198 19.46 20.9198 19.98 20.9198C20.5 20.9198 20.9 20.7198 21.18 20.3198C21.46 19.9065 21.6 19.3398 21.6 18.6198ZM20.4 8.13984L12.58 21.9998H10.76L18.58 8.13984H20.4Z" fill="white"/>
</svg>
