<svg width="32" height="32" viewBox="0 0 32 32" fill="none" xmlns="http://www.w3.org/2000/svg">
<path d="M5.56557 5.88908L10.3345 8.61166C12.4788 7.35501 16.9161 4.84167 21.2505 2.40002C21.7485 2.5951 22.233 2.81711 22.7021 3.06426C17.8845 5.77624 12.767 8.67272 10.6679 9.91345L10.345 10.1043L4.70256 6.883C4.97516 6.53859 5.26318 6.20693 5.56557 5.88908Z" fill="white"/>
<path d="M2.99122 9.63015C3.1769 9.24016 3.3796 8.85984 3.59836 8.49015L10.3345 12.3358C12.7507 10.9198 18.0785 7.9081 22.8898 5.20136C23.4634 4.87867 24.0298 4.56024 24.5832 4.24927C24.9544 4.52524 25.3118 4.81866 25.6543 5.12831C24.9632 5.51657 24.2488 5.91815 23.5228 6.32655C18.478 9.16462 12.8867 12.3261 10.6679 13.6376L10.345 13.8284L2.99122 9.63015Z" fill="white"/>
<path d="M1.9083 12.8354C2.00065 12.3961 2.11302 11.9642 2.24442 11.5406L10.3345 16.1592C12.7507 14.7432 18.0785 11.7315 22.8898 9.02481C24.3795 8.18676 25.8205 7.37743 27.1117 6.65298C27.3879 6.98763 27.6493 7.33497 27.8948 7.69399C26.5657 8.43966 25.0704 9.27934 23.5228 10.15C18.478 12.9881 12.8867 16.1495 10.6679 17.461L10.345 17.6519L1.9083 12.8354Z" fill="white"/>
<path fill-rule="evenodd" clip-rule="evenodd" d="M1.62093 16.5941C1.6071 16.3354 1.6001 16.075 1.6001 15.8129C1.6001 15.5756 1.60583 15.3397 1.61718 15.1053L10.3345 20.082C12.7507 18.666 18.0785 15.6543 22.8898 12.9476C25.1425 11.6803 27.284 10.4787 28.9642 9.53693C29.1524 9.92501 29.3237 10.3228 29.4771 10.7294C29.476 10.7301 29.4748 10.7307 29.4737 10.7313C30.1111 12.4213 30.4259 14.219 30.3984 16.0308C30.3661 18.1715 29.8567 20.278 28.9075 22.1971C28.2713 23.4835 27.4481 24.664 26.4679 25.7015C26.2758 25.9048 26.0778 26.1026 25.8742 26.2944C25.5663 26.5845 25.2451 26.8615 24.9115 27.1243C23.2297 28.4492 21.2737 29.3825 19.1858 29.8561C18.2282 30.0734 17.2538 30.1914 16.278 30.2102C16.1856 30.212 16.0929 30.2129 16.0001 30.2129C15.9071 30.2129 15.8142 30.212 15.7216 30.2102C14.7553 30.1915 13.7905 30.0756 12.8418 29.8623C10.753 29.3927 8.79517 28.4633 7.11084 27.1417C6.77475 26.878 6.45124 26.6 6.1411 26.3086C5.92626 26.1068 5.71761 25.8984 5.51549 25.6837C4.54916 24.6573 3.73608 23.4917 3.10514 22.2223C2.23177 20.4652 1.72757 18.5498 1.62131 16.5943L1.62093 16.5941ZM4.32504 21.6159C3.66824 20.2945 3.24203 18.8743 3.06136 17.4164L10.345 21.5746L10.6679 21.3838C12.8867 20.0723 18.478 16.9108 23.5228 14.0728C25.218 13.1191 26.8504 12.2025 28.2704 11.406C28.7996 12.8794 29.0601 14.4389 29.0363 16.0102C29.007 17.9484 28.5458 19.8556 27.6865 21.5931C26.8271 23.3306 25.5911 24.8546 24.0684 26.0542C22.5458 27.2538 20.7748 28.0987 18.8844 28.5276C16.994 28.9564 15.0318 28.9583 13.1406 28.5332C11.2494 28.1081 9.47678 27.2666 7.95179 26.07C6.4268 24.8734 5.18782 23.3518 4.32504 21.6159Z" fill="white"/>
</svg>
