<svg width="40" height="40" viewBox="0 0 40 40" fill="#ffffff" xmlns="http://www.w3.org/2000/svg">
<path d="M30.7957 25.5616C30.7957 25.4658 30.7081 25.4658 30.7081 25.3699C30.358 24.6027 29.5702 23.6438 28.5198 22.589C27.9946 22.1096 27.732 21.726 27.5569 21.5342C27.2943 21.1507 27.2943 20.863 27.3819 20.4795C27.4694 20.1918 27.8195 19.7123 28.4323 18.8493C28.7824 18.3699 28.9574 18.0822 29.22 17.7945C30.533 15.8767 31.1458 14.6301 30.9707 14.0548L30.8832 13.9589C30.7957 13.863 30.7081 13.7671 30.533 13.7671C30.358 13.6712 30.0954 13.6712 29.8328 13.7671H26.5066C26.419 13.7671 26.419 13.7671 26.2439 13.7671C26.1564 13.7671 26.0689 13.7671 26.0689 13.7671H25.9814H25.8938L25.8063 13.863C25.7187 13.9589 25.7187 13.9589 25.7187 14.0548C25.3686 15.1096 24.9309 15.9726 24.4933 16.9315C24.2307 17.411 23.9681 17.8904 23.7055 18.274C23.4429 18.6575 23.2678 18.9452 23.0928 19.137C22.9177 19.3288 22.7426 19.4247 22.6551 19.6164C22.5676 19.7123 22.3925 19.8082 22.3925 19.7123C22.305 19.7123 22.2174 19.7123 22.2174 19.6164C22.1299 19.5205 22.0424 19.4247 21.9548 19.3288C21.8673 19.2329 21.8673 19.0411 21.7798 18.8493C21.7798 18.6575 21.7798 18.4657 21.7798 18.3699C21.7798 18.274 21.7798 17.9863 21.7798 17.7945C21.7798 17.5069 21.7798 17.3151 21.7798 17.2192C21.7798 16.9315 21.7798 16.548 21.7798 16.1644C21.7798 15.7808 21.7798 15.4931 21.7798 15.3014C21.7798 15.1096 21.7798 14.8219 21.7798 14.6301C21.7798 14.3425 21.7798 14.1507 21.7798 14.0548C21.7798 13.9589 21.6923 13.7671 21.6923 13.6712C21.6047 13.5753 21.5172 13.4794 21.4296 13.3836C21.3421 13.2877 21.167 13.2877 21.0795 13.1918C20.6419 13.0959 20.1167 13 19.5039 13C18.1034 13 17.1405 13.0959 16.7904 13.2877C16.6154 13.3836 16.4403 13.4794 16.3528 13.6712C16.1777 13.863 16.1777 13.9589 16.2652 13.9589C16.7029 14.0548 17.053 14.2466 17.2281 14.5342L17.3156 14.726C17.4032 14.8219 17.4031 15.0137 17.4907 15.3014C17.5782 15.589 17.5782 15.8767 17.5782 16.2603C17.5782 16.8356 17.5782 17.411 17.5782 17.7945C17.5782 18.274 17.4907 18.5616 17.4907 18.8493C17.4907 19.137 17.4032 19.3288 17.3156 19.4247C17.2281 19.6164 17.2281 19.7123 17.1405 19.7123C17.1405 19.7123 17.1405 19.8082 17.053 19.8082C16.9655 19.8082 16.8779 19.9041 16.7029 19.9041C16.6153 19.9041 16.4403 19.8082 16.3528 19.7123C16.1777 19.6164 16.0026 19.4247 15.9151 19.2329C15.74 19.0411 15.565 18.7534 15.3899 18.3699C15.2148 17.9863 14.9522 17.6027 14.7772 17.0274L14.6021 16.6438C14.5146 16.4521 14.3395 16.0685 14.1644 15.589C13.9894 15.1096 13.8143 14.726 13.6392 14.2466C13.5517 14.0548 13.4642 13.9589 13.3766 13.863H13.2891C13.2891 13.863 13.2016 13.7671 13.114 13.7671C13.0265 13.7671 12.939 13.6712 12.8514 13.6712H9.70026C9.35013 13.6712 9.17507 13.7671 9.08754 13.863L9 13.9589C9 13.9589 9 14.0548 9 14.1507C9 14.2466 9.00001 14.3425 9.08754 14.5342C9.5252 15.6849 10.0504 16.8356 10.5756 17.9863C11.1008 19.0411 11.626 20 11.9761 20.6712C12.4138 21.3425 12.7639 22.0137 13.2016 22.589C13.6392 23.1644 13.9018 23.5479 13.9894 23.7397C14.1644 23.9315 14.252 24.0274 14.3395 24.1233L14.6021 24.411C14.7772 24.6027 15.0398 24.8904 15.3899 25.1781C15.74 25.4658 16.1777 25.7534 16.6153 26.0411C17.053 26.3288 17.5782 26.5206 18.1034 26.7123C18.7161 26.9041 19.2413 27 19.7665 26.9041H21.0795C21.3421 26.9041 21.5172 26.8082 21.6923 26.6164L21.7798 26.5205C21.7798 26.4247 21.8673 26.4247 21.8673 26.3288C21.8673 26.2329 21.8673 26.137 21.8673 25.9452C21.8673 25.5617 21.8673 25.274 21.9548 24.9863C22.0424 24.6986 22.0424 24.5069 22.1299 24.3151C22.2175 24.1233 22.305 24.0274 22.3925 23.9315C22.48 23.8356 22.5676 23.7397 22.5676 23.7397H22.6551C22.8302 23.6438 23.0928 23.7397 23.2678 23.9315C23.5304 24.1233 23.793 24.411 23.9681 24.6986C24.1431 24.9863 24.4058 25.274 24.7559 25.6575C25.106 26.0411 25.3686 26.3288 25.5437 26.4247L25.8063 26.6164C25.9813 26.7123 26.1564 26.8082 26.419 26.9041C26.6816 27 26.8567 27 27.0317 27L30.0079 26.9041C30.2705 26.9041 30.533 26.8082 30.7081 26.7123C30.8832 26.6164 30.9707 26.5206 30.9707 26.3288C30.9707 26.2329 30.9707 26.0411 30.9707 25.9452C30.7956 25.7534 30.7957 25.6575 30.7957 25.5616Z" fill="white"/>
</svg>
