<svg width="40" height="40" viewBox="0 0 40 40" fill="none" xmlns="http://www.w3.org/2000/svg">
<path d="M31.9629 15.8154C31.9629 15.4053 31.8311 15.0684 31.5674 14.8047L29.5679 12.8271C29.2896 12.5488 28.96 12.4097 28.5791 12.4097C28.1982 12.4097 27.8687 12.5488 27.5903 12.8271L18.6255 21.77L13.6597 16.8042C13.3813 16.5259 13.0518 16.3867 12.6709 16.3867C12.29 16.3867 11.9604 16.5259 11.6821 16.8042L9.68262 18.7817C9.41895 19.0454 9.28711 19.3823 9.28711 19.7925C9.28711 20.188 9.41895 20.5176 9.68262 20.7812L17.6367 28.7354C17.915 29.0137 18.2446 29.1528 18.6255 29.1528C19.021 29.1528 19.3579 29.0137 19.6362 28.7354L31.5674 16.8042C31.8311 16.5405 31.9629 16.2109 31.9629 15.8154ZM37.5 19.375C37.5 22.4365 36.7456 25.26 35.2368 27.8455C33.728 30.4309 31.6809 32.478 29.0955 33.9868C26.51 35.4956 23.6865 36.25 20.625 36.25C17.5635 36.25 14.74 35.4956 12.1545 33.9868C9.56909 32.478 7.52197 30.4309 6.01318 27.8455C4.50439 25.26 3.75 22.4365 3.75 19.375C3.75 16.3135 4.50439 13.49 6.01318 10.9045C7.52197 8.31909 9.56909 6.27197 12.1545 4.76318C14.74 3.25439 17.5635 2.5 20.625 2.5C23.6865 2.5 26.51 3.25439 29.0955 4.76318C31.6809 6.27197 33.728 8.31909 35.2368 10.9045C36.7456 13.49 37.5 16.3135 37.5 19.375Z" fill="url(#paint0_linear_1495_29893)"/>
<defs>
<linearGradient id="paint0_linear_1495_29893" x1="3.75" y1="19.375" x2="37.5" y2="19.375" gradientUnits="userSpaceOnUse">
<stop stop-color="#6CBB10"/>
<stop offset="1" stop-color="#C9DE5E"/>
</linearGradient>
</defs>
</svg>
