<svg width="36" height="36" viewBox="0 0 36 36" fill="none" xmlns="http://www.w3.org/2000/svg">
<path d="M18 1C8.61205 1 1 8.61205 1 18C1 27.3879 8.61205 35 18 35C27.3879 35 35 27.3879 35 18C35 8.61205 27.3879 1 18 1ZM18 32.1161C10.2058 32.1161 3.88393 25.7942 3.88393 18C3.88393 10.2058 10.2058 3.88393 18 3.88393C25.7942 3.88393 32.1161 10.2058 32.1161 18C32.1161 25.7942 25.7942 32.1161 18 32.1161Z" fill="#3D3D3D"/>
<path d="M22.234 10.5891C21.0956 9.59108 19.5929 9.04465 17.9992 9.04465C16.4054 9.04465 14.9027 9.59487 13.7643 10.5891C12.5804 11.625 11.9277 13.0176 11.9277 14.5089V14.7973C11.9277 14.9643 12.0643 15.1009 12.2313 15.1009H14.0527C14.2197 15.1009 14.3563 14.9643 14.3563 14.7973V14.5089C14.3563 12.8355 15.9918 11.4732 17.9992 11.4732C20.0065 11.4732 21.642 12.8355 21.642 14.5089C21.642 15.6891 20.8072 16.7705 19.5132 17.2676C18.7088 17.575 18.0257 18.1138 17.5362 18.8196C17.0391 19.5406 16.7811 20.4058 16.7811 21.2824V22.0982C16.7811 22.2652 16.9177 22.4018 17.0847 22.4018H18.9061C19.073 22.4018 19.2097 22.2652 19.2097 22.0982V21.2368C19.2116 20.8685 19.3245 20.5092 19.5337 20.206C19.7429 19.9027 20.0385 19.6695 20.3822 19.5368C22.621 18.6755 24.0668 16.7022 24.0668 14.5089C24.0706 13.0176 23.4179 11.625 22.234 10.5891ZM16.4813 26.3482C16.4813 26.7508 16.6412 27.1369 16.9259 27.4215C17.2105 27.7062 17.5966 27.8661 17.9992 27.8661C18.4017 27.8661 18.7878 27.7062 19.0725 27.4215C19.3571 27.1369 19.517 26.7508 19.517 26.3482C19.517 25.9457 19.3571 25.5596 19.0725 25.2749C18.7878 24.9903 18.4017 24.8304 17.9992 24.8304C17.5966 24.8304 17.2105 24.9903 16.9259 25.2749C16.6412 25.5596 16.4813 25.9457 16.4813 26.3482Z" fill="#3D3D3D"/>
</svg>
