<svg width="36" height="36" viewBox="0 0 36 36" fill="none" xmlns="http://www.w3.org/2000/svg">
<path d="M18 33.8823C20.0861 33.885 22.1522 33.4755 24.0795 32.6771C26.0068 31.8788 27.7573 30.7074 29.2305 29.2304C30.7075 27.7572 31.8788 26.0067 32.6772 24.0794C33.4755 22.1521 33.8851 20.0861 33.8824 18C33.8851 15.9139 33.4754 13.8478 32.6771 11.9206C31.8788 9.99327 30.7075 8.24274 29.2305 6.76957C27.7573 5.29253 26.0068 4.12119 24.0795 3.32285C22.1522 2.52451 20.0861 2.11493 18 2.11763C15.914 2.11497 13.8479 2.52458 11.9206 3.32291C9.99333 4.12124 8.2428 5.29257 6.76963 6.76957C5.29263 8.24274 4.12131 9.99327 3.32297 11.9206C2.52464 13.8478 2.11503 15.9139 2.11769 18C2.11499 20.0861 2.52457 22.1521 3.32291 24.0794C4.12125 26.0067 5.29259 27.7572 6.76963 29.2304C8.2428 30.7074 9.99333 31.8787 11.9206 32.6771C13.8479 33.4754 15.914 33.885 18 33.8823V33.8823Z" stroke="#3D3D3D" stroke-width="3" stroke-linejoin="round"/>
<path fill-rule="evenodd" clip-rule="evenodd" d="M17.9999 28.3235C18.5265 28.3235 19.0314 28.1143 19.4038 27.742C19.7761 27.3697 19.9852 26.8647 19.9852 26.3382C19.9852 25.8117 19.7761 25.3067 19.4038 24.9344C19.0314 24.5621 18.5265 24.3529 17.9999 24.3529C17.4734 24.3529 16.9684 24.5621 16.5961 24.9344C16.2238 25.3067 16.0146 25.8117 16.0146 26.3382C16.0146 26.8647 16.2238 27.3697 16.5961 27.742C16.9684 28.1143 17.4734 28.3235 17.9999 28.3235Z" fill="#3D3D3D"/>
<path d="M18 8.47058V21.1765" stroke="#3D3D3D" stroke-width="3" stroke-linecap="round" stroke-linejoin="round"/>
</svg>
