<svg width="24" height="24" viewBox="0 0 24 24" fill="none" xmlns="http://www.w3.org/2000/svg">
<path d="M18.0469 10.1016C18.0469 9.88281 17.9766 9.70312 17.8359 9.5625L16.7695 8.50781C16.6211 8.35938 16.4453 8.28516 16.2422 8.28516C16.0391 8.28516 15.8633 8.35938 15.7148 8.50781L10.9336 13.2773L8.28516 10.6289C8.13672 10.4805 7.96094 10.4062 7.75781 10.4062C7.55469 10.4062 7.37891 10.4805 7.23047 10.6289L6.16406 11.6836C6.02344 11.8242 5.95312 12.0039 5.95312 12.2227C5.95312 12.4336 6.02344 12.6094 6.16406 12.75L10.4062 16.9922C10.5547 17.1406 10.7305 17.2148 10.9336 17.2148C11.1445 17.2148 11.3242 17.1406 11.4727 16.9922L17.8359 10.6289C17.9766 10.4883 18.0469 10.3125 18.0469 10.1016ZM21 12C21 13.6328 20.5977 15.1387 19.793 16.5176C18.9883 17.8965 17.8965 18.9883 16.5176 19.793C15.1387 20.5977 13.6328 21 12 21C10.3672 21 8.86133 20.5977 7.48242 19.793C6.10352 18.9883 5.01172 17.8965 4.20703 16.5176C3.40234 15.1387 3 13.6328 3 12C3 10.3672 3.40234 8.86133 4.20703 7.48242C5.01172 6.10352 6.10352 5.01172 7.48242 4.20703C8.86133 3.40234 10.3672 3 12 3C13.6328 3 15.1387 3.40234 16.5176 4.20703C17.8965 5.01172 18.9883 6.10352 19.793 7.48242C20.5977 8.86133 21 10.3672 21 12Z" fill="#7EB449"/>
</svg>
