<svg width="26" height="23" viewBox="0 0 26 23" fill="none" xmlns="http://www.w3.org/2000/svg">
<path d="M13 22L12.6428 22.3499C12.7369 22.4459 12.8656 22.5 13 22.5C13.1344 22.5 13.2631 22.4459 13.3572 22.3499L13 22ZM2.7752 11.5622L2.41802 11.9121L2.7752 11.5622ZM23.2248 11.5622L23.582 11.9121L23.2248 11.5622ZM11.3466 2.81218L10.9895 3.16207L11.3466 2.81218ZM13 4.5L12.6428 4.84989C12.7369 4.9459 12.8656 5 13 5C13.1344 5 13.2631 4.9459 13.3572 4.84989L13 4.5ZM14.6534 2.81218L14.2962 2.46229L14.6534 2.81218ZM13.3572 21.6501L3.13238 11.2123L2.41802 11.9121L12.6428 22.3499L13.3572 21.6501ZM22.8676 11.2123L12.6428 21.6501L13.3572 22.3499L23.582 11.9121L22.8676 11.2123ZM10.9895 3.16207L12.6428 4.84989L13.3572 4.15011L11.7038 2.46229L10.9895 3.16207ZM13.3572 4.84989L15.0106 3.16207L14.2962 2.46229L12.6428 4.15011L13.3572 4.84989ZM18.9391 0.5C17.1957 0.5 15.5258 1.2071 14.2962 2.46229L15.0106 3.16207C16.0543 2.09662 17.4676 1.5 18.9391 1.5V0.5ZM24.5 7.18718C24.5 8.69881 23.9117 10.1465 22.8676 11.2123L23.582 11.9121C24.8112 10.6572 25.5 8.95745 25.5 7.18718H24.5ZM25.5 7.18718C25.5 3.50372 22.5722 0.5 18.9391 0.5V1.5C22.0006 1.5 24.5 4.03647 24.5 7.18718H25.5ZM7.06092 1.5C8.5324 1.5 9.94575 2.09663 10.9895 3.16207L11.7038 2.46229C10.4742 1.2071 8.80434 0.5 7.06092 0.5V1.5ZM1.5 7.18718C1.5 4.03647 3.99938 1.5 7.06092 1.5V0.5C3.42775 0.5 0.5 3.50372 0.5 7.18718H1.5ZM3.13238 11.2123C2.08833 10.1465 1.5 8.69881 1.5 7.18718H0.5C0.5 8.95745 1.18878 10.6572 2.41802 11.9121L3.13238 11.2123Z" fill="white"/>
</svg>
