<svg width="16" height="16" viewBox="0 0 16 16" fill="none" xmlns="http://www.w3.org/2000/svg">
<path d="M12.2349 6.58811V4.70575C12.2349 2.35281 10.3525 0.470459 7.9996 0.470459C5.64666 0.470459 3.7643 2.35281 3.7643 4.70575V6.58811C2.9643 6.58811 2.35254 7.19987 2.35254 7.99987V14.1175C2.35254 14.8705 2.9643 15.5293 3.7643 15.5293H12.2349C13.0349 15.5293 13.6467 14.8705 13.6467 14.1175V7.99987C13.6467 7.19987 13.0349 6.58811 12.2349 6.58811ZM4.70548 4.70575C4.70548 2.87046 6.1643 1.41164 7.9996 1.41164C9.83489 1.41164 11.2937 2.87046 11.2937 4.70575V6.58811H4.70548V4.70575ZM8.47019 11.6705V12.7058C8.47019 12.9881 8.28195 13.1763 7.9996 13.1763C7.71725 13.1763 7.52901 12.9881 7.52901 12.7058V11.6705C6.9643 11.4822 6.58783 10.9646 6.58783 10.3528C6.58783 9.55281 7.1996 8.94105 7.9996 8.94105C8.7996 8.94105 9.41136 9.55281 9.41136 10.3528C9.41136 10.9646 9.03489 11.4822 8.47019 11.6705Z" fill="white"/>
</svg>
