<svg width="173" height="55" viewBox="0 0 173 55" fill="none" xmlns="http://www.w3.org/2000/svg">
<path d="M61.9385 0.265945H65.9272V17.5523H61.9385V0.265945ZM66.1932 8.24428L72.5755 0.265945H77.362L70.9798 8.24428L78.1599 17.5523H73.1073L66.1932 8.24428ZM80.0213 0.265945H84.0103V17.5523H80.0213V0.265945ZM91.7223 3.19134H86.4036V0.265945H101.296V3.19134H95.977V17.5523H91.7223V3.19134ZM111.401 17.8183C110.603 17.8183 109.805 17.8183 109.273 17.5523C108.475 17.5523 107.944 17.5523 107.146 17.2864C106.348 17.0204 105.816 16.7545 105.284 16.4886C104.753 15.9567 104.221 15.6907 103.955 14.8929C103.423 14.361 103.157 13.5632 103.157 12.7653V5.31891C103.157 1.86161 106.082 0 111.401 0C112.731 0 114.592 0.265945 116.719 0.531891V3.72322C114.592 3.19134 112.996 2.92539 111.401 2.92539C110.603 2.92539 110.071 2.92539 109.805 2.92539C109.539 2.92539 109.008 3.19134 108.742 3.19134C107.944 3.45728 107.412 4.25513 107.412 5.05294V12.4994C107.412 14.0951 108.742 14.8929 111.667 14.8929C112.996 14.8929 114.592 14.6269 116.985 14.0951V17.2864C114.858 17.5523 112.996 17.8183 111.401 17.8183ZM119.645 0.265945H123.634V7.1805H131.079V0.265945H135.068V17.5523H131.079V10.1059H123.634V17.5523H119.645V0.265945ZM138.791 0.265945H152.088V3.19134H143.046V7.1805H151.024V10.1059H143.046V14.6269H152.353V17.5523H138.791V0.265945ZM155.013 0.265945H159.268L167.512 11.9675V0.265945H171.235V17.5523H166.979L158.736 5.58484V17.5523H155.013V0.265945Z" fill="white"/>
<path d="M61.9385 21.875H69.6785L75.1714 37.8556L80.6643 21.875H87.905V44.3475H82.9114V27.618L77.1687 44.3475H72.9243L66.9321 27.618V44.3475H61.9385V21.875ZM98.641 21.875H105.133L113.372 44.3475H107.879L105.882 38.355H97.6424L95.6451 44.3475H90.4017L98.641 21.875ZM104.634 34.8591L101.887 26.3695H101.637L98.8908 34.8591H104.634ZM115.869 21.875H121.362L132.098 37.1066V21.875H136.842V44.3475H131.599L120.613 28.6168V44.3475H115.869V21.875ZM141.836 21.875H147.329V44.3475H141.836V21.875ZM158.065 21.875H164.557L172.796 44.3475H167.303L165.305 38.355H157.066L155.069 44.3475H149.825L158.065 21.875ZM164.057 34.8591L161.31 26.3695H161.061L158.314 34.8591H164.057Z" fill="#FF8651"/>
<path fill-rule="evenodd" clip-rule="evenodd" d="M0 0H52.1267V54.375H0V0ZM51.129 0.997706H0.997642V53.3772H51.129V0.997706Z" fill="white"/>
<path fill-rule="evenodd" clip-rule="evenodd" d="M3.74121 2.80388H48.3857V22.758L44.6446 20.0143V6.54528C31.4257 6.54528 20.4517 6.54528 7.48235 6.54528V20.0143L3.74121 22.758V2.80388Z" fill="#FF8651"/>
<path fill-rule="evenodd" clip-rule="evenodd" d="M3.74121 31.7375L25.9387 14.2775L48.3857 31.7375V27.2477C40.9033 21.5108 33.4212 15.774 25.9387 10.0372L14.9647 18.7672V13.7786L11.2235 16.7718V21.5108C9.22821 23.0074 6.48473 25.2523 3.74121 27.2477V31.7375Z" fill="white"/>
<path fill-rule="evenodd" clip-rule="evenodd" d="M16.96 35.4788C19.4541 35.4788 22.1976 35.4788 24.9411 35.4788V19.2661L16.96 25.5017V35.4788ZM29.6799 28.7443C30.1787 28.7443 30.4281 28.4948 30.4281 28.2454C30.4281 27.7466 29.9293 27.2477 29.6799 27.4971C28.6823 27.4971 28.9317 28.7443 29.6799 28.7443ZM35.167 30.7397V25.5017L27.1858 19.2661V30.7397H35.167ZM32.6728 29.4925C33.1715 29.4925 33.1715 30.2408 32.6728 30.2408C32.1741 30.2408 32.1741 29.4925 32.6728 29.4925ZM31.6751 29.4925C32.1741 29.4925 32.1741 30.2408 31.6751 30.2408C31.1763 30.2408 31.1763 29.4925 31.6751 29.4925ZM30.6775 29.4925C31.1763 29.4925 31.1763 30.2408 30.6775 30.2408C30.1787 30.2408 30.1787 29.4925 30.6775 29.4925ZM29.6799 29.4925C30.1787 29.4925 30.1787 30.2408 29.6799 30.2408C29.1811 30.2408 29.1811 29.4925 29.6799 29.4925ZM33.6705 28.2454C33.6705 28.7443 33.1715 29.2431 32.6728 29.2431C31.9246 29.2431 31.4259 28.7443 31.4259 28.2454C31.4259 27.4971 31.9246 26.9983 32.6728 26.9983C33.1715 26.9983 33.6705 27.4971 33.6705 28.2454ZM29.6799 26.9983C30.4281 26.9983 30.927 27.4971 30.927 28.2454C30.927 28.7443 30.1787 29.2431 29.6799 29.2431C28.4329 28.9937 28.4329 26.9983 29.6799 26.9983ZM29.6799 24.504C30.4281 24.504 30.927 25.0029 30.927 25.5017C30.927 26.25 30.1787 26.7488 29.6799 26.7488C28.4329 26.4994 28.4329 24.504 29.6799 24.504ZM33.6705 25.5017C33.6705 26.25 33.1715 26.7488 32.6728 26.7488C31.9246 26.7488 31.4259 26.25 31.4259 25.5017C31.4259 25.0029 31.9246 24.504 32.6728 24.504C33.1715 24.504 33.6705 25.0029 33.6705 25.5017ZM29.4305 36.2272C27.934 37.7238 28.9317 40.2178 31.1763 40.2178C33.1715 40.2178 34.4188 37.7238 32.9223 36.2272C31.9246 35.2294 30.4281 35.2294 29.4305 36.2272ZM27.1858 33.2341V42.2134C29.9293 42.2134 32.4233 42.2134 35.167 42.2134V33.2341H27.1858ZM27.6846 37.9731C27.6846 34.98 31.4259 33.2341 33.6705 35.4788C35.6657 37.7238 34.1692 41.465 31.1763 41.465C29.1811 41.465 27.6846 39.7191 27.6846 37.9731ZM33.1715 34.4809C33.1715 33.9822 34.1692 33.9822 34.1692 34.4809C34.1692 34.98 33.1715 34.98 33.1715 34.4809ZM16.96 35.9775V42.2134H24.9411V35.9775H16.96ZM19.2047 37.2247H17.4588V36.4766H19.2047V37.2247ZM17.4588 34.2316H19.2047V34.7306H17.4588V34.2316Z" fill="white"/>
<path fill-rule="evenodd" clip-rule="evenodd" d="M3.74121 37.2247L7.48235 34.2319V45.9547H44.6446V34.2319L48.3857 37.2247V49.6962H3.74121V37.2247Z" fill="#FF8651"/>
<path d="M64.2671 53.3078H63.2478V49.3578H61.9385V48.5112H65.5765V49.3578H64.2671V53.3078Z" fill="white"/>
<path d="M69.4315 53.3078H66.6572V48.5112H69.4315V49.3444H67.6765V50.3991H69.31V51.2322H67.6765V52.4681H69.4315V53.3078Z" fill="white"/>
<path d="M74.6666 53.3078H73.499L72.3783 51.4941L71.2578 53.3078H70.1646L71.764 50.8356L70.2657 48.5112H71.393L72.4323 50.2378L73.4516 48.5112H74.552L73.04 50.8894L74.6666 53.3078Z" fill="white"/>
<path d="M79.5605 53.3078H78.5413V51.2388H76.6311V53.3078H75.6118V48.5112H76.6311V50.3925H78.5413V48.5112H79.5605V53.3078Z" fill="white"/>
<path d="M81.1104 48.5112H82.0284V50.8291C82.0284 50.9409 82.0259 51.0662 82.0216 51.2053C82.0172 51.3441 82.0125 51.4806 82.0081 51.615C82.0035 51.745 81.9991 51.8591 81.9947 51.9575C81.99 52.0516 81.9857 52.1166 81.981 52.1525H82.0013L84.2287 48.5112H85.4507V53.3078H84.5391V51.0038C84.5391 50.8828 84.5416 50.7506 84.546 50.6072C84.5507 50.4597 84.5551 50.3184 84.5594 50.1841C84.5685 50.0497 84.5754 49.9334 84.5797 49.8347C84.5888 49.7319 84.5956 49.6647 84.6 49.6331H84.5732L82.3388 53.3078H81.1104V48.5112Z" fill="white"/>
<path d="M90.9333 53.3078H89.7726L88.0241 50.8759V53.3078H87.0049V48.5112H88.0241V50.8356L89.7523 48.5112H90.839L89.084 50.8156L90.9333 53.3078Z" fill="white"/>
<path d="M94.827 53.3078L94.476 52.1659H92.721L92.37 53.3078H91.2695L92.9708 48.4912H94.2193L95.9271 53.3078H94.827ZM93.882 50.1975C93.8595 50.1216 93.8302 50.025 93.7943 49.9087C93.758 49.7922 93.7221 49.6734 93.6862 49.5525C93.65 49.4319 93.621 49.3266 93.5985 49.2369C93.576 49.3266 93.5444 49.4384 93.5039 49.5728C93.4679 49.7028 93.432 49.8281 93.3958 49.9491C93.3643 50.0653 93.3396 50.1484 93.3218 50.1975L92.9774 51.3128H94.233L93.882 50.1975Z" fill="white"/>
<path d="M102.416 48.5112V52.4616H103.057V54.705H102.072V53.3078H99.0546V54.705H98.0693V52.4616H98.4403C98.6114 52.1256 98.7713 51.7672 98.9197 51.3866C99.0683 51.0016 99.201 50.5737 99.3178 50.1034C99.4393 49.6331 99.5361 49.1025 99.6082 48.5112H102.416ZM100.418 49.3578C100.378 49.6669 100.312 50.0028 100.222 50.3656C100.137 50.7237 100.034 51.0844 99.9121 51.4472C99.7903 51.8053 99.6576 52.1434 99.5136 52.4616H101.397V49.3578H100.418Z" fill="white"/>
<path d="M107.949 53.3078H106.929V49.3578H105.748C105.721 49.5638 105.692 49.7878 105.661 50.0297C105.634 50.2716 105.602 50.5178 105.566 50.7684C105.535 51.015 105.501 51.25 105.465 51.4741C105.429 51.6934 105.393 51.8881 105.357 52.0584C105.298 52.3359 105.219 52.5734 105.12 52.7703C105.026 52.9675 104.893 53.1175 104.722 53.2206C104.556 53.3234 104.338 53.375 104.067 53.375C103.892 53.375 103.73 53.3503 103.582 53.3012V52.4681C103.64 52.4859 103.696 52.5019 103.75 52.5153C103.809 52.5287 103.872 52.5353 103.939 52.5353C104.07 52.5353 104.169 52.4681 104.236 52.3337C104.308 52.195 104.38 51.9375 104.452 51.5612C104.479 51.4178 104.517 51.1941 104.567 50.8894C104.616 50.585 104.67 50.2287 104.729 49.8212C104.792 49.4094 104.851 48.9728 104.905 48.5112H107.949V53.3078Z" fill="white"/>
<path d="M111.122 51.4672L109.995 53.3078H108.861L110.231 51.1984C110.101 51.1447 109.97 51.0662 109.84 50.9634C109.709 50.8559 109.601 50.7147 109.516 50.54C109.43 50.3609 109.387 50.1416 109.387 49.8819C109.387 49.4384 109.547 49.1003 109.867 48.8675C110.186 48.63 110.634 48.5112 111.21 48.5112H112.776V53.3078H111.757V51.4672H111.122ZM111.25 49.3444C110.989 49.3444 110.784 49.3916 110.636 49.4853C110.492 49.5794 110.42 49.7362 110.42 49.9556C110.42 50.1662 110.49 50.3341 110.629 50.4597C110.773 50.5803 110.989 50.6409 111.277 50.6409H111.757V49.3444H111.25Z" fill="white"/>
<path d="M119.87 48.5112V52.4616H120.511V54.705H119.526V53.3078H116.508V54.705H115.523V52.4616H115.894C116.065 52.1256 116.225 51.7672 116.374 51.3866C116.522 51.0016 116.655 50.5737 116.772 50.1034C116.893 49.6331 116.99 49.1025 117.062 48.5112H119.87ZM117.872 49.3578C117.832 49.6669 117.766 50.0028 117.676 50.3656C117.591 50.7237 117.487 51.0844 117.366 51.4472C117.244 51.8053 117.111 52.1434 116.968 52.4616H118.851V49.3578H117.872Z" fill="white"/>
<path d="M125.963 50.9028C125.963 51.4 125.879 51.8344 125.713 52.2062C125.551 52.5734 125.301 52.86 124.964 53.0659C124.626 53.2722 124.194 53.375 123.668 53.375C123.146 53.375 122.714 53.2722 122.372 53.0659C122.034 52.86 121.782 52.5712 121.616 52.1994C121.454 51.8278 121.373 51.3934 121.373 50.8962C121.373 50.3991 121.454 49.9669 121.616 49.5997C121.782 49.2325 122.034 48.9481 122.372 48.7466C122.714 48.5406 123.148 48.4375 123.675 48.4375C124.197 48.4375 124.626 48.5406 124.964 48.7466C125.301 48.9481 125.551 49.2347 125.713 49.6063C125.879 49.9738 125.963 50.4059 125.963 50.9028ZM122.446 50.9028C122.446 51.4044 122.543 51.8009 122.736 52.0919C122.93 52.3784 123.24 52.5219 123.668 52.5219C124.105 52.5219 124.417 52.3784 124.606 52.0919C124.795 51.8009 124.89 51.4044 124.89 50.9028C124.89 50.3969 124.795 50.0006 124.606 49.7137C124.417 49.4272 124.107 49.2841 123.675 49.2841C123.243 49.2841 122.93 49.4272 122.736 49.7137C122.543 50.0006 122.446 50.3969 122.446 50.9028Z" fill="white"/>
<path d="M129.337 53.3078L128.176 49.5459H128.149C128.154 49.6356 128.16 49.77 128.169 49.9491C128.179 50.1281 128.188 50.3206 128.196 50.5266C128.205 50.7281 128.21 50.9119 128.21 51.0775V53.3078H127.299V48.5112H128.689L129.83 52.1794H129.85L131.058 48.5112H132.449V53.3078H131.497V51.0372C131.497 50.885 131.499 50.7103 131.504 50.5134C131.513 50.3163 131.52 50.1303 131.524 49.9556C131.533 49.7766 131.54 49.6422 131.545 49.5525H131.517L130.275 53.3078H129.337Z" fill="white"/>
<path d="M136.953 53.3078L136.602 52.1659H134.847L134.496 53.3078H133.396L135.097 48.4912H136.346L138.053 53.3078H136.953ZM136.008 50.1975C135.986 50.1216 135.956 50.025 135.92 49.9087C135.885 49.7922 135.848 49.6734 135.812 49.5525C135.776 49.4319 135.747 49.3266 135.725 49.2369C135.702 49.3266 135.671 49.4384 135.63 49.5728C135.594 49.7028 135.558 49.8281 135.522 49.9491C135.491 50.0653 135.466 50.1484 135.448 50.1975L135.104 51.3128H136.359L136.008 50.1975Z" fill="white"/>
<path d="M140.769 48.5112H141.687V50.8291C141.687 50.9409 141.685 51.0662 141.68 51.2053C141.676 51.3441 141.671 51.4806 141.667 51.615C141.662 51.745 141.658 51.8591 141.653 51.9575C141.649 52.0516 141.644 52.1166 141.64 52.1525H141.66L143.888 48.5112H145.109V53.3078H144.198V51.0038C144.198 50.8828 144.2 50.7506 144.205 50.6072C144.209 50.4597 144.214 50.3184 144.218 50.1841C144.227 50.0497 144.234 49.9334 144.239 49.8347C144.247 49.7319 144.254 49.6647 144.259 49.6331H144.232L141.998 53.3078H140.769V48.5112Z" fill="white"/>
<path d="M152.36 53.3078H151.199L149.451 50.8759V53.3078H148.432V48.5112H149.451V50.8356L151.179 48.5112H152.265L150.511 50.8156L152.36 53.3078Z" fill="white"/>
<path d="M155.68 51.9037C155.545 52.2084 155.401 52.4725 155.248 52.6966C155.1 52.9159 154.909 53.0841 154.674 53.2003C154.44 53.3169 154.134 53.375 153.757 53.375C153.639 53.375 153.511 53.3659 153.372 53.3481C153.232 53.3303 153.104 53.3056 152.987 53.2744V52.4009C153.095 52.4456 153.214 52.4772 153.345 52.495C153.475 52.5128 153.597 52.5219 153.709 52.5219C153.934 52.5219 154.096 52.4681 154.195 52.3606C154.294 52.2487 154.373 52.1144 154.431 51.9575L152.764 48.5112H153.844L154.742 50.5872C154.774 50.6544 154.816 50.7506 154.87 50.8759C154.924 50.9969 154.965 51.1 154.992 51.185H155.025C155.052 51.1044 155.091 50.9991 155.14 50.8694C155.194 50.7394 155.241 50.6253 155.282 50.5266L156.119 48.5112H157.172L155.68 51.9037Z" fill="white"/>
<path d="M162.012 53.3078H160.844L159.724 51.4941L158.603 53.3078H157.51L159.11 50.8356L157.611 48.5112H158.738L159.778 50.2378L160.797 48.5112H161.897L160.385 50.8894L162.012 53.3078Z" fill="white"/>
<path d="M166.906 53.3078H165.886V51.2388H163.976V53.3078H162.957V48.5112H163.976V50.3925H165.886V48.5112H166.906V53.3078Z" fill="white"/>
<path d="M168.456 48.5112H169.374V50.8291C169.374 50.9409 169.371 51.0662 169.367 51.2053C169.362 51.3441 169.358 51.4806 169.353 51.615C169.349 51.745 169.344 51.8591 169.34 51.9575C169.335 52.0516 169.331 52.1166 169.326 52.1525H169.346L171.574 48.5112H172.796V53.3078H171.885V51.0038C171.885 50.8828 171.887 50.7506 171.891 50.6072C171.896 50.4597 171.9 50.3184 171.905 50.1841C171.914 50.0497 171.921 49.9334 171.925 49.8347C171.934 49.7319 171.941 49.6647 171.945 49.6331H171.918L169.684 53.3078H168.456V48.5112Z" fill="white"/>
</svg>
