<svg width="17" height="15" viewBox="0 0 17 15" fill="none" xmlns="http://www.w3.org/2000/svg">
<path d="M8.5 14L8.1445 14.3516C8.23842 14.4466 8.36643 14.5 8.5 14.5C8.63357 14.5 8.76158 14.4466 8.8555 14.3516L8.5 14ZM2.1095 7.53849L1.754 7.89009H1.754L2.1095 7.53849ZM7.46664 2.12183L7.11114 2.47342L7.46664 2.12183ZM8.5 3.16667L8.1445 3.51826C8.23842 3.61323 8.36643 3.66667 8.5 3.66667C8.63357 3.66667 8.76158 3.61323 8.8555 3.51826L8.5 3.16667ZM9.53336 2.12183L9.17786 1.77023V1.77023L9.53336 2.12183ZM8.8555 13.6484L2.465 7.1869L1.754 7.89009L8.1445 14.3516L8.8555 13.6484ZM14.535 7.1869L8.1445 13.6484L8.8555 14.3516L15.246 7.89009L14.535 7.1869ZM7.11114 2.47342L8.1445 3.51826L8.8555 2.81507L7.82214 1.77023L7.11114 2.47342ZM8.8555 3.51826L9.88886 2.47342L9.17786 1.77023L8.1445 2.81507L8.8555 3.51826ZM12.2119 0.5C11.0729 0.5 9.98159 0.957569 9.17786 1.77023L9.88886 2.47342C10.5059 1.8495 11.3417 1.5 12.2119 1.5V0.5ZM15.5 4.83016C15.5 5.71515 15.1523 6.56279 14.535 7.1869L15.246 7.89009C16.0495 7.07761 16.5 5.97682 16.5 4.83016H15.5ZM16.5 4.83016C16.5 2.4439 14.5854 0.5 12.2119 0.5V1.5C14.0227 1.5 15.5 2.98574 15.5 4.83016H16.5ZM4.78807 1.5C5.65833 1.5 6.49407 1.8495 7.11114 2.47342L7.82214 1.77023C7.01841 0.95757 5.92713 0.5 4.78807 0.5V1.5ZM1.5 4.83016C1.5 2.98574 2.97731 1.5 4.78807 1.5V0.5C2.41464 0.5 0.5 2.4439 0.5 4.83016H1.5ZM2.465 7.1869C1.84775 6.56279 1.5 5.71515 1.5 4.83016H0.5C0.5 5.97682 0.950449 7.07761 1.754 7.89009L2.465 7.1869Z" fill="#9C9C9C"/>
</svg>
