<svg width="14" height="15" viewBox="0 0 14 15" fill="none" xmlns="http://www.w3.org/2000/svg">
<path d="M3.94323 8.68761L3.61095 8.49573L3.33964 8.76705C3.05947 9.04721 2.66029 9.22362 2.18565 9.22362C1.66577 9.22362 1.25023 9.04214 0.965715 8.75763C0.681197 8.47311 0.499724 8.05757 0.499724 7.53769C0.499724 6.53242 1.25577 5.77638 2.26103 5.77638C2.73567 5.77638 3.13485 5.95278 3.41501 6.23295L3.68929 6.50723L4.02314 6.30974L9.3749 3.14391L9.72232 2.93839L9.59467 2.55545C9.56814 2.47587 9.55686 2.41614 9.55132 2.36627C9.54536 2.31266 9.54495 2.26335 9.54495 2.18593C9.54495 1.25604 10.301 0.499999 11.2309 0.5C12.1608 0.5 12.9168 1.25604 12.9168 2.18593C12.9168 3.11582 12.1608 3.87186 11.2309 3.87186C10.7562 3.87186 10.3571 3.69546 10.0769 3.41529L9.80262 3.14101L9.46877 3.3385L4.11702 6.50433L3.71601 6.74155L3.92437 7.15828C3.92389 7.15731 3.92394 7.15749 3.92439 7.15896C3.9262 7.16484 3.93433 7.19132 3.94002 7.24824C3.9466 7.31399 3.94696 7.38414 3.94696 7.46231C3.94696 7.54048 3.9466 7.61063 3.94002 7.67638C3.93433 7.73329 3.9262 7.75977 3.92439 7.76566C3.92395 7.76711 3.92389 7.76731 3.92435 7.76638L3.7138 8.18748L4.12155 8.42294L9.47331 11.5134L9.80558 11.7053L10.0769 11.434C10.3571 11.1538 10.7562 10.9774 11.2309 10.9774C12.2361 10.9774 12.9922 11.7334 12.9922 12.7387C12.9922 13.744 12.2361 14.5 11.2309 14.5C10.2256 14.5 9.46957 13.744 9.46957 12.7387C9.46957 12.6605 9.46994 12.5904 9.47651 12.5246C9.48221 12.4677 9.49034 12.4412 9.49214 12.4353C9.49259 12.4339 9.49265 12.4337 9.49216 12.4347L9.70273 12.0135L9.29499 11.7781L3.94323 8.68761Z" stroke="#9C9C9C"/>
</svg>
