<svg width="32" height="32" viewBox="0 0 32 32" fill="none" xmlns="http://www.w3.org/2000/svg">
<path d="M26.1818 11H22.3636V6H4.54545C3.14545 6 2 7.125 2 8.5V22.25H4.54545C4.54545 24.325 6.25091 26 8.36364 26C10.4764 26 12.1818 24.325 12.1818 22.25H19.8182C19.8182 24.325 21.5236 26 23.6364 26C25.7491 26 27.4545 24.325 27.4545 22.25H30V16L26.1818 11ZM8.36364 24.125C7.30727 24.125 6.45455 23.2875 6.45455 22.25C6.45455 21.2125 7.30727 20.375 8.36364 20.375C9.42 20.375 10.2727 21.2125 10.2727 22.25C10.2727 23.2875 9.42 24.125 8.36364 24.125ZM25.5455 12.875L28.04 16H22.3636V12.875H25.5455ZM23.6364 24.125C22.58 24.125 21.7273 23.2875 21.7273 22.25C21.7273 21.2125 22.58 20.375 23.6364 20.375C24.6927 20.375 25.5455 21.2125 25.5455 22.25C25.5455 23.2875 24.6927 24.125 23.6364 24.125Z" fill="#3D3D3D"/>
</svg>
