<svg width="32" height="32" viewBox="0 0 32 32" fill="none" xmlns="http://www.w3.org/2000/svg">
<path d="M16 3.75C9.23516 3.75 3.75 9.23516 3.75 16C3.75 22.7648 9.23516 28.25 16 28.25C22.7648 28.25 28.25 22.7648 28.25 16C28.25 9.23516 22.7648 3.75 16 3.75ZM20.8262 19.7652L20.0441 20.8316C20.0271 20.8549 20.0057 20.8745 19.9811 20.8894C19.9565 20.9043 19.9291 20.9142 19.9007 20.9185C19.8722 20.9229 19.8432 20.9215 19.8153 20.9146C19.7873 20.9076 19.761 20.8953 19.7379 20.8781L15.2152 17.5805C15.1871 17.5602 15.1642 17.5335 15.1485 17.5026C15.1328 17.4717 15.1247 17.4374 15.125 17.4027V9.875C15.125 9.75469 15.2234 9.65625 15.3438 9.65625H16.659C16.7793 9.65625 16.8777 9.75469 16.8777 9.875V16.6426L20.777 19.4617C20.8754 19.5301 20.8973 19.6668 20.8262 19.7652Z" fill="#3D3D3D"/>
</svg>
