<svg width="32" height="32" viewBox="0 0 32 32" fill="none" xmlns="http://www.w3.org/2000/svg">
<path d="M25.1994 9.70001H7.07441V8.97501L23.0244 7.69901V8.97501H25.1994V6.80001C25.1994 5.20501 23.9075 4.08561 22.3299 4.31036L7.77041 6.38966C6.19136 6.61586 4.89941 8.10501 4.89941 9.70001V24.2C4.89941 24.9691 5.20495 25.7068 5.7488 26.2506C6.29266 26.7945 7.03029 27.1 7.79941 27.1H25.1994C25.9685 27.1 26.7062 26.7945 27.25 26.2506C27.7939 25.7068 28.0994 24.9691 28.0994 24.2V12.6C28.0994 11.8309 27.7939 11.0933 27.25 10.5494C26.7062 10.0055 25.9685 9.70001 25.1994 9.70001ZM23.0244 19.8587C22.7387 19.8586 22.4558 19.8022 22.1919 19.6928C21.9279 19.5834 21.6881 19.423 21.4862 19.2209C21.2842 19.0188 21.124 18.7789 21.0148 18.5149C20.9055 18.2509 20.8493 17.968 20.8494 17.6823C20.8495 17.3965 20.9059 17.1136 21.0153 16.8497C21.1247 16.5858 21.2851 16.346 21.4872 16.144C21.6893 15.942 21.9292 15.7819 22.1932 15.6726C22.4572 15.5633 22.7401 15.5072 23.0259 15.5073C23.6029 15.5075 24.1562 15.7369 24.5641 16.145C24.972 16.5532 25.2011 17.1067 25.2009 17.6837C25.2007 18.2607 24.9713 18.8141 24.5631 19.222C24.1549 19.6299 23.6015 19.8589 23.0244 19.8587Z" fill="#3D3D3D"/>
</svg>
