<svg width="64" height="72" viewBox="0 0 64 72" fill="none" xmlns="http://www.w3.org/2000/svg">
<path d="M0 0H55C59.9706 0 64 4.02944 64 9H0V0Z" fill="#FF8651"/>
<path d="M55 9H64V60C64 64.9706 59.9706 69 55 69V9Z" fill="#FF8651"/>
<g clip-path="url(#clip0_828_3972)">
<path d="M43.3508 25.9643H38.0283C37.8254 22.2839 37.1378 18.9724 36.0935 16.3772C39.8665 18.18 42.6319 21.7133 43.3508 25.9643ZM43.3508 30.3214C42.6306 34.5724 39.8665 38.1057 36.0935 39.9085C37.1392 37.3133 37.8254 34.0019 38.0283 30.3214H43.3508ZM30.5 41.0359C29.4529 40.0215 27.6719 36.3493 27.3098 30.3214H33.6916C33.3281 36.3479 31.5471 40.0215 30.5 41.0359ZM33.6902 25.9643H27.3084C27.6706 19.9378 29.4516 16.2642 30.4986 15.2498C31.5471 16.2642 33.3281 19.9378 33.6902 25.9643ZM24.9065 39.9085C21.1335 38.1057 18.3681 34.5724 17.6492 30.3214H22.9717C23.1746 34.0019 23.8608 37.3133 24.9065 39.9085ZM4.35714 2H52.2857C57.099 2 61 5.901 61 10.7143V63C61 67.8133 57.099 71.7143 52.2857 71.7143H4.35714C1.95118 71.7143 0 69.7631 0 67.3571V6.35714C0 3.95118 1.95118 2 4.35714 2ZM15.25 58.6429H45.75C46.9482 58.6429 47.9286 57.6625 47.9286 56.4643C47.9286 55.2661 46.9482 54.2857 45.75 54.2857H15.25C14.0518 54.2857 13.0714 55.2661 13.0714 56.4643C13.0714 57.6625 14.0518 58.6429 15.25 58.6429ZM30.5 45.5714C40.1252 45.5714 47.9286 37.7681 47.9286 28.1429C47.9286 18.5177 40.1252 10.7143 30.5 10.7143C20.8748 10.7143 13.0714 18.5177 13.0714 28.1429C13.0714 37.7681 20.8748 45.5714 30.5 45.5714ZM24.9065 16.3772C23.8608 18.9724 23.1746 22.2839 22.9717 25.9643H17.6492C18.3681 21.7133 21.1335 18.18 24.9065 16.3772Z" fill="white"/>
</g>
<defs>
<clipPath id="clip0_828_3972">
<rect width="61" height="69.7143" fill="white" transform="translate(0 2)"/>
</clipPath>
</defs>
</svg>
