<svg width="36" height="33" viewBox="0 0 36 33" fill="none" xmlns="http://www.w3.org/2000/svg">
<g clip-path="url(#clip0)">
<path d="M33.645 19.3235V18.7564H34.8227V19.8907H34.2339C33.9076 19.8907 33.645 19.6346 33.645 19.3235ZM36.05 18.1617C36.0501 16.7123 34.9518 15.5084 33.5201 15.2821L32.6087 11.7603C32.8595 11.6864 33.0438 11.4607 33.0438 11.1915V10.6107C33.0438 9.32031 31.9577 8.27356 30.6264 8.27356H26.43V7.12542C26.43 6.47562 25.8835 5.95 25.2151 5.95H3.56991C2.90156 5.95 2.35498 6.47562 2.35498 7.12542V17.0001C2.35498 17.33 2.63135 17.5947 2.96867 17.5947C3.30591 17.5947 3.58237 17.3301 3.58237 17.0001V7.13915H25.2026V17.0003C25.2026 17.3302 25.479 17.5948 25.8163 17.5948C26.1535 17.5948 26.43 17.3303 26.43 17.0003V16.433H33.0278C33.0287 16.433 33.0297 16.433 33.0308 16.433C33.032 16.433 33.0331 16.433 33.0339 16.433C33.8047 16.4341 34.4618 16.9076 34.7131 17.5673H33.0313C32.694 17.5673 32.4175 17.8318 32.4175 18.1619V19.3236C32.4175 20.2937 33.2339 21.0799 34.2338 21.0799H34.8226V23.3759H33.4337C32.9326 22.0225 31.5938 21.0524 30.025 21.0524C28.4562 21.0524 27.1172 22.0225 26.6162 23.3759H26.4298V19.3235C26.4298 18.9935 26.1535 18.729 25.8162 18.729C25.4789 18.729 25.2024 18.9935 25.2024 19.3235V23.3757H13.5925C13.0915 22.0224 11.7525 21.0523 10.1837 21.0523C8.61496 21.0523 7.27599 22.0224 6.77499 23.3757H3.58237V22.2415H5.97496C6.31221 22.2415 6.58865 21.9768 6.58865 21.6469C6.58865 21.3169 6.31227 21.0523 5.97496 21.0523H0.563693C0.226453 21.0523 -0.05 21.3169 -0.05 21.6469C-0.05 21.9768 0.226371 22.2415 0.563693 22.2415H2.35505V23.3895C2.35505 24.0393 2.90163 24.5649 3.56998 24.5649H6.56385C6.57153 26.4896 8.19406 28.05 10.1837 28.05C12.1734 28.05 13.796 26.4896 13.8036 24.5649H26.4051C26.4128 26.4896 28.0353 28.05 30.025 28.05C32.0146 28.05 33.6372 26.4896 33.6449 24.5649H35.4363C35.7735 24.5649 36.05 24.3003 36.05 23.9703V18.1617ZM26.43 9.46264H30.6264C31.2794 9.46264 31.8088 9.97182 31.8164 10.597H26.43V9.46264ZM26.43 15.2439V11.7861H31.35L32.2449 15.2439H26.43ZM10.1837 26.8611C8.86288 26.8611 7.79113 25.8233 7.79113 24.5513C7.79113 23.2793 8.86288 22.2416 10.1837 22.2416C11.5046 22.2416 12.5763 23.2793 12.5763 24.5513C12.5763 25.8233 11.5046 26.8611 10.1837 26.8611ZM30.0251 26.8611C28.7042 26.8611 27.6325 25.8233 27.6325 24.5513C27.6325 23.2793 28.7042 22.2416 30.0251 22.2416C31.346 22.2416 32.4177 23.2793 32.4177 24.5513C32.4177 25.8233 31.346 26.8611 30.0251 26.8611Z" fill="#9B9B9B" stroke="#9B9B9B" stroke-width="0.1"/>
<path d="M10 23.95C9.42092 23.95 8.95 24.4209 8.95 25C8.95 25.579 9.42092 26.05 10 26.05C10.579 26.05 11.05 25.579 11.05 25C11.05 24.4209 10.579 23.95 10 23.95Z" fill="#9B9B9B" stroke="#9B9B9B" stroke-width="0.1"/>
<path d="M30 23.95C29.421 23.95 28.95 24.4209 28.95 25C28.95 25.579 29.421 26.05 30 26.05C30.5791 26.05 31.05 25.579 31.05 25C31.05 24.4209 30.5791 23.95 30 23.95Z" fill="#9B9B9B" stroke="#9B9B9B" stroke-width="0.1"/>
<path d="M23.4095 20.95H14.5905C14.245 20.95 13.95 21.1887 13.95 21.5C13.95 21.8113 14.2449 22.05 14.5905 22.05H23.4095C23.755 22.05 24.05 21.8113 24.05 21.5C24.05 21.1887 23.7551 20.95 23.4095 20.95Z" fill="#9B9B9B" stroke="#9B9B9B" stroke-width="0.1"/>
<path d="M9.39182 18.95H1.60813C1.25431 18.95 0.95 19.1875 0.95 19.5C0.95 19.8125 1.25423 20.05 1.60813 20.05H9.39182C9.74568 20.05 10.05 19.8125 10.05 19.5C10.05 19.1875 9.74568 18.95 9.39182 18.95Z" fill="#9B9B9B" stroke="#9B9B9B" stroke-width="0.1"/>
<path d="M19.8629 11.1418L19.8629 11.1418C20.1124 11.3969 20.1124 11.8099 19.8628 12.0651L19.8628 12.0651L14.1935 17.8581L19.8629 11.1418ZM19.8629 11.1418C19.6126 10.8861 19.2064 10.8861 18.9562 11.1418L13.7402 16.4716M19.8629 11.1418L13.7402 16.4716M13.7402 16.4716L11.0439 13.7164C10.7936 13.4607 10.3874 13.4607 10.1372 13.7164L10.1372 13.7164C9.8876 13.9716 9.88759 14.3847 10.1372 14.6398L10.173 14.6048L10.1372 14.6398L13.2869 17.8581L13.7402 16.4716ZM13.7402 18.05C13.5761 18.05 13.4118 17.986 13.2869 17.8581L13.7402 18.05ZM13.7402 18.05C13.9043 18.05 14.0686 17.986 14.1935 17.8581L13.7402 18.05Z" fill="#9B9B9B" stroke="#9B9B9B" stroke-width="0.1"/>
</g>
<defs>
<clipPath id="clip0">
<rect width="36" height="33" fill="white"/>
</clipPath>
</defs>
</svg>
