<svg width="32" height="32" viewBox="0 0 32 32" fill="none" xmlns="http://www.w3.org/2000/svg">
<path d="M3 12.5H6.5V21.5H4C3.86739 21.5 3.74022 21.5527 3.64645 21.6464C3.55268 21.7402 3.5 21.8674 3.5 22C3.5 22.1326 3.55268 22.2598 3.64645 22.3536C3.74022 22.4473 3.86739 22.5 4 22.5H28C28.1326 22.5 28.2598 22.4473 28.3536 22.3536C28.4473 22.2598 28.5 22.1326 28.5 22C28.5 21.8674 28.4473 21.7402 28.3536 21.6464C28.2598 21.5527 28.1326 21.5 28 21.5H25.5V12.5H29C29.1082 12.5008 29.2136 12.4657 29.2996 12.4001C29.3855 12.3344 29.4473 12.2421 29.475 12.1375C29.5054 12.0334 29.5011 11.9222 29.4628 11.8207C29.4244 11.7193 29.3541 11.633 29.2625 11.575L16.2625 3.575C16.1836 3.52633 16.0927 3.50055 16 3.50055C15.9073 3.50055 15.8164 3.52633 15.7375 3.575L2.7375 11.575C2.64586 11.633 2.57558 11.7193 2.53725 11.8207C2.49891 11.9222 2.49462 12.0334 2.525 12.1375C2.55273 12.2421 2.61446 12.3344 2.70045 12.4001C2.78645 12.4657 2.89183 12.5008 3 12.5ZM7.5 12.5H12.5V21.5H7.5V12.5ZM18.5 12.5V21.5H13.5V12.5H18.5ZM24.5 21.5H19.5V12.5H24.5V21.5ZM16 4.5875L27.2375 11.5H4.7625L16 4.5875ZM30.5 26C30.5 26.1326 30.4473 26.2598 30.3536 26.3536C30.2598 26.4473 30.1326 26.5 30 26.5H2C1.86739 26.5 1.74021 26.4473 1.64645 26.3536C1.55268 26.2598 1.5 26.1326 1.5 26C1.5 25.8674 1.55268 25.7402 1.64645 25.6464C1.74021 25.5527 1.86739 25.5 2 25.5H30C30.1326 25.5 30.2598 25.5527 30.3536 25.6464C30.4473 25.7402 30.5 25.8674 30.5 26Z" fill="#FF8651"/>
<circle cx="16" cy="12" r="4" fill="#FF8651"/>
<path d="M14.6978 9.92334V14.3333H15.4475V9.92334H14.6978ZM15.1199 10.5785H16.0523C16.2497 10.5785 16.4177 10.6016 16.5563 10.6478C16.6949 10.6898 16.8041 10.7591 16.8839 10.8557C16.9637 10.9523 17.0036 11.0762 17.0036 11.2274C17.0036 11.3828 16.9637 11.5088 16.8839 11.6054C16.8041 11.702 16.6949 11.7734 16.5563 11.8196C16.4177 11.8616 16.2497 11.8826 16.0523 11.8826H15.1199V12.5378H16.0523C16.3757 12.5378 16.6613 12.4958 16.9091 12.4118C17.1569 12.3236 17.3522 12.1829 17.495 11.9897C17.6378 11.7923 17.7092 11.5382 17.7092 11.2274C17.7092 10.9124 17.6378 10.6604 17.495 10.4714C17.3522 10.2782 17.1569 10.1396 16.9091 10.0556C16.6613 9.96744 16.3757 9.92334 16.0523 9.92334H15.1199V10.5785ZM15.3593 13.7411H16.6508V13.13H15.3593V13.7411ZM13.9418 12.5189H15.2333V11.9078H13.9418V12.5189ZM13.9418 13.7411H15.2333V13.13H13.9418V13.7411Z" fill="white"/>
</svg>
