<svg width="33" height="33" viewBox="0 0 33 33" fill="none" xmlns="http://www.w3.org/2000/svg">
<path d="M30.9375 11.0281H31.1375V10.8281V8.76562C31.1375 7.80226 30.354 7.01875 29.3906 7.01875H3.60938C2.64601 7.01875 1.8625 7.80226 1.8625 8.76562V10.8281V11.0281H2.0625H30.9375ZM2.0625 12.6906H1.8625V12.8906V24.2344C1.8625 25.1977 2.64601 25.9813 3.60938 25.9813H29.3906C30.354 25.9813 31.1375 25.1977 31.1375 24.2344V12.8906V12.6906H30.9375H2.0625ZM3.60938 5.35625H29.3906C31.2704 5.35625 32.8 6.8859 32.8 8.76562V24.2344C32.8 26.1141 31.2704 27.6437 29.3906 27.6437H3.60938C1.72965 27.6437 0.2 26.1141 0.2 24.2344V8.76562C0.2 6.8859 1.72965 5.35625 3.60938 5.35625Z" fill="#FF8651" stroke="white" stroke-width="0.4"/>
<path d="M7.21875 22.4875H6.1875C5.72845 22.4875 5.35625 22.1153 5.35625 21.6562V20.625C5.35625 20.1659 5.72845 19.7938 6.1875 19.7938H7.21875C7.6778 19.7938 8.05 20.1659 8.05 20.625V21.6562C8.05 22.1153 7.6778 22.4875 7.21875 22.4875Z" fill="#FF8651" stroke="white" stroke-width="0.4"/>
</svg>
