<svg width="32" height="32" viewBox="0 0 32 32" fill="none" xmlns="http://www.w3.org/2000/svg">
<path d="M7.54838 26.5691H13.0525C13.5193 28.188 14.6684 29.1589 15.1578 29.4737C15.1578 29.4737 15.1578 30.3158 15.1578 30.7368C15.1578 31.1579 15.5788 31.1579 15.5788 31.1579C15.5788 31.1579 16.0154 31.1471 16.1229 31.1471H24.1571C24.2645 31.1469 24.3675 31.1041 24.4435 31.0282C24.5194 30.9522 24.5622 30.8492 24.5624 30.7418V26.8761L26.9309 19.605C27.0728 19.1718 27.4264 18.5573 27.3683 18.1052C27.3102 17.6532 27.1941 17.2253 26.9473 16.8421L23.9999 12.2105C23.9723 12.1633 23.9353 12.1221 23.8914 12.0895C23.8474 12.0569 23.7973 12.0335 23.7441 12.0208C23.6909 12.008 23.6356 12.0061 23.5817 12.0153C23.5277 12.0245 23.4761 12.0444 23.4301 12.074C23.3841 12.1036 23.0285 12.3865 22.9978 12.4318C22.967 12.477 22.9458 12.5281 22.9352 12.5818C22.9247 12.6355 22.9252 12.6908 22.9365 12.7443C22.9479 12.7978 22.97 12.8485 23.0015 12.8933L25.9125 17.4302C26.0942 17.7123 26.0625 17.7724 26.1052 18.1052C26.1479 18.438 25.7887 19.0496 25.6841 19.3684L23.1578 26.5263C23.1448 26.567 23.1579 26.9046 23.1578 26.9473V29.8947H16.5282V29.1668C16.5282 29.0924 16.5078 29.0195 16.4691 28.956C16.4305 28.8925 16.375 28.8409 16.3089 28.8068C15.4487 28.2987 14.7916 27.5078 14.4496 26.5691H15.9999C16.2828 27.2848 17.2631 28.6315 17.6841 28.6315C18.1052 28.6315 17.8773 28.6472 18.1052 28.6315C18.333 28.6159 18.5118 28.5854 18.5833 28.5295C18.6547 28.4735 18.7053 28.3952 18.727 28.3072C18.7487 28.2191 18.7403 28.1263 18.7032 28.0435C18.666 27.9608 18.6022 27.8929 18.5219 27.8506C16.956 27.0317 16.8874 24.9984 16.8867 24.987C16.8867 22.2649 18.7892 21.4798 18.867 21.4508C18.9437 21.4215 19.0096 21.3695 19.0561 21.3018C19.1026 21.2341 19.3685 21.1347 19.3683 21.0526V17.6842C19.3683 17.0513 19.5602 16.806 19.5602 16.806C19.5602 16.806 19.7894 16.421 20.4209 16.421C21.0525 16.421 21.2572 16.77 21.2835 16.806C21.3098 16.8421 21.5585 17.3807 21.566 17.6842L21.5563 21.8476C21.554 21.9023 21.5628 21.9569 21.5821 22.0081C21.6015 22.0593 21.631 22.106 21.6689 22.1455C21.7068 22.1851 21.7523 22.2165 21.8026 22.238C21.853 22.2594 22.2905 22.238 22.3452 22.238C22.4 22.238 22.4541 22.2269 22.5045 22.2054C22.5548 22.1839 22.6003 22.1525 22.6382 22.113C22.6761 22.0735 22.7056 22.0267 22.725 21.9755C22.7443 21.9243 22.7531 21.8698 22.7508 21.8151L22.725 17.054C22.7152 16.5368 22.5098 15.8502 22.1407 15.4879C21.7715 15.1257 20.8075 15.1167 20.2903 15.1167C19.7731 15.1167 19.2765 15.3197 18.9073 15.6819C18.5381 16.0442 18.3258 16.5368 18.3161 17.054V20.4131C17.6732 20.7611 15.8536 22.1455 15.7957 24.1857C15.7377 26.2259 15.7409 24.9988 15.7957 25.2496H10.3857V2.50822H12.3671V24.5883C12.3671 24.5883 12.3671 24.9185 12.6973 24.9185C12.6973 24.9185 13.2531 24.9185 13.3578 24.9185C13.6881 24.9185 13.6881 24.5883 13.6881 24.5883V24.347V2.50822H20.4767C20.9533 2.50822 20.9533 2.79261 20.9533 2.79261C20.9533 2.79261 20.9529 3.19397 20.9533 3.45308V14.1904C20.904 14.2705 21.0934 14.6255 21.2835 14.6811C21.4736 14.7368 21.868 14.7633 21.9506 14.6811C22.0331 14.599 22.1407 14.506 22.1407 14.506C22.1407 14.506 22.2609 14.3346 22.2653 14.23V3.48562C22.2742 2.13213 21.944 1.80189 21.944 1.80189C21.944 1.80189 21.2835 1.14142 20.4767 1.14142C20.4767 1.14142 8.3437 1.14142 7.54838 1.14142C6.75306 1.14142 6.42282 1.14142 6.09258 1.47166C5.76235 1.80189 5.7598 2.13213 5.75978 3.48562C5.75975 4.83911 5.75978 24.7805 5.75978 24.7805C5.76034 25.2547 5.94896 25.7093 6.28427 26.0446C6.61957 26.3799 7.07418 26.5686 7.54838 26.5691ZM7.08331 3.45398C7.08331 3.45398 7.08331 3.45308 7.08331 3.12284C7.08331 2.79261 7.08331 2.50822 7.54838 2.50822H9.06473V25.2496H7.54838C7.54838 25.2496 7.74378 25.2487 7.41354 25.2487C7.08331 25.2487 7.08368 24.9951 7.08331 24.736V3.45398Z" fill="#FF8651"/>
<path d="M15.6697 20.9542C15.845 20.9542 16.0131 20.9123 16.1371 20.8379C16.2611 20.7635 16.3307 20.6625 16.3307 20.5573V15.3902C16.3236 15.2879 16.2509 15.1912 16.1278 15.1203C16.0047 15.0495 15.8408 15.0099 15.6702 15.0099C15.4997 15.0099 15.3357 15.0495 15.2127 15.1203C15.0896 15.1912 15.0169 15.2879 15.0098 15.3902V20.5573C15.0096 20.6094 15.0266 20.661 15.0597 20.7091C15.0928 20.7573 15.1413 20.801 15.2026 20.8379C15.2639 20.8747 15.3367 20.904 15.4169 20.9239C15.497 20.9439 15.5829 20.9542 15.6697 20.9542Z" fill="#FF8651"/>
<path d="M15.0236 13.8192C15.0319 13.8613 15.0446 13.9024 15.0616 13.9417C15.0771 13.9826 15.0976 14.0215 15.1226 14.0573C15.1463 14.0933 15.1737 14.1266 15.2044 14.1567C15.2963 14.2489 15.4133 14.3118 15.5408 14.3376C15.6682 14.3633 15.8003 14.3506 15.9206 14.3013C16.0409 14.2519 16.144 14.1679 16.217 14.06C16.2899 13.952 16.3295 13.8248 16.3307 13.6943C16.3311 13.6505 16.3269 13.6067 16.318 13.5637C16.3095 13.5211 16.2971 13.4793 16.2812 13.4389C16.2641 13.3987 16.2437 13.36 16.2201 13.3233C16.1956 13.2876 16.1679 13.2543 16.1372 13.2239C16.076 13.1623 16.0033 13.1134 15.9233 13.0801C15.8433 13.0468 15.7575 13.0296 15.6708 13.0296C15.5841 13.0296 15.4983 13.0468 15.4183 13.0801C15.3383 13.1134 15.2656 13.1623 15.2044 13.2239C15.1734 13.2538 15.146 13.2871 15.1226 13.3233C15.0982 13.3595 15.0777 13.3983 15.0616 13.4389C15.0447 13.4791 15.032 13.5209 15.0236 13.5637C15.0143 13.6066 15.0097 13.6504 15.0098 13.6943C15.0102 13.7363 15.0148 13.7781 15.0236 13.8192Z" fill="#FF8651"/>
<path d="M15.2044 12.1784C15.3284 12.3013 15.4961 12.3703 15.6708 12.3703C15.8456 12.3703 16.0132 12.3013 16.1372 12.1784C16.1682 12.1476 16.196 12.1137 16.2202 12.0773C16.2444 12.0411 16.2649 12.0026 16.2812 11.9623C16.2975 11.923 16.3098 11.8822 16.3181 11.8404C16.3349 11.755 16.3349 11.6671 16.3181 11.5817C16.3095 11.5393 16.2972 11.4978 16.2812 11.4576C16.2641 11.4176 16.2437 11.3791 16.2202 11.3426C16.1954 11.307 16.1677 11.2735 16.1372 11.2426C16.076 11.1813 16.0033 11.1327 15.9233 11.0995C15.8433 11.0664 15.7575 11.0493 15.6708 11.0493C15.5842 11.0493 15.4984 11.0664 15.4183 11.0995C15.3383 11.1327 15.2656 11.1813 15.2044 11.2426C15.1434 11.304 15.0949 11.3766 15.0616 11.4564C15.0447 11.4964 15.032 11.538 15.0236 11.5806C15.0144 11.6229 15.0098 11.6661 15.0098 11.7094C15.0104 11.8852 15.0803 12.0537 15.2044 12.1784Z" fill="#FF8651"/>
<path d="M15.0616 9.97842C15.077 10.0192 15.0975 10.0579 15.1226 10.0935C15.1456 10.1305 15.1731 10.1645 15.2044 10.1948C15.3284 10.3177 15.4961 10.3867 15.6708 10.3867C15.8455 10.3867 16.0132 10.3177 16.1372 10.1948C16.1988 10.1336 16.2476 10.0607 16.2808 9.98054C16.314 9.90034 16.331 9.81435 16.3307 9.72756C16.331 9.68427 16.3268 9.64107 16.318 9.59867C16.3098 9.55653 16.2974 9.51529 16.2812 9.47554C16.2646 9.43531 16.2441 9.39677 16.2201 9.36047C16.1957 9.32422 16.1679 9.29032 16.1372 9.2592C16.076 9.19789 16.0033 9.14926 15.9233 9.11607C15.8433 9.08288 15.7575 9.0658 15.6708 9.0658C15.5842 9.0658 15.4984 9.08288 15.4183 9.11607C15.3383 9.14926 15.2656 9.19789 15.2044 9.2592C15.1734 9.28976 15.146 9.32373 15.1226 9.36047C15.0977 9.39624 15.0772 9.43488 15.0616 9.47554C15.0444 9.51507 15.0317 9.55636 15.0236 9.59867C15.0144 9.64103 15.0098 9.68423 15.0098 9.72756C15.0097 9.77089 15.0144 9.8141 15.0236 9.85644C15.0316 9.8984 15.0444 9.93932 15.0616 9.97842Z" fill="#FF8651"/>
</svg>
