<svg width="32" height="32" viewBox="0 0 32 32" fill="none" xmlns="http://www.w3.org/2000/svg">
<g clip-path="url(#clip0)">
<path d="M24.6664 28.6666H21.3331V26H19.9998V28.6666H4.66662C4.29844 28.6666 3.99995 28.9651 3.99995 29.3333C3.99995 30.0697 3.40302 30.6666 2.66665 30.6666C1.93029 30.6666 1.33336 30.0697 1.33336 29.3333V1.65169L3.75264 2.61967C3.91145 2.68311 4.08851 2.68311 4.24732 2.61967L7.33327 1.385L10.4192 2.61967C10.578 2.68311 10.7551 2.68311 10.9139 2.61967L13.9999 1.385L17.0858 2.61967C17.2446 2.68311 17.4217 2.68311 17.5805 2.61967L19.9998 1.65169V6.00031H21.3331V0.667013C21.3331 0.582201 21.317 0.498202 21.2855 0.419454C21.1489 0.0775208 20.761 -0.0889144 20.4191 0.0477087L17.3331 1.28238L14.2472 0.0477087C14.0884 -0.0157279 13.9113 -0.0157279 13.7525 0.0477087L10.6665 1.28238L7.58058 0.0477087C7.42177 -0.0157279 7.24471 -0.0157279 7.0859 0.0477087L3.99995 1.28238L0.913988 0.0477087C0.835239 0.0162716 0.75124 8.4362e-05 0.666428 0.000146861C0.298246 0.000271859 -0.000124959 0.29883 3.92604e-08 0.667013V29.3333C3.92604e-08 30.806 1.19392 32 2.66665 32H22.6664C24.1391 32 25.333 30.806 25.333 29.3333C25.333 28.9651 25.0345 28.6666 24.6664 28.6666ZM22.6664 30.6666H4.97531C5.09656 30.458 5.18849 30.2336 5.24862 29.9999H23.8204C23.5823 30.4123 23.1425 30.6663 22.6664 30.6666Z" fill="#9B9B9B"/>
<path d="M31.3318 7.33366H10.6653V6.00037H9.33203V8.00034V24.0001V26.0001H10.6653V24.6668H31.3318C31.6999 24.6668 31.9984 24.3683 31.9984 24.0001V8.00034C31.9984 7.63216 31.6999 7.33366 31.3318 7.33366ZM30.6651 11.2661C29.36 10.9999 28.3322 9.97206 28.066 8.66702H30.6651V11.2661ZM10.6653 8.66695H26.7141C27.0087 10.7091 28.623 12.3233 30.6651 12.6179V18.7104C28.2545 19.0137 26.3454 20.9228 26.0421 23.3334H10.6653V8.66695ZM27.3887 23.3334C27.6712 21.6597 28.9913 20.3395 30.6651 20.0571V23.3334H27.3887Z" fill="#9B9B9B"/>
<path d="M27 16C27 12.6863 24.3137 10 21 10C17.6863 10 15 12.6863 15 16C15 19.3137 17.6863 22 21 22C24.3122 21.9963 26.9963 19.3122 27 16ZM21 20.6666C18.4227 20.6666 16.3333 18.5773 16.3333 15.9999C16.3333 13.4226 18.4226 11.3333 21 11.3333C23.5759 11.3366 25.6634 13.4239 25.6667 15.9999C25.6667 18.5773 23.5773 20.6666 21 20.6666Z" fill="#9B9B9B"/>
<path d="M2.66602 22.6667C2.66602 23.0349 2.96448 23.3334 3.33266 23.3334C3.70084 23.3334 3.99931 23.0349 3.99931 22.6667C3.99931 22.2985 3.70084 22.0001 3.33266 22.0001C2.96448 22.0001 2.66602 22.2985 2.66602 22.6667Z" fill="#9B9B9B"/>
<path d="M2.66602 25.3333C2.66602 25.7015 2.96448 26 3.33266 26C3.70084 26 3.99931 25.7015 3.99931 25.3333C3.99931 24.9652 3.70084 24.6667 3.33266 24.6667C2.96448 24.6667 2.66602 24.9652 2.66602 25.3333Z" fill="#9B9B9B"/>
<path d="M5.33203 25.3333C5.33203 25.7015 5.6305 26 5.99868 26C6.36686 26 6.66533 25.7015 6.66533 25.3333C6.66533 24.9652 6.36686 24.6667 5.99868 24.6667C5.6305 24.6667 5.33203 24.9652 5.33203 25.3333Z" fill="#9B9B9B"/>
<path d="M7.33261 6.00037H3.33266C2.96448 6.00037 2.66602 6.29883 2.66602 6.66701C2.66602 7.03519 2.96448 7.33366 3.33266 7.33366H7.33261C7.70079 7.33366 7.99926 7.03519 7.99926 6.66701C7.99926 6.29883 7.70079 6.00037 7.33261 6.00037Z" fill="#9B9B9B"/>
<path d="M7.33261 8.66693H3.33266C2.96448 8.66693 2.66602 8.9654 2.66602 9.33358C2.66602 9.70176 2.96448 10.0002 3.33266 10.0002H7.33261C7.70079 10.0002 7.99926 9.70176 7.99926 9.33358C7.99926 8.9654 7.70079 8.66693 7.33261 8.66693Z" fill="#9B9B9B"/>
<path d="M4.66602 11.3336H3.33266C2.96448 11.3336 2.66602 11.632 2.66602 12.0002C2.66602 12.3684 2.96448 12.6669 3.33266 12.6669H4.66602C5.0342 12.6669 5.33267 12.3684 5.33267 12.0002C5.33267 11.632 5.0342 11.3336 4.66602 11.3336Z" fill="#9B9B9B"/>
</g>
<defs>
<clipPath id="clip0">
<rect width="32" height="32" fill="white"/>
</clipPath>
</defs>
</svg>
