<svg width="77" height="37" viewBox="0 0 77 37" fill="none" xmlns="http://www.w3.org/2000/svg">
<path d="M16.15 36.7C13.15 36.7 10.4833 35.9833 8.15 34.55C5.85 33.1167 4.03333 31.05 2.7 28.35C1.36667 25.65 0.7 22.3667 0.7 18.5C0.7 14.6333 1.36667 11.35 2.7 8.65C4.03333 5.95 5.85 3.88333 8.15 2.45C10.4833 1.01667 13.15 0.299998 16.15 0.299998C19.1167 0.299998 21.75 1.01667 24.05 2.45C26.3833 3.88333 28.2167 5.95 29.55 8.65C30.8833 11.35 31.55 14.6333 31.55 18.5C31.55 22.3667 30.8833 25.65 29.55 28.35C28.2167 31.05 26.3833 33.1167 24.05 34.55C21.75 35.9833 19.1167 36.7 16.15 36.7ZM16.15 28.6C17.2167 28.6 18.15 28.2667 18.95 27.6C19.7833 26.9333 20.4333 25.8667 20.9 24.4C21.3667 22.9 21.6 20.9333 21.6 18.5C21.6 16.0333 21.3667 14.0667 20.9 12.6C20.4333 11.1333 19.7833 10.0667 18.95 9.4C18.15 8.73333 17.2167 8.4 16.15 8.4C15.0833 8.4 14.1333 8.73333 13.3 9.4C12.5 10.0667 11.85 11.1333 11.35 12.6C10.8833 14.0667 10.65 16.0333 10.65 18.5C10.65 20.9333 10.8833 22.9 11.35 24.4C11.85 25.8667 12.5 26.9333 13.3 27.6C14.1333 28.2667 15.0833 28.6 16.15 28.6Z" fill="#FF8651"/>
<path d="M40.0785 36L63.9785 0.999998H71.1785L47.2785 36H40.0785ZM43.2785 19.95C41.5785 19.95 40.0452 19.5667 38.6785 18.8C37.3118 18.0333 36.2452 16.9333 35.4785 15.5C34.7118 14.0333 34.3285 12.2833 34.3285 10.25C34.3285 8.21666 34.7118 6.48333 35.4785 5.05C36.2452 3.61666 37.3118 2.51666 38.6785 1.75C40.0452 0.949997 41.5785 0.549997 43.2785 0.549997C45.0118 0.549997 46.5452 0.949997 47.8785 1.75C49.2452 2.51666 50.3119 3.61666 51.0785 5.05C51.8785 6.48333 52.2785 8.21666 52.2785 10.25C52.2785 12.25 51.8785 13.9833 51.0785 15.45C50.3119 16.9167 49.2452 18.0333 47.8785 18.8C46.5452 19.5667 45.0118 19.95 43.2785 19.95ZM43.3285 15.2C44.1618 15.2 44.8452 14.8167 45.3785 14.05C45.9452 13.2833 46.2285 12.0167 46.2285 10.25C46.2285 8.48333 45.9452 7.21667 45.3785 6.45C44.8452 5.68333 44.1618 5.3 43.3285 5.3C42.4952 5.3 41.7785 5.68333 41.1785 6.45C40.6118 7.21667 40.3285 8.48333 40.3285 10.25C40.3285 12.0167 40.6118 13.2833 41.1785 14.05C41.7785 14.8167 42.4952 15.2 43.3285 15.2ZM67.9785 36.45C66.2452 36.45 64.6952 36.0667 63.3285 35.3C61.9952 34.5333 60.9452 33.4333 60.1785 32C59.4119 30.5333 59.0285 28.7833 59.0285 26.75C59.0285 24.7167 59.4119 22.9833 60.1785 21.55C60.9452 20.1167 61.9952 19.0167 63.3285 18.25C64.6952 17.45 66.2452 17.05 67.9785 17.05C69.7119 17.05 71.2452 17.45 72.5785 18.25C73.9452 19.0167 75.0119 20.1167 75.7785 21.55C76.5785 22.9833 76.9785 24.7167 76.9785 26.75C76.9785 28.7833 76.5785 30.5333 75.7785 32C75.0119 33.4333 73.9452 34.5333 72.5785 35.3C71.2452 36.0667 69.7119 36.45 67.9785 36.45ZM67.9785 31.7C68.8119 31.7 69.5119 31.3167 70.0785 30.55C70.6452 29.7833 70.9285 28.5167 70.9285 26.75C70.9285 24.9833 70.6452 23.7167 70.0785 22.95C69.5119 22.1833 68.8119 21.8 67.9785 21.8C67.1785 21.8 66.4785 22.1833 65.8785 22.95C65.3119 23.7167 65.0285 24.9833 65.0285 26.75C65.0285 28.5167 65.3119 29.7833 65.8785 30.55C66.4785 31.3167 67.1785 31.7 67.9785 31.7Z" fill="white"/>
</svg>
