<svg width="239" height="215" viewBox="0 0 239 215" fill="none" xmlns="http://www.w3.org/2000/svg">
<g opacity="0.54">
<path d="M213.359 0.839966L26.2076 0.839966C12.2812 0.839966 0.957031 11.4987 0.957031 24.6052L0.957031 190.962C0.957031 204.069 12.2812 214.727 26.2076 214.727H213.359C227.285 214.727 238.61 204.069 238.61 190.962V24.6052C238.61 11.4987 227.285 0.839966 213.359 0.839966ZM213.359 190.962H26.2076C25.5303 190.962 25.0669 190.772 24.8649 190.772C24.7817 190.772 24.7342 190.796 24.7223 190.867L24.5797 25.1518C24.6629 25.033 25.1976 24.6052 26.2076 24.6052L213.359 24.6052C214.298 24.6171 214.809 24.9379 214.844 24.7003L214.987 190.415C214.904 190.534 214.369 190.962 213.359 190.962Z" fill="white"/>
<path d="M48.4863 48.3702L119.782 48.3702V119.666H48.4863L48.4863 48.3702ZM131.665 143.431H48.4863V167.196H191.078V143.431H143.547H131.665ZM143.547 95.9007H191.078V119.666L143.547 119.666V95.9007ZM143.547 48.3702H191.078V72.1354H143.547V48.3702Z" fill="white"/>
</g>
</svg>
