<svg width="42" height="28" viewBox="0 0 42 28" fill="none" xmlns="http://www.w3.org/2000/svg">
<path d="M39.0598 11.9788L37.9722 7.6283C38.2695 7.5651 38.4927 7.3013 38.4927 6.9852V6.2838C38.4927 4.7608 37.2536 3.5218 35.7307 3.5218H30.7766V2.0749C30.7766 1.32548 30.167 0.71582 29.4176 0.71582H4.16489C3.41545 0.71582 2.8058 1.32548 2.8058 2.0749V13.9998C2.8058 14.3629 3.10021 14.6574 3.46344 14.6574C3.82659 14.6574 4.12109 14.363 4.12109 13.9998V2.0749C4.12109 2.0507 4.14069 2.0311 4.16489 2.0311H29.4175C29.4417 2.0311 29.4613 2.0507 29.4613 2.0749V14C29.4613 14.3631 29.7557 14.6576 30.1189 14.6576C30.4821 14.6576 30.7766 14.3632 30.7766 14V13.2545H38.5342C38.5348 13.2545 38.5353 13.2546 38.5359 13.2546C38.5366 13.2546 38.5371 13.2545 38.5377 13.2545C39.4923 13.2552 40.3029 13.8818 40.5813 14.7451H38.5364C38.1732 14.7451 37.8787 15.0395 37.8787 15.4028V16.8057C37.8787 17.9419 38.8031 18.8662 39.9393 18.8662H40.6846V21.7597H38.9651C38.4002 20.1287 36.8498 18.9538 35.0291 18.9538C33.2084 18.9538 31.6578 20.1287 31.093 21.7597H30.7764V16.8056C30.7764 16.4424 30.482 16.148 30.1188 16.148C29.7556 16.148 29.4611 16.4424 29.4611 16.8056V21.7595H15.817C15.2522 20.1285 13.7017 18.9537 11.881 18.9537C10.0603 18.9537 8.50976 20.1285 7.94497 21.7595H4.16489C4.14069 21.7595 4.12109 21.7399 4.12109 21.7157V20.269H6.97077C7.33392 20.269 7.62841 19.9745 7.62841 19.6113C7.62841 19.2481 7.334 18.9537 6.97077 18.9537H0.65764C0.29449 18.9537 0 19.2481 0 19.6113C0 19.9745 0.29441 20.269 0.65764 20.269H2.80588V21.7157C2.80588 22.4652 3.41553 23.0748 4.16497 23.0748H7.71725C7.71709 23.0894 7.71611 23.104 7.71611 23.1186C7.71611 25.4152 9.5845 27.2835 11.881 27.2835C14.1775 27.2835 16.0459 25.4152 16.0459 23.1186C16.0459 23.1039 16.0449 23.0894 16.0447 23.0748H30.8653C30.8652 23.0894 30.8642 23.104 30.8642 23.1186C30.8642 25.4152 32.7326 27.2835 35.0291 27.2835C37.3255 27.2835 39.194 25.4152 39.194 23.1186C39.194 23.1039 39.193 23.0894 39.1928 23.0748H41.3423C41.7054 23.0748 41.9999 22.7804 41.9999 22.4172V15.4026C42 13.6708 40.7222 12.2319 39.0598 11.9788ZM30.7766 4.837H35.7307C36.5284 4.837 37.1775 5.486 37.1775 6.2838V6.3276H30.7766V4.837ZM30.7766 11.9393V7.6428H36.6201L37.6943 11.9393H30.7766ZM11.881 25.9685C10.3097 25.9685 9.0313 24.6902 9.0313 23.1188C9.0313 21.5474 10.3097 20.2691 11.881 20.2691C13.4523 20.2691 14.7307 21.5474 14.7307 23.1188C14.7307 24.6902 13.4523 25.9685 11.881 25.9685ZM35.0292 25.9685C33.4579 25.9685 32.1795 24.6902 32.1795 23.1188C32.1795 21.5474 33.4579 20.2691 35.0292 20.2691C36.6005 20.2691 37.8789 21.5474 37.8789 23.1188C37.8789 24.6902 36.6005 25.9685 35.0292 25.9685ZM40.6848 17.5509H39.9395C39.5285 17.5509 39.1941 17.2166 39.1941 16.8056V16.0603H40.6847V17.5509H40.6848Z" fill="#9B9B9B"/>
<path d="M11.8806 21.7598C11.1311 21.7598 10.5215 22.3694 10.5215 23.1189C10.5215 23.8683 11.1311 24.478 11.8806 24.478C12.63 24.478 13.2397 23.8683 13.2397 23.1189C13.2397 22.3694 12.63 21.7598 11.8806 21.7598Z" fill="#9B9B9B"/>
<path d="M35.029 21.7598C34.2796 21.7598 33.6699 22.3694 33.6699 23.1189C33.6699 23.8683 34.2796 24.478 35.029 24.478C35.7785 24.478 36.3881 23.8683 36.3881 23.1189C36.3881 22.3694 35.7785 21.7598 35.029 21.7598Z" fill="#9B9B9B"/>
<path d="M27.3131 18.9541H17.4926C17.1295 18.9541 16.835 19.2485 16.835 19.6117C16.835 19.975 17.1294 20.2694 17.4926 20.2694H27.3131C27.6762 20.2694 27.9707 19.975 27.9707 19.6117C27.9707 19.2485 27.6763 18.9541 27.3131 18.9541Z" fill="#9B9B9B"/>
<path d="M10.4775 16.1484H2.05999C1.69683 16.1484 1.40234 16.4428 1.40234 16.8061C1.40234 17.1693 1.69675 17.4637 2.05999 17.4637H10.4775C10.8407 17.4637 11.1352 17.1693 11.1352 16.8061C11.1352 16.4428 10.8407 16.1484 10.4775 16.1484Z" fill="#9B9B9B"/>
<path d="M22.8679 7.2219C22.6111 6.9651 22.1947 6.9651 21.9379 7.2219L16.0897 13.07L13.0474 10.0277C12.7906 9.7709 12.3742 9.7709 12.1174 10.0277C11.8606 10.2846 11.8606 10.7009 12.1174 10.9577L15.6248 14.465C15.7531 14.5935 15.9215 14.6577 16.0897 14.6577C16.258 14.6577 16.4264 14.5935 16.5547 14.465L22.8678 8.1519C23.1246 7.895 23.1246 7.4787 22.8679 7.2219Z" fill="#FF8651"/>
</svg>
