<svg width="34" height="44" viewBox="0 0 34 44" fill="none" xmlns="http://www.w3.org/2000/svg">
<path d="M32.644 15.5637C33 15.5637 33.2886 15.2752 33.2886 14.9191V7.67846C33.2886 7.35439 33.0972 7.06023 32.8008 6.92857L17.3325 0.070501C17.121 -0.0235146 16.8784 -0.0234287 16.6673 0.0703291L1.19846 6.92866C0.902228 7.06014 0.710938 7.35439 0.710938 7.67846V21.0667C0.710938 26.0707 2.22163 30.8868 5.0796 34.9944C7.9375 39.1019 11.9283 42.1925 16.6203 43.9319C16.865 44.0226 17.1346 44.0226 17.3794 43.9318C22.0714 42.1924 26.0621 39.1018 28.92 34.9943C31.7779 30.8867 33.2886 26.0706 33.2886 21.0667V17.927C33.2886 17.571 33.0001 17.2825 32.6441 17.2825C32.2882 17.2825 31.9996 17.571 31.9996 17.927V21.0667C31.9996 30.6542 25.9744 39.3376 16.9999 42.6976C8.0244 39.3381 1.99991 30.6548 1.99991 21.0667V7.98337L16.9997 1.33301L31.9995 7.98337V14.9191C31.9995 15.2752 32.2881 15.5637 32.644 15.5637Z" fill="#9B9B9B"/>
<path d="M20.2862 21.576C20.5379 21.8276 20.946 21.8276 21.1976 21.576L23.3524 19.4212C23.7512 19.0223 23.7512 18.3734 23.3524 17.9745L21.6083 16.2302C21.2095 15.8314 20.5606 15.8315 20.1616 16.2302L15.3881 21.0039L13.2751 18.8909C12.8763 18.492 12.2273 18.4919 11.8284 18.8909L10.0842 20.6351C9.68541 21.0341 9.68551 21.683 10.0843 22.0818L14.6647 26.6623C15.0637 27.0612 15.7125 27.0609 16.1114 26.6623L19.0331 23.7406C19.2848 23.4888 19.2848 23.0808 19.0331 22.829C18.7814 22.5774 18.3733 22.5774 18.1217 22.829L15.3881 25.5627L11.1839 21.3585L12.5518 19.9906L14.6647 22.1036C15.0637 22.5026 15.7126 22.5022 16.1114 22.1036L20.8849 17.33L22.2528 18.6979L20.2861 20.6645C20.0344 20.9162 20.0344 21.3243 20.2862 21.576Z" fill="#FF8651"/>
<path d="M17.0004 41.394C17.3563 41.394 17.6449 41.1056 17.6449 40.7495V31.4695C23.0501 31.1356 27.3454 26.6322 27.3454 21.1444C27.3454 15.6566 23.0502 11.1531 17.6449 10.8192V3.23779C17.6449 2.88175 17.3563 2.59326 17.0004 2.59326C16.6444 2.59326 16.3558 2.88175 16.3558 3.23779V10.8196C14.9168 10.9098 13.5024 11.3003 12.2301 11.9625C11.9144 12.1268 11.7916 12.516 11.956 12.8318C12.1205 13.1477 12.5097 13.2704 12.8253 13.1058C13.932 12.5298 15.1169 12.1961 16.3558 12.1105V15.2109C16.3558 15.5669 16.6444 15.8554 17.0004 15.8554C17.3563 15.8554 17.6449 15.5669 17.6449 15.2109V12.111C22.3388 12.4426 26.0564 16.3675 26.0564 21.1443C26.0564 25.9211 22.3388 29.8459 17.6449 30.1776V28.6351C17.6449 28.279 17.3563 27.9905 17.0004 27.9905C16.6444 27.9905 16.3558 28.279 16.3558 28.6351V30.1776C11.6619 29.8459 7.94427 25.9211 7.94427 21.1443C7.94427 18.7569 8.86527 16.5039 10.5377 14.8003C10.7871 14.5463 10.7833 14.1383 10.5293 13.889C10.2752 13.6396 9.86707 13.6434 9.61777 13.8974C7.70737 15.8434 6.65527 18.4171 6.65527 21.1444C6.65527 26.6322 10.9506 31.1357 16.3558 31.4695V40.7494C16.3558 41.1055 16.6444 41.394 17.0004 41.394Z" fill="#9B9B9B"/>
</svg>
