<svg width="34" height="34" viewBox="0 0 34 34" fill="none" xmlns="http://www.w3.org/2000/svg">
<path d="M7.4375 6.475H20.1875C20.7188 6.475 21.15 6.90623 21.15 7.4375C21.15 7.96877 20.7188 8.4 20.1875 8.4H7.4375C6.90623 8.4 6.475 7.96877 6.475 7.4375C6.475 6.90623 6.90623 6.475 7.4375 6.475Z" fill="#FF8651" stroke="white" stroke-width="0.2"/>
<path d="M7.4375 10.725H15.9375C16.4688 10.725 16.9 11.1562 16.9 11.6875C16.9 12.2188 16.4688 12.65 15.9375 12.65H7.4375C6.90623 12.65 6.475 12.2188 6.475 11.6875C6.475 11.1562 6.90623 10.725 7.4375 10.725Z" fill="#FF8651" stroke="white" stroke-width="0.2"/>
<path d="M1.6784 26.2392L1.67848 26.2392L7.75811 21.1732L7.78592 21.15H7.82212H23.375C25.6636 21.15 27.525 19.2886 27.525 17V4.25C27.525 1.96135 25.6636 0.1 23.375 0.1H4.25C1.96135 0.1 0.1 1.96135 0.1 4.25V25.5C0.1 25.8736 0.31561 26.2141 0.653991 26.3719L1.6784 26.2392ZM1.6784 26.2392C1.50332 26.3855 1.28385 26.4625 1.0625 26.4625C0.924208 26.4625 0.783489 26.4317 0.654232 26.372L1.6784 26.2392ZM2.025 23.2326V23.4462L2.18903 23.3094L6.82152 19.4483C6.99485 19.3039 7.21234 19.225 7.4375 19.225H23.375C24.6033 19.225 25.6 18.226 25.6 17V4.25C25.6 3.02396 24.6033 2.025 23.375 2.025H4.25C3.02171 2.025 2.025 3.02396 2.025 4.25V23.2326Z" fill="#9B9B9B" stroke="white" stroke-width="0.2"/>
<path d="M31.8125 30.8035L31.975 30.9334V30.7254V12.75C31.975 11.524 30.9783 10.525 29.75 10.525C29.2187 10.525 28.7875 10.0938 28.7875 9.5625C28.7875 9.03123 29.2187 8.6 29.75 8.6C32.0386 8.6 33.9 10.4614 33.9 12.75V32.9375C33.9 33.3068 33.6885 33.6437 33.3554 33.8057C33.2202 33.8693 33.0778 33.9 32.9375 33.9C32.7238 33.9 32.5099 33.8288 32.3346 33.6901C32.3345 33.69 32.3345 33.69 32.3344 33.69L27.3135 29.6719L27.2861 29.65H27.251H12.75C10.4614 29.65 8.6 27.7886 8.6 25.5V24.4375C8.6 23.9062 9.03123 23.475 9.5625 23.475C10.0938 23.475 10.525 23.9062 10.525 24.4375V25.5C10.525 26.726 11.5217 27.725 12.75 27.725H27.625C27.8424 27.725 28.0562 27.8001 28.2256 27.9348C28.2256 27.9348 28.2257 27.9348 28.2257 27.9349L31.8125 30.8035Z" fill="#9B9B9B" stroke="white" stroke-width="0.2"/>
</svg>
