<svg width="36" height="36" viewBox="0 0 36 36" fill="none" xmlns="http://www.w3.org/2000/svg">
<path d="M33.1893 13.994C33.4087 11.2687 33.411 8.5159 33.1952 5.80238C33.1721 5.51204 32.9183 5.29552 32.6277 5.31845C32.3373 5.34158 32.1207 5.59565 32.1438 5.88599C32.3572 8.5714 32.3527 11.296 32.1309 13.9928H27.7785V12.8786C28.4123 12.584 29.8382 11.8634 30.8712 10.9079C31.0791 10.715 31.2026 10.4524 31.219 10.1689C31.273 9.2482 31.3264 6.0374 29.7482 3.37517C29.7385 3.35886 29.7279 3.34297 29.7165 3.32778C29.6494 3.23833 29.0103 2.45364 27.251 2.45364C27.0931 2.45364 26.9436 2.52445 26.8434 2.64652C26.7432 2.76853 26.703 2.92914 26.7337 3.08398C26.7387 3.10915 27.2056 5.50339 26.8124 7.0748C26.4669 7.2152 25.7437 7.4695 25.0416 7.4695C24.3392 7.4695 23.6154 7.215 23.27 7.0748C22.8769 5.50339 23.3437 3.10915 23.3487 3.08419C23.3796 2.92928 23.3394 2.76874 23.2392 2.64659C23.139 2.52452 22.9894 2.45371 22.8314 2.45371C21.073 2.45371 20.4333 3.23812 20.3662 3.32757C20.3547 3.34289 20.3441 3.35879 20.3343 3.37524C18.754 6.041 18.8096 9.2495 18.8642 10.1685C18.8806 10.4524 19.0041 10.715 19.2125 10.9084C20.2445 11.8635 21.6702 12.5841 22.304 12.8786V13.9928H12.6326V10.4419C12.6326 10.2515 12.6997 10.067 12.8219 9.9218L13.9623 8.5642C14.3856 8.061 14.5119 7.3628 14.2918 6.7416L13.1898 3.64147C12.9256 2.9008 12.2199 2.40315 11.4336 2.40315H9.9717C9.1855 2.40315 8.4797 2.9008 8.2153 3.6421L7.1142 6.7415C6.8933 7.3621 7.0193 8.0606 7.4428 8.564L8.5838 9.9225C8.7056 10.0671 8.7728 10.2516 8.7728 10.442V13.9929H3.8696C3.57511 10.4115 3.66519 6.7863 4.13991 3.20901C4.27085 2.22137 5.08803 1.46227 6.0833 1.40405C13.9912 0.93839 22.01 0.93839 29.9167 1.40405C30.9121 1.46227 31.7296 2.22137 31.8605 3.20894C31.8869 3.40836 31.9126 3.60849 31.9362 3.80792C31.9704 4.09714 32.2324 4.30409 32.522 4.26963C32.8112 4.23539 33.018 3.97317 32.9837 3.68387C32.9595 3.47967 32.9332 3.27476 32.9062 3.07041C32.7089 1.58238 31.4776 0.43878 29.9785 0.35109C22.0308 -0.11703 13.9704 -0.11703 6.0214 0.35109C4.52259 0.43878 3.29151 1.58238 3.09426 3.07034C2.61335 6.6938 2.51891 10.3656 2.81116 13.994C1.78787 14.0219 0.963867 14.8624 0.963867 15.8922V17.4506C0.963867 18.3135 1.54253 19.0435 2.33207 19.274C1.79328 23.7664 1.82001 28.3162 2.41568 32.8067C2.62151 34.353 3.90104 35.5415 5.45798 35.6327C9.6197 35.8776 13.8092 36.0001 18.0001 36.0001C22.1901 36.0001 26.3816 35.8776 30.5422 35.6327C32.0992 35.5415 33.3788 34.353 33.5847 32.8065C34.1803 28.3163 34.2071 23.7665 33.6683 19.274C34.4578 19.0435 35.0365 18.3135 35.0365 17.4506V15.8922C35.0366 14.8624 34.2126 14.0219 33.1893 13.994ZM23.0355 12.0502C23.0165 12.0422 21.1258 11.2417 19.9297 10.1347C19.9204 10.126 19.9179 10.1152 19.9174 10.1068C19.8675 9.2677 19.8149 6.3573 21.2155 3.95784C21.2829 3.89343 21.5683 3.65652 22.204 3.55505C22.0698 4.52314 21.9106 6.3235 22.3298 7.6211C22.3739 7.7576 22.4719 7.8703 22.6009 7.9331C22.6505 7.9573 23.8295 8.5242 25.0418 8.5242C26.2541 8.5242 27.4325 7.9573 27.4821 7.9331C27.611 7.8702 27.7089 7.7575 27.753 7.621C28.1722 6.3234 28.0131 4.52299 27.8789 3.55491C28.5149 3.65638 28.8 3.89335 28.8672 3.95763C30.2659 6.354 30.2153 9.2672 30.1661 10.1076C30.1657 10.1151 30.1631 10.126 30.1544 10.1341C28.957 11.2416 27.0662 12.0422 27.0474 12.0501C26.8514 12.1322 26.7238 12.324 26.7238 12.5366V13.9928H23.359V12.5366C23.359 12.3242 23.2313 12.1324 23.0355 12.0502ZM9.391 9.2433L8.2502 7.8852C8.0666 7.6669 8.0121 7.3641 8.108 7.0947L9.209 3.99567C9.3238 3.67396 9.6302 3.4578 9.9717 3.4578H11.4336C11.775 3.4578 12.0816 3.67396 12.1961 3.99518L13.2978 7.0943C13.3933 7.3638 13.3387 7.6669 13.1549 7.8855L12.0147 9.2428C11.733 9.5774 11.5778 10.0032 11.5778 10.4418V13.9928H9.8276V10.4418C9.8276 10.0031 9.6724 9.5773 9.391 9.2433ZM32.5391 32.6675C32.3999 33.7138 31.5341 34.518 30.4804 34.5797C22.1992 35.0671 13.8012 35.0672 5.51979 34.5797C4.46626 34.5181 3.60056 33.7139 3.46133 32.6678C2.87508 28.2488 2.85089 23.771 3.38531 19.3502H32.6151C33.1495 23.7709 33.1253 28.2487 32.5391 32.6675ZM33.9818 17.4506C33.9818 17.9164 33.6028 18.2953 33.137 18.2953H2.8634C2.39761 18.2953 2.01866 17.9164 2.01866 17.4506V15.8922C2.01866 15.4264 2.39761 15.0475 2.8634 15.0475H33.137C33.6028 15.0475 33.9818 15.4264 33.9818 15.8922V17.4506Z" fill="#9B9B9B"/>
<path d="M23.2368 21.3066C22.248 21.3066 21.4437 22.111 21.4437 23.0998V25.4787C21.4437 25.5012 21.4249 25.5202 21.4029 25.5202H14.5988C14.5767 25.5202 14.558 25.5012 14.558 25.4787V23.0998C14.558 22.111 13.7536 21.3066 12.7648 21.3066C11.7761 21.3066 10.9717 22.111 10.9717 23.0998V25.4787C10.9717 27.0087 11.9405 28.382 13.3824 28.8959C13.6567 28.9936 13.9584 28.8505 14.0563 28.5761C14.154 28.3017 14.0108 28.0001 13.7365 27.9022C12.7137 27.5377 12.0265 26.5638 12.0265 25.4787V23.0998C12.0265 22.6926 12.3577 22.3614 12.7648 22.3614C13.172 22.3614 13.5032 22.6926 13.5032 23.0998V25.4787C13.5032 26.0832 13.9947 26.575 14.5988 26.575H21.4029C22.007 26.575 22.4984 26.0832 22.4984 25.4787V23.0998C22.4984 22.6926 22.8296 22.3614 23.2368 22.3614C23.6439 22.3614 23.9751 22.6926 23.9751 23.0998V25.4787C23.9751 26.897 22.8212 28.051 21.4029 28.051H15.6536C15.3623 28.051 15.1262 28.2871 15.1262 28.5784C15.1262 28.8696 15.3623 29.1058 15.6536 29.1058H21.4029C23.4028 29.1058 25.0299 27.4786 25.0299 25.4787V23.0998C25.0299 22.1111 24.2256 21.3066 23.2368 21.3066Z" fill="#FF8651"/>
</svg>
