<svg width="32" height="32" viewBox="0 0 32 32" fill="none" xmlns="http://www.w3.org/2000/svg">
<path d="M30.1605 14.7526C29.2626 14.727 28.452 15.4864 28.4343 16.4178C28.3119 22.8304 23.4056 28.0517 17.022 28.5629C15.8574 28.6562 14.6879 28.5842 13.5458 28.3494C13.2924 28.2973 13.0446 28.4605 12.9924 28.714C12.9402 28.9675 13.1034 29.2153 13.357 29.2674C14.5859 29.5202 15.8442 29.5975 17.0968 29.4972C23.9628 28.9474 29.2398 23.3321 29.3715 16.4357C29.3794 16.0213 29.7176 15.6896 30.1284 15.6896C30.4923 15.6832 30.8898 16.0285 30.8852 16.4649C30.8151 20.1415 29.3912 23.6508 26.876 26.3465C24.3439 29.0603 20.9137 30.7179 17.2172 31.0139C12.8546 31.3637 8.5823 29.7769 5.4957 26.6615C5.3682 26.5329 5.1781 26.4893 5.0075 26.5491C4.8367 26.609 4.7157 26.762 4.6967 26.942L4.6511 27.3726C4.6126 27.7364 4.3219 28.0214 3.95995 28.0504C3.56785 28.0917 3.09095 27.7119 3.1455 27.2115L3.49749 23.8882C3.50074 23.5681 3.84323 23.1402 4.2913 23.1664L7.3565 23.3154C7.7736 23.3357 8.0964 23.6931 8.0762 24.1121C8.0572 24.4475 7.7578 24.8529 7.2834 24.835L6.953 24.819C6.7596 24.8097 6.5804 24.92 6.5019 25.097C6.4233 25.2739 6.4617 25.481 6.5983 25.618C7.8922 26.9157 9.4111 27.9173 11.1127 28.5952C11.353 28.6909 11.6258 28.5737 11.7215 28.3332C11.8172 28.0928 11.7 27.8202 11.4596 27.7244C10.1877 27.2178 9.0257 26.5166 7.9939 25.6342C8.4869 25.439 9.0008 24.8073 9.0123 24.1574C9.0576 23.2222 8.3351 22.4245 7.402 22.3792L4.3409 22.2303C3.53542 22.1595 2.60105 22.8903 2.56406 23.8019L2.21344 27.1127C2.1114 28.1277 2.95598 29.0715 4.0347 28.9847C4.6849 28.9326 5.2323 28.5134 5.4683 27.9309C8.6737 30.8296 12.9688 32.3015 17.292 31.9482C21.2222 31.6334 24.8692 29.8712 27.5612 26.986C30.2345 24.1209 31.7477 20.3908 31.8223 16.4828C31.8403 15.5467 31.0948 14.7705 30.1605 14.7526Z" fill="#9B9B9B"/>
<path d="M3.21645 18.031C3.51126 17.6862 3.65367 17.2475 3.61743 16.7957C3.35311 13.4968 4.397 10.2887 6.5569 7.7624C8.7172 5.2357 11.7305 3.6991 15.0417 3.4356C19.0019 3.12029 22.7828 4.6569 25.3679 7.5815C24.7723 7.703 24.2606 8.1399 24.076 8.7607C23.8161 9.566 24.3094 10.6214 25.2228 10.8685L28.5458 11.8501C29.3474 12.1333 30.5099 11.5568 30.6891 10.6179L30.8607 10.024C30.9325 9.7754 30.7891 9.5155 30.5405 9.4437C30.292 9.372 30.032 9.5153 29.9602 9.7639C29.9452 9.82 29.7819 10.3725 29.7749 10.411C29.712 10.7264 29.2566 11.0948 28.8166 10.9527L25.4884 9.9695C25.1669 9.8719 24.8439 9.4843 24.9744 9.0278C25.0938 8.6265 25.5187 8.397 25.9224 8.5162L26.3243 8.6349C26.517 8.6919 26.7251 8.6194 26.8408 8.4546C26.9564 8.2899 26.9539 8.0698 26.8345 7.9077C25.498 6.0917 23.7051 4.632 21.6495 3.68636C19.568 2.72881 17.2574 2.31896 14.9673 2.50123C11.407 2.78461 8.1672 4.4368 5.8445 7.1533C3.52145 9.8704 2.39868 13.3213 2.68318 16.8706C2.70705 17.207 2.45786 17.6437 1.98414 17.6864C1.56417 17.7203 1.19687 17.4079 1.16344 16.991C0.846319 13.0333 2.09456 9.1894 4.6784 6.1673C5.516 5.1878 6.4709 4.3226 7.5165 3.59575C7.729 3.44803 7.7816 3.15597 7.6338 2.94345C7.4862 2.73099 7.1942 2.67832 6.9816 2.82616C5.8702 3.59863 4.8557 4.5178 3.96604 5.5582C1.21905 8.7711 -0.108041 12.8579 0.229259 17.0659C0.300239 17.952 1.04584 18.6263 1.92216 18.6262C2.33882 18.6292 2.87508 18.432 3.21645 18.031Z" fill="#9B9B9B"/>
<path d="M9.35179 2.50821C11.0628 1.65495 12.9112 1.14418 14.8457 0.990268C20.1215 0.570668 25.2707 2.99592 28.2854 7.32C28.3888 7.4682 28.5682 7.5439 28.7463 7.5143C28.9245 7.4849 29.07 7.3556 29.1201 7.182L29.2386 6.7716C29.3548 6.3695 29.7784 6.1367 30.1825 6.2527C30.5047 6.3478 30.8308 6.7329 30.7038 7.1904L30.5578 7.6957C30.486 7.9443 30.6294 8.2041 30.878 8.276C31.0666 8.3308 31.3555 8.2436 31.4583 7.9558L31.6042 7.4506C31.8579 6.6433 31.3564 5.5918 30.441 5.3518C29.6978 5.1385 28.9252 5.456 28.5324 6.0784C25.3515 1.95863 19.9965 -0.399752 14.7713 0.0559084C12.7166 0.219438 10.7525 0.762318 8.93349 1.66938C8.70179 1.78492 8.60769 2.0663 8.72319 2.29794C8.83869 2.52952 9.12009 2.62368 9.35179 2.50821Z" fill="#FF8651"/>
</svg>
