<svg width="35" height="44" viewBox="0 0 35 44" fill="none" xmlns="http://www.w3.org/2000/svg">
<path d="M33.8281 33.3437C34.184 33.3437 34.4726 33.0551 34.4726 32.6991V17.2304C34.4726 16.4611 34.1728 15.6741 33.6284 15.0146L28.8483 9.2229C28.5978 8.91945 28.31 8.6637 27.9973 8.46003C28.0165 8.26306 28.0274 8.06412 28.0274 7.86328V0.644531C28.0274 0.288578 27.7388 0 27.3829 0C27.0269 0 26.7383 0.288578 26.7383 0.644531C26.7383 0.644531 26.737 7.92473 26.7365 7.95549C26.5531 7.92301 26.367 7.90625 26.1797 7.90625H17.8438C17.2569 7.90625 16.6817 8.07091 16.1666 8.37349C16.1444 8.38149 16.1223 8.39042 16.1006 8.40099L9.81773 11.4614C9.12163 11.8106 8.56503 12.3962 8.25023 13.1105C8.24673 13.1183 8.24353 13.1261 8.24043 13.134L5.64263 19.723C5.51213 20.0542 5.67473 20.4285 6.00593 20.5591C6.08353 20.5897 6.16343 20.6041 6.24213 20.6041C6.49913 20.6041 6.74203 20.4493 6.84193 20.1958L9.43463 13.6195C9.62953 13.1839 9.97053 12.827 10.3889 12.617L13.7085 11.0001L10.3951 15.0147C9.89903 15.6157 9.63683 16.382 9.63683 17.2306V39.4884C9.63683 39.7476 9.65953 40.0013 9.70093 40.2487L3.05948 37.3058C1.55918 36.6411 0.879249 34.8753 1.54406 33.3697C1.54689 33.3632 1.54964 33.3566 1.55239 33.35L5.75323 22.91C5.88613 22.5797 5.72623 22.2044 5.39593 22.0714C5.06552 21.9386 4.69032 22.0986 4.55737 22.4287L0.360179 32.8591C-0.583581 35.0118 0.391289 37.5334 2.53724 38.4842L10.3252 41.9351C10.3347 41.9393 10.3445 41.9424 10.3541 41.9461C11.1445 43.1812 12.5111 43.9999 14.0625 43.9999H29.961C32.4066 43.9999 34.4727 41.9338 34.4727 39.4882V35.707C34.4727 35.351 34.1841 35.0624 33.8282 35.0624C33.4722 35.0624 33.1836 35.351 33.1836 35.707V39.4882C33.1836 41.2351 31.7078 42.7109 29.961 42.7109H14.0625C12.333 42.7109 10.9258 41.2652 10.9258 39.4882V17.2304C10.9258 16.6771 11.0817 16.2076 11.3893 15.8351L16.1694 10.0434C16.6143 9.50443 17.2246 9.19523 17.8438 9.19523H26.1797C26.3012 9.19523 26.4222 9.20752 26.5417 9.23072C26.1382 10.6067 25.1388 11.7548 23.7891 12.3301C23.4362 11.7398 22.791 11.3437 22.0546 11.3437C20.9411 11.3437 20.0351 12.2496 20.0351 13.3632C20.0351 14.4768 20.9411 15.3827 22.0546 15.3827C23.0844 15.3827 23.9361 14.6077 24.0585 13.6104C25.7944 12.9539 27.107 11.5627 27.6918 9.86468C27.7479 9.92114 27.8022 9.98053 27.8541 10.0434L32.6342 15.8352C32.9885 16.2644 33.1836 16.7599 33.1836 17.2305V32.6992C33.1836 33.0551 33.4721 33.3437 33.8281 33.3437ZM22.0546 14.0937C21.6519 14.0937 21.3242 13.766 21.3242 13.3632C21.3242 12.9604 21.6519 12.6327 22.0546 12.6327C22.4574 12.6327 22.7851 12.9604 22.7851 13.3632C22.7851 13.766 22.4574 14.0937 22.0546 14.0937Z" fill="#9B9B9B"/>
<path d="M16.4694 34.2891C16.6343 34.2891 16.7993 34.2261 16.9251 34.1002L27.9251 23.1002C28.1768 22.8485 28.1768 22.4404 27.9251 22.1888C27.6734 21.9371 27.2653 21.9371 27.0137 22.1888L16.0136 33.1888C15.6027 33.5718 15.918 34.3086 16.4694 34.2891Z" fill="#FF8651"/>
<path d="M17.8437 27.5C19.3837 27.5 20.6367 26.247 20.6367 24.707C20.6367 23.167 19.3837 21.9141 17.8437 21.9141H17.7578C16.2178 21.9141 14.9648 23.167 14.9648 24.707C14.9648 26.247 16.2178 27.5 17.7578 27.5H17.8437ZM16.2539 24.707C16.2539 23.8778 16.9286 23.2031 17.7578 23.2031H17.8437C18.6729 23.2031 19.3476 23.8778 19.3476 24.707C19.3476 25.5362 18.6729 26.2109 17.8437 26.2109H17.7578C16.9286 26.2109 16.2539 25.5362 16.2539 24.707Z" fill="#FF8651"/>
<path d="M26.1797 34.2891H26.2656C27.8056 34.2891 29.0586 33.0361 29.0586 31.4961C29.0586 29.9561 27.8056 28.7031 26.2656 28.7031H26.1797C24.6397 28.7031 23.3867 29.9561 23.3867 31.4961C23.3867 33.0361 24.6397 34.2891 26.1797 34.2891ZM26.1797 29.9922H26.2656C27.0948 29.9922 27.7695 30.6669 27.7695 31.4961C27.7695 32.3253 27.0948 33 26.2656 33H26.1797C25.3504 33 24.6758 32.3253 24.6758 31.4961C24.6758 30.6669 25.3504 29.9922 26.1797 29.9922Z" fill="#FF8651"/>
</svg>
