<svg width="32" height="32" viewBox="0 0 32 32" fill="none" xmlns="http://www.w3.org/2000/svg">
<g clip-path="url(#clip0)">
<path d="M7.67384 16.9143C7.62798 18.0258 6.04643 18.026 6.00039 16.9142C6.00146 16.4531 6.37568 16.0795 6.83712 16.0795C7.29861 16.0795 7.67278 16.4531 7.67384 16.9143Z" fill="#FF8651" stroke="white" stroke-width="0.2"/>
<path d="M12.781 15.2913C11.6694 15.2456 11.669 13.664 12.781 13.6178H17.6C18.7116 13.6635 18.7119 15.2452 17.6 15.2913H12.781Z" fill="#FF8651" stroke="white" stroke-width="0.2"/>
<path d="M18.6858 30.3846V31.023C18.6858 31.5403 19.1052 31.9597 19.6226 31.9597H23.2995C23.8168 31.9597 24.2362 31.5403 24.2362 31.023V28.4159C24.2362 28.1947 24.3288 27.9897 24.4901 27.8533L18.6858 30.3846ZM18.6858 30.3846C18.6889 30.3844 18.6919 30.3841 18.6949 30.3838L18.6858 30.2842H18.5858V30.2929C18.2994 30.3163 18.0119 30.3281 17.7246 30.3281H11.2644H11.1644V30.4281V31.023C11.1644 31.5403 10.745 31.9597 10.2277 31.9597H6.48825C5.97093 31.9597 5.55153 31.5403 5.55153 31.023V28.0209C4.52663 27.207 3.3506 25.941 2.70339 24.1155C1.16066 23.787 0 22.4139 0 20.7747V18.2777C0 16.567 1.26408 15.146 2.90728 14.8998C3.51834 13.7833 4.14194 12.9011 4.76936 12.2652L18.6858 30.3846ZM28.4216 16.0023H28.5099L28.5208 15.9147C28.6789 14.6504 29.7602 13.6688 31.0663 13.6678C32.1778 13.7137 32.178 15.2954 31.0662 15.3413C30.5742 15.3424 30.1744 15.7428 30.1744 16.2351C30.1744 17.0294 29.5281 17.6758 28.7338 17.6758H27.9963H27.8729L27.8984 17.7965C28.6748 21.4621 27.2986 25.3739 24.4259 27.7766L24.4255 27.7769C24.2406 27.9333 24.1362 28.1668 24.1362 28.4159V31.023C24.1362 31.4851 23.7616 31.8597 23.2995 31.8597H19.6226C19.1605 31.8597 18.7858 31.4851 18.7858 31.023V30.2842V30.1747L18.6767 30.1846C18.3603 30.2135 18.0423 30.2281 17.7246 30.2281H11.1644H11.0644V30.3281V31.023C11.0644 31.4851 10.6897 31.8597 10.2277 31.8597H6.48825C6.02616 31.8597 5.65153 31.4851 5.65153 31.023V28.0209V27.9726L5.61372 27.9426C4.59872 27.1365 3.43682 25.8849 2.79764 24.0821L2.77894 24.0294L2.72421 24.0177C1.22662 23.6988 0.1 22.3656 0.1 20.7747V18.2777C0.1 16.6173 1.32707 15.2377 2.9221 14.9987L2.97118 14.9914L2.995 14.9479C3.60332 13.8363 4.22176 12.9626 4.84054 12.3355L4.88574 12.2897L4.86278 12.2295L3.37758 8.34057C3.28029 8.08582 3.31326 7.7996 3.46588 7.57362C3.61855 7.34759 3.87174 7.21021 4.14439 7.20541L4.1444 7.20541L6.94037 7.15595C8.7531 7.12546 10.4678 7.97855 11.5393 9.41516L11.5693 9.45538H11.6195H17.7246C17.9875 9.45538 18.2555 9.46766 18.5257 9.48928L18.6856 9.50206L18.6267 9.35291C16.9156 5.01445 20.3241 0.0716994 25.0023 0.141254C33.3154 0.384198 34.2927 11.9777 26.2182 13.6606L26.0689 13.6918L26.1569 13.8163C26.628 14.4826 27.0205 15.1961 27.327 15.9404L27.3525 16.0023H27.4194H28.4216ZM30.1449 6.95925L30.145 6.95925V6.95511C30.145 4.12062 27.8391 1.81472 25.0046 1.81472C22.1701 1.81472 19.8642 4.12062 19.8642 6.95505H19.8641L19.8643 6.95917C20.1454 13.7718 29.8628 13.774 30.1449 6.95925ZM22.3627 30.1863H22.4627V30.0863V28.4159C22.4627 27.6713 22.7845 26.973 23.3448 26.4992C27.2302 23.2958 27.4427 17.2866 23.8913 13.6968L23.8688 13.6741L23.8373 13.6686C22.2581 13.3949 20.8632 12.5759 19.8548 11.4124L19.8337 11.3881L19.8024 11.3806C19.117 11.2178 18.3898 11.1289 17.7246 11.1289H11.1223C10.8296 11.1289 10.5582 10.976 10.4066 10.7258C9.68292 9.53106 8.3651 8.80476 6.97003 8.82924L5.50879 8.8551L5.36629 8.85762L5.41714 8.99076L6.65424 12.23C6.78449 12.571 6.67856 12.9572 6.39252 13.184L6.45465 13.2624L6.39251 13.184C5.91136 13.5657 5.15489 14.3935 4.23463 16.1818L4.32354 16.2276L4.23462 16.1818C4.09127 16.4605 3.80412 16.6356 3.49067 16.6356H3.41555C2.51002 16.6356 1.77345 17.3721 1.77345 18.2777V20.7747C1.77345 21.6802 2.51002 22.4168 3.41548 22.4168C3.79402 22.4168 4.12542 22.6709 4.2236 23.0364C4.73709 24.9481 6.00587 26.1796 6.97561 26.8745C7.1949 27.0317 7.32498 27.2849 7.32498 27.5546V30.0863V30.1863H7.42498H9.29093H9.39093V30.0863V27.2779C9.43664 26.1664 11.0182 26.166 11.0644 27.2779V28.4546V28.5546H11.1644H17.7246C18.0493 28.5546 18.3739 28.5359 18.6959 28.5002L18.7849 28.4903V28.4008V27.2779C18.8306 26.1664 20.4122 26.166 20.4583 27.2779L20.4583 29.1866L20.4584 29.1878C20.4584 29.194 20.4589 29.1998 20.4591 29.2021L20.4591 29.2026C20.4592 29.2031 20.4592 29.2035 20.4592 29.2037V30.0863V30.1863H20.5592H22.3627Z" fill="#9B9B9B" stroke="white" stroke-width="0.2"/>
</g>
<defs>
<clipPath id="clip0">
<rect width="32" height="32" fill="white"/>
</clipPath>
</defs>
</svg>
