<svg width="13" height="13" viewBox="0 0 13 13" fill="none" xmlns="http://www.w3.org/2000/svg">
<path fill-rule="evenodd" clip-rule="evenodd" d="M0.699593 7.56673L7.69833 0.665896C8.59879 -0.221965 10.0593 -0.221965 10.9598 0.665896L11.8946 1.58763C12.795 2.47549 12.795 3.91556 11.8946 4.80343L4.86822 11.7315C4.46644 12.1276 3.92172 12.3499 3.35314 12.3499H0.475613C0.208299 12.3499 -0.006511 12.1328 0.000150871 11.8693L0.0725339 9.00638C0.0869248 8.46529 0.311473 7.94942 0.699593 7.56673ZM11.222 2.25096L10.2872 1.32923C9.75819 0.807647 8.89996 0.807647 8.37098 1.32923L7.82742 1.86518L10.6787 4.676L11.222 4.14035C11.751 3.61877 11.751 2.77254 11.222 2.25096ZM1.37224 8.23006L7.15481 2.52838L10.0061 5.3392L4.19564 11.0684L4.11835 11.1382C3.90487 11.3145 3.63442 11.4121 3.35318 11.4121L0.963081 11.4118L1.02348 9.0305C1.03147 8.73003 1.1565 8.44279 1.37224 8.23006ZM13 11.8806C13 11.6216 12.7871 11.4117 12.5244 11.4117H7.56242L7.49788 11.416C7.26573 11.447 7.08681 11.6432 7.08681 11.8806C7.08681 12.1396 7.29974 12.3496 7.56242 12.3496H12.5244L12.589 12.3453C12.8211 12.3143 13 12.118 13 11.8806Z" fill="#200E32"/>
</svg>
