<svg width="36" height="23" viewBox="0 0 36 23" fill="none" xmlns="http://www.w3.org/2000/svg">
<path d="M33.48 9.65403L32.5478 5.92501C32.8026 5.87084 32.9939 5.64473 32.9939 5.37378V4.77258C32.9939 3.46714 31.9318 2.40514 30.6265 2.40514H26.3801V1.16493C26.3801 0.522568 25.8576 0 25.2152 0H3.56992C2.92754 0 2.40498 0.522568 2.40498 1.16493V11.3863C2.40498 11.6976 2.65734 11.95 2.96868 11.95C3.27995 11.95 3.53238 11.6976 3.53238 11.3863V1.16493C3.53238 1.14419 3.54918 1.12739 3.56992 1.12739H25.2151C25.2359 1.12739 25.2527 1.14419 25.2527 1.16493V11.3865C25.2527 11.6977 25.505 11.9502 25.8163 11.9502C26.1276 11.9502 26.3801 11.6978 26.3801 11.3865V10.7475H33.0295C33.03 10.7475 33.0304 10.7476 33.0309 10.7476C33.0315 10.7476 33.032 10.7475 33.0325 10.7475C33.8507 10.7481 34.5455 11.2852 34.7841 12.0252H33.0314C32.7201 12.0252 32.4676 12.2775 32.4676 12.5889V13.7914C32.4676 14.7653 33.26 15.5575 34.2339 15.5575H34.8727V18.0377H33.3988C32.9146 16.6397 31.5857 15.6326 30.0251 15.6326C28.4645 15.6326 27.1354 16.6397 26.6513 18.0377H26.3799V13.7913C26.3799 13.48 26.1276 13.2277 25.8162 13.2277C25.5049 13.2277 25.2525 13.48 25.2525 13.7913V18.0375H13.5575C13.0734 16.6395 11.7444 15.6325 10.1838 15.6325C8.62316 15.6325 7.29412 16.6395 6.81001 18.0375H3.56992C3.54918 18.0375 3.53238 18.0207 3.53238 18V16.76H5.97498C6.28625 16.76 6.53867 16.5075 6.53867 16.1962C6.53867 15.8849 6.28632 15.6325 5.97498 15.6325H0.563694C0.252421 15.6325 0 15.8849 0 16.1962C0 16.5075 0.252353 16.76 0.563694 16.76H2.40505V18C2.40505 18.6424 2.92761 19.1649 3.56999 19.1649H6.61482C6.61468 19.1775 6.61384 19.19 6.61384 19.2025C6.61384 21.171 8.21533 22.7724 10.1838 22.7724C12.1522 22.7724 13.7537 21.171 13.7537 19.2025C13.7537 19.1899 13.7528 19.1775 13.7527 19.1649H26.4561C26.456 19.1775 26.4552 19.19 26.4552 19.2025C26.4552 21.171 28.0567 22.7724 30.0251 22.7724C31.9934 22.7724 33.595 21.171 33.595 19.2025C33.595 19.1899 33.5942 19.1775 33.594 19.1649H35.4364C35.7477 19.1649 36.0001 18.9126 36.0001 18.6013V12.5887C36.0002 11.1043 34.9049 9.87098 33.48 9.65403ZM26.3801 3.53246H30.6265C31.3102 3.53246 31.8666 4.08875 31.8666 4.77258V4.81012H26.3801V3.53246ZM26.3801 9.62017V5.93744H31.3888L32.3096 9.62017H26.3801ZM10.1838 21.6453C8.83693 21.6453 7.74115 20.5496 7.74115 19.2027C7.74115 17.8557 8.83693 16.76 10.1838 16.76C11.5306 16.76 12.6264 17.8557 12.6264 19.2027C12.6264 20.5496 11.5306 21.6453 10.1838 21.6453ZM30.0252 21.6453C28.6783 21.6453 27.5826 20.5496 27.5826 19.2027C27.5826 17.8557 28.6783 16.76 30.0252 16.76C31.372 16.76 32.4678 17.8557 32.4678 19.2027C32.4678 20.5496 31.372 21.6453 30.0252 21.6453ZM34.8729 14.4301H34.234C33.8817 14.4301 33.5951 14.1436 33.5951 13.7913V13.1525H34.8728V14.4301H34.8729Z" fill="#9B9B9B"/>
<path d="M10.1845 18.0378C9.54205 18.0378 9.01953 18.5603 9.01953 19.2027C9.01953 19.8451 9.54205 20.3677 10.1845 20.3677C10.8268 20.3677 11.3494 19.8451 11.3494 19.2027C11.3494 18.5603 10.8268 18.0378 10.1845 18.0378Z" fill="#9B9B9B"/>
<path d="M30.0282 18.0378C29.3859 18.0378 28.8633 18.5603 28.8633 19.2027C28.8633 19.8451 29.3859 20.3677 30.0282 20.3677C30.6707 20.3677 31.1932 19.8451 31.1932 19.2027C31.1932 18.5603 30.6707 18.0378 30.0282 18.0378Z" fill="#9B9B9B"/>
<path d="M23.411 15.6329H14.9933C14.6821 15.6329 14.4297 15.8852 14.4297 16.1965C14.4297 16.5079 14.682 16.7603 14.9933 16.7603H23.411C23.7222 16.7603 23.9746 16.5079 23.9746 16.1965C23.9746 15.8852 23.7223 15.6329 23.411 15.6329Z" fill="#9B9B9B"/>
<path d="M8.98188 13.228H1.76683C1.45555 13.228 1.20312 13.4804 1.20312 13.7918C1.20312 14.1031 1.45548 14.3554 1.76683 14.3554H8.98188C9.2932 14.3554 9.54563 14.1031 9.54563 13.7918C9.54563 13.4804 9.2932 13.228 8.98188 13.228Z" fill="#9B9B9B"/>
<path d="M19.6025 5.57665C19.3824 5.35653 19.0255 5.35653 18.8054 5.57665L13.7926 10.5893L11.1849 7.98163C10.9648 7.76152 10.6079 7.76152 10.3877 7.98163C10.1676 8.20183 10.1676 8.55866 10.3877 8.77878L13.3941 11.785C13.5041 11.8952 13.6484 11.9502 13.7926 11.9502C13.9368 11.9502 14.0812 11.8952 14.1912 11.785L19.6024 6.37379C19.8225 6.15359 19.8225 5.79676 19.6025 5.57665Z" fill="#FF8651"/>
</svg>
