<svg width="32" height="32" viewBox="0 0 32 32" fill="none" xmlns="http://www.w3.org/2000/svg">
<path d="M7.62384 16.9133C7.57962 17.9596 6.09478 17.9597 6.0504 16.9133C6.05198 16.4802 6.40362 16.1296 6.83712 16.1296C7.27067 16.1296 7.62225 16.4802 7.62384 16.9133Z" fill="#FF8651" stroke="#262626" stroke-width="0.3"/>
<path d="M12.7825 15.2413C11.7361 15.1973 11.736 13.7123 12.7825 13.6678H17.5995C18.6459 13.7118 18.6459 15.1969 17.5994 15.2413H12.7825Z" fill="#FF8651" stroke="#262626" stroke-width="0.3"/>
<path d="M28.554 16.0523H28.4216H27.4194H27.319L27.2807 15.9594C26.9757 15.2186 26.5851 14.5084 26.1161 13.8451L25.9841 13.6584L26.208 13.6117C34.2249 11.9408 33.2541 0.432762 25.0012 0.191243C20.3588 0.122476 16.9752 5.0293 18.6733 9.33456L18.7615 9.5583L18.5218 9.53912C18.2526 9.51759 17.9859 9.50537 17.7246 9.50537H11.6195H11.5443L11.4993 9.44506C10.4373 8.02128 8.73784 7.17577 6.94134 7.20594L28.554 16.0523ZM28.554 16.0523L28.5704 15.9209M28.554 16.0523L28.5704 15.9209M28.5704 15.9209C28.7254 14.6816 29.7851 13.7193 31.0652 13.7178C32.1115 13.762 32.1118 15.2472 31.0651 15.2913C30.546 15.293 30.1244 15.7156 30.1244 16.2351C30.1244 17.0018 29.5005 17.6258 28.7338 17.6258H27.9963H27.8112L27.8495 17.8069C28.622 21.4542 27.2525 25.3472 24.3939 27.7382L24.3932 27.7388C24.1965 27.9051 24.0862 28.1529 24.0862 28.4159V31.023C24.0862 31.4575 23.734 31.8097 23.2995 31.8097H19.6226C19.1881 31.8097 18.8358 31.4575 18.8358 31.023V30.2842V30.1199L18.6722 30.1349C18.3573 30.1636 18.0408 30.1781 17.7246 30.1781H11.1644H11.0144V30.3281V31.023C11.0144 31.4575 10.6621 31.8097 10.2277 31.8097H6.48825C6.05377 31.8097 5.70153 31.4575 5.70153 31.023V28.0209V27.9485L5.64481 27.9035C4.63476 27.1013 3.47992 25.8568 2.84476 24.0654L2.81672 23.9863L2.73462 23.9688C1.25961 23.6548 0.15 22.3415 0.15 20.7747V18.2777C0.15 16.6425 1.35856 15.2835 2.9295 15.0482L3.00313 15.0372L3.03886 14.9719C3.64582 13.8628 4.26166 12.9933 4.87613 12.3706L4.94393 12.3019M28.5704 15.9209L4.94393 12.3019M4.94393 12.3019L4.90949 12.2117M4.94393 12.3019L4.90949 12.2117M4.90949 12.2117L3.42429 8.32274C3.33282 8.08321 3.36381 7.81408 3.50731 7.60161L4.90949 12.2117ZM4.14529 7.2554L6.94121 7.20595L3.50732 7.6016C3.65087 7.38908 3.88892 7.25991 4.14527 7.2554H4.14529ZM30.1949 6.96132L30.195 6.96132V6.95511C30.195 4.09301 27.8667 1.76472 25.0046 1.76472C22.1424 1.76472 19.8142 4.09301 19.8142 6.95505H19.8141L19.8143 6.96123C20.0981 13.8377 29.9101 13.84 30.1949 6.96132ZM22.3627 30.2363H22.5127V30.0863V28.4159C22.5127 27.6859 22.8281 27.0017 23.3769 26.5375C27.2855 23.3147 27.4981 17.2715 23.9268 13.6617L23.8931 13.6276L23.8458 13.6194C22.2784 13.3477 20.8937 12.5347 19.8926 11.3797L19.8609 11.3432L19.8139 11.332C19.125 11.1683 18.394 11.0789 17.7246 11.0789H11.1223C10.8471 11.0789 10.5919 10.9352 10.4494 10.6999C9.71646 9.48992 8.38201 8.75446 6.96916 8.77925H6.96914L5.50791 8.8051L5.29416 8.80889L5.37043 9.0086L6.60753 12.2478C6.73 12.5685 6.6304 12.9316 6.36145 13.1449L6.45465 13.2624L6.36144 13.1449C5.87292 13.5323 5.11244 14.3667 4.19017 16.1589L4.19016 16.1589C4.05538 16.4209 3.7854 16.5856 3.49067 16.5856H3.41555C2.48241 16.5856 1.72345 17.3445 1.72345 18.2777V20.7747C1.72345 21.7078 2.4824 22.4668 3.41548 22.4668C3.7714 22.4668 4.083 22.7057 4.17531 23.0494L4.32017 23.0105L4.17531 23.0494C4.69288 24.9763 5.97142 26.2164 6.94649 26.9152C7.15267 27.0629 7.27498 27.301 7.27498 27.5546V30.0863V30.2363H7.42498H9.29093H9.44093V30.0863V27.279C9.48493 26.2326 10.97 26.2324 11.0144 27.279V28.4546V28.6046H11.1644H17.7246C18.0512 28.6046 18.3777 28.5858 18.7014 28.5499L18.8349 28.5351V28.4008V27.279C18.8789 26.2326 20.3639 26.2324 20.4083 27.279L20.4083 29.1866L20.4084 29.1884C20.4084 29.1932 20.4086 29.1973 20.4088 29.2003L20.4092 29.2056V30.0863V30.2363H20.5592H22.3627Z" fill="white" stroke="#262626" stroke-width="0.3"/>
</svg>
