<svg width="30" height="30" viewBox="0 0 30 30" fill="none" xmlns="http://www.w3.org/2000/svg">
<path d="M18.5619 8.67693V8.67681C18.5618 7.97206 18.3527 7.28317 17.9611 6.69724C17.5695 6.11131 17.0129 5.65466 16.3618 5.38504C15.7107 5.11541 14.9942 5.04491 14.303 5.18246C13.6119 5.32001 12.977 5.65942 12.4787 6.15778C11.9804 6.65615 11.641 7.29108 11.5036 7.98229C11.3661 8.6735 11.4367 9.38995 11.7064 10.041C11.9762 10.6921 12.4329 11.2486 13.0189 11.6401C13.6049 12.0317 14.2938 12.2406 14.9985 12.2406H14.9986C15.9434 12.2395 16.8491 11.8637 17.5171 11.1956C18.1851 10.5275 18.5609 9.62169 18.5619 8.67693ZM12.4555 8.67679C12.4556 8.17386 12.6048 7.68225 12.8843 7.26412C13.1638 6.84598 13.561 6.5201 14.0256 6.32769C14.4903 6.13528 15.0016 6.08499 15.4949 6.18316C15.9882 6.28134 16.4413 6.52357 16.7969 6.87924C17.1525 7.23491 17.3946 7.68804 17.4927 8.18133C17.5908 8.67462 17.5404 9.18592 17.3479 9.65058C17.1554 10.1152 16.8295 10.5124 16.4113 10.7918C15.9931 11.0712 15.5015 11.2203 14.9986 11.2203C14.3243 11.2196 13.6778 10.9513 13.201 10.4744C12.7243 9.9976 12.4561 9.3511 12.4555 8.67679Z" fill="#FF8651" stroke="#FF8651" stroke-width="0.2"/>
<path d="M19.0281 19.246H25.1768H25.1768C25.2801 19.2461 25.381 19.2775 25.4661 19.3361C25.5512 19.3947 25.6165 19.4777 25.6534 19.5743L25.6534 19.5743L28.9969 28.3398L19.0281 19.246ZM19.0281 19.246C19.0354 19.2342 19.0426 19.2224 19.0498 19.2107L19.05 19.2102C21.4891 15.1721 22.7247 11.627 22.7071 8.67841C22.7071 8.67831 22.7071 8.67821 22.7071 8.6781L22.6071 8.6787C22.6074 6.66074 21.8061 4.72529 20.3795 3.29813C18.9528 1.87097 17.0176 1.06901 14.9996 1.06866C12.9817 1.06832 11.0462 1.86963 9.61906 3.2963C8.1919 4.72298 7.38994 6.65816 7.38959 8.67613M19.0281 19.246L28.997 28.3399C29.0266 28.4172 29.0369 28.5004 29.0272 28.5825C29.0174 28.6647 28.9878 28.7432 28.9408 28.8114C28.8939 28.8795 28.8311 28.9352 28.7578 28.9737C28.6845 29.0121 28.603 29.0321 28.5202 29.032M7.38959 8.67613L7.2896 8.67552C7.2896 8.67563 7.28959 8.67573 7.28959 8.67583C7.27195 11.627 8.50754 15.1725 10.9467 19.2103L10.9467 19.2103C10.9539 19.2223 10.9612 19.2342 10.9684 19.246H4.81991H4.81987C4.71655 19.2461 4.61567 19.2775 4.53057 19.3361C4.44548 19.3947 4.38017 19.4777 4.34329 19.5743L4.34327 19.5743L1.00021 28.3398C1.0002 28.3398 1.00018 28.3398 1.00017 28.3399C0.970567 28.4171 0.960204 28.5004 0.969976 28.5825C0.979753 28.6647 1.00939 28.7432 1.05633 28.8114C1.10326 28.8795 1.16609 28.9352 1.23938 28.9737C1.31266 29.0121 1.3942 29.0321 1.47695 29.032M7.38959 8.67613C7.37202 11.6009 8.59733 15.1278 11.0323 19.1585L7.38959 8.67613ZM1.47695 29.032H1.47678V28.932L1.47695 29.032ZM1.47695 29.032H28.5202M28.5202 29.032H28.5204V28.932L28.5202 29.032ZM8.31014 8.67744V8.67685C8.31029 7.79851 8.48344 6.9288 8.81971 6.11738C9.15598 5.30596 9.64877 4.56872 10.27 3.94774C10.8911 3.32677 11.6286 2.83423 12.4401 2.49825C13.2516 2.16226 14.1214 1.98941 14.9997 1.98956C15.8781 1.98971 16.7478 2.16287 17.5592 2.49913C18.3706 2.8354 19.1079 3.32819 19.7288 3.94938C20.3498 4.57056 20.8423 5.30798 21.1783 6.11951C21.5143 6.93105 21.6872 7.80082 21.687 8.67915L21.687 8.67977C21.7044 11.566 20.3623 14.8001 18.8349 17.5365C17.3642 20.1714 15.7295 22.3315 14.9986 23.2535C14.2676 22.3318 12.6329 20.1724 11.1621 17.5374C9.63472 14.8009 8.29261 11.5661 8.31014 8.67744ZM14.6089 24.3916L14.61 24.3929C14.6579 24.4493 14.7174 24.4945 14.7845 24.5255C14.8516 24.5565 14.9247 24.5726 14.9986 24.5726C15.0725 24.5726 15.1455 24.5565 15.2126 24.5255C15.2797 24.4945 15.3393 24.4493 15.3872 24.393L15.3883 24.3916C16.4682 23.0761 17.4702 21.6985 18.3891 20.2659H24.825L25.289 21.4829L12.6356 25.9831L8.23493 20.2652H11.6075C12.5266 21.698 13.5288 23.0759 14.6089 24.3916L14.6089 24.3916ZM9.97625 28.0117L12.6037 27.0766H12.606L12.6222 27.0708L20.2007 24.3764L22.9986 28.0117H9.97625ZM2.21726 28.0114L5.17168 20.2652H6.94732L11.6244 26.3426L6.93219 28.0114H2.21726ZM27.7804 28.0117H24.2871L21.2115 24.0155L25.6537 22.4358L27.7804 28.0117Z" fill="#9B9B9B" stroke="#9B9B9B" stroke-width="0.2"/>
</svg>
