<svg width="31" height="32" viewBox="0 0 31 32" fill="none" xmlns="http://www.w3.org/2000/svg">
<path d="M28.6448 12.4391C28.8399 10.0166 28.8419 7.56969 28.6501 5.15767C28.6295 4.89959 28.4039 4.70713 28.1456 4.72751C27.8875 4.74807 27.695 4.97391 27.7155 5.23199C27.9052 7.61902 27.9012 10.0409 27.704 12.438H23.8352V11.4476C24.3986 11.1858 25.6661 10.5452 26.5843 9.69591C26.7691 9.52445 26.8789 9.29103 26.8935 9.03903C26.9415 8.22062 26.9889 5.36658 25.5861 3.00015C25.5775 2.98565 25.568 2.97153 25.5579 2.95803C25.4983 2.87852 24.9302 2.18101 23.3663 2.18101C23.226 2.18101 23.0931 2.24396 23.004 2.35246C22.915 2.46092 22.8792 2.60368 22.9065 2.74132C22.911 2.76369 23.326 4.8919 22.9765 6.28871C22.6694 6.41351 22.0265 6.63956 21.4024 6.63956C20.7781 6.63956 20.1347 6.41334 19.8277 6.28871C19.4783 4.8919 19.8932 2.76369 19.8976 2.7415C19.9251 2.60381 19.8894 2.4611 19.8003 2.35253C19.7112 2.24402 19.5783 2.18108 19.4378 2.18108C17.8748 2.18108 17.3062 2.87833 17.2465 2.95784C17.2363 2.97146 17.2269 2.98559 17.2182 3.00021C15.8135 5.36978 15.8629 8.22178 15.9114 9.03867C15.926 9.29103 16.0358 9.52445 16.221 9.69636C17.1383 10.5453 18.4056 11.1859 18.969 11.4476V12.438H10.3722V9.28169C10.3722 9.11245 10.4319 8.94845 10.5405 8.81938L11.5542 7.61263C11.9304 7.16534 12.0427 6.54471 11.8471 5.99254L10.8675 3.23686C10.6327 2.57849 10.0054 2.13613 9.30643 2.13613H8.00696C7.30812 2.13613 6.68074 2.57849 6.44572 3.23742L5.46696 5.99245C5.27061 6.54409 5.38261 7.16498 5.75905 7.61245L6.77327 8.82C6.88154 8.94854 6.94127 9.11254 6.94127 9.28178V12.4381H2.58287C2.3211 9.25467 2.40117 6.03227 2.82315 2.85245C2.93954 1.97455 3.66592 1.2998 4.55061 1.24804C11.5799 0.834125 18.7077 0.834125 25.7359 1.24804C26.6207 1.2998 27.3473 1.97455 27.4637 2.85239C27.4871 3.02965 27.51 3.20755 27.531 3.38482C27.5614 3.6419 27.7943 3.82586 28.0517 3.79523C28.3087 3.76479 28.4926 3.53171 28.4621 3.27455C28.4406 3.09304 28.4172 2.9109 28.3932 2.72925C28.2178 1.40656 27.1233 0.390027 25.7908 0.31208C18.7262 -0.104027 11.5614 -0.104027 4.49558 0.31208C3.16331 0.390027 2.06901 1.40656 1.89368 2.72919C1.46621 5.95005 1.38226 9.21387 1.64204 12.4391C0.732445 12.4639 0 13.211 0 14.1264V15.5116C0 16.2787 0.514364 16.9276 1.21618 17.1325C0.737253 21.1257 0.761014 25.17 1.2905 29.1615C1.47346 30.536 2.61082 31.5925 3.99477 31.6735C7.69407 31.8912 11.4181 32.0001 15.1433 32.0001C18.8678 32.0001 22.5935 31.8912 26.2919 31.6735C27.6759 31.5925 28.8133 30.536 28.9963 29.1613C29.5257 25.1701 29.5495 21.1258 29.0706 17.1325C29.7724 16.9276 30.2868 16.2787 30.2868 15.5116V14.1264C30.2869 13.211 29.5544 12.4639 28.6448 12.4391ZM19.6192 10.7113C19.6023 10.7042 17.9217 9.99263 16.8585 9.00863C16.8503 9.00089 16.848 8.99129 16.8476 8.98383C16.8032 8.23796 16.7565 5.65094 18.0015 3.51808C18.0614 3.46083 18.3151 3.25024 18.8801 3.16005C18.7608 4.02057 18.6193 5.62089 18.9919 6.77431C19.0311 6.89565 19.1183 6.99582 19.2329 7.05165C19.277 7.07316 20.325 7.57707 21.4026 7.57707C22.4802 7.57707 23.5277 7.07316 23.5718 7.05165C23.6863 6.99574 23.7734 6.89556 23.8126 6.77422C24.1852 5.6208 24.0438 4.02044 23.9245 3.15992C24.4898 3.25012 24.7432 3.46076 24.803 3.51789C26.0463 5.648 26.0013 8.23751 25.9575 8.98454C25.9572 8.9912 25.9549 9.00089 25.9471 9.00809C24.8828 9.99254 23.2021 10.7042 23.1854 10.7112C23.0111 10.7842 22.8977 10.9547 22.8977 11.1436V12.438H19.9068V11.1436C19.9068 10.9548 19.7933 10.7844 19.6192 10.7113ZM7.49078 8.21627L6.47674 7.00907C6.31354 6.81502 6.2651 6.54587 6.35034 6.3064L7.32901 3.55171C7.43105 3.26574 7.70341 3.0736 8.00696 3.0736H9.30643C9.6099 3.0736 9.88243 3.26574 9.98421 3.55127L10.9635 6.30605C11.0484 6.5456 10.9999 6.81502 10.8365 7.00934L9.82296 8.21583C9.57256 8.51325 9.43461 8.89174 9.43461 9.2816V12.438H7.87887V9.2816C7.87887 8.89165 7.74092 8.51316 7.49078 8.21627ZM28.0669 29.0378C27.9431 29.9678 27.1735 30.6827 26.2369 30.7375C18.8759 31.1708 11.411 31.1709 4.04971 30.7375C3.11324 30.6828 2.34373 29.9679 2.21997 29.0381C1.69885 25.1101 1.67735 21.1298 2.15239 17.2002H28.1344C28.6095 21.1297 28.5879 25.11 28.0669 29.0378ZM29.3493 15.5116C29.3493 15.9257 29.0124 16.2625 28.5983 16.2625H1.68847C1.27444 16.2625 0.937591 15.9257 0.937591 15.5116V14.1264C0.937591 13.7124 1.27444 13.3756 1.68847 13.3756H28.5983C29.0124 13.3756 29.3493 13.7124 29.3493 14.1264V15.5116Z" fill="white"/>
<path d="M19.7988 18.9393C18.9199 18.9393 18.2049 19.6543 18.2049 20.5332V22.6478C18.2049 22.6678 18.1882 22.6847 18.1687 22.6847H12.1206C12.1009 22.6847 12.0843 22.6678 12.0843 22.6478V20.5332C12.0843 19.6543 11.3693 18.9393 10.4904 18.9393C9.61151 18.9393 8.89648 19.6543 8.89648 20.5332V22.6478C8.89648 24.0078 9.75764 25.2285 11.0393 25.6853C11.2832 25.7722 11.5513 25.645 11.6384 25.401C11.7252 25.1571 11.5979 24.8891 11.3541 24.802C10.4449 24.478 9.83408 23.6123 9.83408 22.6478V20.5332C9.83408 20.1713 10.1285 19.8769 10.4904 19.8769C10.8523 19.8769 11.1467 20.1713 11.1467 20.5332V22.6478C11.1467 23.1851 11.5836 23.6223 12.1206 23.6223H18.1687C18.7056 23.6223 19.1424 23.1851 19.1424 22.6478V20.5332C19.1424 20.1713 19.4368 19.8769 19.7988 19.8769C20.1607 19.8769 20.4551 20.1713 20.4551 20.5332V22.6478C20.4551 23.9085 19.4294 24.9343 18.1687 24.9343H13.0582C12.7992 24.9343 12.5894 25.1442 12.5894 25.4031C12.5894 25.6619 12.7992 25.8719 13.0582 25.8719H18.1687C19.9464 25.8719 21.3927 24.4255 21.3927 22.6478V20.5332C21.3927 19.6544 20.6777 18.9393 19.7988 18.9393Z" fill="#FF8651"/>
</svg>
