<svg width="28" height="36" viewBox="0 0 28 36" fill="none" xmlns="http://www.w3.org/2000/svg">
<path d="M27.088 12.7339C27.3792 12.7339 27.6154 12.4979 27.6154 12.2065V6.28237C27.6154 6.01723 27.4588 5.77655 27.2163 5.66883L14.5604 0.0576826C14.3873 -0.0192392 14.1889 -0.0191689 14.0161 0.0575419L1.35982 5.6689C1.11745 5.77648 0.960938 6.01723 0.960938 6.28237V17.2364C0.960938 21.3306 2.19696 25.271 4.53529 28.6318C6.87358 31.9924 10.1388 34.5211 13.9777 35.9443C14.1779 36.0185 14.3985 36.0185 14.5988 35.9442C18.4377 34.521 21.7028 31.9924 24.0411 28.6317C26.3793 25.2709 27.6154 21.3305 27.6154 17.2364V14.6675C27.6154 14.3763 27.3793 14.1402 27.0881 14.1402C26.7969 14.1402 26.5607 14.3763 26.5607 14.6675V17.2364C26.5607 25.0807 21.631 32.1853 14.2883 34.9344C6.94468 32.1857 2.01555 25.0812 2.01555 17.2364V6.53185L14.2881 1.09064L26.5607 6.53185V12.2065C26.5607 12.4979 26.7968 12.7339 27.088 12.7339Z" fill="white"/>
<path d="M16.9765 17.6531C17.1825 17.8589 17.5164 17.8589 17.7222 17.6531L19.4852 15.8901C19.8115 15.5637 19.8115 15.0328 19.4852 14.7064L18.0582 13.2792C17.732 12.9529 17.201 12.953 16.8746 13.2792L12.969 17.185L11.2402 15.4562C10.9139 15.1298 10.3829 15.1297 10.0565 15.4562L8.62944 16.8832C8.30315 17.2097 8.30323 17.7406 8.62952 18.0669L12.3771 21.8146C12.7036 22.141 13.2344 22.1407 13.5608 21.8146L15.9513 19.4241C16.1572 19.2181 16.1572 18.8843 15.9513 18.6782C15.7453 18.4724 15.4114 18.4724 15.2056 18.6782L12.969 20.9149L9.5292 17.4751L10.6484 16.3559L12.3771 18.0847C12.7036 18.4112 13.2345 18.4109 13.5608 18.0847L17.4664 14.1791L18.5856 15.2983L16.9764 16.9073C16.7705 17.1132 16.7705 17.4471 16.9765 17.6531Z" fill="#FF8651"/>
<path d="M14.2884 33.8678C14.5796 33.8678 14.8157 33.6318 14.8157 33.3405V25.7478C19.2381 25.4746 22.7525 21.79 22.7525 17.3C22.7525 12.8099 19.2382 9.12527 14.8157 8.85208V2.64911C14.8157 2.3578 14.5796 2.12177 14.2884 2.12177C13.9971 2.12177 13.761 2.3578 13.761 2.64911V8.8524C12.5836 8.9262 11.4264 9.2457 10.3854 9.7875C10.1271 9.92193 10.0266 10.2404 10.1612 10.4987C10.2957 10.7572 10.6142 10.8576 10.8724 10.7229C11.7779 10.2517 12.7473 9.97863 13.761 9.90859V12.4453C13.761 12.7366 13.9971 12.9726 14.2884 12.9726C14.5796 12.9726 14.8157 12.7366 14.8157 12.4453V9.909C18.6562 10.1803 21.6978 13.3916 21.6978 17.2999C21.6978 21.2082 18.6562 24.4194 14.8157 24.6908V23.4287C14.8157 23.1374 14.5796 22.9013 14.2884 22.9013C13.9971 22.9013 13.761 23.1374 13.761 23.4287V24.6908C9.92053 24.4194 6.87885 21.2082 6.87885 17.2999C6.87885 15.3466 7.6324 13.5032 9.00073 12.1093C9.20478 11.9015 9.20167 11.5677 8.99385 11.3637C8.78595 11.1597 8.45205 11.1628 8.24808 11.3706C6.68503 12.9628 5.82422 15.0685 5.82422 17.3C5.82422 21.79 9.33855 25.4747 13.761 25.7478V33.3404C13.761 33.6318 13.9971 33.8678 14.2884 33.8678Z" fill="white"/>
</svg>
