<svg width="32" height="32" viewBox="0 0 32 32" fill="none" xmlns="http://www.w3.org/2000/svg">
<path d="M29.9828 14.7526C29.0849 14.727 28.2743 15.4864 28.2566 16.4178C28.1342 22.8304 23.2279 28.0517 16.8443 28.5629C15.6797 28.6562 14.5102 28.5842 13.3681 28.3494C13.1147 28.2973 12.8669 28.4605 12.8147 28.714C12.7625 28.9675 12.9257 29.2153 13.1793 29.2674C14.4082 29.5202 15.6665 29.5975 16.9191 29.4972C23.7851 28.9474 29.0621 23.3321 29.1938 16.4357C29.2017 16.0213 29.5399 15.6896 29.9507 15.6896C30.3146 15.6832 30.7121 16.0285 30.7075 16.4649C30.6374 20.1415 29.2135 23.6508 26.6983 26.3465C24.1662 29.0603 20.736 30.7179 17.0395 31.0139C12.6769 31.3637 8.40457 29.7769 5.31797 26.6615C5.19047 26.5329 5.00037 26.4893 4.82977 26.5491C4.65897 26.609 4.53797 26.762 4.51897 26.942L4.47337 27.3726C4.43487 27.7364 4.14417 28.0214 3.78222 28.0504C3.39012 28.0917 2.91322 27.7119 2.96777 27.2115L3.31976 23.8882C3.32301 23.5681 3.6655 23.1402 4.11357 23.1664L7.17877 23.3154C7.59587 23.3357 7.91867 23.6931 7.89847 24.1121C7.87947 24.4475 7.58007 24.8529 7.10567 24.835L6.77527 24.819C6.58187 24.8097 6.40267 24.92 6.32417 25.097C6.24557 25.2739 6.28397 25.481 6.42057 25.618C7.71447 26.9157 9.23337 27.9173 10.935 28.5952C11.1753 28.6909 11.4481 28.5737 11.5438 28.3332C11.6395 28.0928 11.5223 27.8202 11.2819 27.7244C10.01 27.2178 8.84797 26.5166 7.81617 25.6342C8.30917 25.439 8.82307 24.8073 8.83457 24.1574C8.87987 23.2222 8.15737 22.4245 7.22427 22.3792L4.16317 22.2303C3.35769 22.1595 2.42332 22.8903 2.38633 23.8019L2.03571 27.1127C1.93367 28.1277 2.77825 29.0715 3.85697 28.9847C4.50717 28.9326 5.05457 28.5134 5.29057 27.9309C8.49597 30.8296 12.7911 32.3015 17.1143 31.9482C21.0445 31.6334 24.6915 29.8712 27.3835 26.986C30.0568 24.1209 31.57 20.3908 31.6446 16.4828C31.6626 15.5467 30.9171 14.7705 29.9828 14.7526Z" fill="white"/>
<path d="M3.03871 18.031C3.33352 17.6862 3.47593 17.2475 3.43969 16.7957C3.17537 13.4968 4.21926 10.2887 6.37916 7.7624C8.53946 5.2357 11.5528 3.6991 14.864 3.4356C18.8242 3.12029 22.6051 4.6569 25.1902 7.5815C24.5946 7.703 24.0829 8.1399 23.8983 8.7607C23.6384 9.566 24.1317 10.6214 25.0451 10.8685L28.3681 11.8501C29.1697 12.1333 30.3322 11.5568 30.5114 10.6179L30.683 10.024C30.7548 9.7754 30.6114 9.5155 30.3628 9.4437C30.1143 9.372 29.8543 9.5153 29.7825 9.7639C29.7675 9.82 29.6042 10.3725 29.5972 10.411C29.5343 10.7264 29.0789 11.0948 28.6389 10.9527L25.3107 9.9695C24.9892 9.8719 24.6662 9.4843 24.7967 9.0278C24.9161 8.6265 25.341 8.397 25.7447 8.5162L26.1466 8.6349C26.3393 8.6919 26.5474 8.6194 26.6631 8.4546C26.7787 8.2899 26.7762 8.0698 26.6568 7.9077C25.3203 6.0917 23.5274 4.632 21.4718 3.68636C19.3903 2.72881 17.0797 2.31896 14.7896 2.50123C11.2293 2.78461 7.98946 4.4368 5.66676 7.1533C3.34371 9.8704 2.22094 13.3213 2.50544 16.8706C2.52931 17.207 2.28012 17.6437 1.8064 17.6864C1.38643 17.7203 1.01913 17.4079 0.985705 16.991C0.668585 13.0333 1.91682 9.1894 4.50066 6.1673C5.33826 5.1878 6.29316 4.3226 7.33876 3.59575C7.55126 3.44803 7.60386 3.15597 7.45606 2.94345C7.30846 2.73099 7.01646 2.67832 6.80386 2.82616C5.69246 3.59863 4.67796 4.5178 3.7883 5.5582C1.04131 8.7711 -0.285776 12.8579 0.0515244 17.0659C0.122504 17.952 0.868105 18.6263 1.74442 18.6262C2.16108 18.6292 2.69734 18.432 3.03871 18.031Z" fill="white"/>
<path d="M9.17405 2.50821C10.8851 1.65495 12.7335 1.14418 14.668 0.990268C19.9438 0.570668 25.093 2.99592 28.1077 7.32C28.2111 7.4682 28.3905 7.5439 28.5686 7.5143C28.7468 7.4849 28.8923 7.3556 28.9424 7.182L29.0609 6.7716C29.1771 6.3695 29.6007 6.1367 30.0048 6.2527C30.327 6.3478 30.6531 6.7329 30.5261 7.1904L30.3801 7.6957C30.3083 7.9443 30.4517 8.2041 30.7003 8.276C30.8889 8.3308 31.1778 8.2436 31.2806 7.9558L31.4265 7.4506C31.6802 6.6433 31.1787 5.5918 30.2633 5.3518C29.5201 5.1385 28.7474 5.456 28.3547 6.0784C25.1737 1.95863 19.8188 -0.399752 14.5936 0.0559084C12.5389 0.219438 10.5748 0.762318 8.75575 1.66938C8.52405 1.78492 8.42995 2.0663 8.54545 2.29794C8.66095 2.52952 8.94235 2.62368 9.17405 2.50821Z" fill="#FF8651"/>
</svg>
