<svg width="42" height="27" viewBox="0 0 42 27" fill="none" xmlns="http://www.w3.org/2000/svg">
<path d="M39.0598 11.263L37.9722 6.91248C38.2695 6.84928 38.4927 6.58548 38.4927 6.26938V5.56798C38.4927 4.04498 37.2536 2.80598 35.7307 2.80598H30.7766V1.35908C30.7766 0.609659 30.167 0 29.4176 0H4.16489C3.41545 0 2.8058 0.609659 2.8058 1.35908V13.284C2.8058 13.6471 3.10021 13.9416 3.46344 13.9416C3.82659 13.9416 4.12109 13.6472 4.12109 13.284V1.35908C4.12109 1.33488 4.14069 1.31528 4.16489 1.31528H29.4175C29.4417 1.31528 29.4613 1.33488 29.4613 1.35908V13.2842C29.4613 13.6473 29.7557 13.9418 30.1189 13.9418C30.4821 13.9418 30.7766 13.6474 30.7766 13.2842V12.5387H38.5342C38.5348 12.5387 38.5353 12.5388 38.5359 12.5388C38.5366 12.5388 38.5371 12.5387 38.5377 12.5387C39.4923 12.5394 40.3029 13.166 40.5813 14.0293H38.5364C38.1732 14.0293 37.8787 14.3237 37.8787 14.687V16.0899C37.8787 17.2261 38.8031 18.1504 39.9393 18.1504H40.6846V21.0439H38.9651C38.4002 19.4129 36.8498 18.238 35.0291 18.238C33.2084 18.238 31.6578 19.4129 31.093 21.0439H30.7764V16.0898C30.7764 15.7266 30.482 15.4322 30.1188 15.4322C29.7556 15.4322 29.4611 15.7266 29.4611 16.0898V21.0437H15.817C15.2522 19.4127 13.7017 18.2379 11.881 18.2379C10.0603 18.2379 8.50976 19.4127 7.94497 21.0437H4.16489C4.14069 21.0437 4.12109 21.0241 4.12109 20.9999V19.5532H6.97077C7.33392 19.5532 7.62841 19.2587 7.62841 18.8955C7.62841 18.5323 7.334 18.2379 6.97077 18.2379H0.65764C0.29449 18.2379 0 18.5323 0 18.8955C0 19.2587 0.29441 19.5532 0.65764 19.5532H2.80588V20.9999C2.80588 21.7494 3.41553 22.359 4.16497 22.359H7.71725C7.71709 22.3736 7.71611 22.3882 7.71611 22.4028C7.71611 24.6994 9.5845 26.5677 11.881 26.5677C14.1775 26.5677 16.0459 24.6994 16.0459 22.4028C16.0459 22.3881 16.0449 22.3736 16.0447 22.359H30.8653C30.8652 22.3736 30.8642 22.3882 30.8642 22.4028C30.8642 24.6994 32.7326 26.5677 35.0291 26.5677C37.3255 26.5677 39.194 24.6994 39.194 22.4028C39.194 22.3881 39.193 22.3736 39.1928 22.359H41.3423C41.7054 22.359 41.9999 22.0646 41.9999 21.7014V14.6868C42 12.955 40.7222 11.5161 39.0598 11.263ZM30.7766 4.12118H35.7307C36.5284 4.12118 37.1775 4.77018 37.1775 5.56798V5.61178H30.7766V4.12118ZM30.7766 11.2235V6.92698H36.6201L37.6943 11.2235H30.7766ZM11.881 25.2527C10.3097 25.2527 9.0313 23.9744 9.0313 22.403C9.0313 20.8316 10.3097 19.5533 11.881 19.5533C13.4523 19.5533 14.7307 20.8316 14.7307 22.403C14.7307 23.9744 13.4523 25.2527 11.881 25.2527ZM35.0292 25.2527C33.4579 25.2527 32.1795 23.9744 32.1795 22.403C32.1795 20.8316 33.4579 19.5533 35.0292 19.5533C36.6005 19.5533 37.8789 20.8316 37.8789 22.403C37.8789 23.9744 36.6005 25.2527 35.0292 25.2527ZM40.6848 16.8351H39.9395C39.5285 16.8351 39.1941 16.5008 39.1941 16.0898V15.3445H40.6847V16.8351H40.6848Z" fill="white"/>
<path d="M11.8806 12C11.1311 12 10.5215 12.6096 10.5215 13.3591C10.5215 14.1085 11.1311 14.7182 11.8806 14.7182C12.63 14.7182 13.2397 14.1085 13.2397 13.3591C13.2397 12.6096 12.63 12 11.8806 12Z" fill="white"/>
<path d="M35.029 12C34.2796 12 33.6699 12.6096 33.6699 13.3591C33.6699 14.1085 34.2796 14.7182 35.029 14.7182C35.7785 14.7182 36.3881 14.1085 36.3881 13.3591C36.3881 12.6096 35.7785 12 35.029 12Z" fill="white"/>
<path d="M27.314 12H17.4935C17.1304 12 16.8359 12.2944 16.8359 12.6576C16.8359 13.0209 17.1303 13.3153 17.4935 13.3153H27.314C27.6771 13.3153 27.9716 13.0209 27.9716 12.6576C27.9716 12.2944 27.6772 12 27.314 12Z" fill="white"/>
<path d="M10.4775 12H2.05999C1.69683 12 1.40234 12.2944 1.40234 12.6577C1.40234 13.0209 1.69675 13.3153 2.05999 13.3153H10.4775C10.8407 13.3153 11.1352 13.0209 11.1352 12.6577C11.1352 12.2944 10.8407 12 10.4775 12Z" fill="white"/>
<path d="M22.8689 3.1926C22.6121 2.9358 22.1957 2.9358 21.9389 3.1926L16.0907 9.0407L13.0484 5.9984C12.7916 5.7416 12.3752 5.7416 12.1184 5.9984C11.8616 6.2553 11.8616 6.6716 12.1184 6.9284L15.6258 10.4357C15.7541 10.5642 15.9225 10.6284 16.0907 10.6284C16.259 10.6284 16.4274 10.5642 16.5557 10.4357L22.8688 4.1226C23.1256 3.8657 23.1256 3.4494 22.8689 3.1926Z" fill="#FF8651"/>
</svg>
