<svg width="192" height="186" viewBox="0 0 192 186" fill="none" xmlns="http://www.w3.org/2000/svg">
<g opacity="0.1" clip-path="url(#clip0_145:1183)">
<path d="M149.99 45.1865C106 31.7374 59.462 56.5486 46.0129 100.539C32.5638 144.529 57.2709 191.121 101.261 204.571C145.331 218.044 191.948 193.257 205.397 149.267C218.846 105.277 194.059 58.6599 149.99 45.1865ZM106.214 188.657C70.9896 177.888 51.1823 140.635 61.9513 105.411C72.7203 70.1875 109.973 50.3802 145.196 61.1492C180.42 71.9183 200.228 109.17 189.459 144.394C178.69 179.618 141.437 199.426 106.214 188.657Z" fill="black"/>
<path d="M149.99 45.1864C106 31.7373 59.4622 56.5485 46.0131 100.539C32.564 144.529 57.2712 191.121 101.261 204.571C145.331 218.044 191.948 193.257 205.397 149.267C218.846 105.277 194.06 58.6599 149.99 45.1864ZM106.214 188.657C70.9899 177.887 51.1825 140.635 61.9515 105.411C72.7206 70.1875 109.973 50.3802 145.197 61.1492C180.421 71.9182 200.228 109.17 189.459 144.394C178.69 179.618 141.438 199.426 106.214 188.657Z" fill="black"/>
<path d="M141.872 86.275L129.918 82.6204L115.299 130.436L149.463 168.33L158.437 160.355L129.081 128.113L141.872 86.275Z" fill="black"/>
<path d="M141.872 86.275L129.918 82.6204L115.299 130.436L149.463 168.33L158.437 160.355L129.081 128.113L141.872 86.275Z" fill="black"/>
</g>
<defs>
<clipPath id="clip0_145:1183">
<rect width="200" height="200" fill="white" transform="translate(59.3118 0.0352173) rotate(17)"/>
</clipPath>
</defs>
</svg>
