<svg width="166" height="162" viewBox="0 0 166 162" fill="none" xmlns="http://www.w3.org/2000/svg">
<g opacity="0.1">
<path d="M162.833 42.3327C154.478 34.0362 144.55 27.4922 133.631 23.0847C122.712 18.6772 111.023 16.4949 99.2499 16.666C77.1486 16.6108 55.9305 25.3375 40.2634 40.9265C24.5962 56.5154 15.7635 77.6897 15.7083 99.791C15.653 121.892 24.3798 143.111 39.9687 158.778C55.5577 174.445 76.7319 183.277 98.8333 183.333C103.596 183.414 108.25 181.911 112.066 179.06C115.882 176.21 118.643 172.173 119.917 167.583C120.728 164.268 120.72 160.806 119.892 157.495C119.064 154.184 117.443 151.125 115.167 148.583C114.64 147.984 114.297 147.247 114.177 146.458C114.058 145.67 114.166 144.864 114.491 144.136C114.816 143.408 115.342 142.788 116.009 142.35C116.675 141.912 117.453 141.675 118.25 141.666H132C144.941 141.727 157.426 136.889 166.948 128.125C176.47 119.36 182.323 107.318 183.333 94.416C183.643 84.7961 181.985 75.2143 178.46 66.2582C174.935 57.3021 169.617 49.1605 162.833 42.3327ZM132.333 124.999H118.583C114.568 124.977 110.632 126.12 107.253 128.29C103.874 130.46 101.197 133.563 99.5477 137.224C97.898 140.886 97.346 144.947 97.9588 148.915C98.5716 152.884 100.323 156.59 103 159.583C103.521 160.109 103.89 160.766 104.066 161.486C104.242 162.205 104.219 162.959 104 163.666C103.583 165.416 101.667 166.499 99.0833 166.666C89.6193 166.545 80.2896 164.41 71.7148 160.403C63.14 156.396 55.5167 150.609 49.3519 143.427C43.1871 136.246 38.6222 127.834 35.9608 118.751C33.2995 109.668 32.6026 100.122 33.9166 90.7494C36.293 74.9989 44.1629 60.5963 56.1344 50.0888C68.1059 39.5813 83.4076 33.6461 99.3333 33.3327H99.9999C109.424 33.2093 118.777 34.9744 127.507 38.5239C136.238 42.0734 144.169 47.3353 150.833 53.9994C156.033 59.2027 160.119 65.4106 162.841 72.2447C165.563 79.0788 166.865 86.3958 166.667 93.7494C165.804 102.275 161.821 110.181 155.484 115.949C149.147 121.717 140.902 124.94 132.333 124.999Z" fill="black"/>
<path d="M100 66.6667C106.904 66.6667 112.5 61.0702 112.5 54.1667C112.5 47.2631 106.904 41.6667 100 41.6667C93.0964 41.6667 87.5 47.2631 87.5 54.1667C87.5 61.0702 93.0964 66.6667 100 66.6667Z" fill="black"/>
<path d="M127.083 59.9995C124.943 61.2358 123.218 63.0789 122.125 65.2958C121.032 67.5127 120.62 70.0038 120.943 72.4544C121.265 74.9049 122.307 77.2048 123.936 79.0634C125.566 80.922 127.71 82.2559 130.097 82.8964C132.484 83.5368 135.008 83.4552 137.349 82.6618C139.689 81.8684 141.743 80.3988 143.248 78.4388C144.754 76.4788 145.645 74.1163 145.809 71.6501C145.972 69.1838 145.401 66.7244 144.167 64.5828C143.347 63.1595 142.254 61.9118 140.951 60.911C139.649 59.9102 138.162 59.176 136.575 58.7503C134.988 58.3246 133.334 58.2159 131.705 58.4302C130.076 58.6445 128.506 59.1778 127.083 59.9995ZM72.9168 59.9995C70.7751 58.7655 68.3158 58.1942 65.8495 58.3576C63.3832 58.5211 61.0208 59.4121 59.0608 60.9179C57.1008 62.4237 55.6312 64.4768 54.8378 66.8177C54.0443 69.1586 53.9627 71.6821 54.6032 74.0694C55.2437 76.4566 56.5775 78.6004 58.4361 80.2298C60.2947 81.8591 62.5946 82.9009 65.0452 83.2234C67.4957 83.5459 69.9869 83.1347 72.2038 82.0417C74.4207 80.9487 76.2638 79.2231 77.5001 77.0828C78.3218 75.6604 78.855 74.09 79.0694 72.4613C79.2837 70.8327 79.1749 69.1778 78.7493 67.5912C78.3236 66.0046 77.5894 64.5175 76.5886 63.2148C75.5878 61.9122 74.3401 60.8196 72.9168 59.9995ZM51.3334 93.8328C49.2832 95.2172 47.6898 97.1788 46.755 99.4693C45.8203 101.76 45.5862 104.276 46.0824 106.7C46.5786 109.123 47.7829 111.345 49.5426 113.084C51.3023 114.823 53.5384 116 55.9678 116.467C58.3971 116.935 60.9105 116.67 63.1896 115.708C65.4688 114.746 67.4112 113.13 68.7709 111.063C70.1306 108.996 70.8466 106.573 70.828 104.099C70.8095 101.625 70.0573 99.2122 68.6668 97.1661C67.7532 95.8024 66.5784 94.6333 65.2101 93.7265C63.8419 92.8197 62.3074 92.1932 60.6955 91.8832C59.0836 91.5732 57.4262 91.5859 55.8193 91.9206C54.2123 92.2552 52.6876 92.9052 51.3334 93.8328Z" fill="black"/>
</g>
</svg>
