<svg width="20" height="17" viewBox="0 0 20 17" fill="none" xmlns="http://www.w3.org/2000/svg">
<path d="M10 16L9.65146 16.3585C9.84552 16.5472 10.1545 16.5472 10.3485 16.3585L10 16ZM2.3314 8.54442L1.98286 8.90291L2.3314 8.54442ZM8.75997 2.29442L8.41143 2.65292L8.75997 2.29442ZM10 3.5L9.65146 3.8585C9.84552 4.04717 10.1545 4.04717 10.3485 3.8585L10 3.5ZM11.24 2.29442L10.8915 1.93592L11.24 2.29442ZM10.3485 15.6415L2.67994 8.18592L1.98286 8.90291L9.65146 16.3585L10.3485 15.6415ZM17.3201 8.18592L9.65146 15.6415L10.3485 16.3585L18.0171 8.90292L17.3201 8.18592ZM8.41143 2.65292L9.65146 3.8585L10.3485 3.1415L9.10851 1.93592L8.41143 2.65292ZM10.3485 3.8585L11.5886 2.65291L10.8915 1.93592L9.65146 3.1415L10.3485 3.8585ZM14.4543 0.5C13.1206 0.5 11.8388 1.01497 10.8915 1.93592L11.5886 2.65291C12.3463 1.91626 13.3769 1.5 14.4543 1.5V0.5ZM18.5 5.41942C18.5 6.45429 18.0773 7.44973 17.3201 8.18592L18.0171 8.90292C18.9649 7.9815 19.5 6.72875 19.5 5.41942H18.5ZM19.5 5.41942C19.5 2.68931 17.2276 0.5 14.4543 0.5V1.5C16.7021 1.5 18.5 3.26797 18.5 5.41942H19.5ZM5.54569 1.5C6.62314 1.5 7.65373 1.91626 8.41143 2.65292L9.10851 1.93592C8.16125 1.01497 6.87941 0.5 5.54569 0.5V1.5ZM1.5 5.41942C1.5 3.26797 3.29794 1.5 5.54569 1.5V0.5C2.7724 0.5 0.5 2.68931 0.5 5.41942H1.5ZM2.67994 8.18592C1.92272 7.44973 1.5 6.45429 1.5 5.41942H0.5C0.5 6.72875 1.03512 7.9815 1.98286 8.90291L2.67994 8.18592Z" fill="#3F3F3F"/>
</svg>
