<svg width="24" height="24" viewBox="0 0 24 24" fill="none" xmlns="http://www.w3.org/2000/svg">
<path d="M21.8704 8.54363C20.5355 7.51893 18.768 6.95459 16.8933 6.95459C15.7597 6.95459 14.6656 7.16128 13.6824 7.55091C13.191 6.61555 12.3712 5.78721 11.3283 5.18442C10.1005 4.47465 8.64064 4.09952 7.10679 4.09952C5.2321 4.09952 3.46457 4.66386 2.12968 5.68856C0.756294 6.7427 0 8.1563 0 9.66884C0 11.0311 0.623167 12.3276 1.76013 13.3428L1.77948 16.6614C1.78046 16.8346 1.86833 17.0027 2.02247 17.0817C2.20545 17.1755 2.37997 17.153 2.50795 17.0863L5.95063 15.1648C6.33233 15.2136 6.72034 15.2383 7.10679 15.2383C7.10689 15.2383 7.10699 15.2383 7.10709 15.2383C8.22627 15.2383 9.32444 15.0329 10.3135 14.642C10.6745 15.3334 11.2146 15.9659 11.9161 16.5044C13.251 17.5291 15.0186 18.0934 16.8933 18.0934C17.2816 18.0934 17.6718 18.0684 18.0555 18.0192L21.5025 19.8358C21.6981 19.9355 21.8431 19.9111 21.9826 19.8226C22.1271 19.731 22.2196 19.5765 22.2206 19.4054L22.24 16.198C23.3768 15.1829 24 13.8862 24 12.524C24 11.0115 23.2437 9.59792 21.8704 8.54363ZM7.10704 14.2587C7.10694 14.2587 7.10674 14.2587 7.10674 14.2587C6.7079 14.2587 6.3072 14.2292 5.91585 14.1712C5.77572 14.1505 5.64073 14.1911 5.53807 14.2732L2.75412 15.827L2.73845 13.1241C2.73864 13.1143 2.73845 13.1044 2.73796 13.0945C2.73154 12.9568 2.66753 12.8283 2.56144 12.7403C1.54144 11.8938 0.979592 10.803 0.979592 9.66884C0.979592 7.13802 3.72828 5.07906 7.10679 5.07906C9.60985 5.07906 11.8728 6.2483 12.7959 7.96895C12.4861 8.14038 12.1918 8.33204 11.916 8.54363C10.5427 9.59787 9.78642 11.0115 9.78642 12.524C9.78642 12.9356 9.84294 13.3399 9.95211 13.7316C9.07773 14.0772 8.10328 14.2587 7.10704 14.2587ZM21.4385 15.5955C21.3325 15.6834 21.2685 15.8121 21.2621 15.9497C21.2616 15.9586 21.2615 15.9675 21.2615 15.9763L21.2458 18.5933L18.453 17.1214C18.3515 17.0439 18.2203 17.0062 18.084 17.0264C17.6926 17.0844 17.2919 17.1139 16.8932 17.1139C14.1264 17.1139 11.7825 15.733 11.0242 13.8429C11.0211 13.8337 11.0171 13.8248 11.0133 13.8156C10.8526 13.4057 10.7659 12.9723 10.7659 12.524C10.7659 10.8956 11.9041 9.46264 13.6156 8.64771C13.6169 8.64722 13.6181 8.64693 13.6194 8.64644C13.6385 8.6389 13.6567 8.62989 13.6744 8.62024C14.6103 8.18559 15.7132 7.93418 16.8932 7.93418C20.2717 7.93418 23.0204 9.99318 23.0204 12.524C23.0204 13.6581 22.4586 14.749 21.4385 15.5955Z" fill="#3F3F3F"/>
<path d="M19.7681 10.883H14.0132C13.7427 10.883 13.5234 11.1022 13.5234 11.3728C13.5234 11.6433 13.7427 11.8626 14.0132 11.8626H19.7681C20.0385 11.8626 20.2579 11.6433 20.2579 11.3728C20.2579 11.1022 20.0386 10.883 19.7681 10.883Z" fill="#3F3F3F"/>
<path d="M19.7681 13.1005H14.0132C13.7427 13.1005 13.5234 13.3198 13.5234 13.5903C13.5234 13.8608 13.7427 14.0801 14.0132 14.0801H19.7681C20.0385 14.0801 20.2579 13.8608 20.2579 13.5903C20.2579 13.3198 20.0386 13.1005 19.7681 13.1005Z" fill="#3F3F3F"/>
<path d="M21.8704 8.54363C20.5355 7.51893 18.768 6.95459 16.8933 6.95459C15.7597 6.95459 14.6656 7.16128 13.6824 7.55091C13.191 6.61555 12.3712 5.78721 11.3283 5.18442C10.1005 4.47465 8.64064 4.09952 7.10679 4.09952C5.2321 4.09952 3.46457 4.66386 2.12968 5.68856C0.756294 6.7427 0 8.1563 0 9.66884C0 11.0311 0.623167 12.3276 1.76013 13.3428L1.77948 16.6614C1.78046 16.8346 1.86833 17.0027 2.02247 17.0817C2.20545 17.1755 2.37997 17.153 2.50795 17.0863L5.95063 15.1648C6.33233 15.2136 6.72034 15.2383 7.10679 15.2383C7.10689 15.2383 7.10699 15.2383 7.10709 15.2383C8.22627 15.2383 9.32444 15.0329 10.3135 14.642C10.6745 15.3334 11.2146 15.9659 11.9161 16.5044C13.251 17.5291 15.0186 18.0934 16.8933 18.0934C17.2816 18.0934 17.6718 18.0684 18.0555 18.0192L21.5025 19.8358C21.6981 19.9355 21.8431 19.9111 21.9826 19.8226C22.1271 19.731 22.2196 19.5765 22.2206 19.4054L22.24 16.198C23.3768 15.1829 24 13.8862 24 12.524C24 11.0115 23.2437 9.59792 21.8704 8.54363ZM7.10704 14.2587C7.10694 14.2587 7.10674 14.2587 7.10674 14.2587C6.7079 14.2587 6.3072 14.2292 5.91585 14.1712C5.77572 14.1505 5.64073 14.1911 5.53807 14.2732L2.75412 15.827L2.73845 13.1241C2.73864 13.1143 2.73845 13.1044 2.73796 13.0945C2.73154 12.9568 2.66753 12.8283 2.56144 12.7403C1.54144 11.8938 0.979592 10.803 0.979592 9.66884C0.979592 7.13802 3.72828 5.07906 7.10679 5.07906C9.60985 5.07906 11.8728 6.2483 12.7959 7.96895C12.4861 8.14038 12.1918 8.33204 11.916 8.54363C10.5427 9.59787 9.78642 11.0115 9.78642 12.524C9.78642 12.9356 9.84294 13.3399 9.95211 13.7316C9.07773 14.0772 8.10328 14.2587 7.10704 14.2587ZM21.4385 15.5955C21.3325 15.6834 21.2685 15.8121 21.2621 15.9497C21.2616 15.9586 21.2615 15.9675 21.2615 15.9763L21.2458 18.5933L18.453 17.1214C18.3515 17.0439 18.2203 17.0062 18.084 17.0264C17.6926 17.0844 17.2919 17.1139 16.8932 17.1139C14.1264 17.1139 11.7825 15.733 11.0242 13.8429C11.0211 13.8337 11.0171 13.8248 11.0133 13.8156C10.8526 13.4057 10.7659 12.9723 10.7659 12.524C10.7659 9.94367 13.5576 7.93418 16.8932 7.93418C20.2287 7.93418 23.0204 9.99318 23.0204 12.524C23.0204 13.6581 22.4586 14.749 21.4385 15.5955Z" fill="#3F3F3F"/>
<path d="M19.7681 10.883H14.0132C13.7427 10.883 13.5234 11.1022 13.5234 11.3728C13.5234 11.6433 13.7427 11.8626 14.0132 11.8626H19.7681C20.0385 11.8626 20.2579 11.6433 20.2579 11.3728C20.2579 11.1022 20.0386 10.883 19.7681 10.883Z" fill="#3F3F3F"/>
<path d="M19.7681 13.1005H14.0132C13.7427 13.1005 13.5234 13.3198 13.5234 13.5903C13.5234 13.8608 13.7427 14.0801 14.0132 14.0801H19.7681C20.0385 14.0801 20.2579 13.8608 20.2579 13.5903C20.2579 13.3198 20.0386 13.1005 19.7681 13.1005Z" fill="#3F3F3F"/>
</svg>
