<svg width="16" height="16" viewBox="0 0 16 16" fill="none" xmlns="http://www.w3.org/2000/svg">
<path d="M5 8H9H5ZM11.5 4.5L9 7.99542L11.5 11.5V4.5ZM15 2.9987C15 4.10198 14.104 4.99739 13 4.99739C11.896 4.99739 11 4.10198 11 2.9987C11 1.89542 11.896 1 13 1C14.104 1 15 1.89542 15 2.9987ZM15 12.9922C15 14.0954 14.104 14.9909 13 14.9909C11.896 14.9909 11 14.0954 11 12.9922C11 11.8889 11.896 10.9935 13 10.9935C14.104 10.9935 15 11.8889 15 12.9922ZM5 7.99543C5 9.09871 4.104 9.99413 3 9.99413C1.896 9.99413 1 9.09871 1 7.99543C1 6.89215 1.896 5.99673 3 5.99673C4.104 5.99673 5 6.89215 5 7.99543Z" stroke="white" stroke-linecap="square"/>
</svg>
