<svg width="30" height="30" viewBox="0 0 30 30" fill="none" xmlns="http://www.w3.org/2000/svg">
<g clip-path="url(#clip0)">
<path d="M17.265 0.762557C17.1167 0.642088 16.9215 0.596034 16.7351 0.637577L0.485067 4.38758C0.199071 4.45332 -0.00272606 4.70914 2.78441e-05 5.00258V26.2526C0.000145032 26.561 0.225204 26.8232 0.530008 26.8701L16.78 29.3701C17.1212 29.4226 17.4403 29.1886 17.4927 28.8474C17.4975 28.8161 17.5 28.7844 17.5 28.7527V1.25258C17.5006 1.06197 17.414 0.881561 17.265 0.762557Z" fill="#1565C0"/>
<path d="M29.3751 26.8775H16.875C16.5298 26.8775 16.25 26.5977 16.25 26.2525C16.25 25.9073 16.5298 25.6275 16.875 25.6275H28.75V4.37754H16.875C16.5298 4.37754 16.25 4.0977 16.25 3.75252C16.25 3.40735 16.5298 3.12756 16.875 3.12756H29.375C29.7202 3.12756 30 3.40741 30 3.75258V26.2526C30 26.5978 29.7202 26.8775 29.3751 26.8775Z" fill="#1565C0"/>
<path d="M10.625 20.6276C10.3465 20.6273 10.1019 20.4427 10.025 20.1751L8.12499 13.5276L6.22497 20.1751C6.08774 20.5068 5.70759 20.6644 5.37583 20.5272C5.21634 20.4612 5.08966 20.3346 5.02368 20.1751L2.52372 11.4251C2.41907 11.0961 2.60094 10.7447 2.92989 10.6401C3.25884 10.5354 3.61028 10.7173 3.71493 11.0462C3.71862 11.0578 3.72196 11.0695 3.72501 11.0813L5.62497 17.7276L7.52499 11.0801C7.66221 10.7484 8.04237 10.5907 8.37413 10.7279C8.53362 10.7939 8.6603 10.9206 8.72628 11.0801L10.625 17.7276L12.525 11.0814C12.615 10.7524 12.9546 10.5587 13.2835 10.6486C13.2882 10.6499 13.2928 10.6512 13.2975 10.6526C13.6292 10.7476 13.8211 11.0934 13.7263 11.4251L11.2262 20.1751C11.1492 20.4432 10.9039 20.6278 10.625 20.6276Z" fill="#FAFAFA"/>
<path d="M26.875 8.12754H16.875C16.5298 8.12754 16.25 7.8477 16.25 7.50252C16.25 7.15735 16.5298 6.8775 16.875 6.8775H26.875C27.2202 6.8775 27.5001 7.15735 27.5001 7.50252C27.5001 7.84775 27.2202 8.12754 26.875 8.12754Z" fill="#1565C0"/>
<path d="M26.875 11.8775H16.875C16.5298 11.8775 16.25 11.5977 16.25 11.2525C16.25 10.9073 16.5298 10.6275 16.875 10.6275H26.875C27.2202 10.6275 27.5001 10.9073 27.5001 11.2525C27.5001 11.5977 27.2202 11.8775 26.875 11.8775Z" fill="#1565C0"/>
<path d="M26.875 15.6275H16.875C16.5298 15.6275 16.25 15.3477 16.25 15.0025C16.25 14.6573 16.5298 14.3775 16.875 14.3775H26.875C27.2202 14.3775 27.5001 14.6573 27.5001 15.0025C27.5001 15.3478 27.2202 15.6275 26.875 15.6275Z" fill="#1565C0"/>
<path d="M26.875 19.3775H16.875C16.5298 19.3775 16.25 19.0977 16.25 18.7525C16.25 18.4073 16.5298 18.1275 16.875 18.1275H26.875C27.2202 18.1275 27.5001 18.4073 27.5001 18.7525C27.5001 19.0978 27.2202 19.3775 26.875 19.3775Z" fill="#1565C0"/>
<path d="M26.875 23.1275H16.875C16.5298 23.1275 16.25 22.8477 16.25 22.5025C16.25 22.1573 16.5298 21.8775 16.875 21.8775H26.875C27.2202 21.8775 27.5001 22.1573 27.5001 22.5025C27.5001 22.8478 27.2202 23.1275 26.875 23.1275Z" fill="#1565C0"/>
</g>
<defs>
<clipPath id="clip0">
<rect width="30" height="30" fill="white"/>
</clipPath>
</defs>
</svg>
