<svg width="173" height="57" viewBox="0 0 173 57" fill="none" xmlns="http://www.w3.org/2000/svg">
<g clip-path="url(#clip0_20_1466)">
<path d="M61.9385 0.748948H65.9272V18.3112H61.9385V0.748948ZM66.1932 8.8546L72.5755 0.748948H77.362L70.9798 8.8546L78.1599 18.3112H73.1073L66.1932 8.8546ZM80.0213 0.748948H84.0103V18.3112H80.0213V0.748948ZM91.7223 3.72103H86.4036V0.748948H101.296V3.72103H95.977V18.3112H91.7223V3.72103ZM111.401 18.5814C110.603 18.5814 109.805 18.5814 109.273 18.3112C108.475 18.3112 107.944 18.3112 107.146 18.041C106.348 17.7708 105.816 17.5006 105.284 17.2304C104.753 16.6901 104.221 16.4199 103.955 15.6093C103.423 15.0689 103.157 14.2584 103.157 13.4478V5.88254C103.157 2.37008 106.082 0.47876 111.401 0.47876C112.731 0.47876 114.592 0.748948 116.719 1.01914V4.26139C114.592 3.72103 112.996 3.45083 111.401 3.45083C110.603 3.45083 110.071 3.45083 109.805 3.45083C109.539 3.45083 109.008 3.72103 108.742 3.72103C107.944 3.99121 107.412 4.80179 107.412 5.61233V13.1776C107.412 14.7987 108.742 15.6093 111.667 15.6093C112.996 15.6093 114.592 15.3391 116.985 14.7987V18.041C114.858 18.3112 112.996 18.5814 111.401 18.5814ZM119.645 0.748948H123.634V7.77384H131.079V0.748948H135.068V18.3112H131.079V10.7459H123.634V18.3112H119.645V0.748948ZM138.791 0.748948H152.088V3.72103H143.046V7.77384H151.024V10.7459H143.046V15.3391H152.353V18.3112H138.791V0.748948ZM155.013 0.748948H159.268L167.512 12.6372V0.748948H171.235V18.3112H166.979L158.736 6.15272V18.3112H155.013V0.748948Z" fill="white"/>
<path d="M61.9385 22.7029H69.6785L75.1714 38.9385L80.6643 22.7029H87.905V45.534H82.9114V28.5375L77.1687 45.534H72.9243L66.9321 28.5375V45.534H61.9385V22.7029ZM98.641 22.7029H105.133L113.372 45.534H107.879L105.882 39.4459H97.6424L95.6451 45.534H90.4017L98.641 22.7029ZM104.634 35.8941L101.887 27.2691H101.637L98.8908 35.8941H104.634ZM115.869 22.7029H121.362L132.098 38.1775V22.7029H136.842V45.534H131.599L120.613 29.5522V45.534H115.869V22.7029ZM141.836 22.7029H147.329V45.534H141.836V22.7029ZM158.065 22.7029H164.557L172.796 45.534H167.303L165.305 39.4459H157.066L155.069 45.534H149.825L158.065 22.7029ZM164.057 35.8941L161.31 27.2691H161.061L158.314 35.8941H164.057Z" fill="#FF8651"/>
<path fill-rule="evenodd" clip-rule="evenodd" d="M0 0.47876H52.1267V55.7214H0V0.47876ZM51.129 1.49239H0.997642V54.7077H51.129V1.49239Z" fill="white"/>
<path fill-rule="evenodd" clip-rule="evenodd" d="M3.74121 3.32739H48.3857V23.5999L44.6446 20.8125V7.1285C31.4257 7.1285 20.4517 7.1285 7.48235 7.1285V20.8125L3.74121 23.5999V3.32739Z" fill="#FF8651"/>
<path fill-rule="evenodd" clip-rule="evenodd" d="M3.74121 32.7227L25.9387 14.9841L48.3857 32.7227V28.1612C40.9033 22.3329 33.4212 16.5045 25.9387 10.6761L14.9647 19.5454V14.4773L11.2235 17.5181V22.3329C9.22822 23.8533 6.48473 26.134 3.74121 28.1612V32.7227Z" fill="white"/>
<path fill-rule="evenodd" clip-rule="evenodd" d="M16.96 36.5238C19.4541 36.5238 22.1976 36.5238 24.9411 36.5238V20.0524L16.96 26.3875V36.5238ZM29.6799 29.6818C30.1787 29.6818 30.4281 29.4284 30.4281 29.175C30.4281 28.6682 29.9293 28.1614 29.6799 28.4148C28.6823 28.4148 28.9317 29.6818 29.6799 29.6818ZM35.167 31.7091V26.3875L27.1858 20.0524V31.7091H35.167ZM32.6728 30.442C33.1715 30.442 33.1715 31.2022 32.6728 31.2022C32.1741 31.2022 32.1741 30.442 32.6728 30.442ZM31.6751 30.442C32.1741 30.442 32.1741 31.2022 31.6751 31.2022C31.1763 31.2022 31.1763 30.442 31.6751 30.442ZM30.6775 30.442C31.1763 30.442 31.1763 31.2022 30.6775 31.2022C30.1787 31.2022 30.1787 30.442 30.6775 30.442ZM29.6799 30.442C30.1787 30.442 30.1787 31.2022 29.6799 31.2022C29.1811 31.2022 29.1811 30.442 29.6799 30.442ZM33.6705 29.175C33.6705 29.6818 33.1715 30.1886 32.6728 30.1886C31.9246 30.1886 31.4259 29.6818 31.4259 29.175C31.4259 28.4148 31.9246 27.908 32.6728 27.908C33.1715 27.908 33.6705 28.4148 33.6705 29.175ZM29.6799 27.908C30.4281 27.908 30.927 28.4148 30.927 29.175C30.927 29.6818 30.1787 30.1886 29.6799 30.1886C28.4329 29.9352 28.4329 27.908 29.6799 27.908ZM29.6799 25.3739C30.4281 25.3739 30.927 25.8807 30.927 26.3875C30.927 27.1477 30.1787 27.6546 29.6799 27.6546C28.4329 27.4012 28.4329 25.3739 29.6799 25.3739ZM33.6705 26.3875C33.6705 27.1477 33.1715 27.6546 32.6728 27.6546C31.9246 27.6546 31.4259 27.1477 31.4259 26.3875C31.4259 25.8807 31.9246 25.3739 32.6728 25.3739C33.1715 25.3739 33.6705 25.8807 33.6705 26.3875ZM29.4305 37.2841C27.934 38.8046 28.9317 41.3385 31.1763 41.3385C33.1715 41.3385 34.4187 38.8046 32.9223 37.2841C31.9246 36.2704 30.4281 36.2704 29.4305 37.2841ZM27.1858 34.2433V43.3659C29.9293 43.3659 32.4233 43.3659 35.167 43.3659V34.2433H27.1858ZM27.6846 39.0579C27.6846 36.0171 31.4259 34.2433 33.6705 36.5238C35.6657 38.8046 34.1692 42.6055 31.1763 42.6055C29.1811 42.6055 27.6846 40.8317 27.6846 39.0579ZM33.1715 35.51C33.1715 35.0033 34.1692 35.0033 34.1692 35.51C34.1692 36.0171 33.1715 36.0171 33.1715 35.51ZM16.96 37.0305V43.3659H24.9411V37.0305H16.96ZM19.2047 38.2976H17.4588V37.5375H19.2047V38.2976ZM17.4588 35.2567H19.2047V35.7637H17.4588V35.2567Z" fill="white"/>
<path fill-rule="evenodd" clip-rule="evenodd" d="M3.74121 38.2974L7.48235 35.2568V47.1667H44.6446V35.2568L48.3857 38.2974V50.968H3.74121V38.2974Z" fill="#FF8651"/>
<path d="M64.2671 54.6373H63.2478V50.6242H61.9385V49.7642H65.5765V50.6242H64.2671V54.6373Z" fill="white"/>
<path d="M69.4315 54.6373H66.6572V49.7642H69.4315V50.6106H67.6765V51.6821H69.31V52.5285H67.6765V53.7842H69.4315V54.6373Z" fill="white"/>
<path d="M74.6671 54.6373H73.4995L72.3788 52.7946L71.2583 54.6373H70.165L71.7645 52.1256L70.2662 49.7642H71.3935L72.4328 51.5183L73.452 49.7642H74.5525L73.0405 52.1802L74.6671 54.6373Z" fill="white"/>
<path d="M79.56 54.6373H78.5408V52.5352H76.6306V54.6373H75.6113V49.7642H76.6306V51.6754H78.5408V49.7642H79.56V54.6373Z" fill="white"/>
<path d="M81.1104 49.7642H82.0284V52.119C82.0284 52.2326 82.0259 52.3599 82.0216 52.5012C82.0172 52.6422 82.0125 52.7809 82.0081 52.9174C82.0035 53.0495 81.9991 53.1654 81.9947 53.2654C81.99 53.361 81.9857 53.427 81.981 53.4635H82.0013L84.2287 49.7642H85.4507V54.6373H84.5391V52.2964C84.5391 52.1736 84.5416 52.0393 84.546 51.8935C84.5507 51.7437 84.5551 51.6002 84.5594 51.4637C84.5685 51.3272 84.5754 51.209 84.5797 51.1087C84.5888 51.0043 84.5957 50.936 84.6 50.9039H84.5732L82.3388 54.6373H81.1104V49.7642Z" fill="white"/>
<path d="M90.9333 54.6373H89.7726L88.0241 52.1666V54.6373H87.0049V49.7642H88.0241V52.1256L89.7523 49.7642H90.839L89.084 52.1053L90.9333 54.6373Z" fill="white"/>
<path d="M94.827 54.6372L94.476 53.4771H92.721L92.37 54.6372H91.2695L92.9708 49.7438H94.2193L95.9271 54.6372H94.827ZM93.882 51.4773C93.8595 51.4001 93.8302 51.302 93.7943 51.1839C93.758 51.0655 93.7221 50.9448 93.6862 50.822C93.65 50.6994 93.621 50.5924 93.5985 50.5013C93.576 50.5924 93.5444 50.7061 93.5038 50.8426C93.4679 50.9747 93.432 51.102 93.3958 51.2249C93.3643 51.343 93.3396 51.4274 93.3218 51.4773L92.9774 52.6104H94.233L93.882 51.4773Z" fill="white"/>
<path d="M102.416 49.7642V53.7775H103.057V56.0567H102.072V54.6373H99.0546V56.0567H98.0693V53.7775H98.4403C98.6114 53.4362 98.7713 53.0721 98.9197 52.6854C99.0683 52.2942 99.201 51.8596 99.3178 51.3818C99.4393 50.9039 99.5361 50.3648 99.6082 49.7642H102.416ZM100.418 50.6242C100.378 50.9382 100.312 51.2795 100.222 51.6481C100.137 52.012 100.034 52.3783 99.9121 52.7469C99.7903 53.1108 99.6576 53.4543 99.5136 53.7775H101.397V50.6242H100.418Z" fill="white"/>
<path d="M107.949 54.6373H106.93V50.6242H105.749C105.722 50.8335 105.693 51.0611 105.661 51.3068C105.634 51.5526 105.602 51.8027 105.567 52.0574C105.535 52.3079 105.501 52.5466 105.465 52.7743C105.429 52.9971 105.393 53.1949 105.357 53.368C105.299 53.6499 105.22 53.8912 105.121 54.0912C105.027 54.2915 104.894 54.4439 104.723 54.5487C104.556 54.6531 104.338 54.7055 104.068 54.7055C103.892 54.7055 103.731 54.6804 103.582 54.6306V53.7842C103.64 53.8023 103.697 53.8185 103.751 53.8321C103.809 53.8458 103.872 53.8524 103.94 53.8524C104.07 53.8524 104.169 53.7842 104.237 53.6477C104.309 53.5067 104.381 53.2451 104.453 52.8628C104.48 52.7171 104.518 52.4898 104.568 52.1802C104.617 51.871 104.671 51.5091 104.73 51.0951C104.792 50.6766 104.851 50.2331 104.905 49.7642H107.949V54.6373Z" fill="white"/>
<path d="M111.123 52.7673L109.995 54.6373H108.861L110.232 52.4942C110.101 52.4396 109.971 52.3599 109.84 52.2555C109.709 52.1463 109.601 52.0028 109.516 51.8253C109.431 51.6434 109.388 51.4205 109.388 51.1567C109.388 50.7061 109.547 50.3626 109.867 50.1261C110.187 49.8848 110.634 49.7642 111.21 49.7642H112.776V54.6373H111.757V52.7673H111.123ZM111.251 50.6106C110.99 50.6106 110.785 50.6585 110.637 50.7538C110.493 50.8493 110.421 51.0087 110.421 51.2316C110.421 51.4456 110.49 51.6161 110.63 51.7437C110.774 51.8662 110.99 51.9278 111.278 51.9278H111.757V50.6106H111.251Z" fill="white"/>
<path d="M119.869 49.7642V53.7775H120.511V56.0567H119.525V54.6373H116.508V56.0567H115.522V53.7775H115.894C116.065 53.4362 116.224 53.0721 116.373 52.6854C116.521 52.2942 116.654 51.8596 116.771 51.3818C116.893 50.9039 116.99 50.3648 117.061 49.7642H119.869ZM117.871 50.6242C117.831 50.9382 117.766 51.2795 117.676 51.6481C117.59 52.012 117.487 52.3783 117.365 52.7469C117.244 53.1108 117.111 53.4543 116.967 53.7775H118.85V50.6242H117.871Z" fill="white"/>
<path d="M125.963 52.1939C125.963 52.699 125.879 53.1403 125.713 53.5181C125.551 53.8911 125.301 54.1823 124.964 54.3915C124.626 54.6011 124.194 54.7055 123.668 54.7055C123.146 54.7055 122.714 54.6011 122.372 54.3915C122.034 54.1823 121.782 53.8889 121.616 53.5111C121.454 53.1336 121.373 52.6923 121.373 52.1872C121.373 51.6821 121.454 51.243 121.616 50.8699C121.782 50.4969 122.034 50.208 122.372 50.0032C122.714 49.794 123.148 49.6892 123.675 49.6892C124.197 49.6892 124.626 49.794 124.964 50.0032C125.301 50.208 125.551 50.4991 125.713 50.8766C125.879 51.25 125.963 51.6891 125.963 52.1939ZM122.446 52.1939C122.446 52.7034 122.543 53.1063 122.736 53.4019C122.93 53.693 123.24 53.8388 123.668 53.8388C124.105 53.8388 124.417 53.693 124.606 53.4019C124.795 53.1063 124.89 52.7034 124.89 52.1939C124.89 51.6799 124.795 51.2773 124.606 50.9858C124.417 50.6947 124.107 50.5493 123.675 50.5493C123.243 50.5493 122.93 50.6947 122.736 50.9858C122.543 51.2773 122.446 51.6799 122.446 52.1939Z" fill="white"/>
<path d="M129.337 54.6373L128.176 50.8154H128.149C128.154 50.9065 128.16 51.043 128.169 51.2249C128.179 51.4068 128.188 51.6024 128.196 51.8116C128.205 52.0164 128.21 52.2031 128.21 52.3714V54.6373H127.299V49.7642H128.689L129.83 53.4908H129.85L131.058 49.7642H132.449V54.6373H131.497V52.3304C131.497 52.1758 131.499 51.9983 131.504 51.7983C131.513 51.598 131.52 51.4091 131.524 51.2316C131.533 51.0497 131.54 50.9131 131.545 50.822H131.517L130.275 54.6373H129.337Z" fill="white"/>
<path d="M136.954 54.6372L136.603 53.4771H134.848L134.497 54.6372H133.396L135.097 49.7438H136.346L138.054 54.6372H136.954ZM136.009 51.4773C135.986 51.4001 135.957 51.302 135.921 51.1839C135.885 51.0655 135.849 50.9448 135.813 50.822C135.777 50.6994 135.748 50.5924 135.725 50.5013C135.703 50.5924 135.671 50.7061 135.631 50.8426C135.595 50.9747 135.559 51.102 135.523 51.2249C135.491 51.343 135.467 51.4274 135.448 51.4773L135.104 52.6104H136.36L136.009 51.4773Z" fill="white"/>
<path d="M140.77 49.7642H141.688V52.119C141.688 52.2326 141.685 52.3599 141.681 52.5012C141.676 52.6422 141.672 52.7809 141.667 52.9174C141.663 53.0495 141.658 53.1654 141.654 53.2654C141.649 53.361 141.645 53.427 141.64 53.4635H141.66L143.888 49.7642H145.11V54.6373H144.199V52.2964C144.199 52.1736 144.201 52.0393 144.205 51.8935C144.21 51.7437 144.214 51.6002 144.219 51.4637C144.228 51.3272 144.235 51.209 144.239 51.1087C144.248 51.0043 144.255 50.936 144.259 50.9039H144.232L141.998 54.6373H140.77V49.7642Z" fill="white"/>
<path d="M152.36 54.6373H151.199L149.451 52.1666V54.6373H148.432V49.7642H149.451V52.1256L151.179 49.7642H152.265L150.511 52.1053L152.36 54.6373Z" fill="white"/>
<path d="M155.68 53.2108C155.545 53.5203 155.401 53.7886 155.248 54.0163C155.099 54.2391 154.908 54.4099 154.674 54.528C154.44 54.6465 154.134 54.7055 153.756 54.7055C153.639 54.7055 153.511 54.6963 153.371 54.6782C153.232 54.6601 153.103 54.635 152.987 54.6033V53.7159C153.095 53.7613 153.214 53.7934 153.344 53.8115C153.475 53.8296 153.596 53.8388 153.709 53.8388C153.934 53.8388 154.096 53.7842 154.195 53.675C154.294 53.5613 154.372 53.4248 154.431 53.2654L152.764 49.7642H153.844L154.742 51.8732C154.773 51.9415 154.816 52.0393 154.87 52.1666C154.924 52.2894 154.964 52.3942 154.991 52.4806H155.025C155.052 52.3987 155.09 52.2917 155.14 52.1599C155.194 52.0278 155.241 51.912 155.282 51.8116L156.118 49.7642H157.171L155.68 53.2108Z" fill="white"/>
<path d="M162.012 54.6373H160.844L159.724 52.7946L158.603 54.6373H157.51L159.11 52.1256L157.611 49.7642H158.738L159.778 51.5183L160.797 49.7642H161.897L160.385 52.1802L162.012 54.6373Z" fill="white"/>
<path d="M166.906 54.6373H165.886V52.5352H163.976V54.6373H162.957V49.7642H163.976V51.6754H165.886V49.7642H166.906V54.6373Z" fill="white"/>
<path d="M168.456 49.7642H169.374V52.119C169.374 52.2326 169.372 52.3599 169.367 52.5012C169.363 52.6422 169.358 52.7809 169.354 52.9174C169.349 53.0495 169.345 53.1654 169.34 53.2654C169.336 53.361 169.331 53.427 169.327 53.4635H169.347L171.574 49.7642H172.796V54.6373H171.885V52.2964C171.885 52.1736 171.887 52.0393 171.892 51.8935C171.896 51.7437 171.901 51.6002 171.905 51.4637C171.914 51.3272 171.921 51.209 171.925 51.1087C171.934 51.0043 171.941 50.936 171.946 50.9039H171.919L169.685 54.6373H168.456V49.7642Z" fill="white"/>
</g>
<defs>
<clipPath id="clip0_20_1466">
<rect width="173" height="55.8777" fill="white" transform="translate(0 0.47876)"/>
</clipPath>
</defs>
</svg>
