<?xml version="1.0" encoding="utf-8"?><svg xmlns="http://www.w3.org/2000/svg" xmlns:xlink="http://www.w3.org/1999/xlink"><symbol viewBox="0 0 24 24" id="alert" xmlns="http://www.w3.org/2000/svg"><g data-name="Layer 2"><path d="M12 2a10 10 0 1 0 10 10A10 10 0 0 0 12 2zm0 15a1 1 0 1 1 1-1 1 1 0 0 1-1 1zm1-4a1 1 0 0 1-2 0V8a1 1 0 0 1 2 0z" data-name="alert-circle"/></g></symbol><symbol viewBox="0 0 48 48" id="arrow-clockwise" xmlns="http://www.w3.org/2000/svg"><path d="M8.532 15.88a17.846 17.846 0 0 1 7.83-7.957A17.412 17.412 0 0 1 27.304 6.26a17.59 17.59 0 0 1 9.774 5.28 18.134 18.134 0 0 1 4.776 10.158 18.272 18.272 0 0 1-2.088 11.06 17.808 17.808 0 0 1-8.138 7.63 17.4 17.4 0 0 1-11 1.216c-3.7-.802-6.732-2.626-9.24-5.51-.302-.32-1.47-1.612-2.44-3.562"/><path d="M17.861 32.373 7.781 30.56 6 40.82"/></symbol><symbol viewBox="0 0 36 36" id="arrow-down" xmlns="http://www.w3.org/2000/svg"><path d="M36 18a18 18 0 1 1-36 0 18 18 0 0 1 36 0Zm-16.875-7.875a1.125 1.125 0 1 0-2.25 0v13.034l-4.829-4.83a1.127 1.127 0 0 0-1.592 1.593l6.75 6.75a1.124 1.124 0 0 0 1.593 0l6.75-6.75a1.127 1.127 0 0 0-1.594-1.594l-4.828 4.831V10.125Z"/></symbol><symbol viewBox="0 0 14 10" id="arrow-r" xmlns="http://www.w3.org/2000/svg"><path d="M13 5H.5M13 5 9 1l4 4Zm0 0L9 9l4-4Z"/></symbol><symbol class="aebi aebi-arrow-right-square-fill" viewBox="0 0 16 16" id="arrow-right-solid" xmlns="http://www.w3.org/2000/svg"><path d="M0 14a2 2 0 0 0 2 2h12a2 2 0 0 0 2-2V2a2 2 0 0 0-2-2H2a2 2 0 0 0-2 2v12zm4.5-6.5h5.793L8.146 5.354a.5.5 0 1 1 .708-.708l3 3a.5.5 0 0 1 0 .708l-3 3a.5.5 0 0 1-.708-.708L10.293 8.5H4.5a.5.5 0 0 1 0-1z"/></symbol><symbol viewBox="0 0 32 32" id="bars" xmlns="http://www.w3.org/2000/svg"><path d="M7 12.7h4.071V26H7V12.7ZM14.6 7h3.8v19h-3.8V7Zm7.6 10.857H26V26h-3.8v-8.143Z"/></symbol><symbol viewBox="0 0 32 32" id="basket" xmlns="http://www.w3.org/2000/svg"><path fill-rule="evenodd" clip-rule="evenodd" d="M8.411 24.8c0-1.21.979-2.2 2.189-2.2s2.2.99 2.2 2.2c0 1.21-.99 2.2-2.2 2.2-1.21 0-2.189-.99-2.189-2.2ZM4 7.2V5h3.597l1.034 2.2H24.9a1.103 1.103 0 0 1 .968 1.628l-3.938 7.139a2.19 2.19 0 0 1-1.925 1.133H11.81l-.99 1.793-.033.132c0 .154.121.275.275.275H23.8v2.2H10.6c-1.21 0-2.2-.99-2.2-2.2 0-.385.099-.748.275-1.056l1.485-2.695L6.2 7.2H4Zm15.411 17.6c0-1.21.979-2.2 2.189-2.2s2.2.99 2.2 2.2c0 1.21-.99 2.2-2.2 2.2-1.21 0-2.189-.99-2.189-2.2ZM16 8v3h-3v1h3v3h1v-3h3v-1h-3V8h-1Z"/></symbol><symbol viewBox="0 0 24 24" id="basket-small" xmlns="http://www.w3.org/2000/svg"><path fill-rule="evenodd" clip-rule="evenodd" d="M6.308 18.6c0-.908.735-1.65 1.642-1.65.907 0 1.65.742 1.65 1.65 0 .907-.742 1.65-1.65 1.65a1.648 1.648 0 0 1-1.642-1.65ZM3 5.4V3.75h2.698l.775 1.65h12.202a.827.827 0 0 1 .726 1.221l-2.953 5.354c-.281.512-.825.85-1.444.85H8.858l-.743 1.345-.025.099c0 .115.091.206.207.206h9.553v1.65h-9.9c-.907 0-1.65-.742-1.65-1.65 0-.289.074-.561.206-.792l1.114-2.021L4.65 5.4H3Zm11.558 13.2c0-.908.735-1.65 1.642-1.65.908 0 1.65.742 1.65 1.65 0 .907-.742 1.65-1.65 1.65a1.648 1.648 0 0 1-1.642-1.65ZM11.875 6v2.125H9.75v1h2.125v2.125h1V9.125H15v-1h-2.125V6h-1Z"/></symbol><symbol fill-rule="evenodd" stroke-linejoin="round" stroke-miterlimit="2" clip-rule="evenodd" viewBox="0 0 64 64" id="bill" xmlns="http://www.w3.org/2000/svg"><path d="M15 42V7.371A4.371 4.371 0 0 1 19.371 3H48a1 1 0 0 1 1 1v52.629a4.375 4.375 0 0 1-3.183 4.206 2 2 0 0 0-.452-2.297c-3.749-3.499-3.815-8.785-3.371-14.38A1.999 1.999 0 0 0 40 42H15Zm9-9h16a1 1 0 0 0 0-2H24a1 1 0 0 0 0 2Zm0-4h16a1 1 0 0 0 0-2H24a1 1 0 0 0 0 2Zm0-4h16a1 1 0 0 0 0-2H24a1 1 0 0 0 0 2Zm0-4h16a1 1 0 0 0 0-2H24a1 1 0 0 0 0 2Zm4-8h8a1 1 0 0 0 0-2h-8a1 1 0 0 0 0 2Z"/><path d="M40.997 44.079A1.002 1.002 0 0 0 40 43H8a1 1 0 0 0-1 1v8.002A8.999 8.999 0 0 0 15.998 61H44a.999.999 0 0 0 .682-1.731c-3.967-3.703-4.154-9.269-3.685-15.19Z"/><path d="M8 52.002A7.998 7.998 0 0 0 15.998 60h27.829c-.001-.068.046-.119.173 0-4.167-3.889-4.492-9.699-4.006-15.914-.067-.018-.155-.086.006-.086H8v8.002zM49.827 3.186C53.922 4.031 57 7.656 57 12v8a1 1 0 0 1-1 1h-6V4c0-.29-.062-.565-.173-.814z"/></symbol><symbol viewBox="0 0 24 24" id="btnLike" xmlns="http://www.w3.org/2000/svg"><path d="m12.5 20.34-.271.266a.38.38 0 0 0 .543 0l-.272-.266Zm-7.77-7.933-.272.266.271-.266Zm15.54 0 .272.266-.271-.266Zm-9.027-6.65-.271.266.271-.266ZM12.5 7.04l-.271.266a.38.38 0 0 0 .543 0L12.5 7.04Zm1.257-1.283-.272-.266.272.266Zm-.986 14.317-7.77-7.933-.543.532 7.77 7.933.543-.532ZM20 12.141l-7.77 7.933.543.532 7.77-7.933-.543-.532Zm-9.027-6.118 1.257 1.283.543-.532-1.257-1.283-.543.532Zm1.8 1.283 1.256-1.283-.543-.532-1.256 1.283.543.532ZM17.014 4a4.94 4.94 0 0 0-3.529 1.491l.543.532a4.179 4.179 0 0 1 2.986-1.263V4Zm4.226 5.082c0 1.149-.447 2.25-1.24 3.06l.542.531A5.133 5.133 0 0 0 22 9.083h-.76Zm.76 0C22 6.282 19.775 4 17.014 4v.76c2.326 0 4.226 1.928 4.226 4.322H22ZM7.986 4.76a4.18 4.18 0 0 1 2.986 1.263l.543-.532A4.94 4.94 0 0 0 7.986 4v.76ZM3.76 9.082c0-2.394 1.9-4.322 4.226-4.322V4C5.226 4 3 6.283 3 9.082h.76ZM5 12.142a4.372 4.372 0 0 1-1.24-3.06H3a5.13 5.13 0 0 0 1.458 3.591L5 12.141Z"/></symbol><symbol viewBox="0 0 36 36" id="calendar-filled" xmlns="http://www.w3.org/2000/svg"><path d="M3.938 30.938c0 .622.502 1.125 1.124 1.125h25.875c.623 0 1.125-.503 1.125-1.126V16.172H3.939v14.765Zm27-24.47H25.03v-2.25a.282.282 0 0 0-.281-.28H22.78a.282.282 0 0 0-.281.28v2.25h-9v-2.25a.282.282 0 0 0-.281-.28H11.25a.282.282 0 0 0-.281.28v2.25H5.063c-.623 0-1.125.503-1.125 1.126v6.187h28.125V7.594c0-.623-.503-1.125-1.126-1.125Z"/></symbol><symbol viewBox="0 0 48 48" id="call" xmlns="http://www.w3.org/2000/svg"><path d="M33.633 20.73h-2.346a3.523 3.523 0 0 0-3.52-3.518v-2.347a5.873 5.873 0 0 1 5.866 5.866Z"/><path d="M38.325 20.73H35.98a8.221 8.221 0 0 0-8.211-8.21v-2.347a10.569 10.569 0 0 1 10.557 10.558Zm-8.993 9.95 2.627-2.627a2.542 2.542 0 0 1 2.742-.563l3.2 1.28a2.542 2.542 0 0 1 1.598 2.361v5.82a2.543 2.543 0 0 1-2.68 2.544C14.388 38.099 9.858 19.1 9.016 11.825A2.537 2.537 0 0 1 11.543 9h5.717a2.542 2.542 0 0 1 2.36 1.598l1.28 3.2a2.542 2.542 0 0 1-.563 2.741l-2.628 2.628s1.457 10.243 11.623 11.514Z"/></symbol><symbol viewBox="0 0 32 32" id="cart" xmlns="http://www.w3.org/2000/svg"><path d="M10.267 22.6c-1.21 0-2.19.99-2.19 2.2 0 1.21.98 2.2 2.19 2.2s2.2-.99 2.2-2.2c0-1.21-.99-2.2-2.2-2.2ZM3.667 5v2.2h2.2l3.96 8.349-1.485 2.695a2.127 2.127 0 0 0-.275 1.056c0 1.21.99 2.2 2.2 2.2h13.2v-2.2H10.729a.272.272 0 0 1-.275-.275l.033-.132.99-1.793h8.195a2.19 2.19 0 0 0 1.925-1.133l3.938-7.139a1.103 1.103 0 0 0-.968-1.628H8.297L7.265 5H3.667Zm17.6 17.6c-1.21 0-2.19.99-2.19 2.2 0 1.21.98 2.2 2.19 2.2s2.2-.99 2.2-2.2c0-1.21-.99-2.2-2.2-2.2Z"/></symbol><symbol viewBox="0 0 48 48" id="chart" xmlns="http://www.w3.org/2000/svg"><path d="M6.262 10.435A4.435 4.435 0 0 1 10.697 6h26.608a4.435 4.435 0 0 1 4.435 4.435v17.739a4.435 4.435 0 0 1-4.435 4.434h-5.543a2.217 2.217 0 0 0-1.774.887l-4.213 5.617a2.217 2.217 0 0 1-3.548 0l-4.213-5.617a2.217 2.217 0 0 0-1.774-.886h-5.543a4.435 4.435 0 0 1-4.435-4.435v-17.74Zm15.951 6.133a3.749 3.749 0 0 0-.503-.603 3.252 3.252 0 0 0-1.04-.719l-.018-.008a3.959 3.959 0 0 0-1.676-.368c-2.124 0-3.845 1.654-3.845 3.696 0 2.04 1.72 3.694 3.845 3.694.76 0 1.468-.21 2.065-.577-.304.863-.865 1.783-1.797 2.706a.899.899 0 0 0 .025 1.308.993.993 0 0 0 1.361-.022c2.958-2.947 3.038-6.116 2.087-8.218a5.464 5.464 0 0 0-.503-.887v-.002Zm8.44 5.115c-.302.863-.865 1.783-1.796 2.706a.9.9 0 0 0 .026 1.308.99.99 0 0 0 1.36-.022c2.958-2.947 3.037-6.116 2.088-8.218-.14-.31-.31-.608-.505-.887a3.74 3.74 0 0 0-.503-.605 3.25 3.25 0 0 0-1.04-.719l-.018-.008a3.958 3.958 0 0 0-1.674-.368c-2.122 0-3.845 1.654-3.845 3.696 0 2.04 1.723 3.694 3.845 3.694.76 0 1.468-.21 2.064-.577h-.002Z"/></symbol><symbol viewBox="0 0 17 17" id="check" xmlns="http://www.w3.org/2000/svg"><path d="M3 10.174 8 14l6-11"/></symbol><symbol viewBox="0 0 15 9" id="chevron-bot" xmlns="http://www.w3.org/2000/svg"><path d="M14 1 7.5 8 1 1"/></symbol><symbol viewBox="0 0 13 8" id="chevron-down" xmlns="http://www.w3.org/2000/svg"><path fill-rule="evenodd" clip-rule="evenodd" d="M6.071 7.286 0 1.214 1.214 0l4.857 4.857L10.928 0l1.214 1.214-4.857 4.857-1.214 1.215Z"/></symbol><symbol viewBox="0 0 5 8" id="chevron-left" xmlns="http://www.w3.org/2000/svg"><path d="M4 1 1 4l3 3"/></symbol><symbol viewBox="0 0 6 8" id="chevron-right" xmlns="http://www.w3.org/2000/svg"><path d="m1.5 7 3-3-3-3"/></symbol><symbol viewBox="0 0 36 36" id="chevron-right-lg" xmlns="http://www.w3.org/2000/svg"><path d="m13.666 28 10-10-10-10"/></symbol><symbol viewBox="0 0 15 9" id="chevron-top" xmlns="http://www.w3.org/2000/svg"><path d="m1 8 6.5-7L14 8"/></symbol><symbol viewBox="0 0 48 48" id="clock" xmlns="http://www.w3.org/2000/svg"><path d="M24 10c-7.731 0-14 6.269-14 14s6.269 14 14 14 14-6.269 14-14-6.269-14-14-14Zm5.516 18.303-.894 1.219a.252.252 0 0 1-.262.095.25.25 0 0 1-.088-.042l-5.169-3.769a.248.248 0 0 1-.103-.203V17a.25.25 0 0 1 .25-.25h1.503a.25.25 0 0 1 .25.25v7.734l4.456 3.222a.246.246 0 0 1 .057.347Z"/></symbol><symbol viewBox="0 0 16 16" id="clock-solid" xmlns="http://www.w3.org/2000/svg"><path d="M7.993 1.333A6.663 6.663 0 0 0 1.333 8c0 3.68 2.98 6.667 6.66 6.667A6.67 6.67 0 0 0 14.667 8a6.67 6.67 0 0 0-6.674-6.667Zm.007 12A5.332 5.332 0 0 1 2.667 8 5.332 5.332 0 0 1 8 2.667 5.332 5.332 0 0 1 13.333 8 5.332 5.332 0 0 1 8 13.333Z"/><path d="M8.333 4.667h-1v4l3.5 2.1.5-.82-3-1.78v-3.5Z"/></symbol><symbol viewBox="0 0 36 36" id="community" xmlns="http://www.w3.org/2000/svg"><path d="M16.125 29.25s-1.875 0-1.875-1.875 1.875-7.5 9.375-7.5S33 25.5 33 27.375s-1.875 1.875-1.875 1.875h-15Zm7.5-11.25a5.625 5.625 0 1 0 0-11.25 5.625 5.625 0 0 0 0 11.25Z"/><path fill-rule="evenodd" clip-rule="evenodd" d="M12.78 29.25a4.195 4.195 0 0 1-.405-1.875c0-2.54 1.275-5.156 3.63-6.975a11.86 11.86 0 0 0-3.63-.525c-7.5 0-9.375 5.625-9.375 7.5s1.875 1.875 1.875 1.875h7.905Z"/><path d="M11.438 18a4.688 4.688 0 1 0 0-9.376 4.688 4.688 0 0 0 0 9.376Z"/></symbol><symbol viewBox="0 0 32 32" id="compare" xmlns="http://www.w3.org/2000/svg"><path d="M7.5 13.2h3.071v12.3H7.5V13.2Zm7.6-5.7h2.8v18h-2.8v-18Zm7.6 10.857h2.8V25.5h-2.8v-7.143Z"/></symbol><symbol viewBox="0 0 30 8" id="contact-info-arrow" xmlns="http://www.w3.org/2000/svg"><path d="m26.291 7 3-3-3-3M29.291 4.092H.447"/></symbol><symbol viewBox="0 0 36 36" id="credit-card-fill" xmlns="http://www.w3.org/2000/svg"><path d="M3 10.667c0-.973.395-1.905 1.098-2.593A3.794 3.794 0 0 1 6.75 7h22.5c.995 0 1.948.386 2.652 1.074A3.626 3.626 0 0 1 33 10.667V12.5H3v-1.833Zm0 5.5v9.166c0 .973.395 1.905 1.098 2.593A3.794 3.794 0 0 0 6.75 29h22.5c.995 0 1.948-.386 2.652-1.074A3.626 3.626 0 0 0 33 25.333v-9.166H3Zm5.625 3.666H10.5c.497 0 .974.194 1.326.537.351.344.549.81.549 1.297V23.5c0 .486-.197.953-.55 1.296a1.897 1.897 0 0 1-1.325.537H8.625c-.497 0-.974-.193-1.326-.537A1.813 1.813 0 0 1 6.75 23.5v-1.833c0-.487.198-.953.55-1.297a1.897 1.897 0 0 1 1.325-.537Z"/></symbol><symbol viewBox="0 0 8 8" id="cross" xmlns="http://www.w3.org/2000/svg"><path d="m4 4.733 3.115 3.115a.518.518 0 1 0 .733-.733L4.733 4 7.848.885a.518.518 0 1 0-.733-.733L4 3.267.885.152a.518.518 0 1 0-.733.733L3.267 4 .152 7.115a.517.517 0 0 0 0 .733c.202.203.53.203.733 0L4 4.733Z"/></symbol><symbol viewBox="0 0 24 24" id="delete" xmlns="http://www.w3.org/2000/svg"><path d="M6.857 17.444C6.857 18.3 7.63 19 8.571 19h6.858c.942 0 1.714-.7 1.714-1.556V8.111H6.857v9.333ZM18 5.778h-3L14.143 5H9.857L9 5.778H6v1.555h12V5.778Z"/></symbol><symbol viewBox="0 0 16 16" id="disLike" xmlns="http://www.w3.org/2000/svg"><path d="M4 9.775h-.5v.146l.078.123.422-.27Zm2.698 4.24.421-.27-.421.27Zm2.667-1.51-.448.223.448-.224ZM8 9.774v-.5a.5.5 0 0 0-.447.724L8 9.775Zm7-5h.5v-.167l-.1-.133-.4.3Zm-2.4-3.2.4-.3-.4.3ZM8.782 14.506l.257.429-.257-.429ZM1.5 10.276v-10h-1v10h1Zm2.078-.232 2.698 4.239.843-.537-2.697-4.24-.844.537Zm6.234 2.236L8.447 9.552 7.553 10l1.364 2.729.895-.447ZM8 10.276h5v-1H8v1Zm7.5-2.5v-3h-1v3h1Zm-.1-3.3-2.4-3.2-.8.6 2.4 3.2.8-.6ZM11 .275H6v1h5v-1Zm-7.5 2.5v7h1v-7h-1Zm9.5 7.5a2.5 2.5 0 0 0 2.5-2.5h-1a1.5 1.5 0 0 1-1.5 1.5v1Zm-7-10a2.5 2.5 0 0 0-2.5 2.5h1a1.5 1.5 0 0 1 1.5-1.5v-1Zm3.039 14.66a2.034 2.034 0 0 0 .773-2.655l-.895.448c.242.483.07 1.071-.393 1.35l.515.857ZM13 1.275a2.5 2.5 0 0 0-2-1v1a1.5 1.5 0 0 1 1.2.6l.8-.6ZM6.276 14.283a2.035 2.035 0 0 0 2.763.652l-.515-.858a1.035 1.035 0 0 1-1.405-.331l-.843.537Z"/></symbol><symbol viewBox="0 0 16 16" id="dots" xmlns="http://www.w3.org/2000/svg"><circle cx="5" cy="8" r="1"/><circle cx="8" cy="8" r="1"/><circle cx="11" cy="8" r="1"/></symbol><symbol viewBox="0 0 56 56" id="down-scroll" xmlns="http://www.w3.org/2000/svg"><path d="M54 15 28 41 2 15"/></symbol><symbol viewBox="0 0 25 24" id="download" xmlns="http://www.w3.org/2000/svg"><g clip-path="url(#bga)"><path d="M19.85 10.04A7.49 7.49 0 0 0 12.5 4C9.61 4 7.1 5.64 5.85 8.04A5.994 5.994 0 0 0 .5 14c0 3.31 2.69 6 6 6h13c2.76 0 5-2.24 5-5 0-2.64-2.05-4.78-4.65-4.96ZM17.5 13l-5 5-5-5h3V9h4v4h3Z"/></g><defs><clipPath id="bga"><path transform="translate(.5)" d="M0 0h24v24H0z"/></clipPath></defs></symbol><symbol viewBox="0 0 25 24" id="download2" xmlns="http://www.w3.org/2000/svg"><g clip-path="url(#bha)"><path d="M19.85 10.04A7.49 7.49 0 0 0 12.5 4C9.61 4 7.1 5.64 5.85 8.04A5.994 5.994 0 0 0 .5 14c0 3.31 2.69 6 6 6h13c2.76 0 5-2.24 5-5 0-2.64-2.05-4.78-4.65-4.96ZM17.5 13l-5 5-5-5h3V9h4v4h3Z"/></g><defs><clipPath id="bha"><path transform="translate(.5)" d="M0 0h24v24H0z"/></clipPath></defs></symbol><symbol viewBox="0 0 32 32" id="drop-arrow" xmlns="http://www.w3.org/2000/svg"><path d="m12 13.333 4 4 4-4"/></symbol><symbol viewBox="0 0 48 48" id="email" xmlns="http://www.w3.org/2000/svg"><path d="M39.49 11.011a2.164 2.164 0 0 0-.443 0H8.744a2.164 2.164 0 0 0-.574.087l15.639 15.574 15.682-15.66Z"/><path d="M41.093 12.516 25.335 28.209a2.164 2.164 0 0 1-3.052 0L6.666 12.635a2.165 2.165 0 0 0-.076.54v21.646a2.165 2.165 0 0 0 2.164 2.165h30.304a2.165 2.165 0 0 0 2.165-2.165V13.176a2.163 2.163 0 0 0-.13-.66ZM10.237 34.82H8.733v-1.547L16.6 25.47l1.526 1.526-7.89 7.824Zm28.8 0H37.52l-7.89-7.824 1.526-1.526 7.869 7.803.01 1.547Z"/></symbol><symbol viewBox="0 0 32 32" id="favorite" xmlns="http://www.w3.org/2000/svg"><path d="M15.465 23.34c-2.457-2.3-4.456-4.172-5.847-5.928C8.234 15.664 7.5 14.09 7.5 12.395c0-2.76 2.09-4.895 4.725-4.895 1.495 0 2.943.721 3.89 1.868l.385.468.386-.468c.946-1.147 2.393-1.868 3.889-1.868 2.635 0 4.725 2.135 4.725 4.895 0 1.695-.734 3.27-2.119 5.019-1.388 1.754-3.383 3.626-5.834 5.926l-.01.01h-.002l-1.034.965-1.036-.974Z"/></symbol><symbol viewBox="0 0 24 24" id="fb" xmlns="http://www.w3.org/2000/svg"><path d="M13.397 20.997v-8.196h2.765l.411-3.209h-3.176V7.548c0-.926.258-1.56 1.587-1.56h1.684v-2.86A22.108 22.108 0 0 0 14.201 3c-2.444 0-4.122 1.492-4.122 4.231v2.355H7.332v3.21h2.753v8.201h3.312Z"/></symbol><symbol viewBox="0 0 32 32" id="fbsvg" xmlns="http://www.w3.org/2000/svg"><g clip-path="url(#bma)"><rect width="32" height="32" rx="5"/><path d="M5.843 0A5.83 5.83 0 0 0 0 5.843v20.314A5.83 5.83 0 0 0 5.843 32h11.01V19.49h-3.308v-4.504h3.308v-3.848c0-3.023 1.955-5.799 6.457-5.799 1.823 0 3.171.175 3.171.175l-.106 4.206S25 9.707 23.5 9.707c-1.624 0-1.884.748-1.884 1.99v3.289h4.888l-.213 4.504h-4.675V32h4.541A5.83 5.83 0 0 0 32 26.157V5.843A5.83 5.83 0 0 0 26.157 0H5.843Z"/></g><defs><clipPath id="bma"><rect width="32" height="32" rx="5"/></clipPath></defs></symbol><symbol viewBox="0 0 36 36" id="growth" xmlns="http://www.w3.org/2000/svg"><path d="M4 23.643a1.964 1.964 0 0 1 1.964-1.964h3.929a1.964 1.964 0 0 1 1.964 1.964v5.893A1.964 1.964 0 0 1 9.893 31.5H5.964A1.965 1.965 0 0 1 4 29.536v-5.893Zm9.821-7.857a1.964 1.964 0 0 1 1.965-1.965h3.928a1.964 1.964 0 0 1 1.965 1.965v13.75a1.964 1.964 0 0 1-1.965 1.964h-3.928a1.964 1.964 0 0 1-1.965-1.964v-13.75Zm9.822-9.822A1.964 1.964 0 0 1 25.607 4h3.929A1.964 1.964 0 0 1 31.5 5.964v23.572a1.965 1.965 0 0 1-1.964 1.964h-3.929a1.965 1.965 0 0 1-1.964-1.964V5.964Z"/></symbol><symbol viewBox="0 0 49 40" id="icon-dolyamy" xmlns="http://www.w3.org/2000/svg"><path d="M0 6h7v34H0zm14-2h7v34h-7zm14-2h7v34h-7zm14-2h7v34h-7z"/></symbol><symbol viewBox="0 0 36 36" id="icon-news" xmlns="http://www.w3.org/2000/svg"><path d="M29.813 4.5H6.188C4.43 4.5 3 5.846 3 7.5v21c0 1.654 1.43 3 3.188 3h23.625c1.758 0 3.187-1.346 3.187-3v-21c0-1.654-1.43-3-3.188-3Zm0 24H6.188c-.086 0-.144-.024-.17-.024-.01 0-.016.003-.018.012L5.982 7.569c.01-.015.078-.069.205-.069h23.625c.119.002.183.042.188.012l.018 20.919c-.01.015-.078.069-.206.069Z"/><path d="M9 10.5h9v9H9v-9Zm10.5 12H9v3h18v-3h-7.5Zm1.5-6h6v3h-6v-3Zm0-6h6v3h-6v-3Z"/></symbol><symbol viewBox="0 0 36 36" id="icon-question" xmlns="http://www.w3.org/2000/svg"><path d="M18 1C8.612 1 1 8.612 1 18s7.612 17 17 17 17-7.612 17-17S27.388 1 18 1Zm0 31.116c-7.794 0-14.116-6.322-14.116-14.116S10.206 3.884 18 3.884 32.116 10.206 32.116 18 25.794 32.116 18 32.116Z"/><path d="M22.234 10.59c-1.138-.999-2.641-1.545-4.235-1.545-1.594 0-3.096.55-4.235 1.544-1.184 1.036-1.836 2.429-1.836 3.92v.288c0 .167.136.304.303.304h1.822a.304.304 0 0 0 .303-.304v-.288c0-1.674 1.636-3.036 3.643-3.036 2.008 0 3.643 1.362 3.643 3.036 0 1.18-.835 2.261-2.129 2.759a4.242 4.242 0 0 0-1.977 1.552 4.344 4.344 0 0 0-.755 2.462v.816c0 .167.137.304.304.304h1.821a.305.305 0 0 0 .304-.304v-.861a1.832 1.832 0 0 1 1.172-1.7c2.239-.861 3.685-2.835 3.685-5.028.004-1.491-.65-2.884-1.833-3.92Zm-5.753 15.758a1.518 1.518 0 1 0 3.035 0 1.518 1.518 0 0 0-3.035 0Z"/></symbol><symbol viewBox="0 0 48 48" id="income-call" xmlns="http://www.w3.org/2000/svg"><path d="m29 30.325 2.585-2.584a2.5 2.5 0 0 1 2.696-.554l3.148 1.26a2.501 2.501 0 0 1 1.572 2.321v5.724a2.501 2.501 0 0 1-2.636 2.503c-22.063-1.373-26.52-20.06-27.347-27.217A2.494 2.494 0 0 1 11.504 9h5.622a2.5 2.5 0 0 1 2.322 1.572l1.258 3.147a2.5 2.5 0 0 1-.553 2.697L17.568 19S19.001 29.076 29 30.325Z"/><path d="M36.694 20.538v-2.307h-5.292l7.6-7.6L37.37 9l-7.6 7.6v-5.292h-2.307v9.23h9.23Z"/></symbol><symbol viewBox="0 0 48 48" id="info" xmlns="http://www.w3.org/2000/svg"><path d="M6 15.55C6 13.038 8.016 11 10.5 11h27c2.484 0 4.5 2.038 4.5 4.55v16.9a4.576 4.576 0 0 1-1.318 3.217A4.475 4.475 0 0 1 37.5 37h-27a4.475 4.475 0 0 1-3.182-1.333A4.576 4.576 0 0 1 6 32.45v-16.9Zm10.957 7.706a3.456 3.456 0 0 0 2.467-1.033 3.532 3.532 0 0 0 1.022-2.495 3.564 3.564 0 0 0-1.022-2.495 3.456 3.456 0 0 0-4.935 0 3.548 3.548 0 0 0-1.022 2.495 3.55 3.55 0 0 0 1.022 2.495 3.47 3.47 0 0 0 2.468 1.033Zm-3.608 1.763c-.585 0-1.146.235-1.56.654a2.243 2.243 0 0 0-.646 1.577c0 .968.32 1.909.91 2.672a4.29 4.29 0 0 0 2.343 1.54l.136.036a9.878 9.878 0 0 0 4.85 0l.139-.033a4.29 4.29 0 0 0 2.343-1.54c.59-.764.91-1.704.91-2.672a2.252 2.252 0 0 0-.646-1.58 2.203 2.203 0 0 0-1.56-.654h-7.219ZM27.857 18.8c-.34 0-.668.137-.909.38a1.307 1.307 0 0 0 0 1.84c.241.243.568.38.91.38h7.713c.341 0 .668-.137.91-.38a1.307 1.307 0 0 0 0-1.84 1.279 1.279 0 0 0-.91-.38h-7.714Zm0 7.8c-.34 0-.668.137-.909.38a1.307 1.307 0 0 0 0 1.84c.241.243.568.38.91.38h7.713c.341 0 .668-.137.91-.38a1.307 1.307 0 0 0 0-1.84 1.279 1.279 0 0 0-.91-.38h-7.714Z"/></symbol><symbol viewBox="0 0 24 24" id="inst" xmlns="http://www.w3.org/2000/svg"><path d="M11.999 7.377a4.624 4.624 0 1 0 0 9.248 4.624 4.624 0 0 0 0-9.248Zm0 7.627a3.004 3.004 0 1 1 0-6.008 3.004 3.004 0 0 1 0 6.008Zm4.807-6.719a1.078 1.078 0 1 0 0-2.156 1.078 1.078 0 0 0 0 2.156Z"/><path d="M20.533 6.11A4.605 4.605 0 0 0 17.9 3.48a6.607 6.607 0 0 0-2.186-.42c-.963-.042-1.268-.054-3.71-.054s-2.755 0-3.71.054a6.554 6.554 0 0 0-2.184.42 4.6 4.6 0 0 0-2.633 2.63 6.585 6.585 0 0 0-.419 2.186c-.043.962-.056 1.267-.056 3.71 0 2.442 0 2.753.056 3.71.015.748.156 1.486.419 2.187a4.61 4.61 0 0 0 2.634 2.632 6.583 6.583 0 0 0 2.185.45c.963.042 1.268.055 3.71.055s2.755 0 3.71-.055a6.616 6.616 0 0 0 2.186-.42 4.613 4.613 0 0 0 2.633-2.632c.263-.7.404-1.438.419-2.186.043-.962.056-1.267.056-3.71s0-2.753-.056-3.71a6.583 6.583 0 0 0-.421-2.217Zm-1.218 9.533a5.046 5.046 0 0 1-.311 1.688 2.987 2.987 0 0 1-1.712 1.71c-.535.2-1.1.305-1.67.312-.95.044-1.218.055-3.654.055-2.438 0-2.687 0-3.655-.055a4.961 4.961 0 0 1-1.67-.311 2.984 2.984 0 0 1-1.718-1.711 5.08 5.08 0 0 1-.311-1.67c-.043-.95-.053-1.217-.053-3.653 0-2.437 0-2.686.053-3.655a5.038 5.038 0 0 1 .311-1.687c.305-.79.93-1.41 1.719-1.712a5.01 5.01 0 0 1 1.669-.311c.95-.043 1.218-.055 3.655-.055s2.687 0 3.654.055a4.96 4.96 0 0 1 1.67.31 2.99 2.99 0 0 1 1.712 1.713 5.06 5.06 0 0 1 .311 1.669c.043.95.054 1.218.054 3.655 0 2.436 0 2.698-.043 3.654h-.011v-.001Z"/></symbol><symbol viewBox="0 0 16 16" id="like" xmlns="http://www.w3.org/2000/svg"><path d="m4 6.225-.422-.268-.078.122v.146H4Zm2.698-4.24.421.27-.421-.27Zm2.667 1.51-.448-.223.448.224ZM8 6.226l-.447-.224A.5.5 0 0 0 8 6.725v-.5Zm7 5 .4.3.1-.133v-.167H15Zm-2.4 3.2.4.3-.4-.3ZM8.782 1.494l.257-.429-.257.429ZM.5 5.725v10h1v-10h-1Zm3.922.768 2.697-4.239-.843-.537-2.698 4.24.844.536Zm4.495-3.22L7.553 6l.894.448 1.365-2.73-.895-.447ZM8 6.724h5v-1H8v1Zm6.5 1.5v3h1v-3h-1Zm.1 2.7-2.4 3.2.8.6 2.4-3.2-.8-.6Zm-3.6 3.8H6v1h5v-1Zm-6.5-1.5v-7h-1v7h1Zm8.5-6.5a1.5 1.5 0 0 1 1.5 1.5h1a2.5 2.5 0 0 0-2.5-2.5v1Zm-7 8a1.5 1.5 0 0 1-1.5-1.5h-1a2.5 2.5 0 0 0 2.5 2.5v-1ZM8.524 1.923c.464.278.635.866.393 1.35l.895.446a2.034 2.034 0 0 0-.773-2.654l-.515.858ZM12.2 14.125a1.5 1.5 0 0 1-1.2.6v1a2.5 2.5 0 0 0 2-1l-.8-.6ZM7.12 2.255c.3-.474.924-.62 1.404-.332l.515-.858a2.034 2.034 0 0 0-2.763.652l.843.537Z"/></symbol><symbol viewBox="0 0 32 32" id="like2" xmlns="http://www.w3.org/2000/svg"><path d="m16.5 25-1.377-1.295C10.23 19.125 7 16.103 7 12.395 7 9.374 9.299 7 12.225 7c1.653 0 3.24.795 4.275 2.05C17.535 7.795 19.122 7 20.775 7 23.701 7 26 9.374 26 12.395c0 3.708-3.23 6.73-8.122 11.32L16.5 25Z"/></symbol><symbol viewBox="0 0 14 16" id="location" xmlns="http://www.w3.org/2000/svg"><path fill-rule="evenodd" clip-rule="evenodd" d="M7 0c3.866 0 7 3.1 7 6.924 0 2.53-2.117 5.206-6.262 8.12L7 15.557l-.445-.308C2.217 12.255 0 9.513 0 6.924 0 3.1 3.134 0 7 0Zm0 1.539c-3.007 0-5.444 2.41-5.444 5.385 0 1.869 1.786 4.149 5.444 6.75 3.658-2.601 5.444-4.881 5.444-6.75 0-2.974-2.437-5.385-5.444-5.385ZM7 3.11a3.111 3.111 0 1 1 0 6.222A3.111 3.111 0 0 1 7 3.11Zm0 1.556a1.556 1.556 0 1 0 0 3.11 1.556 1.556 0 0 0 0-3.11Z"/></symbol><symbol viewBox="0 0 16 17" id="map-pin" xmlns="http://www.w3.org/2000/svg"><path d="M14 7.227c0 4.455-6 8.273-6 8.273s-6-3.818-6-8.273c0-1.519.632-2.975 1.757-4.05A6.148 6.148 0 0 1 8 1.5a6.15 6.15 0 0 1 4.243 1.677A5.598 5.598 0 0 1 14 7.227Z"/><path d="M8 9.5a2 2 0 1 0 0-4 2 2 0 0 0 0 4Z"/></symbol><symbol viewBox="0 0 16 16" id="mapPin" xmlns="http://www.w3.org/2000/svg"><path d="M12 5.333c0-2.206-1.793-4-4-4s-4 1.794-4 4c0 3 4 7.334 4 7.334s4-4.334 4-7.334Zm-5.333 0C6.667 4.6 7.267 4 8 4s1.333.6 1.333 1.333a1.333 1.333 0 1 1-2.666 0Zm-3.334 8v1.334h9.334v-1.334H3.333Z"/></symbol><symbol viewBox="0 0 48 48" id="marker" xmlns="http://www.w3.org/2000/svg"><path d="M24 5c-7.732 0-14 6.413-14 14.324 0 2.646.506 5.378 1.959 7.348L24 43l12.041-16.328C37.361 24.883 38 21.72 38 19.324 38 11.414 31.732 5 24 5Zm0 8.296c3.253 0 5.892 2.7 5.892 6.028 0 3.329-2.639 6.028-5.892 6.028-3.253 0-5.892-2.7-5.892-6.028 0-3.328 2.639-6.028 5.892-6.028Z"/></symbol><symbol viewBox="0 0 16 16" id="padlock" xmlns="http://www.w3.org/2000/svg"><path d="M12.235 6.588V4.706A4.218 4.218 0 0 0 8 .47a4.218 4.218 0 0 0-4.235 4.235v1.882c-.8 0-1.412.612-1.412 1.412v6.118c0 .753.612 1.411 1.412 1.411h8.47c.8 0 1.412-.658 1.412-1.411V8c0-.8-.612-1.412-1.412-1.412Zm-7.53-1.882A3.274 3.274 0 0 1 8 1.412a3.274 3.274 0 0 1 3.294 3.294v1.882H4.706V4.706Zm3.766 6.965v1.035c0 .282-.189.47-.471.47s-.47-.188-.47-.47V11.67a1.37 1.37 0 0 1-.942-1.318c0-.8.612-1.412 1.412-1.412.8 0 1.412.612 1.412 1.412a1.37 1.37 0 0 1-.941 1.318Z"/></symbol><symbol viewBox="0 0 36 36" id="park-solid-bill" xmlns="http://www.w3.org/2000/svg"><mask id="cba" maskUnits="userSpaceOnUse" x="7" y="2" width="22" height="32"><path d="M7.5 4.5A1.5 1.5 0 0 1 9 3h18a1.5 1.5 0 0 1 1.5 1.5V33l-5.25-3.75L18 33l-5.25-3.75L7.5 33V4.5Z" stroke-linecap="round" stroke-linejoin="round"/><path d="M13.5 16.5h9Zm0 6h9Zm0-12h9Z"/><path d="M13.5 16.5h9m-9 6h9m-9-12h9" stroke-linecap="round" stroke-linejoin="round"/></mask><g mask="url(#cba)"><path d="M0 0h36v36H0V0Z"/><path d="M12.24 9.08a1 1 0 1 0 0 2v-2Zm11.52 2a1 1 0 1 0 0-2v2Zm-11.52 0h11.52v-2H12.24v2Zm0 1.6a1 1 0 1 0 0 2v-2Zm11.52 2a1 1 0 1 0 0-2v2Zm-11.52 0h11.52v-2H12.24v2Zm0 1.6a1 1 0 1 0 0 2v-2Zm11.52 2a1 1 0 1 0 0-2v2Zm-11.52 0h11.52v-2H12.24v2Zm0 1.6a1 1 0 1 0 0 2v-2Zm11.52 2a1 1 0 1 0 0-2v2Zm-11.52 0h11.52v-2H12.24v2Z"/></g></symbol><symbol viewBox="0 0 48 48" id="parking" xmlns="http://www.w3.org/2000/svg"><path d="M40.5 3h-33A4.501 4.501 0 0 0 3 7.5v33C3 42.984 5.016 45 7.5 45h33c2.484 0 4.5-2.016 4.5-4.5v-33C45 5.016 42.984 3 40.5 3Zm-15 27H21v4.5c0 .825-.675 1.5-1.5 1.5h-3c-.825 0-1.5-.675-1.5-1.5v-21c0-.825.675-1.5 1.5-1.5h9c4.96 0 9 4.04 9 9s-4.04 9-9 9Zm0-12H21v6h4.5c1.65 0 3-1.35 3-3s-1.35-3-3-3Z"/></symbol><symbol viewBox="0 0 22 16" id="pay-1" xmlns="http://www.w3.org/2000/svg"><path d="M0 0v16h22V0H0Zm20.927 1.067v1.6H1.073v-1.6h19.854Zm0 2.666v1.6H1.073v-1.6h19.854Zm-19.854 11.2V6.4h19.854v8.533H1.073Z"/><path d="M16.846 9c-.478 0-.703.244-1.077.5-.366-.252-1.123-.5-1.615-.5C12.948 9 12 9.897 12 11s.948 2 2.154 2c.492 0 1.25-.248 1.615-.5.374.256.6.5 1.077.5C18.052 13 19 12.103 19 11s-.948-2-2.154-2Zm-2.692 3c-.483 0-1.077-.559-1.077-1 0-.441.594-1 1.077-1s1.077.559 1.077 1c0 .441-.594 1-1.077 1Zm2.692 0c-.204 0-.386-.387-.538-.5.07-.197 0-.282 0-.5 0-.218.07-.303 0-.5.152-.113.334-.5.538-.5.483 0 1.077.559 1.077 1 0 .441-.594 1-1.077 1ZM3 12h6v1H3v-1Zm0-2h6v1H3v-1Z"/></symbol><symbol viewBox="0 0 24 24" id="pay-2" xmlns="http://www.w3.org/2000/svg"><path d="M.005 4.375a.39.39 0 0 1 .02-.104c.005-.012.008-.024.014-.037a.394.394 0 0 1 .08-.117l4-4a.4.4 0 0 1 .116-.08l.038-.013a.383.383 0 0 1 .103-.02C4.383.003 4.39 0 4.4 0h10.4a.4.4 0 0 1 .4.4V12h-.8V.8H4.8v3.6a.4.4 0 0 1-.4.4H.8v16h5.6v.8h-6a.4.4 0 0 1-.4-.4V4.4c0-.008.004-.016.005-.025ZM4 4V1.366L1.365 4H4Z"/><path d="M12.8 6.4H8a.4.4 0 0 1-.4-.4V3.2a.4.4 0 0 1 .274-.38l2.4-.8a.4.4 0 0 1 .252 0l2.4.8a.4.4 0 0 1 .274.38V6a.4.4 0 0 1-.4.4Zm-.4-2h-.8v1.2h.8V4.4Zm-2.4 0v1.2h.8V4.4H10Zm-.8 1.2V4.4h-.8v1.2h.8Zm3.2-2.112-2-.667-2 .667V3.6h4v-.112ZM13.2 12H6.4v8h-4a.4.4 0 0 1-.4-.4V8.4a.4.4 0 0 1 .4-.4h10.4c.22 0 .4.18.4.4V12Zm-.8-.8v-.8h-6v.8h6Zm-6.8-.8H2.8v.8h2.8v-.8ZM2.8 12v.8h2.8V12H2.8Zm2.8 4.8H2.8v.8h2.8v-.8Zm0-.8v-.8H2.8v.8h2.8Zm0-1.6v-.8H2.8v.8h2.8Zm0 4.8v-.8H2.8v.8h2.8ZM2.8 8.8v.8h2.8v-.8H2.8Zm3.6 0v.8h6v-.8h-6Zm.4-3.2H2.4v.8h4.4v-.8Zm0-1.6H5.6v.8h1.2V4Z"/><path d="M7.365 12.825v10.54H21.77v-10.54H7.365Zm13.702.703v1.054h-13v-1.054h13Zm0 1.757v1.054h-13v-1.054h13Zm-13 7.377v-5.62h13v5.62h-13Z"/><path d="M18.607 18.447c-.311 0-.458.171-.702.35-.239-.176-.733-.35-1.054-.35a1.4 1.4 0 0 0-1.405 1.405 1.4 1.4 0 0 0 1.405 1.405c.321 0 .815-.174 1.054-.351.244.18.39.351.702.351a1.4 1.4 0 0 0 1.406-1.405 1.4 1.4 0 0 0-1.406-1.405Zm-1.756 2.108c-.315 0-.703-.393-.703-.703 0-.31.388-.703.703-.703.315 0 .702.393.702.703 0 .31-.387.703-.702.703Zm1.756 0c-.133 0-.251-.273-.35-.352.045-.138 0-.198 0-.351 0-.154.045-.213 0-.352.099-.078.217-.35.35-.35.315 0 .703.392.703.702 0 .31-.388.703-.703.703Zm-9.485 0h3.864v.702H9.122v-.703Zm0-1.757h3.864v.703H9.122v-.703Z"/></symbol><symbol viewBox="0 0 32 32" id="pay-icon" xmlns="http://www.w3.org/2000/svg"><path fill-rule="evenodd" clip-rule="evenodd" d="M27.2 4h-1.6v20h1.6V4Zm-8.8 1.602H20v19.2h-1.6v-19.2Zm-5.6 1.597h-1.6v18.4h1.6V7.2ZM5.6 8.801H4v17.6h1.6V8.8Z"/></symbol><symbol viewBox="0 0 24 24" id="phone" xmlns="http://www.w3.org/2000/svg"><path d="M15.692 10.616h-.923a1.386 1.386 0 0 0-1.385-1.385v-.923a2.31 2.31 0 0 1 2.308 2.308Z"/><path d="M17.538 10.616h-.923a3.235 3.235 0 0 0-3.23-3.231v-.923a4.159 4.159 0 0 1 4.153 4.154ZM14 14.53l1.034-1.033a1 1 0 0 1 1.078-.222l1.26.504a1 1 0 0 1 .628.929v2.29a1 1 0 0 1-1.054 1C8.12 17.45 6.337 9.975 6.006 7.111A.998.998 0 0 1 7.001 6H9.25a1 1 0 0 1 .928.629l.504 1.259a1 1 0 0 1-.222 1.078L9.428 10S10 14.03 14 14.53Z"/></symbol><symbol viewBox="0 0 16 16" id="phone-solid" xmlns="http://www.w3.org/2000/svg"><path d="M4.413 7.193a10.1 10.1 0 0 0 4.394 4.394l1.466-1.467c.18-.18.447-.24.68-.16a7.6 7.6 0 0 0 2.38.38c.367 0 .667.3.667.667v2.326c0 .367-.3.667-.667.667C7.073 14 2 8.927 2 2.667 2 2.3 2.3 2 2.667 2H5c.367 0 .667.3.667.667 0 .833.133 1.633.38 2.38a.669.669 0 0 1-.167.68L4.413 7.193Z"/></symbol><symbol viewBox="0 0 12 12" id="phoneCall" xmlns="http://www.w3.org/2000/svg"><path d="M9.692 4.616H8.77A1.386 1.386 0 0 0 7.384 3.23v-.923a2.31 2.31 0 0 1 2.308 2.308Z"/><path d="M11.538 4.616h-.923a3.235 3.235 0 0 0-3.23-3.231V.462a4.159 4.159 0 0 1 4.153 4.154ZM8 8.53l1.034-1.033a1 1 0 0 1 1.078-.222l1.26.504a1 1 0 0 1 .628.929v2.29a1 1 0 0 1-1.054 1C2.12 11.45.337 3.975.006 1.111A.998.998 0 0 1 1.001 0H3.25a1 1 0 0 1 .928.629l.504 1.259a1 1 0 0 1-.222 1.078L3.427 4S4 8.03 8 8.53Z"/></symbol><symbol viewBox="0 0 16 16" id="plus" xmlns="http://www.w3.org/2000/svg"><path d="M0 8h16M8 0v16V0Z"/></symbol><symbol viewBox="0 0 36 36" id="privilege" xmlns="http://www.w3.org/2000/svg"><path fill-rule="evenodd" clip-rule="evenodd" d="M18 3C9.716 3 3 9.716 3 18c0 8.284 6.716 15 15 15 8.284 0 15-6.716 15-15 0-8.284-6.716-15-15-15Zm1.364 20.454a1.363 1.363 0 1 1-2.728 0v-4.09h-4.09a1.363 1.363 0 1 1 0-2.728h4.09v-4.09a1.363 1.363 0 1 1 2.728 0v4.09h4.09a1.363 1.363 0 1 1 0 2.728h-4.09v4.09Z"/></symbol><symbol viewBox="0 0 48 48" id="recycle" xmlns="http://www.w3.org/2000/svg"><path d="M20 22h-5.798l.002-.018a9.912 9.912 0 0 1 1.504-3.574 10.108 10.108 0 0 1 4.4-3.622 9.797 9.797 0 0 1 1.876-.582c1.332-.27 2.704-.27 4.036 0a9.956 9.956 0 0 1 5.05 2.722l2.832-2.824a14.073 14.073 0 0 0-4.448-3.002 13.845 13.845 0 0 0-2.63-.816 14.158 14.158 0 0 0-5.638 0c-.902.185-1.784.459-2.632.818a14.08 14.08 0 0 0-6.16 5.068 13.956 13.956 0 0 0-2.108 5.01c-.056.27-.086.546-.126.82H4l8 8 8-8Zm8 4h5.798l-.002.016a9.952 9.952 0 0 1-4.206 6.276 9.887 9.887 0 0 1-3.574 1.504c-1.331.27-2.703.27-4.034 0a9.912 9.912 0 0 1-3.574-1.504 10.141 10.141 0 0 1-1.48-1.22L14.1 33.9a14.063 14.063 0 0 0 4.45 3c.848.36 1.734.634 2.63.816a14.14 14.14 0 0 0 5.636 0 14.062 14.062 0 0 0 8.79-5.89 13.949 13.949 0 0 0 2.106-5.006c.054-.27.086-.546.126-.82H44l-8-8-8 8Z"/></symbol><symbol viewBox="0 0 24 24" id="service" xmlns="http://www.w3.org/2000/svg"><path d="M13.388 8.717a.631.631 0 0 0 0 .884l1.01 1.01a.632.632 0 0 0 .885 0l2.38-2.38a3.789 3.789 0 0 1-5.013 5.014l-4.363 4.363a1.34 1.34 0 1 1-1.895-1.895l4.363-4.363a3.789 3.789 0 0 1 5.014-5.013L13.395 8.71l-.007.006Z"/></symbol><symbol viewBox="0 0 19 18" id="sort-1" xmlns="http://www.w3.org/2000/svg"><path d="M.5 0h3v3.13h-3zM8 0h3v3.13H8zm7.5 0h3v3.13h-3zM.5 7.435h3v3.13h-3zm7.5 0h3v3.13H8zm7.5 0h3v3.13h-3zM.5 14.87h3V18h-3zm7.5 0h3V18H8zm7.5 0h3V18h-3z"/></symbol><symbol viewBox="0 0 18 18" id="sort-2" xmlns="http://www.w3.org/2000/svg"><path d="M8 0h10v3.13H8zm0 7.435h10v3.13H8zm0 7.435h10V18H8zm-7.5 0h3V18h-3zm0-7.435h3v3.13h-3zM.5 0h3v3.13h-3z"/></symbol><symbol viewBox="0 0 16 16" id="sort-order" xmlns="http://www.w3.org/2000/svg"><path d="m4 1 .354-.354a.5.5 0 0 0-.708 0L4 1ZM3.646.646l-3 3 .708.708 3-3-.708-.708Zm0 .708 3 3 .708-.708-3-3-.708.708ZM3.5 1v14.5h1V1h-1Zm6 3.5h6v-1h-6v1Zm0 4h4v-1h-4v1Zm0 4h2v-1h-2v1Z"/></symbol><symbol viewBox="0 0 17 16" id="star" xmlns="http://www.w3.org/2000/svg"><path d="M8.5 13.267 3.246 16l1.004-5.79L0 6.112l5.873-.844L8.5 0l2.627 5.267L17 6.111l-4.25 4.1L13.754 16 8.5 13.267Z"/></symbol><symbol viewBox="0 0 48 48" id="telegram" xmlns="http://www.w3.org/2000/svg"><path fill-rule="evenodd" clip-rule="evenodd" d="M42 24c0 9.94-8.06 18-18 18S6 33.94 6 24 14.06 6 24 6s18 8.06 18 18Zm-17.355-4.712c-1.75.728-5.25 2.235-10.497 4.521-.852.34-1.299.671-1.34.995-.069.549.619.765 1.552 1.058.127.04.259.08.394.126.92.298 2.156.648 2.798.661.583.012 1.234-.228 1.953-.72 4.902-3.31 7.432-4.983 7.591-5.019.113-.026.268-.058.373.036.105.093.095.27.084.318-.069.29-2.76 2.793-4.155 4.089-.434.403-.742.69-.805.756a18.38 18.38 0 0 1-.423.418c-.855.822-1.494 1.44.036 2.448.735.485 1.323.885 1.91 1.284.64.437 1.279.872 2.107 1.415.21.138.411.28.608.42.745.532 1.416 1.01 2.244.934.48-.044.977-.496 1.23-1.845.595-3.189 1.768-10.095 2.04-12.942a3.165 3.165 0 0 0-.03-.707.759.759 0 0 0-.258-.488c-.215-.175-.548-.213-.698-.21-.677.012-1.715.373-6.714 2.453Z"/></symbol><symbol viewBox="0 0 48 48" id="tool" xmlns="http://www.w3.org/2000/svg"><path d="M27.468 15.792a1.578 1.578 0 0 0 0 2.21l2.525 2.525a1.578 1.578 0 0 0 2.21 0l5.95-5.95A9.469 9.469 0 0 1 25.622 27.11L14.716 38.015A3.348 3.348 0 1 1 9.98 33.28l10.906-10.906A9.47 9.47 0 0 1 33.418 9.842l-5.934 5.935-.016.015Z"/></symbol><symbol viewBox="0 0 48 48" id="tool-2" xmlns="http://www.w3.org/2000/svg"><path d="M27.468 15.792a1.578 1.578 0 0 0 0 2.21l2.525 2.525a1.578 1.578 0 0 0 2.21 0l5.95-5.95A9.469 9.469 0 0 1 25.622 27.11L14.716 38.015A3.348 3.348 0 1 1 9.98 33.28l10.906-10.906A9.47 9.47 0 0 1 33.418 9.842l-5.934 5.935-.016.015Z"/><path fill-rule="evenodd" clip-rule="evenodd" d="M29 42.833a5.833 5.833 0 1 0 0-11.666 5.833 5.833 0 0 0 0 11.666Zm2.104-7.936a.5.5 0 0 1 0 .707L29.707 37l1.397 1.397a.5.5 0 0 1-.708.707L29 37.707l-1.396 1.397a.5.5 0 0 1-.708-.707L28.293 37l-1.397-1.396a.5.5 0 0 1 .708-.707L29 36.293l1.396-1.396a.5.5 0 0 1 .708 0Z"/></symbol><symbol viewBox="0 0 24 24" id="vk" xmlns="http://www.w3.org/2000/svg"><path d="M21.579 6.855c.14-.465 0-.806-.662-.806h-2.193c-.558 0-.813.295-.953.619 0 0-1.115 2.719-2.695 4.482-.51.513-.743.675-1.021.675-.139 0-.341-.162-.341-.627V6.855c0-.558-.161-.806-.626-.806H9.642c-.348 0-.558.258-.558.504 0 .528.79.65.871 2.138v3.228c0 .707-.127.836-.407.836-.743 0-2.551-2.729-3.624-5.853-.209-.607-.42-.852-.98-.852H2.752c-.627 0-.752.295-.752.619 0 .582.743 3.462 3.461 7.271 1.812 2.601 4.363 4.011 6.687 4.011 1.393 0 1.565-.313 1.565-.853v-1.966c0-.626.133-.752.574-.752.324 0 .882.164 2.183 1.417 1.486 1.486 1.732 2.153 2.567 2.153h2.192c.626 0 .939-.313.759-.931-.197-.615-.907-1.51-1.849-2.569-.512-.604-1.277-1.254-1.51-1.579-.325-.419-.231-.604 0-.976.001.001 2.672-3.761 2.95-5.04z"/></symbol><symbol viewBox="0 0 36 36" id="wallet" xmlns="http://www.w3.org/2000/svg"><path d="M28.8 10.8H6.3v-.9l19.8-1.584V9.9h2.7V7.2c0-1.98-1.604-3.37-3.562-3.09L7.164 6.69C5.204 6.972 3.6 8.82 3.6 10.8v18a3.6 3.6 0 0 0 3.6 3.6h21.6a3.6 3.6 0 0 0 3.6-3.6V14.4a3.6 3.6 0 0 0-3.6-3.6Zm-2.7 12.61a2.7 2.7 0 1 1 .002-5.4 2.7 2.7 0 0 1-.002 5.4Z"/></symbol><symbol viewBox="0 0 48 48" id="whatsapp" xmlns="http://www.w3.org/2000/svg"><path d="M39.297 14.325C33.897 6 22.87 3.525 14.32 8.7 5.996 13.875 3.296 25.125 8.696 33.45l.45.675-1.8 6.75 6.75-1.8.675.45C17.696 41.1 20.846 42 23.996 42c3.375 0 6.75-.9 9.675-2.7 8.325-5.4 10.8-16.425 5.626-24.975ZM34.57 31.65c-.9 1.35-2.025 2.25-3.6 2.475-.9 0-2.025.45-6.525-1.35-3.825-1.8-6.975-4.725-9.225-8.1-1.35-1.575-2.025-3.6-2.25-5.625 0-1.8.675-3.375 1.8-4.5.45-.45.9-.675 1.35-.675h1.125c.45 0 .9 0 1.125.9.45 1.125 1.575 3.825 1.575 4.05.225.225.225.675 0 .9.225.45 0 .9-.225 1.125-.225.225-.45.675-.675.9-.45.225-.675.675-.45 1.125a25.9 25.9 0 0 0 3.15 3.825c1.35 1.125 2.7 2.025 4.275 2.7.45.225.9.225 1.125-.225.225-.45 1.35-1.575 1.8-2.025.45-.45.675-.45 1.125-.225l3.6 1.8c.45.225.9.45 1.125.675.225.675.225 1.575-.225 2.25Z"/></symbol><symbol viewBox="0 0 25 25" id="zoom" xmlns="http://www.w3.org/2000/svg"><path d="m24 24-6.571-6.571L24 24Zm-13.143-3.286C5.413 20.714 1 16.301 1 10.857 1 5.413 5.413 1 10.857 1c5.444 0 9.857 4.413 9.857 9.857 0 5.444-4.413 9.857-9.857 9.857Z"/></symbol></svg>