<svg width="32" height="32" viewBox="0 0 32 32" fill="none" xmlns="http://www.w3.org/2000/svg">
<path d="M14.5 4C15.4105 4 16.2355 4.54 16.6 5.374L20.152 13.489L25.006 13.1875C25.7519 13.1411 26.4857 13.3928 27.046 13.8873C27.6063 14.3818 27.9473 15.0786 27.994 15.8245L28 16C28 16.7475 27.7031 17.4644 27.1745 17.993C26.6459 18.5216 25.929 18.8185 25.1815 18.8185L25.006 18.8125L20.152 18.5095L16.6015 26.6245C16.4229 27.0333 16.129 27.3812 15.7558 27.6255C15.3825 27.8698 14.9461 27.9999 14.5 28C14.1487 28 13.8118 27.8605 13.5634 27.6121C13.315 27.3637 13.1755 27.0268 13.1755 26.6755L13.1785 26.593L14.233 18.139L10.546 17.908L8.836 21.328C8.73534 21.5299 8.58039 21.6997 8.38855 21.8184C8.19672 21.9371 7.97559 22 7.75 22C7.55109 22 7.36032 21.921 7.21967 21.7803C7.07902 21.6397 7 21.4489 7 21.25V17.686L5.407 17.5885C5.02577 17.5648 4.66793 17.3966 4.40648 17.1181C4.14502 16.8397 3.99965 16.472 4 16.09V15.907C4.00003 15.5253 4.14558 15.158 4.40699 14.8798C4.66841 14.6017 5.02603 14.4337 5.407 14.41L7 14.3125V10.75C7 10.5511 7.07902 10.3603 7.21967 10.2197C7.36032 10.079 7.55109 10 7.75 10C7.9754 10 8.19634 10.0628 8.38813 10.1812C8.57992 10.2996 8.73499 10.469 8.836 10.6705L10.5445 14.0905L14.233 13.8595L13.186 5.4895C13.1626 5.30311 13.1791 5.11388 13.2344 4.93436C13.2898 4.75484 13.3827 4.58915 13.5069 4.44828C13.6312 4.30741 13.784 4.19459 13.9552 4.1173C14.1265 4.04001 14.3122 4.00003 14.5 4Z" fill="#4C9900"/>
</svg>
