<svg width="32" height="32" viewBox="0 0 32 32" fill="none" xmlns="http://www.w3.org/2000/svg">
<path d="M26.9419 12.898C26.8727 12.6944 26.7454 12.5155 26.5758 12.3834C26.4061 12.2512 26.2014 12.1717 25.9871 12.1545L19.7159 11.6563L17.0022 5.64998C16.9158 5.45653 16.7752 5.29222 16.5974 5.17688C16.4197 5.06155 16.2124 5.00012 16.0004 5C15.7885 4.99988 15.5811 5.06109 15.4033 5.17623C15.2254 5.29137 15.0846 5.45552 14.998 5.64888L12.2843 11.6563L6.01313 12.1545C5.80243 12.1712 5.601 12.2482 5.43294 12.3764C5.26488 12.5045 5.1373 12.6784 5.06547 12.8772C4.99364 13.0759 4.9806 13.2911 5.02791 13.4971C5.07522 13.7031 5.18087 13.8911 5.33223 14.0386L9.96656 18.5557L8.32755 25.6519C8.27778 25.8667 8.29373 26.0915 8.37333 26.2971C8.45293 26.5028 8.5925 26.6797 8.77393 26.8051C8.95537 26.9304 9.17028 26.9983 9.3908 27C9.61131 27.0016 9.82724 26.937 10.0106 26.8145L16.0001 22.822L21.9896 26.8145C22.177 26.9389 22.398 27.0029 22.6228 26.998C22.8477 26.993 23.0656 26.9194 23.2474 26.7869C23.4291 26.6544 23.5659 26.4695 23.6394 26.2569C23.7129 26.0444 23.7195 25.8144 23.6583 25.598L21.6464 18.559L26.6361 14.0694C26.9628 13.7746 27.0827 13.3149 26.9419 12.898Z" fill="#4C9900"/>
</svg>
