<svg width="32" height="32" viewBox="0 0 32 32" fill="none" xmlns="http://www.w3.org/2000/svg">
<path fill-rule="evenodd" clip-rule="evenodd" d="M21.023 7.00306C22.564 7.01706 23.979 8.33807 24.004 9.96507C24.026 12.3171 24.011 14.6681 24.004 17.0201C23.99 18.5631 22.663 19.9751 21.042 20.0011C15.691 20.0511 10.34 20.0171 4.98797 20.0011C3.44697 19.9861 2.03297 18.6661 2.00797 17.0381C1.98597 14.6871 1.99997 12.3351 2.00697 9.98407C2.02197 8.44407 3.34797 7.02806 4.96997 7.00306C10.321 6.95306 15.672 6.98606 21.023 7.00306ZM4.00597 16.1831C4.00697 16.4551 4.00697 16.7271 4.00697 17.0001C4.00697 17.5171 4.45797 17.9891 4.98797 18.0011C5.27197 18.0051 5.55597 18.0091 5.83997 18.0131C5.83297 17.9931 5.82597 17.9731 5.81897 17.9531C5.51297 17.1351 4.82897 16.4841 4.00597 16.1831ZM22.014 16.1831C21.191 16.4901 20.504 17.1631 20.189 18.0021C20.461 18.0011 20.732 18.0011 21.003 18.0011C21.521 18.0011 21.993 17.5501 22.004 17.0201C22.009 16.7411 22.012 16.4621 22.014 16.1831ZM13.028 10.0021C14.647 10.0181 16.163 11.2741 16.451 12.8841C16.838 15.0481 14.818 17.3971 12.366 16.9431C10.946 16.6791 9.75397 15.4471 9.54297 14.0121C9.25897 12.0741 10.838 10.0501 12.938 10.0031C12.968 10.0021 12.998 10.0021 13.028 10.0021ZM5.82497 9.00206C5.55297 9.00206 5.28097 9.00206 5.00897 9.00206C4.49197 9.00406 4.01897 9.45207 4.00697 9.98407C4.00297 10.2671 3.99997 10.5511 3.99697 10.8341C4.01697 10.8281 4.03597 10.8211 4.05497 10.8141C4.87297 10.5091 5.52397 9.82406 5.82497 9.00206ZM20.186 8.99107C20.494 9.81407 21.166 10.5021 22.006 10.8171C22.005 10.5461 22.005 10.2751 22.005 10.0041C22.005 9.48607 21.554 9.01406 21.023 9.00306C20.744 8.99806 20.465 8.99407 20.186 8.99107Z" fill="#4C9900"/>
<path d="M26.1375 10.7967C26.6156 10.8831 26.9805 11.2972 27.0028 11.7874C27.0028 14.0853 27.0102 16.3832 27.0028 18.6801C26.9814 20.9232 25.0605 22.9927 22.6567 23.0002H5.57716C4.69421 22.9602 4.20771 21.653 5.06466 21.1424C5.20578 21.0579 5.2847 21.0133 5.57716 21.0003C11.2796 21.0003 16.983 21.0542 22.6855 21.0003C23.899 20.9808 24.9992 19.9159 25.0029 18.6513V11.7874C25.0289 11.2062 25.5414 10.7429 26.1375 10.7967Z" fill="#4C9900"/>
<path d="M29.1364 13.7967C29.6145 13.8831 29.9794 14.2972 30.0017 14.7874C30.0017 16.6944 30.0073 18.6023 30.0017 20.5094C29.9748 23.3467 27.545 25.9909 24.4784 26.0002H8.57609C7.89368 25.9695 7.38954 25.2323 7.65693 24.6075C7.78598 24.3039 8.0738 24.0755 8.39783 24.0161C8.47581 24.0022 8.49624 24.004 8.57609 24.0003C13.884 24.0003 19.1909 24.017 24.4988 24.0003C26.3176 23.9836 27.9963 22.4136 28.0018 20.4741V14.7874C28.0278 14.2062 28.5403 13.7429 29.1364 13.7967Z" fill="#4C9900"/>
<path fill-rule="evenodd" clip-rule="evenodd" d="M12.9963 12.0029C12.0123 12.0119 11.2023 13.1709 11.6423 14.1279C12.0333 14.9789 13.3143 15.2649 14.0273 14.6009C14.8563 13.8299 14.4503 12.0439 13.0453 12.0039C13.0293 12.0029 13.0133 12.0029 12.9963 12.0029Z" fill="#4C9900"/>
</svg>
