<svg width="32" height="32" viewBox="0 0 32 32" fill="none" xmlns="http://www.w3.org/2000/svg">
<path d="M16 3C8.83166 3 3 8.83166 3 16C3 23.1683 8.83166 29 16 29C23.1683 29 29 23.1684 29 16C29 8.83165 23.1684 3 16 3Z" fill="#4C9900"/>
<path d="M12.3014 15.6029C14.1217 15.6029 15.6029 14.1217 15.6029 12.3014C15.6029 10.4812 14.1217 9 12.3014 9C10.4812 9 9 10.4812 9 12.3014C9 14.1217 10.4812 15.6029 12.3014 15.6029ZM12.3014 11.315C12.8455 11.315 13.2879 11.7573 13.2879 12.3014C13.2879 12.8455 12.8455 13.2879 12.3014 13.2879C11.7573 13.2879 11.315 12.8455 11.315 12.3014C11.315 11.7573 11.7573 11.315 12.3014 11.315ZM19.6986 16.3971C17.8779 16.3971 16.3971 17.8783 16.3971 19.6986C16.3971 21.5188 17.8779 23 19.6986 23C21.5192 23 23 21.5188 23 19.6986C23 17.8783 21.5192 16.3971 19.6986 16.3971ZM19.6986 20.685C19.1545 20.685 18.7121 20.2427 18.7121 19.6986C18.7121 19.1545 19.1545 18.7121 19.6986 18.7121C20.2427 18.7121 20.685 19.1545 20.685 19.6986C20.685 20.2427 20.2427 20.685 19.6986 20.685ZM22.2743 9.72608C21.8222 9.27393 21.0897 9.27393 20.6375 9.72608L9.72608 20.6372C9.27393 21.0889 9.27393 21.8218 9.72608 22.2739C9.95215 22.5 10.2483 22.613 10.5445 22.613C10.8406 22.613 11.1368 22.5 11.3629 22.2739L22.2743 11.3628C22.7265 10.9111 22.7265 10.1782 22.2743 9.72608Z" fill="white"/>
</svg>
