<svg width="32" height="32" viewBox="0 0 32 32" fill="none" xmlns="http://www.w3.org/2000/svg">
<path d="M5.49935 7.3335C4.88051 7.3335 4.28702 7.57933 3.84943 8.01691C3.41185 8.4545 3.16602 9.04799 3.16602 9.66683V22.5002H5.49935C5.49935 23.4284 5.8681 24.3187 6.52448 24.975C7.18085 25.6314 8.07109 26.0002 8.99935 26.0002C9.92761 26.0002 10.8178 25.6314 11.4742 24.975C12.1306 24.3187 12.4993 23.4284 12.4993 22.5002H19.4993C19.4993 23.4284 19.8681 24.3187 20.5245 24.975C21.1809 25.6314 22.0711 26.0002 22.9993 26.0002C23.9276 26.0002 24.8178 25.6314 25.4742 24.975C26.1306 24.3187 26.4993 23.4284 26.4993 22.5002H28.8327V16.6668L25.3327 12.0002H21.8327V7.3335M13.666 9.66683L18.3327 14.3335L13.666 19.0002V15.5002H6.66602V13.1668H13.666M21.8327 13.7502H24.7493L27.0477 16.6668H21.8327M8.99935 20.7502C9.46348 20.7502 9.9086 20.9345 10.2368 21.2627C10.565 21.5909 10.7493 22.036 10.7493 22.5002C10.7493 22.9643 10.565 23.4094 10.2368 23.7376C9.9086 24.0658 9.46348 24.2502 8.99935 24.2502C8.53522 24.2502 8.0901 24.0658 7.76191 23.7376C7.43372 23.4094 7.24935 22.9643 7.24935 22.5002C7.24935 22.036 7.43372 21.5909 7.76191 21.2627C8.0901 20.9345 8.53522 20.7502 8.99935 20.7502ZM22.9993 20.7502C23.4635 20.7502 23.9086 20.9345 24.2368 21.2627C24.565 21.5909 24.7493 22.036 24.7493 22.5002C24.7493 22.9643 24.565 23.4094 24.2368 23.7376C23.9086 24.0658 23.4635 24.2502 22.9993 24.2502C22.5352 24.2502 22.0901 24.0658 21.7619 23.7376C21.4337 23.4094 21.2493 22.9643 21.2493 22.5002C21.2493 22.036 21.4337 21.5909 21.7619 21.2627C22.0901 20.9345 22.5352 20.7502 22.9993 20.7502Z" fill="#4C9900"/>
</svg>
