<svg width="32" height="32" viewBox="0 0 32 32" fill="none" xmlns="http://www.w3.org/2000/svg">
<path d="M16 29C23.1797 29 29 23.1797 29 16C29 8.8203 23.1797 3 16 3C8.8203 3 3 8.8203 3 16C3 23.1797 8.8203 29 16 29Z" fill="#4C9900"/>
<path fill-rule="evenodd" clip-rule="evenodd" d="M12.2522 20.5676C11.8853 20.2535 11.8215 19.7101 12.1056 19.3194L18.3976 10.6682C18.7154 10.2312 19.3383 10.158 19.7487 10.5094C20.1156 10.8235 20.1795 11.3669 19.8954 11.7575L13.6034 20.4088C13.2856 20.8458 12.6627 20.919 12.2522 20.5676ZM8.61565 20.6154C8.20336 20.3155 8.11221 19.7382 8.41206 19.3259L14.7108 10.6652C15.0106 10.2529 15.588 10.1617 16.0003 10.4616C16.4126 10.7614 16.5037 11.3387 16.2039 11.751L9.90514 20.4118C9.60528 20.8241 9.02795 20.9153 8.61565 20.6154ZM23.4406 10.5094C23.0301 10.158 22.4072 10.2312 22.0894 10.6682L15.798 19.3195C15.5139 19.7102 15.5778 20.2535 15.9447 20.5676C16.3552 20.919 16.9781 20.8458 17.2959 20.4088L23.5873 11.7575C23.8714 11.3669 23.8075 10.8235 23.4406 10.5094Z" fill="white"/>
</svg>
