<svg width="32" height="32" viewBox="0 0 32 32" fill="none" xmlns="http://www.w3.org/2000/svg">
<path d="M27.9927 12.7723C27.9927 13.4607 27.3676 14 26.6593 14H25.3259H6.67053H5.33547C4.58419 14 4 13.4607 4 12.7723C4 12.428 4.12517 12.122 4.4171 11.8543L15.1005 3.30659C15.3921 3.03832 15.7255 3 16.0172 3C16.3088 3 16.6422 3.07665 16.8964 3.26827L27.5343 11.8543C27.8677 12.122 28.0385 12.428 27.9927 12.7723Z" fill="#4C9900"/>
<rect x="4" y="28" width="24" height="2" rx="1" fill="#4C9900"/>
<rect x="4" y="15" width="24" height="12" rx="1" fill="#4C9900"/>
<circle cx="16" cy="9" r="4" fill="white"/>
<path d="M14.8501 6.59V11H15.5998V6.59H14.8501ZM15.2722 7.2452H16.2046C16.402 7.2452 16.57 7.2683 16.7086 7.3145C16.8472 7.3565 16.9564 7.4258 17.0362 7.5224C17.116 7.619 17.1559 7.7429 17.1559 7.8941C17.1559 8.0495 17.116 8.1755 17.0362 8.2721C16.9564 8.3687 16.8472 8.4401 16.7086 8.4863C16.57 8.5283 16.402 8.5493 16.2046 8.5493H15.2722V9.2045H16.2046C16.528 9.2045 16.8136 9.1625 17.0614 9.0785C17.3092 8.9903 17.5045 8.8496 17.6473 8.6564C17.7901 8.459 17.8615 8.2049 17.8615 7.8941C17.8615 7.5791 17.7901 7.3271 17.6473 7.1381C17.5045 6.9449 17.3092 6.8063 17.0614 6.7223C16.8136 6.6341 16.528 6.59 16.2046 6.59H15.2722V7.2452ZM15.5116 10.4078H16.8031V9.7967H15.5116V10.4078ZM14.0941 9.1856H15.3856V8.5745H14.0941V9.1856ZM14.0941 10.4078H15.3856V9.7967H14.0941V10.4078Z" fill="#4C9900"/>
<rect x="7" y="16" width="2" height="10" rx="1" fill="white"/>
<rect x="11" y="16" width="2" height="10" rx="1" fill="white"/>
<rect x="15" y="16" width="2" height="10" rx="1" fill="white"/>
<rect x="19" y="16" width="2" height="10" rx="1" fill="white"/>
<rect x="23" y="16" width="2" height="10" rx="1" fill="white"/>
</svg>
