<svg width="48" height="48" viewBox="0 0 48 48" fill="none" xmlns="http://www.w3.org/2000/svg">
<path d="M8.532 15.8793C10.2241 12.4583 12.9684 9.66981 16.362 7.92333C19.7313 6.19337 23.5728 5.60918 27.304 6.25933C31.0468 6.91731 34.4759 8.76973 37.078 11.5393C39.7043 14.335 41.3764 17.8914 41.854 21.6973C42.3391 25.5119 41.6084 29.3822 39.766 32.7573C37.9405 36.1066 35.0878 38.7812 31.628 40.3873C28.1914 41.979 24.3293 42.4059 20.628 41.6033C16.928 40.8013 13.896 38.9773 11.388 36.0933C11.086 35.7733 9.918 34.4813 8.948 32.5313" stroke="#3D3D3D" stroke-width="4" stroke-linecap="round" stroke-linejoin="round"/>
<path d="M17.8613 32.3734L7.78133 30.5594L5.99933 40.8194" stroke="#3D3D3D" stroke-width="4" stroke-linecap="round" stroke-linejoin="round"/>
</svg>
