<svg width="24" height="24" viewBox="0 0 24 24" fill="none" xmlns="http://www.w3.org/2000/svg">
<path fill-rule="evenodd" clip-rule="evenodd" d="M6.30825 18.6C6.30825 17.6925 7.0425 16.95 7.95 16.95C8.8575 16.95 9.6 17.6925 9.6 18.6C9.6 19.5075 8.8575 20.25 7.95 20.25C7.0425 20.25 6.30825 19.5075 6.30825 18.6ZM3 5.4V3.75H5.69775L6.47325 5.4H18.675C19.1287 5.4 19.5 5.77125 19.5 6.225C19.5 6.36525 19.467 6.5055 19.401 6.621L16.4475 11.9752C16.167 12.4867 15.6225 12.825 15.0037 12.825H8.8575L8.115 14.1697L8.09025 14.2687C8.09025 14.3842 8.181 14.475 8.2965 14.475H17.85V16.125H7.95C7.0425 16.125 6.3 15.3825 6.3 14.475C6.3 14.1862 6.37425 13.914 6.50625 13.683L7.62 11.6617L4.65 5.4H3ZM14.5582 18.6C14.5582 17.6925 15.2925 16.95 16.2 16.95C17.1075 16.95 17.85 17.6925 17.85 18.6C17.85 19.5075 17.1075 20.25 16.2 20.25C15.2925 20.25 14.5582 19.5075 14.5582 18.6ZM11.875 6V8.125H9.75V9.125H11.875V11.25H12.875V9.125H15V8.125H12.875V6H11.875Z" fill="#ABABAB"/>
</svg>
