<svg width="32" height="32" viewBox="0 0 32 32" fill="none" xmlns="http://www.w3.org/2000/svg">
<path fill-rule="evenodd" clip-rule="evenodd" d="M8.411 24.8C8.411 23.59 9.39 22.6 10.6 22.6C11.81 22.6 12.8 23.59 12.8 24.8C12.8 26.01 11.81 27 10.6 27C9.39 27 8.411 26.01 8.411 24.8ZM4 7.2V5H7.597L8.631 7.2H24.9C25.505 7.2 26 7.695 26 8.3C26 8.487 25.956 8.674 25.868 8.828L21.93 15.967C21.556 16.649 20.83 17.1 20.005 17.1H11.81L10.82 18.893L10.787 19.025C10.787 19.179 10.908 19.3 11.062 19.3H23.8V21.5H10.6C9.39 21.5 8.4 20.51 8.4 19.3C8.4 18.915 8.499 18.552 8.675 18.244L10.16 15.549L6.2 7.2H4ZM19.411 24.8C19.411 23.59 20.39 22.6 21.6 22.6C22.81 22.6 23.8 23.59 23.8 24.8C23.8 26.01 22.81 27 21.6 27C20.39 27 19.411 26.01 19.411 24.8ZM16 8V11H13V12H16V15H17V12H20V11H17V8H16Z" fill="#DCDCDC"/>
</svg>
