<svg xmlns="http://www.w3.org/2000/svg" fill-rule="evenodd" stroke-linejoin="round" stroke-miterlimit="2" clip-rule="evenodd" viewBox="0 0 64 64"><path d="M15,42l0,-34.629c0,-2.414 1.957,-4.371 4.371,-4.371c8.221,-0 28.629,-0 28.629,-0c0.552,-0 1,0.448 1,1c0,0 0,40.529 -0,52.629c0,1.159 -0.461,2.271 -1.28,3.091c-0.533,0.533 -1.19,0.914 -1.903,1.115c0.016,-0.033 0.03,-0.067 0.044,-0.102c0.301,-0.764 0.104,-1.635 -0.496,-2.195c-3.749,-3.499 -3.815,-8.785 -3.371,-14.38c0.044,-0.556 -0.146,-1.105 -0.525,-1.515c-0.379,-0.41 -0.911,-0.643 -1.469,-0.643l-25,0Zm9,-9l16,0c0.552,0 1,-0.448 1,-1c0,-0.552 -0.448,-1 -1,-1l-16,0c-0.552,0 -1,0.448 -1,1c0,0.552 0.448,1 1,1Zm0,-4l16,0c0.552,0 1,-0.448 1,-1c0,-0.552 -0.448,-1 -1,-1l-16,0c-0.552,0 -1,0.448 -1,1c0,0.552 0.448,1 1,1Zm-0,-4l16,0c0.552,-0 1,-0.448 1,-1c-0,-0.552 -0.448,-1 -1,-1l-16,0c-0.552,-0 -1,0.448 -1,1c-0,0.552 0.448,1 1,1Zm-0,-4l16,0c0.552,-0 1,-0.448 1,-1c-0,-0.552 -0.448,-1 -1,-1l-16,0c-0.552,-0 -1,0.448 -1,1c-0,0.552 0.448,1 1,1Zm4,-8l8,0c0.552,0 1,-0.448 1,-1c0,-0.552 -0.448,-1 -1,-1l-8,0c-0.552,0 -1,0.448 -1,1c0,0.552 0.448,1 1,1Z"/><path d="M40.997,44.079c0.022,-0.278 -0.073,-0.553 -0.262,-0.758c-0.19,-0.204 -0.456,-0.321 -0.735,-0.321l-32,0c-0.552,0 -1,0.448 -1,1l0,8.002c0,4.969 4.029,8.998 8.998,8.998l28.002,0c0.411,0 0.78,-0.251 0.93,-0.633c0.151,-0.382 0.053,-0.818 -0.248,-1.098c-3.967,-3.703 -4.154,-9.269 -3.685,-15.19Z"/><path d="M8 52.002c0 4.417 3.581 7.998 7.998 7.998l27.829 0c-.001-.068.046-.119.173 0-4.167-3.889-4.492-9.699-4.006-15.914-.067-.018-.155-.086.006-.086l-32 0 0 8.002zM49.827 3.186c4.095.845 7.173 4.47 7.173 8.814l0 8c0 .552-.448 1-1 1l-6 0 0-17c0-.29-.062-.565-.173-.814z"/></svg>