<svg width="48" height="48" viewBox="0 0 48 48" fill="none" xmlns="http://www.w3.org/2000/svg">
<path d="M33.6332 20.7307H31.287C31.2861 19.7976 30.915 18.903 30.2552 18.2432C29.5955 17.5835 28.7009 17.2124 27.7678 17.2115V14.8653C29.3228 14.8672 30.8136 15.4857 31.9132 16.5853C33.0127 17.6849 33.6313 19.1756 33.6332 20.7307Z" fill="#3D3D3D"/>
<path d="M38.3254 20.7307H35.9793C35.9768 18.5536 35.1109 16.4664 33.5715 14.927C32.032 13.3876 29.9449 12.5217 27.7678 12.5192V10.1731C30.5669 10.1762 33.2505 11.2895 35.2297 13.2688C37.209 15.248 38.3223 17.9316 38.3254 20.7307Z" fill="#3D3D3D"/>
<path d="M29.3316 30.6806L31.9593 28.0529C32.311 27.7011 32.7583 27.4603 33.2456 27.3602C33.7329 27.2601 34.2388 27.3052 34.7008 27.4899L37.9009 28.7709C38.3725 28.9596 38.7768 29.2853 39.0616 29.706C39.3464 30.1267 39.4986 30.6231 39.4986 31.1311V36.9507C39.4994 37.2965 39.4296 37.639 39.2935 37.957C39.1574 38.2749 38.9579 38.5618 38.7071 38.8C38.4562 39.0382 38.1594 39.2227 37.8349 39.3422C37.5103 39.4617 37.1647 39.5137 36.8193 39.495C14.3879 38.0991 9.85756 19.1001 9.01647 11.8248C8.97574 11.4691 9.01076 11.1088 9.11925 10.7676C9.22774 10.4265 9.40722 10.1121 9.64591 9.84529C9.88459 9.57847 10.1771 9.36519 10.5041 9.2195C10.8311 9.07381 11.1853 8.99901 11.5433 9.00001H17.2596C17.7676 8.99999 18.264 9.15219 18.6847 9.43698C19.1054 9.72176 19.4311 10.1261 19.6198 10.5977L20.8996 13.7979C21.0843 14.2598 21.1294 14.7657 21.0293 15.253C20.9292 15.7403 20.6884 16.1876 20.3366 16.5393L17.7089 19.167C17.7089 19.167 19.1658 29.4102 29.3316 30.6806Z" fill="#3D3D3D"/>
</svg>
