<svg width="32" height="32" viewBox="0 0 32 32" fill="none" xmlns="http://www.w3.org/2000/svg">
<path d="M10.2666 22.6C9.05656 22.6 8.07756 23.59 8.07756 24.8C8.07756 26.01 9.05656 27 10.2666 27C11.4766 27 12.4666 26.01 12.4666 24.8C12.4666 23.59 11.4766 22.6 10.2666 22.6ZM3.66656 5V7.2H5.86656L9.82656 15.549L8.34156 18.244C8.16556 18.552 8.06656 18.915 8.06656 19.3C8.06656 20.51 9.05656 21.5 10.2666 21.5H23.4666V19.3H10.7286C10.5746 19.3 10.4536 19.179 10.4536 19.025L10.4866 18.893L11.4766 17.1H19.6716C20.4966 17.1 21.2226 16.649 21.5966 15.967L25.5346 8.828C25.6226 8.674 25.6666 8.487 25.6666 8.3C25.6666 7.695 25.1716 7.2 24.5666 7.2H8.29756L7.26356 5H3.66656ZM21.2666 22.6C20.0566 22.6 19.0776 23.59 19.0776 24.8C19.0776 26.01 20.0566 27 21.2666 27C22.4766 27 23.4666 26.01 23.4666 24.8C23.4666 23.59 22.4766 22.6 21.2666 22.6Z" fill="white"/>
</svg>
