<svg width="48" height="48" viewBox="0 0 48 48" fill="none" xmlns="http://www.w3.org/2000/svg">
<path d="M6.26172 10.4347C6.26172 9.25858 6.72895 8.13058 7.56063 7.29891C8.3923 6.46723 9.5203 6 10.6965 6H37.305C38.4811 6 39.6091 6.46723 40.4408 7.29891C41.2725 8.13058 41.7397 9.25858 41.7397 10.4347V28.1737C41.7397 29.3499 41.2725 30.4779 40.4408 31.3096C39.6091 32.1413 38.4811 32.6085 37.305 32.6085H31.7615C31.4173 32.6085 31.0778 32.6886 30.7699 32.8426C30.462 32.9965 30.1942 33.2201 29.9876 33.4954L25.7746 39.112C25.5681 39.3874 25.3002 39.611 24.9924 39.7649C24.6845 39.9189 24.3449 39.999 24.0007 39.999C23.6565 39.999 23.317 39.9189 23.0091 39.7649C22.7012 39.611 22.4334 39.3874 22.2268 39.112L18.0138 33.4954C17.8073 33.2201 17.5394 32.9965 17.2315 32.8426C16.9236 32.6886 16.5841 32.6085 16.2399 32.6085H10.6965C9.5203 32.6085 8.3923 32.1413 7.56063 31.3096C6.72895 30.4779 6.26172 29.3499 6.26172 28.1737V10.4347ZM22.2135 16.568C22.0673 16.3499 21.8986 16.1477 21.7102 15.9649C21.4138 15.6597 21.0605 15.4156 20.6702 15.2465L20.6525 15.2376C20.1273 14.9938 19.5551 14.8681 18.9761 14.8695C16.8519 14.8695 15.1312 16.5237 15.1312 18.5659C15.1312 20.6058 16.8519 22.26 18.9761 22.26C19.7367 22.26 20.444 22.0494 21.0405 21.6835C20.7367 22.546 20.1757 23.4663 19.2444 24.3887C19.1567 24.4743 19.0875 24.577 19.0409 24.6904C18.9944 24.8038 18.9715 24.9255 18.9738 25.0481C18.9761 25.1706 19.0035 25.2914 19.0542 25.403C19.1049 25.5146 19.178 25.6146 19.2688 25.6969C19.6524 26.0517 20.26 26.0406 20.6303 25.6748C23.5883 22.7279 23.6681 19.5592 22.7169 17.4572C22.5771 17.1465 22.4086 16.8495 22.2135 16.5702V16.568ZM30.6528 21.6835C30.3513 22.546 29.7881 23.4663 28.8568 24.3887C28.7692 24.4745 28.7001 24.5773 28.6537 24.6907C28.6074 24.8042 28.5847 24.926 28.5872 25.0486C28.5897 25.1711 28.6173 25.2919 28.6682 25.4034C28.7192 25.5149 28.7924 25.6148 28.8834 25.6969C29.2648 26.0517 29.8723 26.0406 30.2426 25.6748C33.2006 22.7279 33.2804 19.5592 32.3314 17.4572C32.1909 17.1464 32.0216 16.8495 31.8258 16.5702C31.6798 16.3513 31.5111 16.1484 31.3225 15.9649C31.0262 15.6597 30.6729 15.4156 30.2825 15.2465L30.2648 15.2376C29.7403 14.9941 29.1689 14.8684 28.5907 14.8695C26.4687 14.8695 24.7458 16.5237 24.7458 18.5659C24.7458 20.6058 26.4687 22.26 28.5907 22.26C29.3512 22.26 30.0586 22.0494 30.6551 21.6835H30.6528Z" fill="#3D3D3D"/>
</svg>
