<svg width="48" height="48" viewBox="0 0 48 48" fill="none" xmlns="http://www.w3.org/2000/svg">
<path d="M24 10C16.2688 10 10 16.2688 10 24C10 31.7313 16.2688 38 24 38C31.7313 38 38 31.7313 38 24C38 16.2688 31.7313 10 24 10ZM29.5156 28.3031L28.6219 29.5219C28.6024 29.5484 28.5779 29.5708 28.5498 29.5879C28.5217 29.6049 28.4904 29.6162 28.4579 29.6212C28.4254 29.6261 28.3922 29.6246 28.3603 29.6167C28.3284 29.6087 28.2983 29.5946 28.2719 29.575L23.1031 25.8062C23.0709 25.7831 23.0448 25.7526 23.0268 25.7173C23.0089 25.6819 22.9997 25.6428 23 25.6031V17C23 16.8625 23.1125 16.75 23.25 16.75H24.7531C24.8906 16.75 25.0031 16.8625 25.0031 17V24.7344L29.4594 27.9562C29.5719 28.0344 29.5969 28.1906 29.5156 28.3031Z" fill="#3D3D3D"/>
</svg>
