<svg width="36" height="36" viewBox="0 0 36 36" fill="none" xmlns="http://www.w3.org/2000/svg">
<path d="M16.125 29.25C16.125 29.25 14.25 29.25 14.25 27.375C14.25 25.5 16.125 19.875 23.625 19.875C31.125 19.875 33 25.5 33 27.375C33 29.25 31.125 29.25 31.125 29.25H16.125ZM23.625 18C25.1168 18 26.5476 17.4074 27.6025 16.3525C28.6574 15.2976 29.25 13.8668 29.25 12.375C29.25 10.8832 28.6574 9.45242 27.6025 8.39752C26.5476 7.34263 25.1168 6.75 23.625 6.75C22.1332 6.75 20.7024 7.34263 19.6475 8.39752C18.5926 9.45242 18 10.8832 18 12.375C18 13.8668 18.5926 15.2976 19.6475 16.3525C20.7024 17.4074 22.1332 18 23.625 18Z" fill="#3D3D3D"/>
<path fill-rule="evenodd" clip-rule="evenodd" d="M12.78 29.25C12.502 28.6647 12.3634 28.0229 12.375 27.375C12.375 24.8344 13.65 22.2188 16.005 20.4C14.8295 20.0378 13.6049 19.8607 12.375 19.875C4.875 19.875 3 25.5 3 27.375C3 29.25 4.875 29.25 4.875 29.25H12.78Z" fill="#3D3D3D"/>
<path d="M11.4375 18C12.6807 18 13.873 17.5061 14.7521 16.6271C15.6311 15.748 16.125 14.5557 16.125 13.3125C16.125 12.0693 15.6311 10.877 14.7521 9.99794C13.873 9.11886 12.6807 8.625 11.4375 8.625C10.1943 8.625 9.00201 9.11886 8.12294 9.99794C7.24386 10.877 6.75 12.0693 6.75 13.3125C6.75 14.5557 7.24386 15.748 8.12294 16.6271C9.00201 17.5061 10.1943 18 11.4375 18Z" fill="#3D3D3D"/>
</svg>
