<svg width="36" height="36" viewBox="0 0 36 36" fill="none" xmlns="http://www.w3.org/2000/svg">
<path d="M3 10.6667C3 9.69421 3.39509 8.76157 4.09835 8.07394C4.80161 7.38631 5.75544 7 6.75 7H29.25C30.2446 7 31.1984 7.38631 31.9016 8.07394C32.6049 8.76157 33 9.69421 33 10.6667V12.5H3V10.6667ZM3 16.1667V25.3333C3 26.3058 3.39509 27.2384 4.09835 27.9261C4.80161 28.6137 5.75544 29 6.75 29H29.25C30.2446 29 31.1984 28.6137 31.9016 27.9261C32.6049 27.2384 33 26.3058 33 25.3333V16.1667H3ZM8.625 19.8333H10.5C10.9973 19.8333 11.4742 20.0265 11.8258 20.3703C12.1775 20.7141 12.375 21.1804 12.375 21.6667V23.5C12.375 23.9862 12.1775 24.4525 11.8258 24.7964C11.4742 25.1402 10.9973 25.3333 10.5 25.3333H8.625C8.12772 25.3333 7.65081 25.1402 7.29917 24.7964C6.94754 24.4525 6.75 23.9862 6.75 23.5V21.6667C6.75 21.1804 6.94754 20.7141 7.29917 20.3703C7.65081 20.0265 8.12772 19.8333 8.625 19.8333Z" fill="black"/>
</svg>
