<svg width="16" height="16" viewBox="0 0 16 16" fill="none" xmlns="http://www.w3.org/2000/svg">
<path d="M4 9.77505H3.5V9.92066L3.57817 10.0435L4 9.77505ZM6.69761 14.0141L7.11944 13.7457L6.69761 14.0141ZM9.36455 12.5042L8.91734 12.7278L9.36455 12.5042ZM8 9.77505V9.27505C7.82671 9.27505 7.66578 9.36478 7.57467 9.51219C7.48357 9.6596 7.47529 9.84367 7.55279 9.99866L8 9.77505ZM15 4.77505H15.5V4.60839L15.4 4.47505L15 4.77505ZM12.6 1.57506L13 1.27506V1.27505L12.6 1.57506ZM8.78158 14.5061L9.03883 14.9349H9.03883L8.78158 14.5061ZM1.5 10.2751V0.275055H0.5V10.2751H1.5ZM3.57817 10.0435L6.27577 14.2826L7.11944 13.7457L4.42183 9.50662L3.57817 10.0435ZM9.81176 12.2805L8.44721 9.55145L7.55279 9.99866L8.91734 12.7278L9.81176 12.2805ZM8 10.2751H13V9.27505H8V10.2751ZM15.5 7.77505V4.77505H14.5V7.77505H15.5ZM15.4 4.47505L13 1.27506L12.2 1.87506L14.6 5.07506L15.4 4.47505ZM11 0.275055H6V1.27505H11V0.275055ZM3.5 2.77505V9.77505H4.5V2.77505H3.5ZM13 10.2751C14.3807 10.2751 15.5 9.15577 15.5 7.77505H14.5C14.5 8.60348 13.8284 9.27505 13 9.27505V10.2751ZM6 0.275055C4.61929 0.275055 3.5 1.39434 3.5 2.77505H4.5C4.5 1.94663 5.17157 1.27505 6 1.27505V0.275055ZM9.03883 14.9349C9.95039 14.3879 10.2872 13.2314 9.81176 12.2805L8.91734 12.7278C9.15906 13.2112 8.98782 13.7993 8.52433 14.0774L9.03883 14.9349ZM13 1.27505C12.5279 0.645541 11.7869 0.275055 11 0.275055V1.27505C11.4721 1.27505 11.9167 1.49735 12.2 1.87506L13 1.27505ZM6.27577 14.2826C6.8678 15.2129 8.09324 15.5022 9.03883 14.9349L8.52433 14.0774C8.04354 14.3658 7.42046 14.2187 7.11944 13.7457L6.27577 14.2826Z" fill="#9C9C9C"/>
</svg>
