<svg width="48" height="48" viewBox="0 0 48 48" fill="none" xmlns="http://www.w3.org/2000/svg">
<path d="M39.4909 11.0114C39.3434 10.9962 39.1947 10.9962 39.0472 11.0114H8.74353C8.54931 11.0144 8.35637 11.0435 8.16992 11.098L23.8088 26.6719L39.4909 11.0114Z" fill="#3D3D3D"/>
<path d="M41.0927 12.5157L25.3348 28.2087C24.9293 28.6119 24.3807 28.8382 23.8088 28.8382C23.237 28.8382 22.6884 28.6119 22.2828 28.2087L6.6656 12.6348C6.61759 12.8113 6.59214 12.9931 6.58984 13.1759V34.8214C6.58984 35.3955 6.81789 35.946 7.22383 36.352C7.62976 36.7579 8.18032 36.986 8.75439 36.986H39.0581C39.6321 36.986 40.1827 36.7579 40.5886 36.352C40.9946 35.946 41.2226 35.3955 41.2226 34.8214V13.1759C41.214 12.9504 41.1702 12.7277 41.0927 12.5157ZM10.2371 34.8214H8.73275V33.2738L16.6009 25.4706L18.1269 26.9966L10.2371 34.8214ZM39.0364 34.8214H37.5212L29.6315 26.9966L31.1575 25.4706L39.0256 33.2738L39.0364 34.8214Z" fill="#3D3D3D"/>
</svg>
