<svg width="32" height="32" viewBox="0 0 32 32" fill="none" xmlns="http://www.w3.org/2000/svg">
<path d="M15.465 23.3409L15.4642 23.3402C13.0082 21.0405 11.0093 19.1681 9.61849 17.4123C8.23382 15.6643 7.5 14.09 7.5 12.3951C7.5 9.63476 9.59012 7.5 12.225 7.5C13.7205 7.5 15.1684 8.22137 16.1143 9.36826L16.5 9.83599L16.8857 9.36826C17.8316 8.22137 19.2795 7.5 20.775 7.5C23.4099 7.5 25.5 9.63477 25.5 12.3951C25.5 14.09 24.7662 15.6643 23.3814 17.4136C21.9926 19.168 19.9978 21.0399 17.5468 23.3396L17.5364 23.3494L17.5354 23.3504L16.5013 24.315L15.465 23.3409Z" stroke="white"/>
</svg>
