<svg width="36" height="36" viewBox="0 0 36 36" fill="none" xmlns="http://www.w3.org/2000/svg">
<path d="M4 23.6429C4 23.1219 4.20695 22.6223 4.57533 22.2539C4.9437 21.8855 5.44332 21.6786 5.96429 21.6786H9.89286C10.4138 21.6786 10.9134 21.8855 11.2818 22.2539C11.6502 22.6223 11.8571 23.1219 11.8571 23.6429V29.5357C11.8571 30.0567 11.6502 30.5563 11.2818 30.9247C10.9134 31.293 10.4138 31.5 9.89286 31.5H5.96429C5.44332 31.5 4.9437 31.293 4.57533 30.9247C4.20695 30.5563 4 30.0567 4 29.5357V23.6429ZM13.8214 15.7857C13.8214 15.2648 14.0284 14.7651 14.3968 14.3968C14.7651 14.0284 15.2648 13.8214 15.7857 13.8214H19.7143C20.2352 13.8214 20.7349 14.0284 21.1032 14.3968C21.4716 14.7651 21.6786 15.2648 21.6786 15.7857V29.5357C21.6786 30.0567 21.4716 30.5563 21.1032 30.9247C20.7349 31.293 20.2352 31.5 19.7143 31.5H15.7857C15.2648 31.5 14.7651 31.293 14.3968 30.9247C14.0284 30.5563 13.8214 30.0567 13.8214 29.5357V15.7857ZM23.6429 5.96429C23.6429 5.44332 23.8498 4.9437 24.2182 4.57533C24.5866 4.20695 25.0862 4 25.6071 4H29.5357C30.0567 4 30.5563 4.20695 30.9247 4.57533C31.293 4.9437 31.5 5.44332 31.5 5.96429V29.5357C31.5 30.0567 31.293 30.5563 30.9247 30.9247C30.5563 31.293 30.0567 31.5 29.5357 31.5H25.6071C25.0862 31.5 24.5866 31.293 24.2182 30.9247C23.8498 30.5563 23.6429 30.0567 23.6429 29.5357V5.96429Z" fill="#3D3D3D"/>
</svg>
