<svg width="48" height="48" viewBox="0 0 48 48" fill="none" xmlns="http://www.w3.org/2000/svg">
<path d="M29.0003 30.3252L31.5849 27.7406C31.9308 27.3946 32.3707 27.1576 32.85 27.0592C33.3294 26.9607 33.827 27.0051 34.2814 27.1868L37.429 28.4467C37.893 28.6324 38.2906 28.9527 38.5708 29.3665C38.8509 29.7803 39.0006 30.2686 39.0006 30.7683V36.4924C39.0014 36.8327 38.9327 37.1695 38.7989 37.4822C38.665 37.795 38.4687 38.0772 38.222 38.3115C37.9753 38.5458 37.6834 38.7272 37.3641 38.8448C37.0448 38.9623 36.7049 39.0135 36.3652 38.9951C14.3016 37.622 9.84546 18.9345 9.01816 11.7784C8.97809 11.4286 9.01254 11.0742 9.11925 10.7387C9.22596 10.4031 9.4025 10.0939 9.63727 9.83144C9.87204 9.56898 10.1597 9.35921 10.4814 9.2159C10.803 9.0726 11.1514 8.99903 11.5035 9.00001H17.1262C17.6258 8.99999 18.1141 9.1497 18.5279 9.42981C18.9417 9.70993 19.262 10.1076 19.4477 10.5715L20.7065 13.7192C20.8882 14.1735 20.9325 14.6712 20.8341 15.1505C20.7356 15.6298 20.4987 16.0697 20.1527 16.4157L17.5681 19.0003C17.5681 19.0003 19.0011 29.0756 29.0003 30.3252Z" fill="#3D3D3D"/>
<path d="M36.6936 20.5384V18.2307H31.4021L39.0012 10.6315L37.3697 9L29.7706 16.5992V11.3077H27.4629V20.5384H36.6936Z" fill="#3D3D3D"/>
</svg>
