<svg width="48" height="48" viewBox="0 0 48 48" fill="none" xmlns="http://www.w3.org/2000/svg">
<path d="M6 15.55C6 13.0384 8.016 11 10.5 11H37.5C39.984 11 42 13.0384 42 15.55V32.45C42 33.6567 41.5259 34.814 40.682 35.6673C39.8381 36.5206 38.6935 37 37.5 37H10.5C9.30653 37 8.16193 36.5206 7.31802 35.6673C6.47411 34.814 6 33.6567 6 32.45V15.55ZM16.9569 23.2564C17.4151 23.2564 17.8688 23.1651 18.2922 22.9878C18.7156 22.8105 19.1002 22.5506 19.4243 22.223C19.7483 21.8954 20.0053 21.5064 20.1807 21.0784C20.356 20.6503 20.4463 20.1915 20.4463 19.7282C20.4463 19.2649 20.356 18.8061 20.1807 18.378C20.0053 17.95 19.7483 17.561 19.4243 17.2334C19.1002 16.9058 18.7156 16.6459 18.2922 16.4686C17.8688 16.2913 17.4151 16.2 16.9569 16.2C16.0314 16.2 15.1439 16.5717 14.4895 17.2334C13.8351 17.8951 13.4674 18.7925 13.4674 19.7282C13.4674 20.6639 13.8351 21.5613 14.4895 22.223C15.1439 22.8847 16.0314 23.2564 16.9569 23.2564ZM13.3491 25.0192C12.764 25.0192 12.2028 25.2542 11.7891 25.6726C11.3753 26.0909 11.1429 26.6584 11.1429 27.25C11.1429 28.2183 11.4631 29.1588 12.0525 29.9219C12.6419 30.6851 13.4667 31.2272 14.3957 31.462L14.532 31.4984C16.1263 31.9014 17.79 31.9014 19.3817 31.4984L19.5206 31.4646C20.4496 31.2298 21.2744 30.6877 21.8638 29.9245C22.4532 29.1614 22.7733 28.2209 22.7734 27.2526C22.7738 26.9594 22.7169 26.6691 22.6062 26.3981C22.4955 26.1272 22.333 25.8809 22.1281 25.6735C21.9232 25.4661 21.6799 25.3015 21.412 25.1893C21.1442 25.077 20.8571 25.0192 20.5671 25.0192H13.3491ZM27.8571 18.8C27.5161 18.8 27.1891 18.937 26.948 19.1808C26.7069 19.4246 26.5714 19.7552 26.5714 20.1C26.5714 20.4448 26.7069 20.7754 26.948 21.0192C27.1891 21.263 27.5161 21.4 27.8571 21.4H35.5714C35.9124 21.4 36.2394 21.263 36.4806 21.0192C36.7217 20.7754 36.8571 20.4448 36.8571 20.1C36.8571 19.7552 36.7217 19.4246 36.4806 19.1808C36.2394 18.937 35.9124 18.8 35.5714 18.8H27.8571ZM27.8571 26.6C27.5161 26.6 27.1891 26.737 26.948 26.9808C26.7069 27.2246 26.5714 27.5552 26.5714 27.9C26.5714 28.2448 26.7069 28.5754 26.948 28.8192C27.1891 29.063 27.5161 29.2 27.8571 29.2H35.5714C35.9124 29.2 36.2394 29.063 36.4806 28.8192C36.7217 28.5754 36.8571 28.2448 36.8571 27.9C36.8571 27.5552 36.7217 27.2246 36.4806 26.9808C36.2394 26.737 35.9124 26.6 35.5714 26.6H27.8571Z" fill="#3D3D3D"/>
</svg>
