<svg width="16" height="16" viewBox="0 0 16 16" fill="none" xmlns="http://www.w3.org/2000/svg">
<path d="M4 6.22497L3.57817 5.95653L3.5 6.07937V6.22497H4ZM6.69761 1.98588L7.11944 2.25431L6.69761 1.98588ZM9.36455 3.49587L8.91734 3.27227V3.27227L9.36455 3.49587ZM8 6.22497L7.55279 6.00136C7.47529 6.15636 7.48357 6.34043 7.57467 6.48784C7.66578 6.63524 7.82671 6.72497 8 6.72497V6.22497ZM15 11.225L15.4 11.525L15.5 11.3916V11.225H15ZM12.6 14.425L13 14.725L12.6 14.425ZM8.78158 1.49392L9.03883 1.06517L9.03883 1.06517L8.78158 1.49392ZM0.5 5.72497V15.725H1.5V5.72497H0.5ZM4.42183 6.49341L7.11944 2.25431L6.27577 1.71744L3.57817 5.95653L4.42183 6.49341ZM8.91734 3.27227L7.55279 6.00136L8.44721 6.44858L9.81176 3.71948L8.91734 3.27227ZM8 6.72497H13V5.72497H8V6.72497ZM14.5 8.22497V11.225H15.5V8.22497H14.5ZM14.6 10.925L12.2 14.125L13 14.725L15.4 11.525L14.6 10.925ZM11 14.725H6V15.725H11V14.725ZM4.5 13.225V6.22497H3.5V13.225H4.5ZM13 6.72497C13.8284 6.72497 14.5 7.39654 14.5 8.22497H15.5C15.5 6.84426 14.3807 5.72497 13 5.72497V6.72497ZM6 14.725C5.17157 14.725 4.5 14.0534 4.5 13.225H3.5C3.5 14.6057 4.61929 15.725 6 15.725V14.725ZM8.52433 1.92266C8.98782 2.20076 9.15906 2.78881 8.91734 3.27227L9.81176 3.71948C10.2872 2.76865 9.95039 1.61211 9.03883 1.06517L8.52433 1.92266ZM12.2 14.125C11.9167 14.5027 11.4721 14.725 11 14.725V15.725C11.7869 15.725 12.5279 15.3545 13 14.725L12.2 14.125ZM7.11944 2.25431C7.42046 1.78128 8.04354 1.63419 8.52433 1.92266L9.03883 1.06517C8.09324 0.497821 6.8678 0.78711 6.27577 1.71744L7.11944 2.25431Z" fill="#9C9C9C"/>
</svg>
