<svg width="14" height="16" viewBox="0 0 14 16" fill="none" xmlns="http://www.w3.org/2000/svg">
<path fill-rule="evenodd" clip-rule="evenodd" d="M7 0C10.866 0 14 3.10001 14 6.92406C14 9.45456 11.8826 12.1301 7.73753 15.0447L7 15.5556L6.55495 15.2484C2.21699 12.2546 0 9.5134 0 6.92406C0 3.10001 3.13401 0 7 0ZM7 1.53866C3.99312 1.53866 1.55556 3.94977 1.55556 6.92404C1.55556 8.79264 3.34189 11.0728 7 13.6747C10.6581 11.0728 12.4444 8.79264 12.4444 6.92404C12.4444 3.94977 10.0069 1.53866 7 1.53866ZM7 3.11111C8.71822 3.11111 10.1111 4.504 10.1111 6.22222C10.1111 7.94044 8.71822 9.33333 7 9.33333C5.28178 9.33333 3.88889 7.94044 3.88889 6.22222C3.88889 4.504 5.28178 3.11111 7 3.11111ZM7 4.66667C6.14089 4.66667 5.44444 5.36311 5.44444 6.22222C5.44444 7.08133 6.14089 7.77778 7 7.77778C7.85911 7.77778 8.55556 7.08133 8.55556 6.22222C8.55556 5.36311 7.85911 4.66667 7 4.66667Z" fill="#747474"/>
</svg>
