<svg width="16" height="17" viewBox="0 0 16 17" fill="none" xmlns="http://www.w3.org/2000/svg">
<path d="M14 7.22727C14 11.6818 8 15.5 8 15.5C8 15.5 2 11.6818 2 7.22727C2 5.70831 2.63214 4.25155 3.75736 3.17748C4.88258 2.10341 6.4087 1.5 8 1.5C9.5913 1.5 11.1174 2.10341 12.2426 3.17748C13.3679 4.25155 14 5.70831 14 7.22727Z" stroke="#ECECEC" stroke-linecap="round" stroke-linejoin="round"/>
<path d="M8 9.5C9.10457 9.5 10 8.60457 10 7.5C10 6.39543 9.10457 5.5 8 5.5C6.89543 5.5 6 6.39543 6 7.5C6 8.60457 6.89543 9.5 8 9.5Z" stroke="#ECECEC" stroke-linecap="round" stroke-linejoin="round"/>
</svg>
