<svg width="16" height="16" viewBox="0 0 16 16" fill="none" xmlns="http://www.w3.org/2000/svg">
<path d="M12 5.33333C12 3.12667 10.2067 1.33333 8.00004 1.33333C5.79337 1.33333 4.00004 3.12667 4.00004 5.33333C4.00004 8.33333 8.00004 12.6667 8.00004 12.6667C8.00004 12.6667 12 8.33333 12 5.33333ZM6.66671 5.33333C6.66671 4.6 7.26671 4 8.00004 4C8.73337 4 9.33337 4.6 9.33337 5.33333C9.33337 5.68695 9.1929 6.02609 8.94285 6.27614C8.6928 6.52619 8.35366 6.66667 8.00004 6.66667C7.64642 6.66667 7.30728 6.52619 7.05723 6.27614C6.80718 6.02609 6.66671 5.68695 6.66671 5.33333ZM3.33337 13.3333V14.6667H12.6667V13.3333H3.33337Z" fill="#3F3F3F"/>
</svg>
