<svg width="16" height="16" viewBox="0 0 16 16" fill="none" xmlns="http://www.w3.org/2000/svg">
<path d="M12.2353 6.58823V4.70588C12.2353 2.35293 10.353 0.470581 8.00004 0.470581C5.6471 0.470581 3.76475 2.35293 3.76475 4.70588V6.58823C2.96475 6.58823 2.35298 7.19999 2.35298 7.99999V14.1176C2.35298 14.8706 2.96475 15.5294 3.76475 15.5294H12.2353C13.0353 15.5294 13.6471 14.8706 13.6471 14.1176V7.99999C13.6471 7.19999 13.0353 6.58823 12.2353 6.58823ZM4.70592 4.70588C4.70592 2.87058 6.16475 1.41176 8.00004 1.41176C9.83533 1.41176 11.2942 2.87058 11.2942 4.70588V6.58823H4.70592V4.70588ZM8.47063 11.6706V12.7059C8.47063 12.9882 8.28239 13.1765 8.00004 13.1765C7.71769 13.1765 7.52945 12.9882 7.52945 12.7059V11.6706C6.96475 11.4823 6.58828 10.9647 6.58828 10.3529C6.58828 9.55293 7.20004 8.94117 8.00004 8.94117C8.80004 8.94117 9.41181 9.55293 9.41181 10.3529C9.41181 10.9647 9.03533 11.4823 8.47063 11.6706Z" fill="white"/>
</svg>
