<svg width="48" height="48" viewBox="0 0 48 48" fill="none" xmlns="http://www.w3.org/2000/svg">
<path d="M40.5 3H7.5C5.01562 3 3 5.01562 3 7.5V40.5C3 42.9844 5.01562 45 7.5 45H40.5C42.9844 45 45 42.9844 45 40.5V7.5C45 5.01562 42.9844 3 40.5 3ZM25.5 30H21V34.5C21 35.325 20.325 36 19.5 36H16.5C15.675 36 15 35.325 15 34.5V13.5C15 12.675 15.675 12 16.5 12H25.5C30.4594 12 34.5 16.0406 34.5 21C34.5 25.9594 30.4594 30 25.5 30ZM25.5 18H21V24H25.5C27.15 24 28.5 22.65 28.5 21C28.5 19.35 27.15 18 25.5 18Z" fill="#3D3D3D"/>
</svg>
