<svg width="22" height="16" viewBox="0 0 22 16" fill="none" xmlns="http://www.w3.org/2000/svg">
<path d="M0 0V16H22V0H0ZM20.9268 1.06667V2.66667H1.07317V1.06667H20.9268ZM20.9268 3.73333V5.33333H1.07317V3.73333H20.9268ZM1.07317 14.9333V6.4H20.9268V14.9333H1.07317Z" fill="#FF8651"/>
<path d="M16.8462 9C16.3684 9 16.1433 9.2441 15.7692 9.5C15.4032 9.24795 14.6463 9 14.1538 9C12.9478 9 12 9.8972 12 11C12 12.1028 12.9477 13 14.1538 13C14.6463 13 15.4032 12.752 15.7692 12.5C16.1433 12.7559 16.3684 13 16.8462 13C18.0523 13 19 12.1028 19 11C19 9.8972 18.0523 9 16.8462 9ZM14.1538 12C13.671 12 13.0769 11.4415 13.0769 11C13.0769 10.5585 13.671 10 14.1538 10C14.6367 10 15.2308 10.5585 15.2308 11C15.2308 11.4415 14.6367 12 14.1538 12ZM16.8462 12C16.6421 12 16.4604 11.6125 16.3077 11.5C16.3787 11.3033 16.3077 11.2182 16.3077 11C16.3077 10.7818 16.3787 10.6968 16.3077 10.5C16.4604 10.3875 16.6421 10 16.8462 10C17.329 10 17.9231 10.5585 17.9231 11C17.9231 11.4415 17.329 12 16.8462 12Z" fill="#FF8651"/>
<path d="M3 12H9V13H3V12Z" fill="#FF8651"/>
<path d="M3 10H9V11H3V10Z" fill="#FF8651"/>
</svg>
