<svg width="24" height="24" viewBox="0 0 24 24" fill="none" xmlns="http://www.w3.org/2000/svg">
<path d="M0.00467193 4.3755C0.00687654 4.34003 0.0136908 4.30506 0.0254151 4.27139C0.029924 4.25876 0.0330304 4.24674 0.0386426 4.23431C0.0579822 4.19072 0.0851377 4.15114 0.118607 4.11727L4.11844 0.117141C4.15221 0.0836722 4.19209 0.0566165 4.23528 0.0370763C4.24831 0.0315649 4.26043 0.0282581 4.27346 0.0239493C4.30653 0.0125257 4.3408 0.00551136 4.37567 0.003407C4.38299 0.00420864 4.3911 0 4.39992 0H14.7998C15.0208 0 15.1998 0.179169 15.1998 0.400023V11.9999H14.3999V0.799843H4.79984V4.39995C4.79984 4.62091 4.62077 4.79998 4.39992 4.79998H0.799709V20.7999H6.39972V21.6H0.399786C0.178931 21.6 -0.000137329 21.421 -0.000137329 21.2V4.39995C-0.000137329 4.39153 0.00427185 4.38402 0.00467193 4.3755ZM3.9998 4.00003V1.36561L1.36547 4.00003H3.9998Z" fill="white"/>
<path d="M12.7999 6.40009H7.99988C7.77903 6.40009 7.59999 6.22091 7.59999 5.99997V3.19999C7.59999 3.02773 7.71001 2.87482 7.87354 2.82031L10.2736 2.02026C10.3556 1.993 10.4442 1.993 10.5263 2.02026L12.9262 2.82031C13.0897 2.87482 13.1999 3.02773 13.1999 3.19999V5.99997C13.1999 6.22091 13.0208 6.40009 12.7999 6.40009ZM12.3999 4.39996H11.5999V5.59993H12.3999V4.39996ZM9.99989 4.39996V5.59993H10.8V4.39996H9.99989ZM9.19997 5.59993V4.39996H8.39981V5.59993H9.19997ZM12.3999 3.48828L10.3999 2.82141L8.39981 3.48828V3.60001H12.3999V3.48828Z" fill="white"/>
<path d="M13.1999 11.9999H6.3998V20H2.39986C2.17891 20 1.99974 19.8209 1.99974 19.5999V8.40009C1.99974 8.1792 2.17891 8.00006 2.39986 8.00006H12.7999C13.0208 8.00006 13.1999 8.1792 13.1999 8.40009V11.9999ZM12.3999 11.2V10.4H6.3998V11.2H12.3999ZM5.59997 10.4H2.79989V11.2H5.59997V10.4ZM2.79989 11.9999V12.8001H5.59997V11.9999H2.79989ZM5.59997 16.8H2.79989V17.6001H5.59997V16.8ZM5.59997 16V15.2001H2.79989V16H5.59997ZM5.59997 14.4001V13.6H2.79989V14.4001H5.59997ZM5.59997 19.2V18.3999H2.79989V19.2H5.59997ZM2.79989 8.79998V9.59995H5.59997V8.79998H2.79989ZM6.3998 8.79998V9.59995H12.3999V8.79998H6.3998Z" fill="white"/>
<path d="M6.80016 5.59991H2.4001V6.40007H6.80016V5.59991Z" fill="white"/>
<path d="M6.80016 4.00006H5.6002V4.80001H6.80016V4.00006Z" fill="white"/>
<path d="M7.36507 12.8254V23.365H21.7693V12.8254H7.36507ZM21.0666 13.528V14.582H8.06769V13.528H21.0666ZM21.0666 15.2846V16.3386H8.06769V15.2846H21.0666ZM8.06769 22.6624V17.0412H21.0666V22.6624H8.06769Z" fill="white"/>
<path d="M18.6074 18.4465C18.2957 18.4465 18.1488 18.6181 17.9048 18.7979C17.666 18.6208 17.1721 18.4465 16.8508 18.4465C16.0639 18.4465 15.4455 19.077 15.4455 19.8518C15.4455 20.6267 16.0639 21.2571 16.8508 21.2571C17.1721 21.2571 17.666 21.0829 17.9048 20.9058C18.1488 21.0856 18.2957 21.2571 18.6074 21.2571C19.3943 21.2571 20.0127 20.6267 20.0127 19.8518C20.0127 19.077 19.3943 18.4465 18.6074 18.4465ZM16.8508 20.5545C16.5358 20.5545 16.1481 20.1621 16.1481 19.8518C16.1481 19.5416 16.5357 19.1492 16.8508 19.1492C17.1658 19.1492 17.5534 19.5416 17.5534 19.8518C17.5534 20.1621 17.1658 20.5545 16.8508 20.5545ZM18.6074 20.5545C18.4742 20.5545 18.3557 20.2822 18.2561 20.2031C18.3024 20.0649 18.2561 20.0051 18.2561 19.8518C18.2561 19.6985 18.3024 19.6388 18.2561 19.5005C18.3557 19.4215 18.4742 19.1492 18.6074 19.1492C18.9224 19.1492 19.31 19.5416 19.31 19.8518C19.31 20.1621 18.9224 20.5545 18.6074 20.5545Z" fill="white"/>
<path d="M9.12163 20.5545H12.9862V21.2571H9.12163V20.5545Z" fill="white"/>
<path d="M9.12163 18.7979H12.9862V19.5005H9.12163V18.7979Z" fill="white"/>
</svg>
