<svg width="12" height="12" viewBox="0 0 12 12" fill="none" xmlns="http://www.w3.org/2000/svg">
<path d="M9.69217 4.61554H8.76906C8.76869 4.24842 8.62269 3.89644 8.3631 3.63684C8.1035 3.37725 7.75152 3.23125 7.3844 3.23088V2.30778C7.99623 2.30851 8.5828 2.55188 9.01543 2.98451C9.44806 3.41715 9.69143 4.00371 9.69217 4.61554Z" fill="#3F3F3F"/>
<path d="M11.5384 4.61554H10.6153C10.6143 3.75896 10.2736 2.93775 9.66789 2.33205C9.0622 1.72636 8.24098 1.38565 7.3844 1.38467V0.461565C8.48573 0.462786 9.5416 0.900829 10.3204 1.67959C11.0991 2.45834 11.5372 3.51421 11.5384 4.61554Z" fill="#3F3F3F"/>
<path d="M7.99966 8.53043L9.03354 7.49655C9.17193 7.35813 9.3479 7.26335 9.53963 7.22397C9.73137 7.18459 9.93044 7.20234 10.1122 7.275L11.3713 7.77902C11.5569 7.85327 11.716 7.98143 11.828 8.14695C11.9401 8.31248 11.9999 8.50778 11.9999 8.70767V10.9974C12.0003 11.1335 11.9728 11.2683 11.9193 11.3934C11.8657 11.5185 11.7872 11.6314 11.6885 11.7251C11.5898 11.8188 11.473 11.8914 11.3453 11.9384C11.2176 11.9854 11.0816 12.0059 10.9458 11.9985C2.11993 11.4493 0.337415 3.97398 0.00648121 1.11142C-0.00954687 0.971479 0.00423472 0.829726 0.0469196 0.69549C0.0896046 0.561253 0.160226 0.437574 0.254137 0.332588C0.348049 0.227602 0.463124 0.143688 0.591792 0.0863655C0.720461 0.0290428 0.859808 -0.00038975 1.00067 3.89709e-06H3.24982C3.4497 -2.52128e-06 3.645 0.0598819 3.81053 0.171932C3.97605 0.283983 4.10421 0.443058 4.17846 0.628639L4.68202 1.88776C4.75468 2.0695 4.77243 2.26858 4.73305 2.46031C4.69367 2.65205 4.59889 2.82802 4.46047 2.96641L3.42659 4.00029C3.42659 4.00029 3.99984 8.03057 7.99966 8.53043Z" fill="#3F3F3F"/>
</svg>
