<svg width="24" height="24" viewBox="0 0 24 24" fill="none" xmlns="http://www.w3.org/2000/svg">
<path d="M15.6921 10.6156H14.769C14.7686 10.2485 14.6226 9.89652 14.363 9.63693C14.1034 9.37734 13.7515 9.23133 13.3843 9.23097V8.30786C13.9962 8.30859 14.5827 8.55197 15.0154 8.9846C15.448 9.41723 15.6914 10.0038 15.6921 10.6156Z" fill="#3F3F3F"/>
<path d="M17.5383 10.6156H16.6152C16.6142 9.75907 16.2735 8.93785 15.6678 8.33216C15.0621 7.72646 14.2409 7.38575 13.3843 7.38478V6.46167C14.4857 6.46289 15.5415 6.90093 16.3203 7.67969C17.0991 8.45845 17.5371 9.51432 17.5383 10.6156Z" fill="#3F3F3F"/>
<path d="M13.9997 14.5304L15.0335 13.4966C15.1719 13.3581 15.3479 13.2634 15.5396 13.224C15.7314 13.1846 15.9304 13.2023 16.1122 13.275L17.3713 13.779C17.5569 13.8533 17.716 13.9814 17.828 14.147C17.9401 14.3125 17.9999 14.5078 17.9999 14.7077V16.9974C18.0003 17.1335 17.9728 17.2683 17.9193 17.3934C17.8657 17.5185 17.7872 17.6314 17.6885 17.7251C17.5898 17.8188 17.473 17.8914 17.3453 17.9384C17.2176 17.9854 17.0816 18.0059 16.9458 17.9985C8.11993 17.4493 6.33741 9.97398 6.00648 7.11142C5.99045 6.97148 6.00423 6.82973 6.04692 6.69549C6.0896 6.56125 6.16023 6.43757 6.25414 6.33259C6.34805 6.2276 6.46312 6.14369 6.59179 6.08637C6.72046 6.02904 6.85981 5.99961 7.00067 6H9.24982C9.4497 6 9.645 6.05988 9.81053 6.17193C9.97605 6.28398 10.1042 6.44306 10.1785 6.62864L10.682 7.88776C10.7547 8.0695 10.7724 8.26858 10.733 8.46031C10.6937 8.65205 10.5989 8.82802 10.4605 8.96641L9.42659 10.0003C9.42659 10.0003 9.99984 14.0306 13.9997 14.5304Z" fill="#3F3F3F"/>
</svg>
