<svg width="36" height="36" viewBox="0 0 36 36" fill="none" xmlns="http://www.w3.org/2000/svg">
<path fill-rule="evenodd" clip-rule="evenodd" d="M18 3C9.71591 3 3 9.71591 3 18C3 26.2841 9.71591 33 18 33C26.2841 33 33 26.2841 33 18C33 9.71591 26.2841 3 18 3ZM19.3636 23.4545C19.3636 23.8162 19.22 24.1631 18.9642 24.4188C18.7085 24.6745 18.3617 24.8182 18 24.8182C17.6383 24.8182 17.2915 24.6745 17.0358 24.4188C16.78 24.1631 16.6364 23.8162 16.6364 23.4545V19.3636H12.5455C12.1838 19.3636 11.8369 19.22 11.5812 18.9642C11.3255 18.7085 11.1818 18.3617 11.1818 18C11.1818 17.6383 11.3255 17.2915 11.5812 17.0358C11.8369 16.78 12.1838 16.6364 12.5455 16.6364H16.6364V12.5455C16.6364 12.1838 16.78 11.8369 17.0358 11.5812C17.2915 11.3255 17.6383 11.1818 18 11.1818C18.3617 11.1818 18.7085 11.3255 18.9642 11.5812C19.22 11.8369 19.3636 12.1838 19.3636 12.5455V16.6364H23.4545C23.8162 16.6364 24.1631 16.78 24.4188 17.0358C24.6745 17.2915 24.8182 17.6383 24.8182 18C24.8182 18.3617 24.6745 18.7085 24.4188 18.9642C24.1631 19.22 23.8162 19.3636 23.4545 19.3636H19.3636V23.4545Z" fill="#3D3D3D"/>
</svg>
