<svg width="24" height="24" viewBox="0 0 24 24" fill="none" xmlns="http://www.w3.org/2000/svg">
<path d="M13.3884 8.71738C13.2727 8.83541 13.2079 8.9941 13.2079 9.15937C13.2079 9.32464 13.2727 9.48333 13.3884 9.60136L14.3986 10.6116C14.5167 10.7273 14.6754 10.7921 14.8406 10.7921C15.0059 10.7921 15.1646 10.7273 15.2826 10.6116L17.6631 8.23119C17.9805 8.93281 18.0767 9.71453 17.9386 10.4722C17.8006 11.2298 17.4349 11.9274 16.8904 12.4719C16.3458 13.0165 15.6482 13.3822 14.8906 13.5202C14.133 13.6582 13.3512 13.5621 12.6496 13.2446L8.28655 17.6077C8.03536 17.8589 7.69467 18 7.33943 18C6.98419 18 6.6435 17.8589 6.39231 17.6077C6.14112 17.3565 6 17.0158 6 16.6606C6 16.3053 6.14112 15.9646 6.39231 15.7134L10.7554 11.3504C10.4379 10.6488 10.3418 9.86704 10.4798 9.1094C10.6178 8.35176 10.9835 7.65418 11.5281 7.10962C12.0726 6.56507 12.7702 6.19941 13.5278 6.06136C14.2855 5.92332 15.0672 6.01945 15.7688 6.33695L13.3947 8.71107L13.3884 8.71738Z" fill="#3F3F3F"/>
</svg>
