<svg width="48" height="48" viewBox="0 0 48 48" fill="none" xmlns="http://www.w3.org/2000/svg">
<path fill-rule="evenodd" clip-rule="evenodd" d="M42 24C42 33.9405 33.9405 42 24 42C14.0595 42 6 33.9405 6 24C6 14.0595 14.0595 6 24 6C33.9405 6 42 14.0595 42 24ZM24.645 19.2885C22.8945 20.016 19.395 21.5235 14.148 23.8095C13.296 24.1485 12.849 24.48 12.8085 24.804C12.7395 25.353 13.4265 25.569 14.3595 25.8615C14.487 25.902 14.619 25.9425 14.754 25.9875C15.6735 26.286 16.9095 26.6355 17.5515 26.649C18.135 26.661 18.786 26.421 19.5045 25.929C24.4065 22.6185 26.937 20.946 27.096 20.91C27.2085 20.8845 27.3645 20.8515 27.4695 20.946C27.5745 21.039 27.564 21.216 27.5535 21.264C27.4845 21.5535 24.7935 24.057 23.3985 25.353C22.9635 25.7565 22.656 26.043 22.593 26.109C22.452 26.2545 22.308 26.394 22.17 26.5275C21.315 27.3495 20.676 27.9675 22.206 28.9755C22.941 29.46 23.529 29.8605 24.1155 30.2595C24.756 30.696 25.395 31.131 26.223 31.674C26.433 31.812 26.634 31.9545 26.8305 32.094C27.576 32.6265 28.2465 33.1035 29.0745 33.0285C29.5545 32.9835 30.0525 32.532 30.3045 31.1835C30.9 27.9945 32.073 21.0885 32.3445 18.2415C32.361 18.0051 32.351 17.7676 32.3145 17.5335C32.2927 17.3444 32.2006 17.1704 32.0565 17.046C31.842 16.8705 31.509 16.833 31.359 16.836C30.6825 16.848 29.6445 17.2095 24.645 19.2885Z" fill="#3D3D3D"/>
</svg>
