<svg width="48" height="48" viewBox="0 0 48 48" fill="none" xmlns="http://www.w3.org/2000/svg">
<path d="M27.4681 15.7924C27.1789 16.0874 27.0169 16.4841 27.0169 16.8972C27.0169 17.3103 27.1789 17.707 27.4681 18.002L29.9934 20.5273C30.2884 20.8165 30.6851 20.9784 31.0982 20.9784C31.5113 20.9784 31.908 20.8165 32.203 20.5273L38.1531 14.5771C38.9468 16.3309 39.1871 18.2849 38.842 20.1787C38.4969 22.0725 37.5829 23.8162 36.2218 25.1774C34.8606 26.5385 33.1169 27.4526 31.2231 27.7976C29.3293 28.1427 27.3753 27.9024 25.6215 27.1087L14.7155 38.0147C14.0876 38.6426 13.236 38.9954 12.3481 38.9954C11.4601 38.9954 10.6085 38.6426 9.98064 38.0147C9.35276 37.3869 9.00002 36.5353 9.00002 35.6473C9.00002 34.7593 9.35276 33.9078 9.98064 33.2799L20.8866 22.3739C20.093 20.6201 19.8527 18.6661 20.1978 16.7723C20.5428 14.8785 21.4568 13.1348 22.818 11.7736C24.1792 10.4125 25.9229 9.49844 27.8167 9.15338C29.7105 8.80833 31.6645 9.04862 33.4183 9.84224L27.4839 15.7766L27.4681 15.7924Z" fill="#3D3D3D"/>
<path fill-rule="evenodd" clip-rule="evenodd" d="M29 42.8334C32.2217 42.8334 34.8334 40.2217 34.8334 37.0001C34.8334 33.7784 32.2217 31.1667 29 31.1667C25.7784 31.1667 23.1667 33.7784 23.1667 37.0001C23.1667 40.2217 25.7784 42.8334 29 42.8334ZM31.1036 34.8965C31.2988 35.0918 31.2988 35.4084 31.1036 35.6036L29.7071 37.0001L31.1036 38.3965C31.2988 38.5918 31.2988 38.9084 31.1036 39.1036C30.9083 39.2989 30.5917 39.2989 30.3964 39.1036L29 37.7072L27.6036 39.1036C27.4083 39.2989 27.0917 39.2989 26.8964 39.1036C26.7012 38.9084 26.7012 38.5918 26.8964 38.3965L28.2929 37.0001L26.8964 35.6036C26.7012 35.4084 26.7012 35.0918 26.8964 34.8965C27.0917 34.7013 27.4083 34.7013 27.6036 34.8965L29 36.293L30.3964 34.8965C30.5917 34.7013 30.9083 34.7013 31.1036 34.8965Z" fill="#3D3D3D"/>
</svg>
