<svg width="48" height="48" viewBox="0 0 48 48" fill="none" xmlns="http://www.w3.org/2000/svg">
<path d="M27.4681 15.7924C27.1789 16.0874 27.0169 16.4841 27.0169 16.8972C27.0169 17.3103 27.1789 17.707 27.4681 18.002L29.9934 20.5273C30.2884 20.8165 30.6851 20.9784 31.0982 20.9784C31.5113 20.9784 31.908 20.8165 32.203 20.5273L38.1531 14.5771C38.9468 16.3309 39.1871 18.2849 38.842 20.1787C38.4969 22.0725 37.5829 23.8162 36.2218 25.1774C34.8606 26.5385 33.1169 27.4526 31.2231 27.7976C29.3293 28.1427 27.3753 27.9024 25.6215 27.1087L14.7155 38.0147C14.0876 38.6426 13.236 38.9954 12.3481 38.9954C11.4601 38.9954 10.6085 38.6426 9.98064 38.0147C9.35276 37.3869 9.00002 36.5353 9.00002 35.6473C9.00002 34.7593 9.35276 33.9078 9.98064 33.2799L20.8866 22.3739C20.093 20.6201 19.8527 18.6661 20.1978 16.7723C20.5428 14.8785 21.4568 13.1348 22.818 11.7736C24.1792 10.4125 25.9229 9.49844 27.8167 9.15338C29.7105 8.80833 31.6645 9.04862 33.4183 9.84224L27.4839 15.7766L27.4681 15.7924Z" fill="#3D3D3D"/>
</svg>
