<svg width="36" height="36" viewBox="0 0 36 36" fill="none" xmlns="http://www.w3.org/2000/svg">
<path d="M28.7999 10.8H6.29985V9.89998L26.0999 8.31598V9.89998H28.7999V7.19998C28.7999 5.21998 27.1961 3.83038 25.2377 4.10938L7.16385 6.69058C5.20365 6.97138 3.59985 8.81998 3.59985 10.8V28.8C3.59985 29.7548 3.97914 30.6704 4.65427 31.3456C5.3294 32.0207 6.24507 32.4 7.19985 32.4H28.7999C29.7546 32.4 30.6703 32.0207 31.3454 31.3456C32.0206 30.6704 32.3999 29.7548 32.3999 28.8V14.4C32.3999 13.4452 32.0206 12.5295 31.3454 11.8544C30.6703 11.1793 29.7546 10.8 28.7999 10.8ZM26.0999 23.4108C25.7452 23.4107 25.394 23.3407 25.0663 23.2048C24.7387 23.069 24.441 22.87 24.1903 22.6191C23.9396 22.3682 23.7407 22.0704 23.6051 21.7426C23.4695 21.4149 23.3997 21.0637 23.3999 20.709C23.4 20.3543 23.47 20.0031 23.6058 19.6755C23.7416 19.3478 23.9407 19.0501 24.1916 18.7994C24.4425 18.5487 24.7403 18.3498 25.068 18.2142C25.3957 18.0786 25.747 18.0089 26.1017 18.009C26.818 18.0092 27.5049 18.294 28.0112 18.8007C28.5176 19.3074 28.8019 19.9945 28.8017 20.7108C28.8014 21.4271 28.5166 22.114 28.0099 22.6203C27.5033 23.1267 26.8162 23.411 26.0999 23.4108Z" fill="black"/>
</svg>
