<svg width="48" height="48" viewBox="0 0 48 48" fill="none" xmlns="http://www.w3.org/2000/svg">
<path d="M39.2965 14.3249C33.8964 5.99972 22.8712 3.52469 14.3211 8.69977C5.99597 13.8748 3.29592 25.125 8.69601 33.4502L9.14602 34.1252L7.34599 40.8753L14.0961 39.0752L14.7711 39.5253C17.6961 41.1003 20.8462 42.0003 23.9962 42.0003C27.3713 42.0003 30.7464 41.1003 33.6714 39.3003C41.9965 33.9002 44.4716 22.875 39.2965 14.3249ZM34.5714 31.6501C33.6714 33.0002 32.5464 33.9002 30.9714 34.1252C30.0713 34.1252 28.9463 34.5752 24.4463 32.7751C20.6212 30.9751 17.4711 28.0501 15.2211 24.675C13.8711 23.1 13.1961 21.075 12.9711 19.0499C12.9711 17.2499 13.6461 15.6749 14.7711 14.5499C15.2211 14.0999 15.6711 13.8748 16.1211 13.8748H17.2461C17.6961 13.8748 18.1462 13.8748 18.3712 14.7749C18.8212 15.8999 19.9462 18.5999 19.9462 18.8249C20.1712 19.0499 20.1712 19.4999 19.9462 19.7249C20.1712 20.1749 19.9462 20.625 19.7212 20.85C19.4962 21.075 19.2712 21.525 19.0462 21.75C18.5962 21.975 18.3712 22.425 18.5962 22.875C19.4962 24.225 20.6212 25.575 21.7462 26.7001C23.0962 27.8251 24.4463 28.7251 26.0213 29.4001C26.4713 29.6251 26.9213 29.6251 27.1463 29.1751C27.3713 28.7251 28.4963 27.6001 28.9463 27.1501C29.3963 26.7001 29.6213 26.7001 30.0713 26.9251L33.6714 28.7251C34.1214 28.9501 34.5714 29.1751 34.7964 29.4001C35.0214 30.0751 35.0214 30.9751 34.5714 31.6501Z" fill="#3D3D3D"/>
</svg>
