<svg width="71" height="70" viewBox="0 0 71 70" fill="none" xmlns="http://www.w3.org/2000/svg">
<path d="M63.5 35C63.5 50.5167 50.9 63 35.5 63C20.1 63 7.5 50.4 7.5 35C7.5 19.6 20.1 7 35.5 7C50.9 7 63.5 19.6 63.5 35Z" fill="#8F1E1E"/>
<path d="M35 44H34.775C34.325 43.7714 30.5 41.9429 30.5 39.4286V36.5714C30.5 36.2286 30.725 36 31.0625 36C31.4 36 31.625 36.2286 31.625 36.5714V39.4286C31.625 40.8 33.875 42.2857 35 42.7429C36.125 42.1714 38.375 40.8 38.375 39.4286V36.5714C38.375 36.2286 38.6 36 38.9375 36C39.275 36 39.5 36.2286 39.5 36.5714V39.4286C39.5 41.9429 35.675 43.7714 35.225 44H35Z" fill="white"/>
<path d="M34.5 39C30.0429 39 26.5 35.28 26.5 30.6V27.6C26.5 27.24 26.7286 27 27.0714 27C27.4143 27 27.6429 27.24 27.6429 27.6V30.6C27.6429 34.56 30.7286 37.8 34.5 37.8C38.2714 37.8 41.3571 34.56 41.3571 30.6V27.6C41.3571 27.24 41.5857 27 41.9286 27C42.2714 27 42.5 27.24 42.5 27.6V30.6C42.5 35.28 38.9571 39 34.5 39Z" fill="white"/>
<path d="M42 27.6115H41.4231C40.5 27.6115 39.6923 26.8036 39.6923 25.8804V23.5724C37.2692 25.4188 34.0385 26.1112 31.0385 25.5342L29.7692 25.3034C29.5385 25.3034 29.3077 25.5342 29.3077 25.8804C29.3077 26.8036 28.5 27.6115 27.5769 27.6115H27C26.7692 27.6115 26.5385 27.3807 26.4231 27.1498L25.3846 22.0721C25.1538 21.0335 25.3846 19.9949 26.0769 19.0717C26.6538 18.1485 27.5769 17.5714 28.6154 17.456L36.4615 16.0712C37.6154 15.8404 38.7692 16.1866 39.5769 16.879C40.3846 17.5714 40.8462 18.3793 40.9615 19.4179C41.7692 19.5333 42.4615 19.9949 42.9231 20.5719C43.5 21.3797 43.8462 22.3029 43.6154 23.3416L42.4615 27.1498C42.4615 27.4961 42.2308 27.6115 42 27.6115ZM39.6923 22.4183C39.9231 22.4183 40.0385 22.4183 40.1538 22.5337C40.5 22.7646 40.8462 23.1108 40.8462 23.5724V25.8804C40.8462 26.2266 41.0769 26.4574 41.4231 26.4574H41.5385L42.5769 23.1108C42.6923 22.5337 42.5769 21.8413 42.1154 21.3797C41.6538 20.9181 41.0769 20.5719 40.5 20.5719C40.1538 20.5719 39.9231 20.3411 39.9231 19.9949C39.9231 19.0717 39.5769 18.3793 39 17.8022C38.4231 17.3406 37.6154 17.1098 36.8077 17.2252L28.8462 18.4947C28.1538 18.6101 27.4615 19.0717 27 19.6487C26.5385 20.2257 26.4231 21.0335 26.5385 21.7259L27.4615 26.342H27.5769C27.9231 26.342 28.1538 26.1112 28.1538 25.765C28.1538 24.8418 28.9615 24.034 29.8846 24.034L31.2692 24.2648C34.0385 24.8418 36.8077 24.1494 39 22.5337C39.2308 22.5337 39.4615 22.4183 39.6923 22.4183ZM48.9231 53H20.0769C19.7308 53 19.5 52.7692 19.5 52.423V47.3453C19.5 44.5756 21.2308 42.1522 23.8846 41.3444L30.3462 39.1517C30.6923 39.0363 30.9231 39.2671 31.0385 39.4979C31.1538 39.7287 30.9231 40.0749 30.6923 40.1903L24.2308 42.383C22.1538 43.0754 20.6538 45.0372 20.6538 47.3453V51.846H48.3462V47.3453C48.3462 45.1526 46.9615 43.0754 44.7692 42.383L38.3077 40.3057C37.9615 40.1903 37.8462 39.8441 37.9615 39.6133C38.0769 39.2671 38.4231 39.1517 38.6538 39.2671L45.1154 41.4598C47.7692 42.2676 49.5 44.691 49.5 47.4607V52.5384C49.5 52.7692 49.2692 53 48.9231 53Z" fill="white"/>
<rect x="25.5" y="28" width="2" height="3" fill="#DCDCDC"/>
<rect x="42.5" y="28" width="2" height="3" fill="#DCDCDC"/>
<path d="M48.9231 54H42C41.6538 54 41.4231 53.7652 41.4231 53.413V52.2391C41.4231 48.3652 44.3077 45.0783 48 44.7261C48.2308 44.7261 48.4615 44.8435 48.5769 44.9609C49.1538 46.0174 49.5 47.0739 49.5 48.2478V53.413C49.5 53.7652 49.2692 54 48.9231 54ZM42.5769 52.8261H48.3462V48.2478C48.3462 47.4261 48.1154 46.6043 47.7692 45.9C44.7692 46.487 42.5769 49.0696 42.5769 52.2391V52.8261ZM27 54H20.0769C19.7308 54 19.5 53.7652 19.5 53.413V48.2478C19.5 47.0739 19.8462 45.9 20.4231 44.9609C20.5385 44.7261 20.7692 44.6087 21 44.7261C24.8077 45.1957 27.5769 48.4826 27.5769 52.2391V53.413C27.5769 53.7652 27.3462 54 27 54ZM20.6538 52.8261H26.4231V52.2391C26.4231 49.0696 24.2308 46.487 21.2308 45.9C20.8846 46.6043 20.6538 47.4261 20.6538 48.2478V52.8261ZM44.3077 31.6957H42C41.6538 31.6957 41.4231 31.4609 41.4231 31.1087V27.587C41.4231 27.2348 41.6538 27 42 27H43.1538C44.0769 27 44.8846 27.8217 44.8846 28.7609V31.1087C44.8846 31.4609 44.6538 31.6957 44.3077 31.6957ZM42.5769 30.5217H43.7308V28.7609C43.7308 28.4087 43.5 28.1739 43.1538 28.1739H42.5769V30.5217Z" fill="white"/>
<path d="M41.4167 35H37.9167C37.5667 35 37.3333 34.7714 37.3333 34.4286C37.3333 34.0857 37.5667 33.8571 37.9167 33.8571H41.4167C43.05 33.8571 44.3333 32.6 44.3333 31V28.7143C44.3333 28.3714 44.5667 28.1429 44.9167 28.1429C45.2667 28.1429 45.5 28.3714 45.5 28.7143V31C45.5 33.1714 43.6333 35 41.4167 35ZM27.4167 31.5714H26.25C25.3167 31.5714 24.5 30.7714 24.5 29.8571V28.7143C24.5 27.8 25.3167 27 26.25 27H27.4167C27.7667 27 28 27.2286 28 27.5714V31C28 31.3429 27.7667 31.5714 27.4167 31.5714ZM26.25 28.1429C25.9 28.1429 25.6667 28.3714 25.6667 28.7143V29.8571C25.6667 30.2 25.9 30.4286 26.25 30.4286H26.8333V28.1429H26.25Z" fill="white"/>
<path d="M37.25 33H35.75H35L34.5 33.75V34.75L35.25 35H37.25C37.45 35 37.5 34.3333 37.5 34L37.25 33Z" fill="#DCDCDC"/>
<path d="M36.625 36H35.375C34.375 36 33.5 35.3 33.5 34.5C33.5 33.7 34.375 33 35.375 33H36.625C37.625 33 38.5 33.7 38.5 34.5C38.5 35.3 37.625 36 36.625 36ZM35.375 34C35 34 34.75 34.2 34.75 34.5C34.75 34.8 35 35 35.375 35H36.625C37 35 37.25 34.8 37.25 34.5C37.25 34.2 37 34 36.625 34H35.375Z" fill="white"/>
</svg>
