<svg width="71" height="70" viewBox="0 0 71 70" fill="none" xmlns="http://www.w3.org/2000/svg">
<path d="M48.7095 57.3826C47.3657 58.1585 42.152 53.9147 40.6532 54.3162C39.1545 54.7179 36.7611 61 35.2095 61C33.6579 61 31.2645 54.7179 29.7657 54.3162C28.267 53.9147 23.0532 58.1585 21.7095 57.3826C20.3657 56.607 21.4341 49.9699 20.3369 48.8727C19.2397 47.7755 12.6026 48.8437 11.8268 47.5C11.051 46.1563 15.2947 40.9424 14.8932 39.4438C14.4916 37.9449 8.20947 35.5517 8.20947 34C8.20947 32.4486 14.4916 30.0551 14.8932 28.5562C15.2947 27.0576 11.051 21.8437 11.8268 20.5C12.6026 19.1561 19.2397 20.2245 20.3369 19.1273C21.4341 18.0301 20.3657 11.3932 21.7095 10.6174C23.0532 9.84179 28.267 14.0853 29.7657 13.6838C31.2645 13.2821 33.6579 7 35.2095 7C36.7611 7 39.1545 13.2821 40.6532 13.6838C42.152 14.0853 47.3657 9.84179 48.7095 10.6174C50.0532 11.3932 48.9849 18.0301 50.082 19.1273C51.1792 20.2245 57.8163 19.1563 58.5922 20.5C59.368 21.8437 55.1242 27.0576 55.5258 28.5562C55.9274 30.0551 62.2095 32.4486 62.2095 34C62.2095 35.5517 55.9274 37.9449 55.5258 39.4438C55.1242 40.9424 59.368 46.1563 58.5922 47.5C57.8163 48.8439 51.1792 47.7755 50.082 48.8727C48.9849 49.9699 50.0532 56.607 48.7095 57.3826Z" fill="#8F1E1E"/>
<path d="M35.6666 54.0214C46.4361 54.0333 55.1762 45.3124 55.188 34.5429C55.1998 23.7734 46.479 15.0333 35.7095 15.0214C24.9399 15.0096 16.1999 23.7305 16.188 34.5C16.1762 45.2695 24.897 54.0096 35.6666 54.0214Z" fill="white"/>
<path d="M35.6776 49.0159C43.6857 49.0247 50.1847 42.54 50.1935 34.5319C50.2023 26.5237 43.7176 20.0247 35.7095 20.0159C27.7013 20.0071 21.2023 26.4918 21.1935 34.5C21.1847 42.5082 27.6695 49.0071 35.6776 49.0159Z" fill="#8F1E1E"/>
<path d="M27.0827 31.4456C27.0827 32.1045 27.2408 32.7172 27.5571 33.2838C27.8865 33.8372 28.3345 34.2786 28.9011 34.608C29.4677 34.9242 30.1067 35.0824 30.8182 35.0824C31.5298 35.0824 32.1622 34.9242 32.7157 34.608C33.2822 34.2786 33.7302 33.8372 34.0597 33.2838C34.3891 32.7172 34.5538 32.1045 34.5538 31.4456C34.5538 30.7605 34.3891 30.1478 34.0597 29.6075C33.7302 29.0541 33.2822 28.6127 32.7157 28.2833C32.1622 27.9539 31.5298 27.7892 30.8182 27.7892C30.1067 27.7892 29.4677 27.9539 28.9011 28.2833C28.3345 28.6127 27.8865 29.0541 27.5571 29.6075C27.2408 30.1478 27.0827 30.7605 27.0827 31.4456ZM29.5335 31.4259C29.5335 31.1887 29.5862 30.9713 29.6917 30.7736C29.8102 30.576 29.9618 30.4179 30.1462 30.2993C30.3439 30.1807 30.5613 30.1214 30.7985 30.1214C31.062 30.1214 31.286 30.1807 31.4705 30.2993C31.6681 30.4179 31.8197 30.576 31.9251 30.7736C32.0305 30.9713 32.0832 31.1953 32.0832 31.4456C32.0832 31.6696 32.0305 31.8871 31.9251 32.0979C31.8197 32.2955 31.6681 32.4536 31.4705 32.5722C31.286 32.6908 31.062 32.7501 30.7985 32.7501C30.5613 32.7501 30.3439 32.6908 30.1462 32.5722C29.9618 32.4536 29.8102 32.2955 29.6917 32.0979C29.5862 31.8871 29.5335 31.6631 29.5335 31.4259ZM36.8662 38.7191C36.8662 39.3911 37.031 40.0038 37.3604 40.5572C37.6898 41.1106 38.1378 41.552 38.7044 41.8814C39.271 42.2108 39.9034 42.3755 40.6018 42.3755C41.3133 42.3755 41.9524 42.2108 42.519 41.8814C43.0855 41.552 43.527 41.1106 43.8432 40.5572C44.1726 40.0038 44.3373 39.3911 44.3373 38.7191C44.3373 38.0471 44.1726 37.4344 43.8432 36.8809C43.527 36.3275 43.0855 35.8861 42.519 35.5567C41.9524 35.2273 41.3133 35.0626 40.6018 35.0626C39.9034 35.0626 39.271 35.2273 38.7044 35.5567C38.1378 35.8861 37.6898 36.3275 37.3604 36.8809C37.031 37.4344 36.8662 38.0471 36.8662 38.7191ZM39.3368 38.7191C39.3368 38.4687 39.3895 38.2447 39.495 38.0471C39.6004 37.8494 39.7453 37.6913 39.9298 37.5727C40.1274 37.4541 40.3514 37.3948 40.6018 37.3948C40.8521 37.3948 41.0695 37.4541 41.254 37.5727C41.4517 37.6913 41.6032 37.856 41.7086 38.0668C41.8272 38.2645 41.8865 38.4819 41.8865 38.7191C41.8865 38.9431 41.8272 39.1605 41.7086 39.3713C41.6032 39.5689 41.4517 39.7271 41.254 39.8456C41.0695 39.9642 40.8521 40.0235 40.6018 40.0235C40.3514 40.0235 40.1274 39.9642 39.9298 39.8456C39.7453 39.7271 39.6004 39.5689 39.495 39.3713C39.3895 39.1605 39.3368 38.9431 39.3368 38.7191ZM39.4752 28.1647L28.8615 42H31.9448L42.5585 28.1647H39.4752Z" fill="white"/>
</svg>
