<svg width="71" height="70" viewBox="0 0 71 70" fill="none" xmlns="http://www.w3.org/2000/svg">
<path d="M35.5 14.6915C40.0321 14.7023 44.4263 16.2758 47.9625 19.1543H43.605C42.942 19.1543 42.3061 19.4217 41.8372 19.8978C41.3684 20.3739 41.105 21.0196 41.105 21.6928C41.105 22.3661 41.3684 23.0118 41.8372 23.4879C42.3061 23.9639 42.942 24.2314 43.605 24.2314H53.605C54.268 24.2314 54.9039 23.9639 55.3727 23.4879C55.8416 23.0118 56.105 22.3661 56.105 21.6928V11.5386C56.105 10.8653 55.8416 10.2196 55.3727 9.74353C54.9039 9.26746 54.268 9 53.605 9C52.9419 9 52.306 9.26746 51.8372 9.74353C51.3684 10.2196 51.105 10.8653 51.105 11.5386V15.2144C47.435 12.2153 43.004 10.3321 38.3243 9.78262C33.6445 9.23314 28.9072 10.0398 24.66 12.1093C20.4128 14.1789 16.8292 17.4268 14.3234 21.4775C11.8177 25.5283 10.4921 30.2164 10.5 35C10.5 35.6733 10.7634 36.319 11.2323 36.795C11.7011 37.2711 12.337 37.5386 13 37.5386C13.6631 37.5386 14.299 37.2711 14.7678 36.795C15.2366 36.319 15.5 35.6733 15.5 35C15.506 29.6157 17.615 24.4537 21.3645 20.6464C25.1139 16.8391 30.1975 14.6975 35.5 14.6915ZM58 32.4614C57.3369 32.4614 56.701 32.7289 56.2322 33.205C55.7634 33.681 55.5 34.3267 55.5 35C55.5066 38.8246 54.4477 42.5731 52.4455 45.8126C50.4433 49.0521 47.5795 51.6504 44.1849 53.3074C40.7902 54.9645 37.0032 55.6126 33.2612 55.177C29.5192 54.7414 25.9748 53.2398 23.0375 50.8457H27.3925C28.0556 50.8457 28.6914 50.5783 29.1603 50.1022C29.6291 49.6261 29.8925 48.9804 29.8925 48.3072C29.8925 47.6339 29.6291 46.9882 29.1603 46.5121C28.6914 46.0361 28.0556 45.7686 27.3925 45.7686H17.3925C16.7295 45.7686 16.0936 46.0361 15.6248 46.5121C15.1559 46.9882 14.8925 47.6339 14.8925 48.3072V58.4614C14.8925 59.1347 15.1559 59.7804 15.6248 60.2565C16.0936 60.7325 16.7295 61 17.3925 61C18.0556 61 18.6915 60.7325 19.1603 60.2565C19.6291 59.7804 19.8925 59.1347 19.8925 58.4614V54.7856C23.5628 57.7845 27.9939 59.6674 32.6737 60.2167C37.3534 60.7661 42.0907 59.9594 46.338 57.8899C50.5853 55.8205 54.1691 52.5728 56.6752 48.5222C59.1813 44.4716 60.5073 39.7836 60.5 35C60.5 34.3267 60.2366 33.681 59.7677 33.205C59.2989 32.7289 58.663 32.4614 58 32.4614Z" fill="#8F1E1E"/>
</svg>
