<svg width="71" height="70" viewBox="0 0 71 70" fill="none" xmlns="http://www.w3.org/2000/svg">
<path d="M63.3436 44.4142L46.2687 7.94397C46.1366 7.66159 45.9275 7.4229 45.6659 7.25576C45.4043 7.08862 45.101 6.99992 44.7913 7H34.5L46.4211 13.0096C47.2368 13.4174 47.9229 14.0475 48.4016 14.8283C48.8804 15.6092 49.1326 16.5096 49.1297 17.4276V53L62.5641 46.6062C62.7581 46.5139 62.9321 46.384 63.0762 46.2239C63.2204 46.0638 63.3318 45.8766 63.4042 45.673C63.4766 45.4695 63.5085 45.2535 63.4981 45.0376C63.4877 44.8216 63.4352 44.6098 63.3436 44.4142Z" fill="#DCDCDC"/>
<path d="M26.5 22C27.6046 22 28.5 21.1046 28.5 20C28.5 18.8954 27.6046 18 26.5 18C25.3954 18 24.5 18.8954 24.5 20C24.5 21.1046 25.3954 22 26.5 22Z" fill="#850013"/>
<path d="M44.5999 15.9232L27.2285 7.1733C27.0023 7.05933 26.7529 7 26.5 7C26.2471 7 25.9977 7.05933 25.7715 7.1733L8.40006 15.9232C8.12952 16.0595 7.90201 16.2691 7.74304 16.5283C7.58407 16.7876 7.49991 17.0863 7.5 17.391V61.3594C7.5 61.7945 7.67158 62.2118 7.977 62.5195C8.28241 62.8271 8.69665 63 9.12857 63H43.8714C44.3034 63 44.7176 62.8271 45.023 62.5195C45.3284 62.2118 45.5 61.7945 45.5 61.3594V17.391C45.5001 17.0863 45.4159 16.7876 45.257 16.5283C45.098 16.2691 44.8705 16.0595 44.5999 15.9232ZM27.9017 52.1512V54.0029C27.9017 54.2204 27.8159 54.4291 27.6632 54.5829C27.5105 54.7368 27.3033 54.8232 27.0874 54.8232H25.5782C25.3623 54.8232 25.1551 54.7368 25.0024 54.5829C24.8497 54.4291 24.7639 54.2204 24.7639 54.0029V52.3317C23.5013 52.1851 22.2559 51.7585 21.4395 51.1712C21.2953 51.0672 21.1886 50.9187 21.1357 50.7482C21.0828 50.5777 21.0865 50.3944 21.1463 50.2262L21.7229 48.6097C21.7646 48.4924 21.8323 48.3862 21.9208 48.2992C22.0093 48.2123 22.1163 48.1467 22.2338 48.1076C22.3512 48.0685 22.4759 48.0568 22.5984 48.0735C22.721 48.0902 22.8381 48.1348 22.941 48.2039C23.8346 48.7856 24.8738 49.0997 25.9376 49.1095C27.1558 49.1095 27.9744 48.4883 27.9744 47.564C27.9744 46.8356 27.5998 46.198 25.7747 45.4531C23.5729 44.5781 21.3135 43.3138 21.3135 40.5171C21.3135 38.3121 22.7109 36.5884 24.9311 35.9715V34.1887C24.9311 33.9711 25.0169 33.7625 25.1696 33.6086C25.3223 33.4548 25.5295 33.3684 25.7454 33.3684H27.2307C27.4466 33.3684 27.6538 33.4548 27.8065 33.6086C27.9592 33.7625 28.045 33.9711 28.045 34.1887V35.7659C29.002 35.8704 29.9267 36.1759 30.7593 36.6627C30.9253 36.7604 31.0516 36.9142 31.1156 37.0969C31.1796 37.2796 31.1772 37.4792 31.1089 37.6602L30.5106 39.2538C30.4689 39.3647 30.4038 39.4652 30.3198 39.5483C30.2357 39.6314 30.1348 39.6952 30.024 39.7352C29.9131 39.7753 29.795 39.7906 29.6777 39.7802C29.5604 39.7698 29.4468 39.7338 29.3446 39.6749C28.5548 39.1995 27.6501 38.9531 26.7302 38.9629C25.1287 38.9629 25.005 39.9232 25.005 40.2174C25.005 40.8846 25.3611 41.3308 27.4728 42.2113C29.4336 43.0163 31.6886 44.3342 31.6886 47.3858C31.6865 49.6651 30.1914 51.5081 27.9017 52.1512ZM26.5 25.5941C25.4263 25.5941 24.3768 25.2733 23.484 24.6724C22.5913 24.0715 21.8955 23.2174 21.4847 22.2182C21.0738 21.2189 20.9663 20.1193 21.1757 19.0585C21.3852 17.9977 21.9022 17.0232 22.6614 16.2584C23.4206 15.4936 24.3879 14.9728 25.4409 14.7618C26.494 14.5507 27.5855 14.659 28.5774 15.073C29.5694 15.4869 30.4172 16.1878 31.0137 17.0871C31.6102 17.9865 31.9286 19.0438 31.9286 20.1254C31.9268 21.5752 31.3544 22.9652 30.3367 23.9904C29.319 25.0156 27.9392 25.5923 26.5 25.5941Z" fill="#8F1E1E"/>
</svg>
