<svg width="71" height="70" viewBox="0 0 71 70" fill="none" xmlns="http://www.w3.org/2000/svg">
<path d="M33.1834 62.4968C33.6412 62.8322 34.1838 63 34.7095 63C35.2351 63 35.7777 62.8322 36.2356 62.4968L39.9151 59.7963C48.8681 53.2046 54.2095 42.6881 54.2095 31.6516V20.2293C54.2095 19.2062 53.5821 18.2668 52.6156 17.8979L35.659 11.1887C35.0486 10.9371 34.3703 10.9371 33.7599 11.1887L16.8034 17.8979C15.8369 18.2668 15.2095 19.2062 15.2095 20.2293V31.6516C15.2095 42.6881 20.5508 53.2046 29.5038 59.7963L33.1834 62.4968Z" fill="#8F1E1E"/>
<path d="M46.2095 28L32.4595 42L26.2095 35.6364" stroke="white" stroke-width="3" stroke-linecap="round" stroke-linejoin="round"/>
<path d="M46.2095 28L32.4595 42L26.2095 35.6364" stroke="white" stroke-width="3" stroke-linecap="round" stroke-linejoin="round"/>
<path d="M15.2095 15.4856V16.3023C15.2095 17.1172 16.0306 17.6758 16.7885 17.3765L34.2853 10.4675C34.5578 10.3599 34.8611 10.3599 35.1336 10.4675L52.6304 17.3765C53.3883 17.6758 54.2095 17.1172 54.2095 16.3023V15.4856C54.2095 15.0115 53.9197 14.5856 53.4787 14.4115L35.1336 7.16749C34.8611 7.05987 34.5578 7.05987 34.2853 7.16749L15.9402 14.4115C15.4992 14.5856 15.2095 15.0115 15.2095 15.4856Z" fill="#DCDCDC"/>
</svg>
