<svg width="71" height="70" viewBox="0 0 71 70" fill="none" xmlns="http://www.w3.org/2000/svg">
<path d="M43.5 10H30C28.067 10 26.5 11.567 26.5 13.5V21.3636V25H43.5V10Z" fill="#8F1E1E"/>
<path d="M60 10H46.5V25H63.5V13.5C63.5 11.567 61.933 10 60 10Z" fill="black"/>
<path d="M60 10H46.5V25H63.5V13.5C63.5 11.567 61.933 10 60 10Z" fill="#DCDCDC"/>
<path d="M43.5 28H26.5V43H43.5V28Z" fill="#8F1E1E"/>
<path d="M46.5 43H50.2007H63.5V28H46.5V43Z" fill="#DCDCDC"/>
<path d="M24.5 26.6782V23H14.4653L7.5 34.3793V43H24.5V26.6782ZM22.0208 34.954C22.0208 35.6437 21.4306 36.2184 20.7222 36.2184H11.5139C11.0417 36.2184 10.5694 35.9885 10.4514 35.6437C10.2153 35.2989 10.2153 34.7241 10.4514 34.3793L15.4097 26.1034C15.6458 25.7586 16.1181 25.5287 16.4722 25.5287H20.7222C21.4306 25.5287 22.0208 26.1034 22.0208 26.7931V34.954Z" fill="#8F1E1E"/>
<path d="M54 61C56.4853 61 58.5 58.7614 58.5 56C58.5 53.2386 56.4853 51 54 51C51.5147 51 49.5 53.2386 49.5 56C49.5 58.7614 51.5147 61 54 61Z" fill="#8F1E1E"/>
<path d="M7.5 46V52H9.71206C10.9927 49.7959 13.2048 48.3265 15.8825 48.3265C18.4439 48.3265 20.7723 49.7959 22.053 52H47.6663C48.947 49.7959 51.159 48.3265 53.8368 48.3265C56.3981 48.3265 58.7266 49.7959 60.0073 52H63.5V46H49.4127H7.5Z" fill="#8F1E1E"/>
<path d="M16 50C13.525 50 11.5 52.3171 11.5 55C11.5 57.6829 13.525 60 16 60C18.475 60 20.5 57.6829 20.5 55C20.5 52.3171 18.475 50 16 50Z" fill="#8F1E1E"/>
</svg>
